G04*
G04 #@! TF.GenerationSoftware,Altium Limited,Altium Designer,21.9.2 (33)*
G04*
G04 Layer_Color=65535*
%FSLAX25Y25*%
%MOIN*%
G70*
G04*
G04 #@! TF.SameCoordinates,2BD51A12-542F-4E7F-AF7E-1702C203C590*
G04*
G04*
G04 #@! TF.FilePolarity,Positive*
G04*
G01*
G75*
%ADD10C,0.00787*%
%ADD11C,0.02756*%
%ADD12C,0.03000*%
%ADD13C,0.01575*%
%ADD14C,0.01968*%
%ADD15C,0.00500*%
%ADD16C,0.00394*%
%ADD17C,0.01000*%
D10*
X254593Y242799D02*
G03*
X254593Y242799I-394J0D01*
G01*
X160104Y251100D02*
G03*
X160104Y251100I-7604J0D01*
G01*
X191611D02*
G03*
X191611Y251100I-7604J0D01*
G01*
X232328Y54800D02*
G03*
X232328Y54800I-278J0D01*
G01*
X116652Y40165D02*
G03*
X116652Y40165I-1245J0D01*
G01*
X267269Y66700D02*
G03*
X267269Y66700I-1969J0D01*
G01*
X33330Y196807D02*
X36480D01*
X34882Y195232D02*
Y198382D01*
X14016Y196807D02*
X17559D01*
X14016D02*
Y210193D01*
X17559Y196807D02*
X31732D01*
X34882Y199957D01*
Y207437D01*
X32126Y210193D02*
X34882Y207437D01*
X14016Y210193D02*
X32126D01*
X7480Y251378D02*
X12205D01*
X7480Y227953D02*
Y251378D01*
Y227953D02*
X35433D01*
X43701Y236221D01*
Y251378D01*
X40354D02*
X43701D01*
X12205D02*
X40354D01*
X224562Y244969D02*
Y253631D01*
X219752Y244953D02*
Y253614D01*
X248148Y62386D02*
Y71047D01*
X243338Y62369D02*
Y71031D01*
X257587Y234172D02*
X261917D01*
X257587Y232597D02*
Y240077D01*
Y232597D02*
X262311D01*
Y240077D01*
X255118Y208780D02*
X257480D01*
X258661Y207599D01*
Y205237D02*
Y207599D01*
X237402Y187521D02*
Y191064D01*
Y187521D02*
X240945D01*
X237326Y208879D02*
X240870D01*
X237326Y205336D02*
Y208879D01*
X255118Y187521D02*
X258661D01*
Y191064D01*
X235115Y106879D02*
Y164359D01*
X174485Y106879D02*
X235115D01*
X174485D02*
Y166721D01*
X235115D01*
Y164359D02*
Y166721D01*
X86933Y159520D02*
Y163119D01*
X161933D01*
Y159520D02*
Y163119D01*
X159866Y85898D02*
Y89442D01*
X149630Y85898D02*
X159866D01*
X88606D02*
X99236D01*
X88606D02*
Y89442D01*
X51318Y128270D02*
Y148742D01*
X33208Y128664D02*
Y149136D01*
X29418Y128270D02*
Y148742D01*
X11308Y128664D02*
Y149136D01*
X146595Y267635D02*
X158405D01*
X146500Y234563D02*
X158311D01*
X162736Y239289D02*
Y262911D01*
X142264Y239289D02*
Y262911D01*
X48000Y221000D02*
Y262000D01*
X54000Y268000D02*
X101000D01*
X54000Y216000D02*
X67000D01*
X77000D02*
X95000D01*
X106000Y257000D02*
Y264000D01*
X183062Y219169D02*
Y227831D01*
X178252Y219153D02*
Y227814D01*
X150162Y219069D02*
Y227731D01*
X145352Y219053D02*
Y227714D01*
X230315Y273622D02*
Y278740D01*
X262598D01*
Y273622D02*
Y278740D01*
X230315Y256299D02*
Y264567D01*
Y256299D02*
X233465D01*
X262598D02*
Y264567D01*
X259449Y256299D02*
X262598D01*
X178102Y267635D02*
X189913D01*
X178007Y234563D02*
X189818D01*
X194243Y239289D02*
Y262911D01*
X173771Y239289D02*
Y262911D01*
X145352Y166953D02*
Y175614D01*
X150162Y166969D02*
Y175631D01*
X141499Y201575D02*
X147798D01*
X141499Y198425D02*
Y201575D01*
Y191339D02*
X147798D01*
X141499D02*
Y194488D01*
X160630Y191339D02*
Y194488D01*
Y191339D02*
X166929D01*
X160630Y198425D02*
Y201575D01*
X166929D01*
X201886Y200452D02*
X210547D01*
X201869Y205262D02*
X210531D01*
X190369D02*
X199031D01*
X190386Y200452D02*
X199047D01*
X214931Y11700D02*
X218868Y13668D01*
Y9731D02*
Y13668D01*
X214931Y11700D02*
X218868Y9731D01*
X206269Y7763D02*
Y15637D01*
X227529Y7763D02*
Y15637D01*
X213036Y48512D02*
X231147D01*
X213036Y37488D02*
X231147D01*
X223979Y57162D02*
X230475D01*
X224175Y52411D02*
X230671D01*
X222450Y70243D02*
X235836D01*
X222450Y63157D02*
X235836D01*
X222249Y66737D02*
X224217Y67918D01*
Y65556D02*
Y67918D01*
X222249Y66737D02*
X224217Y65556D01*
X212800Y68312D02*
X221461D01*
X212800Y61225D02*
X221461D01*
X227252Y92369D02*
Y101031D01*
X232062Y92386D02*
Y101047D01*
X213048Y92386D02*
Y101047D01*
X208238Y92369D02*
Y101031D01*
X70479Y173953D02*
X79140D01*
X70495Y169143D02*
X79157D01*
X59043Y173953D02*
X67704D01*
X59059Y169143D02*
X67720D01*
X64753Y197648D02*
X73414D01*
X64769Y192838D02*
X73431D01*
X54269Y193138D02*
X62931D01*
X54253Y197948D02*
X62914D01*
X127769Y19638D02*
X136431D01*
X127753Y24448D02*
X136414D01*
X128793Y42133D02*
Y71267D01*
X115407Y42133D02*
Y71267D01*
X104669Y60138D02*
X113331D01*
X104653Y64948D02*
X113314D01*
X37313Y55310D02*
Y63972D01*
X42123Y55326D02*
Y63988D01*
X30382Y52648D02*
X46382D01*
Y30648D02*
Y52648D01*
X30382Y30648D02*
X46382D01*
X30382D02*
Y52648D01*
X87586Y40352D02*
X96247D01*
X87569Y45162D02*
X96231D01*
X98032Y27262D02*
X106693D01*
X98048Y22452D02*
X106709D01*
X87569Y27262D02*
X96231D01*
X87586Y22452D02*
X96247D01*
X64961Y45276D02*
X68504D01*
X64961Y41732D02*
Y45276D01*
X64977Y25483D02*
Y29026D01*
Y25483D02*
X68521D01*
X81119Y25548D02*
X84662D01*
Y29091D01*
Y41690D02*
Y45233D01*
X81119D02*
X84662D01*
X67838Y13169D02*
Y21831D01*
X72648Y13186D02*
Y21847D01*
X7070Y75588D02*
X15732D01*
X7087Y70778D02*
X15748D01*
X48711Y84646D02*
Y111417D01*
X5010Y84646D02*
X48711D01*
X5010D02*
Y111417D01*
X48711D01*
X18002Y108268D02*
X23120D01*
Y87402D02*
Y108268D01*
X18002Y87402D02*
X23120D01*
X11725Y115338D02*
Y123999D01*
X16535Y115354D02*
Y124016D01*
X7972Y166193D02*
X11122D01*
X9570Y164618D02*
Y167768D01*
X26893Y166193D02*
X30436D01*
Y152807D02*
Y166193D01*
X12720D02*
X26893D01*
X9570Y163043D02*
X12720Y166193D01*
X9570Y155563D02*
Y163043D01*
Y155563D02*
X12326Y152807D01*
X30436D01*
X18794Y171670D02*
X23913D01*
Y192536D01*
X18794D02*
X23913D01*
X5802Y195686D02*
X49503D01*
X5802Y168914D02*
Y195686D01*
Y168914D02*
X49503D01*
Y195686D01*
X57582Y86658D02*
Y116697D01*
X67818Y86658D02*
Y116697D01*
X242369Y14938D02*
X251031D01*
X242353Y19748D02*
X251014D01*
X239444Y39700D02*
X244562D01*
Y37732D02*
Y41668D01*
X239444D02*
X244562D01*
X239444Y37732D02*
Y41668D01*
X271994Y58432D02*
Y74968D01*
X261800Y15834D02*
Y19771D01*
Y27645D02*
Y31582D01*
X259832Y29613D02*
X263769D01*
X253926Y8354D02*
Y38669D01*
X269674Y8354D02*
Y38669D01*
D11*
X259252Y209174D02*
G03*
X259252Y209174I-197J0D01*
G01*
D12*
X28882Y54648D02*
G03*
X28882Y54648I-500J0D01*
G01*
D13*
X64173Y46457D02*
G03*
X64173Y46457I-394J0D01*
G01*
X147244Y6918D02*
X195276D01*
X147244Y72272D02*
X195276D01*
X147244D02*
X195276D01*
D14*
X144095Y73453D02*
G03*
X144095Y73453I-1969J0D01*
G01*
D15*
X254061Y233301D02*
Y239699D01*
X241739Y233301D02*
Y239699D01*
X52901Y100999D02*
Y99000D01*
X54400D01*
X53901Y100000D01*
Y100499D01*
X54400Y100999D01*
X55400D01*
X55900Y100499D01*
Y99500D01*
X55400Y99000D01*
X52901Y101999D02*
X54900D01*
X55900Y102999D01*
X54900Y103998D01*
X52901D01*
X53301Y131699D02*
X52801Y131200D01*
Y130200D01*
X53301Y129700D01*
X55300D01*
X55800Y130200D01*
Y131200D01*
X55300Y131699D01*
X54300D01*
Y130700D01*
X55800Y132699D02*
X52801D01*
X55800Y134698D01*
X52801D01*
Y135698D02*
X55800D01*
Y137198D01*
X55300Y137697D01*
X53301D01*
X52801Y137198D01*
Y135698D01*
X196099Y135700D02*
Y138699D01*
X194600Y137199D01*
X196599D01*
X197599Y138199D02*
X198099Y138699D01*
X199099D01*
X199598Y138199D01*
Y137699D01*
X199099Y137199D01*
X198599D01*
X199099D01*
X199598Y136700D01*
Y136200D01*
X199099Y135700D01*
X198099D01*
X197599Y136200D01*
X200598Y138199D02*
X201098Y138699D01*
X202098D01*
X202597Y138199D01*
Y137699D01*
X202098Y137199D01*
X201598D01*
X202098D01*
X202597Y136700D01*
Y136200D01*
X202098Y135700D01*
X201098D01*
X200598Y136200D01*
X203597Y135700D02*
Y138699D01*
X204597Y137699D01*
X205596Y138699D01*
Y135700D01*
X208595D02*
X206596D01*
X208595Y137699D01*
Y138199D01*
X208096Y138699D01*
X207096D01*
X206596Y138199D01*
X209595D02*
X210095Y138699D01*
X211095D01*
X211595Y138199D01*
Y136200D01*
X211095Y135700D01*
X210095D01*
X209595Y136200D01*
Y138199D01*
X214594D02*
X214094Y138699D01*
X213094D01*
X212594Y138199D01*
Y137699D01*
X213094Y137199D01*
X214094D01*
X214594Y136700D01*
Y136200D01*
X214094Y135700D01*
X213094D01*
X212594Y136200D01*
X217593Y135700D02*
X215593D01*
X217593Y137699D01*
Y138199D01*
X217093Y138699D01*
X216093D01*
X215593Y138199D01*
X52801Y140100D02*
X55800D01*
Y141600D01*
X55300Y142099D01*
X54800D01*
X54300Y141600D01*
Y140100D01*
Y141600D01*
X53801Y142099D01*
X53301D01*
X52801Y141600D01*
Y140100D01*
X55800Y143099D02*
X53801D01*
X52801Y144099D01*
X53801Y145098D01*
X55800D01*
X54300D01*
Y143099D01*
X52801Y146098D02*
Y148097D01*
Y147098D01*
X55800D01*
X53401Y89699D02*
X52901Y89200D01*
Y88200D01*
X53401Y87700D01*
X53901D01*
X54400Y88200D01*
Y89200D01*
X54900Y89699D01*
X55400D01*
X55900Y89200D01*
Y88200D01*
X55400Y87700D01*
X52901Y90699D02*
Y91699D01*
Y91199D01*
X55900D01*
Y90699D01*
Y91699D01*
X53401Y95198D02*
X52901Y94698D01*
Y93698D01*
X53401Y93198D01*
X55400D01*
X55900Y93698D01*
Y94698D01*
X55400Y95198D01*
X54400D01*
Y94198D01*
X9399Y147700D02*
X6400D01*
Y146201D01*
X6900Y145701D01*
X7400D01*
X7899Y146201D01*
Y147700D01*
Y146201D01*
X8399Y145701D01*
X8899D01*
X9399Y146201D01*
Y147700D01*
X6400Y144701D02*
X8399D01*
X9399Y143701D01*
X8399Y142702D01*
X6400D01*
X7899D01*
Y144701D01*
X9399Y141702D02*
Y139703D01*
Y140702D01*
X6400D01*
X8899Y135301D02*
X9399Y135801D01*
Y136800D01*
X8899Y137300D01*
X6900D01*
X6400Y136800D01*
Y135801D01*
X6900Y135301D01*
X7899D01*
Y136300D01*
X6400Y134301D02*
X9399D01*
X6400Y132302D01*
X9399D01*
Y131302D02*
X6400D01*
Y129802D01*
X6900Y129303D01*
X8899D01*
X9399Y129802D01*
Y131302D01*
X53401Y109899D02*
X52901Y109399D01*
Y108400D01*
X53401Y107900D01*
X55400D01*
X55900Y108400D01*
Y109399D01*
X55400Y109899D01*
X54400D01*
Y108900D01*
X55900Y110899D02*
X52901D01*
X55900Y112898D01*
X52901D01*
Y113898D02*
X55900D01*
Y115398D01*
X55400Y115897D01*
X53401D01*
X52901Y115398D01*
Y113898D01*
X90001Y167499D02*
X88001D01*
Y164500D01*
X90001D01*
X88001Y166000D02*
X89001D01*
X93000Y167000D02*
X92500Y167499D01*
X91500D01*
X91000Y167000D01*
Y166500D01*
X91500Y166000D01*
X92500D01*
X93000Y165500D01*
Y165000D01*
X92500Y164500D01*
X91500D01*
X91000Y165000D01*
X93999Y164500D02*
Y167499D01*
X95499D01*
X95999Y167000D01*
Y166000D01*
X95499Y165500D01*
X93999D01*
X227801Y90800D02*
X227301Y91299D01*
X226301D01*
X225801Y90800D01*
Y88800D01*
X226301Y88301D01*
X227301D01*
X227801Y88800D01*
X230800Y88301D02*
X228800D01*
X230800Y90300D01*
Y90800D01*
X230300Y91299D01*
X229300D01*
X228800Y90800D01*
X231799Y91299D02*
X233799D01*
Y90800D01*
X231799Y88800D01*
Y88301D01*
X208401Y90800D02*
X207901Y91299D01*
X206901D01*
X206401Y90800D01*
Y88800D01*
X206901Y88301D01*
X207901D01*
X208401Y88800D01*
X211400Y88301D02*
X209400D01*
X211400Y90300D01*
Y90800D01*
X210900Y91299D01*
X209900D01*
X209400Y90800D01*
X214399Y91299D02*
X213399Y90800D01*
X212399Y89800D01*
Y88800D01*
X212899Y88301D01*
X213899D01*
X214399Y88800D01*
Y89300D01*
X213899Y89800D01*
X212399D01*
X81651Y117499D02*
X84649D01*
Y116000D01*
X84150Y115500D01*
X83150D01*
X82650Y116000D01*
Y117499D01*
Y116499D02*
X81651Y115500D01*
X84150Y114500D02*
X84649Y114000D01*
Y113001D01*
X84150Y112501D01*
X83650D01*
X83150Y113001D01*
X82650Y112501D01*
X82150D01*
X81651Y113001D01*
Y114000D01*
X82150Y114500D01*
X82650D01*
X83150Y114000D01*
X83650Y114500D01*
X84150D01*
X83150Y114000D02*
Y113001D01*
X67901Y138001D02*
Y140999D01*
X69400D01*
X69900Y140500D01*
Y139500D01*
X69400Y139000D01*
X67901D01*
X68901D02*
X69900Y138001D01*
X70900Y140999D02*
X72899D01*
Y140500D01*
X70900Y138500D01*
Y138001D01*
X235700Y44749D02*
X236199Y45249D01*
Y46249D01*
X235700Y46749D01*
X233700D01*
X233201Y46249D01*
Y45249D01*
X233700Y44749D01*
X233201Y43750D02*
Y42750D01*
Y43250D01*
X236199D01*
X235700Y43750D01*
X236199Y39251D02*
Y41251D01*
X234700D01*
X235200Y40251D01*
Y39751D01*
X234700Y39251D01*
X233700D01*
X233201Y39751D01*
Y40751D01*
X233700Y41251D01*
X113501Y205901D02*
Y208899D01*
X115000D01*
X115500Y208400D01*
Y207400D01*
X115000Y206900D01*
X113501D01*
X114500D02*
X115500Y205901D01*
X117999D02*
Y208899D01*
X116500Y207400D01*
X118499D01*
X119301Y187400D02*
Y190400D01*
X120800D01*
X121300Y189900D01*
Y188900D01*
X120800Y188400D01*
X119301D01*
X120300D02*
X121300Y187400D01*
X122300Y189900D02*
X122800Y190400D01*
X123799D01*
X124299Y189900D01*
Y189400D01*
X123799Y188900D01*
X123300D01*
X123799D01*
X124299Y188400D01*
Y187900D01*
X123799Y187400D01*
X122800D01*
X122300Y187900D01*
X44101Y199800D02*
Y197300D01*
X44601Y196800D01*
X45600D01*
X46100Y197300D01*
Y199800D01*
X49099D02*
X47100D01*
Y198300D01*
X48099Y198800D01*
X48599D01*
X49099Y198300D01*
Y197300D01*
X48599Y196800D01*
X47600D01*
X47100Y197300D01*
X44001Y115600D02*
Y113100D01*
X44500Y112601D01*
X45500D01*
X46000Y113100D01*
Y115600D01*
X47000Y112601D02*
X47999D01*
X47499D01*
Y115600D01*
X47000Y115100D01*
X229801Y198599D02*
X232800D01*
Y197099D01*
X232300Y196599D01*
X231300D01*
X230800Y197099D01*
Y198599D01*
Y197599D02*
X229801Y196599D01*
Y193600D02*
Y195600D01*
X231800Y193600D01*
X232300D01*
X232800Y194100D01*
Y195100D01*
X232300Y195600D01*
Y192601D02*
X232800Y192101D01*
Y191101D01*
X232300Y190601D01*
X230300D01*
X229801Y191101D01*
Y192101D01*
X230300Y192601D01*
X232300D01*
X213051Y219601D02*
Y222600D01*
X214551D01*
X215051Y222100D01*
Y221100D01*
X214551Y220600D01*
X213051D01*
X214051D02*
X215051Y219601D01*
X216050D02*
X217050D01*
X216550D01*
Y222600D01*
X216050Y222100D01*
X218549Y220100D02*
X219049Y219601D01*
X220049D01*
X220549Y220100D01*
Y222100D01*
X220049Y222600D01*
X219049D01*
X218549Y222100D01*
Y221600D01*
X219049Y221100D01*
X220549D01*
X217451Y212200D02*
Y215199D01*
X218951D01*
X219451Y214700D01*
Y213700D01*
X218951Y213200D01*
X217451D01*
X218451D02*
X219451Y212200D01*
X220450D02*
X221450D01*
X220950D01*
Y215199D01*
X220450Y214700D01*
X222949D02*
X223449Y215199D01*
X224449D01*
X224949Y214700D01*
Y214200D01*
X224449Y213700D01*
X224949Y213200D01*
Y212700D01*
X224449Y212200D01*
X223449D01*
X222949Y212700D01*
Y213200D01*
X223449Y213700D01*
X222949Y214200D01*
Y214700D01*
X223449Y213700D02*
X224449D01*
X224851Y219601D02*
Y222600D01*
X226351D01*
X226851Y222100D01*
Y221100D01*
X226351Y220600D01*
X224851D01*
X225851D02*
X226851Y219601D01*
X227850D02*
X228850D01*
X228350D01*
Y222600D01*
X227850Y222100D01*
X230349Y222600D02*
X232349D01*
Y222100D01*
X230349Y220100D01*
Y219601D01*
X175401Y197301D02*
Y200300D01*
X176901D01*
X177401Y199800D01*
Y198800D01*
X176901Y198300D01*
X175401D01*
X176401D02*
X177401Y197301D01*
X180400D02*
X178400D01*
X180400Y199300D01*
Y199800D01*
X179900Y200300D01*
X178900D01*
X178400Y199800D01*
X182899Y197301D02*
Y200300D01*
X181399Y198800D01*
X183399D01*
X165101Y186099D02*
X168099D01*
Y184599D01*
X167600Y184099D01*
X166600D01*
X166100Y184599D01*
Y186099D01*
Y185099D02*
X165101Y184099D01*
Y181100D02*
Y183100D01*
X167100Y181100D01*
X167600D01*
X168099Y181600D01*
Y182600D01*
X167600Y183100D01*
X165101Y180101D02*
Y179101D01*
Y179601D01*
X168099D01*
X167600Y180101D01*
X197301Y190951D02*
Y193949D01*
X198801D01*
X199301Y193450D01*
Y192450D01*
X198801Y191950D01*
X197301D01*
X198301D02*
X199301Y190951D01*
X202300D02*
X200300D01*
X202300Y192950D01*
Y193450D01*
X201800Y193949D01*
X200800D01*
X200300Y193450D01*
X203299D02*
X203799Y193949D01*
X204799D01*
X205299Y193450D01*
Y192950D01*
X204799Y192450D01*
X204299D01*
X204799D01*
X205299Y191950D01*
Y191450D01*
X204799Y190951D01*
X203799D01*
X203299Y191450D01*
X81501Y156249D02*
X84500D01*
Y154749D01*
X84000Y154249D01*
X83000D01*
X82500Y154749D01*
Y156249D01*
Y155249D02*
X81501Y154249D01*
Y153250D02*
Y152250D01*
Y152750D01*
X84500D01*
X84000Y153250D01*
X84500Y148751D02*
X84000Y149751D01*
X83000Y150751D01*
X82000D01*
X81501Y150251D01*
Y149251D01*
X82000Y148751D01*
X82500D01*
X83000Y149251D01*
Y150751D01*
X216551Y183701D02*
Y186699D01*
X218051D01*
X218551Y186200D01*
Y185200D01*
X218051Y184700D01*
X216551D01*
X217551D02*
X218551Y183701D01*
X221550D02*
X219550D01*
X221550Y185700D01*
Y186200D01*
X221050Y186699D01*
X220050D01*
X219550Y186200D01*
X224549Y183701D02*
X222549D01*
X224549Y185700D01*
Y186200D01*
X224049Y186699D01*
X223049D01*
X222549Y186200D01*
X202551Y58100D02*
Y61099D01*
X204051D01*
X204551Y60600D01*
Y59600D01*
X204051Y59100D01*
X202551D01*
X203551D02*
X204551Y58100D01*
X205550D02*
X206550D01*
X206050D01*
Y61099D01*
X205550Y60600D01*
X210049Y61099D02*
X208049D01*
Y59600D01*
X209049Y60100D01*
X209549D01*
X210049Y59600D01*
Y58600D01*
X209549Y58100D01*
X208549D01*
X208049Y58600D01*
X213751Y31001D02*
Y33999D01*
X215251D01*
X215751Y33500D01*
Y32500D01*
X215251Y32000D01*
X213751D01*
X214751D02*
X215751Y31001D01*
X216750D02*
X217750D01*
X217250D01*
Y33999D01*
X216750Y33500D01*
X220749Y31001D02*
Y33999D01*
X219249Y32500D01*
X221249D01*
X166451Y96500D02*
Y99499D01*
X167951D01*
X168451Y99000D01*
Y98000D01*
X167951Y97500D01*
X166451D01*
X167451D02*
X168451Y96500D01*
X169450D02*
X170450D01*
X169950D01*
Y99499D01*
X169450Y99000D01*
X171949D02*
X172449Y99499D01*
X173449D01*
X173949Y99000D01*
Y98500D01*
X173449Y98000D01*
X172949D01*
X173449D01*
X173949Y97500D01*
Y97000D01*
X173449Y96500D01*
X172449D01*
X171949Y97000D01*
X177451Y96500D02*
Y99499D01*
X178951D01*
X179451Y99000D01*
Y98000D01*
X178951Y97500D01*
X177451D01*
X178451D02*
X179451Y96500D01*
X180450D02*
X181450D01*
X180950D01*
Y99499D01*
X180450Y99000D01*
X184949Y96500D02*
X182949D01*
X184949Y98500D01*
Y99000D01*
X184449Y99499D01*
X183449D01*
X182949Y99000D01*
X230751Y26601D02*
Y29599D01*
X232251D01*
X232750Y29100D01*
Y28100D01*
X232251Y27600D01*
X230751D01*
X231751D02*
X232750Y26601D01*
X233750D02*
X234750D01*
X234250D01*
Y29599D01*
X233750Y29100D01*
X236249Y26601D02*
X237249D01*
X236749D01*
Y29599D01*
X236249Y29100D01*
X48900Y26549D02*
X51899D01*
Y25049D01*
X51400Y24549D01*
X50400D01*
X49900Y25049D01*
Y26549D01*
Y25549D02*
X48900Y24549D01*
Y23550D02*
Y22550D01*
Y23050D01*
X51899D01*
X51400Y23550D01*
Y21051D02*
X51899Y20551D01*
Y19551D01*
X51400Y19051D01*
X49400D01*
X48900Y19551D01*
Y20551D01*
X49400Y21051D01*
X51400D01*
X20301Y52500D02*
Y55500D01*
X21800D01*
X22300Y55000D01*
Y54000D01*
X21800Y53500D01*
X20301D01*
X21301D02*
X22300Y52500D01*
X23300Y53000D02*
X23800Y52500D01*
X24799D01*
X25299Y53000D01*
Y55000D01*
X24799Y55500D01*
X23800D01*
X23300Y55000D01*
Y54500D01*
X23800Y54000D01*
X25299D01*
X90801Y205750D02*
Y208750D01*
X92300D01*
X92800Y208250D01*
Y207250D01*
X92300Y206750D01*
X90801D01*
X91800D02*
X92800Y205750D01*
X95799Y208750D02*
X94800Y208250D01*
X93800Y207250D01*
Y206250D01*
X94300Y205750D01*
X95299D01*
X95799Y206250D01*
Y206750D01*
X95299Y207250D01*
X93800D01*
X86101Y187400D02*
Y190400D01*
X87600D01*
X88100Y189900D01*
Y188900D01*
X87600Y188400D01*
X86101D01*
X87100D02*
X88100Y187400D01*
X91099Y190400D02*
X89100D01*
Y188900D01*
X90100Y189400D01*
X90599D01*
X91099Y188900D01*
Y187900D01*
X90599Y187400D01*
X89600D01*
X89100Y187900D01*
X95500Y61399D02*
X98500D01*
Y59900D01*
X98000Y59400D01*
X97000D01*
X96500Y59900D01*
Y61399D01*
Y60400D02*
X95500Y59400D01*
Y56401D02*
Y58400D01*
X97500Y56401D01*
X98000D01*
X98500Y56901D01*
Y57900D01*
X98000Y58400D01*
X95500Y72999D02*
X98500D01*
Y71500D01*
X98000Y71000D01*
X97000D01*
X96500Y71500D01*
Y72999D01*
Y72000D02*
X95500Y71000D01*
Y70000D02*
Y69001D01*
Y69500D01*
X98500D01*
X98000Y70000D01*
X163300Y203250D02*
Y205250D01*
X162800Y205750D01*
X161801D01*
X161301Y205250D01*
Y203250D01*
X161801Y202750D01*
X162800D01*
X162301Y203750D02*
X163300Y202750D01*
X162800D02*
X163300Y203250D01*
X166299Y202750D02*
X164300D01*
X166299Y204750D01*
Y205250D01*
X165799Y205750D01*
X164800D01*
X164300Y205250D01*
X144100Y203200D02*
Y205200D01*
X143600Y205699D01*
X142601D01*
X142101Y205200D01*
Y203200D01*
X142601Y202700D01*
X143600D01*
X143100Y203700D02*
X144100Y202700D01*
X143600D02*
X144100Y203200D01*
X145100Y202700D02*
X146099D01*
X145599D01*
Y205699D01*
X145100Y205200D01*
X226901Y74900D02*
Y71900D01*
X228900D01*
X231899D02*
X229900D01*
X231899Y73900D01*
Y74400D01*
X231399Y74900D01*
X230400D01*
X229900Y74400D01*
X236450Y56699D02*
X233451D01*
Y54700D01*
Y53700D02*
Y52701D01*
Y53201D01*
X236450D01*
X235950Y53700D01*
X249099Y42099D02*
X246100D01*
Y40600D01*
X246600Y40100D01*
X248600D01*
X249099Y40600D01*
Y42099D01*
X246100Y37101D02*
Y39100D01*
X248100Y37101D01*
X248600D01*
X249099Y37601D01*
Y38600D01*
X248600Y39100D01*
X266899Y237799D02*
X263900D01*
Y236300D01*
X264400Y235800D01*
X266400D01*
X266899Y236300D01*
Y237799D01*
X263900Y234800D02*
Y233801D01*
Y234300D01*
X266899D01*
X266400Y234800D01*
X192801Y214900D02*
X192301Y215400D01*
X191301D01*
X190801Y214900D01*
Y212900D01*
X191301Y212401D01*
X192301D01*
X192801Y212900D01*
X195800Y212401D02*
X193800D01*
X195800Y214400D01*
Y214900D01*
X195300Y215400D01*
X194300D01*
X193800Y214900D01*
X198799Y215400D02*
X196799D01*
Y213900D01*
X197799Y214400D01*
X198299D01*
X198799Y213900D01*
Y212900D01*
X198299Y212401D01*
X197299D01*
X196799Y212900D01*
X204401Y214900D02*
X203901Y215400D01*
X202901D01*
X202401Y214900D01*
Y212900D01*
X202901Y212401D01*
X203901D01*
X204401Y212900D01*
X207400Y212401D02*
X205400D01*
X207400Y214400D01*
Y214900D01*
X206900Y215400D01*
X205900D01*
X205400Y214900D01*
X209899Y212401D02*
Y215400D01*
X208399Y213900D01*
X210399D01*
X244701Y29000D02*
X244201Y29500D01*
X243201D01*
X242701Y29000D01*
Y27000D01*
X243201Y26500D01*
X244201D01*
X244701Y27000D01*
X247700Y26500D02*
X245700D01*
X247700Y28500D01*
Y29000D01*
X247200Y29500D01*
X246200D01*
X245700Y29000D01*
X248699D02*
X249199Y29500D01*
X250199D01*
X250699Y29000D01*
Y28500D01*
X250199Y28000D01*
X249699D01*
X250199D01*
X250699Y27500D01*
Y27000D01*
X250199Y26500D01*
X249199D01*
X248699Y27000D01*
X146282Y231709D02*
X145782Y232208D01*
X144783D01*
X144283Y231709D01*
Y229709D01*
X144783Y229209D01*
X145782D01*
X146282Y229709D01*
X147282Y229209D02*
X148282D01*
X147782D01*
Y232208D01*
X147282Y231709D01*
X149781Y232208D02*
X151780D01*
Y231709D01*
X149781Y229709D01*
Y229209D01*
X243801Y75800D02*
X243301Y76300D01*
X242301D01*
X241801Y75800D01*
Y73800D01*
X242301Y73300D01*
X243301D01*
X243801Y73800D01*
X246800Y73300D02*
X244800D01*
X246800Y75300D01*
Y75800D01*
X246300Y76300D01*
X245300D01*
X244800Y75800D01*
X249799Y73300D02*
X247799D01*
X249799Y75300D01*
Y75800D01*
X249299Y76300D01*
X248299D01*
X247799Y75800D01*
X107800Y73800D02*
X107301Y74300D01*
X106301D01*
X105801Y73800D01*
Y71800D01*
X106301Y71301D01*
X107301D01*
X107800Y71800D01*
X110800Y71301D02*
X108800D01*
X110800Y73300D01*
Y73800D01*
X110300Y74300D01*
X109300D01*
X108800Y73800D01*
X111799Y71301D02*
X112799D01*
X112299D01*
Y74300D01*
X111799Y73800D01*
X72701Y183500D02*
X72201Y184000D01*
X71201D01*
X70701Y183500D01*
Y181500D01*
X71201Y181000D01*
X72201D01*
X72701Y181500D01*
X75700Y181000D02*
X73700D01*
X75700Y183000D01*
Y183500D01*
X75200Y184000D01*
X74200D01*
X73700Y183500D01*
X76699D02*
X77199Y184000D01*
X78199D01*
X78699Y183500D01*
Y181500D01*
X78199Y181000D01*
X77199D01*
X76699Y181500D01*
Y183500D01*
X61551D02*
X61051Y184000D01*
X60051D01*
X59551Y183500D01*
Y181500D01*
X60051Y181000D01*
X61051D01*
X61551Y181500D01*
X62550Y181000D02*
X63550D01*
X63050D01*
Y184000D01*
X62550Y183500D01*
X65049D02*
X65549Y184000D01*
X66549D01*
X67049Y183500D01*
Y183000D01*
X66549Y182500D01*
X67049Y182000D01*
Y181500D01*
X66549Y181000D01*
X65549D01*
X65049Y181500D01*
Y182000D01*
X65549Y182500D01*
X65049Y183000D01*
Y183500D01*
X65549Y182500D02*
X66549D01*
X179551Y231500D02*
X179051Y231999D01*
X178051D01*
X177551Y231500D01*
Y229500D01*
X178051Y229000D01*
X179051D01*
X179551Y229500D01*
X180550Y229000D02*
X181550D01*
X181050D01*
Y231999D01*
X180550Y231500D01*
X185049Y231999D02*
X184049Y231500D01*
X183049Y230500D01*
Y229500D01*
X183549Y229000D01*
X184549D01*
X185049Y229500D01*
Y230000D01*
X184549Y230500D01*
X183049D01*
X159100Y172849D02*
X159599Y173349D01*
Y174349D01*
X159100Y174849D01*
X157100D01*
X156600Y174349D01*
Y173349D01*
X157100Y172849D01*
X156600Y171850D02*
Y170850D01*
Y171350D01*
X159599D01*
X159100Y171850D01*
X157100Y169351D02*
X156600Y168851D01*
Y167851D01*
X157100Y167351D01*
X159100D01*
X159599Y167851D01*
Y168851D01*
X159100Y169351D01*
X158600D01*
X158100Y168851D01*
Y167351D01*
X220651Y257500D02*
X220151Y257999D01*
X219151D01*
X218651Y257500D01*
Y255500D01*
X219151Y255000D01*
X220151D01*
X220651Y255500D01*
X221650Y255000D02*
X222650D01*
X222150D01*
Y257999D01*
X221650Y257500D01*
X225649Y255000D02*
Y257999D01*
X224149Y256500D01*
X226149D01*
X260051Y43400D02*
X259551Y43900D01*
X258551D01*
X258051Y43400D01*
Y41400D01*
X258551Y40900D01*
X259551D01*
X260051Y41400D01*
X261050Y40900D02*
X262050D01*
X261550D01*
Y43900D01*
X261050Y43400D01*
X263549D02*
X264049Y43900D01*
X265049D01*
X265549Y43400D01*
Y42900D01*
X265049Y42400D01*
X264549D01*
X265049D01*
X265549Y41900D01*
Y41400D01*
X265049Y40900D01*
X264049D01*
X263549Y41400D01*
X141100Y23949D02*
X141600Y24449D01*
Y25449D01*
X141100Y25949D01*
X139100D01*
X138601Y25449D01*
Y24449D01*
X139100Y23949D01*
X138601Y22950D02*
Y21950D01*
Y22450D01*
X141600D01*
X141100Y22950D01*
X138601Y18451D02*
Y20451D01*
X140600Y18451D01*
X141100D01*
X141600Y18951D01*
Y19951D01*
X141100Y20451D01*
X16650Y213800D02*
X16151Y214300D01*
X15151D01*
X14651Y213800D01*
Y211800D01*
X15151Y211300D01*
X16151D01*
X16650Y211800D01*
X17650Y211300D02*
X18650D01*
X18150D01*
Y214300D01*
X17650Y213800D01*
X20149Y211300D02*
X21149D01*
X20649D01*
Y214300D01*
X20149Y213800D01*
X34100Y164449D02*
X34600Y164949D01*
Y165949D01*
X34100Y166449D01*
X32100D01*
X31600Y165949D01*
Y164949D01*
X32100Y164449D01*
X31600Y163450D02*
Y162450D01*
Y162950D01*
X34600D01*
X34100Y163450D01*
Y160951D02*
X34600Y160451D01*
Y159451D01*
X34100Y158951D01*
X32100D01*
X31600Y159451D01*
Y160451D01*
X32100Y160951D01*
X34100D01*
X58000Y207600D02*
X57500Y208100D01*
X56501D01*
X56001Y207600D01*
Y205600D01*
X56501Y205100D01*
X57500D01*
X58000Y205600D01*
X59000D02*
X59500Y205100D01*
X60499D01*
X60999Y205600D01*
Y207600D01*
X60499Y208100D01*
X59500D01*
X59000Y207600D01*
Y207100D01*
X59500Y206600D01*
X60999D01*
X67100Y207600D02*
X66600Y208100D01*
X65601D01*
X65101Y207600D01*
Y205600D01*
X65601Y205100D01*
X66600D01*
X67100Y205600D01*
X68100Y207600D02*
X68600Y208100D01*
X69599D01*
X70099Y207600D01*
Y207100D01*
X69599Y206600D01*
X70099Y206100D01*
Y205600D01*
X69599Y205100D01*
X68600D01*
X68100Y205600D01*
Y206100D01*
X68600Y206600D01*
X68100Y207100D01*
Y207600D01*
X68600Y206600D02*
X69599D01*
X70000Y11500D02*
X69500Y11999D01*
X68501D01*
X68001Y11500D01*
Y9500D01*
X68501Y9001D01*
X69500D01*
X70000Y9500D01*
X71000Y11999D02*
X72999D01*
Y11500D01*
X71000Y9500D01*
Y9001D01*
X100300Y43100D02*
X100800Y43600D01*
Y44599D01*
X100300Y45099D01*
X98300D01*
X97800Y44599D01*
Y43600D01*
X98300Y43100D01*
X100800Y40101D02*
X100300Y41100D01*
X99300Y42100D01*
X98300D01*
X97800Y41600D01*
Y40601D01*
X98300Y40101D01*
X98800D01*
X99300Y40601D01*
Y42100D01*
X91900Y16000D02*
X91400Y16499D01*
X90401D01*
X89901Y16000D01*
Y14000D01*
X90401Y13500D01*
X91400D01*
X91900Y14000D01*
X94899Y16499D02*
X92900D01*
Y15000D01*
X93900Y15500D01*
X94399D01*
X94899Y15000D01*
Y14000D01*
X94399Y13500D01*
X93400D01*
X92900Y14000D01*
X39500Y67550D02*
X39000Y68050D01*
X38001D01*
X37501Y67550D01*
Y65550D01*
X38001Y65051D01*
X39000D01*
X39500Y65550D01*
X41999Y65051D02*
Y68050D01*
X40500Y66550D01*
X42499D01*
X19300Y73900D02*
X19800Y74400D01*
Y75399D01*
X19300Y75899D01*
X17300D01*
X16801Y75399D01*
Y74400D01*
X17300Y73900D01*
X19300Y72900D02*
X19800Y72400D01*
Y71401D01*
X19300Y70901D01*
X18800D01*
X18300Y71401D01*
Y71900D01*
Y71401D01*
X17800Y70901D01*
X17300D01*
X16801Y71401D01*
Y72400D01*
X17300Y72900D01*
X26100Y120900D02*
X26599Y121400D01*
Y122399D01*
X26100Y122899D01*
X24100D01*
X23600Y122399D01*
Y121400D01*
X24100Y120900D01*
X23600Y117901D02*
Y119900D01*
X25600Y117901D01*
X26100D01*
X26599Y118401D01*
Y119400D01*
X26100Y119900D01*
X102500Y15900D02*
X102000Y16399D01*
X101000D01*
X100501Y15900D01*
Y13900D01*
X101000Y13400D01*
X102000D01*
X102500Y13900D01*
X103500Y13400D02*
X104499D01*
X103999D01*
Y16399D01*
X103500Y15900D01*
D16*
X86226Y194582D02*
X101974D01*
X86226Y204818D02*
X101974D01*
X223235Y224735D02*
Y240483D01*
X233471Y224735D02*
Y240483D01*
X221818Y224726D02*
Y240474D01*
X211582Y224726D02*
Y240474D01*
X70282Y144426D02*
Y160174D01*
X80518Y144426D02*
Y160174D01*
X62126Y137118D02*
X77874D01*
X62126Y126882D02*
X77874D01*
X70482Y107326D02*
Y123074D01*
X80718Y107326D02*
Y123074D01*
X80926Y186518D02*
X96674D01*
X80926Y176282D02*
X96674D01*
X108026Y194782D02*
X123774D01*
X108026Y205018D02*
X123774D01*
X113526Y176282D02*
X129274D01*
X113526Y186518D02*
X129274D01*
X147926Y177582D02*
X163674D01*
X147926Y187818D02*
X163674D01*
X174282Y179326D02*
Y195074D01*
X184518Y179326D02*
Y195074D01*
X193626Y190018D02*
X209374D01*
X193626Y179782D02*
X209374D01*
X213326Y211118D02*
X229074D01*
X213326Y200882D02*
X229074D01*
X213326Y189782D02*
X229074D01*
X213326Y200018D02*
X229074D01*
X213326Y182818D02*
X229074D01*
X213326Y172582D02*
X229074D01*
X239718Y9426D02*
Y25174D01*
X229482Y9426D02*
Y25174D01*
X209726Y19582D02*
X225474D01*
X209726Y29818D02*
X225474D01*
X186318Y78526D02*
Y94274D01*
X176082Y78526D02*
Y94274D01*
X175218Y78526D02*
Y94274D01*
X164982Y78526D02*
Y94274D01*
X31826Y28018D02*
X47574D01*
X31826Y17782D02*
X47574D01*
X27893Y35567D02*
Y51315D01*
X17657Y35567D02*
Y51315D01*
X78740Y53937D02*
X94488D01*
X78740Y64173D02*
X94488D01*
X78740Y65748D02*
X94488D01*
X78740Y75984D02*
X94488D01*
X200882Y40726D02*
Y56474D01*
X211118Y40726D02*
Y56474D01*
D17*
X12613Y244306D02*
X11826Y245093D01*
X10252D01*
X9465Y244306D01*
Y243519D01*
X10252Y242731D01*
X11826D01*
X12613Y241944D01*
Y241157D01*
X11826Y240370D01*
X10252D01*
X9465Y241157D01*
X14187Y245093D02*
Y240370D01*
X16549D01*
X17336Y241157D01*
Y244306D01*
X16549Y245093D01*
X14187D01*
X26782Y244306D02*
X25995Y245093D01*
X24420D01*
X23633Y244306D01*
Y241157D01*
X24420Y240370D01*
X25995D01*
X26782Y241157D01*
X28356Y240370D02*
Y243519D01*
X29930Y245093D01*
X31505Y243519D01*
Y240370D01*
Y242731D01*
X28356D01*
X33079Y240370D02*
Y245093D01*
X35440D01*
X36228Y244306D01*
Y242731D01*
X35440Y241944D01*
X33079D01*
X34653D02*
X36228Y240370D01*
X37802Y245093D02*
Y240370D01*
X40163D01*
X40950Y241157D01*
Y244306D01*
X40163Y245093D01*
X37802D01*
X215400Y154200D02*
Y157349D01*
X216974Y158923D01*
X218549Y157349D01*
Y154200D01*
Y156561D01*
X215400D01*
X220123Y154200D02*
Y158923D01*
X223271Y154200D01*
Y158923D01*
X224846D02*
X227994D01*
X226420D01*
Y154200D01*
X204542Y256283D02*
X199819D01*
Y253922D01*
X200606Y253135D01*
X201393D01*
X202180Y253922D01*
Y256283D01*
Y253922D01*
X202968Y253135D01*
X203755D01*
X204542Y253922D01*
Y256283D01*
Y249199D02*
Y250773D01*
X203755Y251561D01*
X200606D01*
X199819Y250773D01*
Y249199D01*
X200606Y248412D01*
X203755D01*
X204542Y249199D01*
Y244476D02*
Y246051D01*
X203755Y246838D01*
X200606D01*
X199819Y246051D01*
Y244476D01*
X200606Y243689D01*
X203755D01*
X204542Y244476D01*
Y242115D02*
Y238966D01*
Y240541D01*
X199819D01*
X136795Y238966D02*
X132072D01*
Y241328D01*
X132860Y242115D01*
X134434D01*
X135221Y241328D01*
Y238966D01*
Y240541D02*
X136795Y242115D01*
X132860Y246838D02*
X132072Y246051D01*
Y244476D01*
X132860Y243689D01*
X133647D01*
X134434Y244476D01*
Y246051D01*
X135221Y246838D01*
X136008D01*
X136795Y246051D01*
Y244476D01*
X136008Y243689D01*
X132072Y248412D02*
Y251561D01*
Y249986D01*
X136795D01*
M02*
