G04*
G04 #@! TF.GenerationSoftware,Altium Limited,Altium Designer,21.9.2 (33)*
G04*
G04 Layer_Color=8421504*
%FSLAX25Y25*%
%MOIN*%
G70*
G04*
G04 #@! TF.SameCoordinates,2BD51A12-542F-4E7F-AF7E-1702C203C590*
G04*
G04*
G04 #@! TF.FilePolarity,Positive*
G04*
G01*
G75*
%ADD18R,0.07087X0.08780*%
%ADD19R,0.04000X0.08900*%
%ADD20R,0.02323X0.04764*%
%ADD21R,0.04803X0.03819*%
%ADD22R,0.01181X0.03740*%
%ADD23R,0.03740X0.01181*%
%ADD24R,0.05906X0.03150*%
%ADD25R,0.03543X0.03543*%
%ADD26R,0.03543X0.05906*%
%ADD27R,0.05906X0.03543*%
%ADD28R,0.08900X0.04000*%
%ADD29R,0.03937X0.07087*%
%ADD30R,0.05118X0.05079*%
%ADD31R,0.05512X0.05079*%
%ADD32R,0.06614X0.03150*%
%ADD33R,0.05906X0.06299*%
%ADD34R,0.05906X0.06693*%
%ADD35R,0.06693X0.05906*%
%ADD36R,0.01575X0.05315*%
%ADD37R,0.03150X0.02362*%
%ADD38R,0.06299X0.05906*%
%ADD39R,0.03701X0.03701*%
%ADD40R,0.04291X0.06496*%
%ADD41R,0.01575X0.01968*%
%ADD42R,0.04528X0.04331*%
%ADD43R,0.02756X0.00906*%
%ADD44R,0.01772X0.05906*%
%ADD45R,0.04331X0.02362*%
%ADD46R,0.03150X0.01378*%
%ADD47R,0.01378X0.03150*%
%ADD48R,0.11024X0.05906*%
%ADD49R,0.24016X0.24803*%
%ADD50R,0.01772X0.02323*%
%ADD51R,0.04134X0.03937*%
%ADD52R,0.08661X0.04134*%
%ADD53R,0.13780X0.05906*%
%ADD54R,0.07087X0.03150*%
D18*
X30000Y203500D02*
D03*
X18504D02*
D03*
X14452Y159500D02*
D03*
X25948D02*
D03*
D19*
X227800Y249300D02*
D03*
X216600D02*
D03*
X251300Y66700D02*
D03*
X240100D02*
D03*
X99700Y199700D02*
D03*
X88500D02*
D03*
X64400Y132000D02*
D03*
X75600D02*
D03*
X186300Y223500D02*
D03*
X175100D02*
D03*
X153400Y223400D02*
D03*
X142200D02*
D03*
X83200Y181400D02*
D03*
X94400D02*
D03*
X121500Y199900D02*
D03*
X110300D02*
D03*
X127000Y181400D02*
D03*
X115800D02*
D03*
X142200Y171300D02*
D03*
X153400D02*
D03*
X161400Y182700D02*
D03*
X150200D02*
D03*
X195900Y184900D02*
D03*
X207100D02*
D03*
X215600Y206000D02*
D03*
X226800D02*
D03*
Y194900D02*
D03*
X215600D02*
D03*
Y177700D02*
D03*
X226800D02*
D03*
X223200Y24700D02*
D03*
X212000D02*
D03*
X224100Y96716D02*
D03*
X235300D02*
D03*
X216200Y96700D02*
D03*
X205000D02*
D03*
X34100Y22900D02*
D03*
X45300D02*
D03*
X34075Y59641D02*
D03*
X45275D02*
D03*
X92214Y59055D02*
D03*
X81014D02*
D03*
X92214Y70866D02*
D03*
X81014D02*
D03*
X64600Y17500D02*
D03*
X75800D02*
D03*
X8573Y119685D02*
D03*
X19773D02*
D03*
D20*
X251640Y241441D02*
D03*
X247900D02*
D03*
X244160D02*
D03*
Y231559D02*
D03*
X247900D02*
D03*
X251640D02*
D03*
D21*
X259949Y242597D02*
D03*
Y229683D02*
D03*
D22*
X253937Y207599D02*
D03*
X251969D02*
D03*
X250000D02*
D03*
X248031D02*
D03*
X246063D02*
D03*
X244094D02*
D03*
X242126D02*
D03*
X253937Y188702D02*
D03*
X251969D02*
D03*
X250000D02*
D03*
X248031D02*
D03*
X246063D02*
D03*
X244094D02*
D03*
X242126D02*
D03*
D23*
X238583Y204056D02*
D03*
Y202087D02*
D03*
Y200119D02*
D03*
Y198150D02*
D03*
Y196182D02*
D03*
Y194213D02*
D03*
Y192245D02*
D03*
X257480Y204056D02*
D03*
Y202087D02*
D03*
Y200119D02*
D03*
Y198150D02*
D03*
Y196182D02*
D03*
Y194213D02*
D03*
Y192245D02*
D03*
D24*
X234328Y161800D02*
D03*
Y156800D02*
D03*
Y151800D02*
D03*
Y146800D02*
D03*
Y141800D02*
D03*
Y136800D02*
D03*
Y131800D02*
D03*
Y126800D02*
D03*
Y121800D02*
D03*
Y116800D02*
D03*
Y111800D02*
D03*
X175272D02*
D03*
Y116800D02*
D03*
Y121800D02*
D03*
Y126800D02*
D03*
Y131800D02*
D03*
Y136800D02*
D03*
Y141800D02*
D03*
Y146800D02*
D03*
Y151800D02*
D03*
Y156800D02*
D03*
Y161800D02*
D03*
D25*
X114000Y133300D02*
D03*
X125024D02*
D03*
Y122276D02*
D03*
X114000D02*
D03*
X119512Y133300D02*
D03*
X114000Y127788D02*
D03*
X119512Y122276D02*
D03*
X125024Y127788D02*
D03*
X119512D02*
D03*
D26*
X146933Y87276D02*
D03*
X141933D02*
D03*
X136933D02*
D03*
X131933D02*
D03*
X101933D02*
D03*
X106933D02*
D03*
X111933D02*
D03*
X116933D02*
D03*
X126933D02*
D03*
X121933D02*
D03*
D27*
X158882Y156961D02*
D03*
Y151961D02*
D03*
Y146961D02*
D03*
Y141961D02*
D03*
Y136961D02*
D03*
Y131961D02*
D03*
Y126961D02*
D03*
Y121961D02*
D03*
Y116961D02*
D03*
Y111961D02*
D03*
Y106961D02*
D03*
Y101961D02*
D03*
Y96961D02*
D03*
Y91961D02*
D03*
X89984D02*
D03*
Y96961D02*
D03*
Y101961D02*
D03*
Y106961D02*
D03*
Y111961D02*
D03*
Y116961D02*
D03*
Y121961D02*
D03*
Y126961D02*
D03*
Y131961D02*
D03*
Y136961D02*
D03*
Y141961D02*
D03*
Y146961D02*
D03*
Y151961D02*
D03*
Y156961D02*
D03*
D28*
X228353Y227010D02*
D03*
Y238210D02*
D03*
X216700Y238200D02*
D03*
Y227000D02*
D03*
X75400Y146700D02*
D03*
Y157900D02*
D03*
X75600Y109600D02*
D03*
Y120800D02*
D03*
X179400Y181600D02*
D03*
Y192800D02*
D03*
X206200Y197300D02*
D03*
Y208500D02*
D03*
X194700D02*
D03*
Y197300D02*
D03*
X234600Y22900D02*
D03*
Y11700D02*
D03*
X181200Y92000D02*
D03*
Y80800D02*
D03*
X170100Y92000D02*
D03*
Y80800D02*
D03*
X74809Y177191D02*
D03*
Y165991D02*
D03*
X63373Y177191D02*
D03*
Y165991D02*
D03*
X69100Y200800D02*
D03*
Y189600D02*
D03*
X58600Y189900D02*
D03*
Y201100D02*
D03*
X132100Y16400D02*
D03*
Y27600D02*
D03*
X109000Y56900D02*
D03*
Y68100D02*
D03*
X22775Y49041D02*
D03*
Y37841D02*
D03*
X91900Y37200D02*
D03*
Y48400D02*
D03*
X102362Y30500D02*
D03*
Y19300D02*
D03*
X91900Y30500D02*
D03*
Y19300D02*
D03*
X11417Y78740D02*
D03*
Y67540D02*
D03*
X246700Y11700D02*
D03*
Y22900D02*
D03*
X206000Y43000D02*
D03*
Y54200D02*
D03*
D29*
X143642Y267242D02*
D03*
Y234958D02*
D03*
X161358D02*
D03*
Y267242D02*
D03*
X175149D02*
D03*
Y234958D02*
D03*
X192865D02*
D03*
Y267242D02*
D03*
D30*
X99559Y216104D02*
D03*
D31*
X71842Y215514D02*
D03*
D32*
X105425Y224195D02*
D03*
Y228526D02*
D03*
Y232856D02*
D03*
Y237187D02*
D03*
Y241518D02*
D03*
Y245848D02*
D03*
Y250179D02*
D03*
Y254510D02*
D03*
D33*
X105780Y218644D02*
D03*
D34*
Y268486D02*
D03*
D35*
X48221Y215514D02*
D03*
Y267482D02*
D03*
D36*
X241339Y258661D02*
D03*
X243898D02*
D03*
X246457D02*
D03*
X249016D02*
D03*
X251575D02*
D03*
D37*
X142247Y196457D02*
D03*
X150200Y200197D02*
D03*
Y192717D02*
D03*
X169331D02*
D03*
Y200197D02*
D03*
X161378Y196457D02*
D03*
D38*
X210600Y11700D02*
D03*
X223198D02*
D03*
D39*
X222091Y39142D02*
D03*
Y46858D02*
D03*
D40*
X228883Y43000D02*
D03*
X215300D02*
D03*
D41*
X225750Y54800D02*
D03*
X228900D02*
D03*
D42*
X225600Y66700D02*
D03*
X232687D02*
D03*
D43*
X215300Y62800D02*
D03*
Y64768D02*
D03*
Y66737D02*
D03*
X218961D02*
D03*
Y64768D02*
D03*
Y62800D02*
D03*
D44*
X118261Y45283D02*
D03*
X120820D02*
D03*
X123380D02*
D03*
X125939D02*
D03*
Y68117D02*
D03*
X123380D02*
D03*
X120820D02*
D03*
X118261D02*
D03*
D45*
X42713Y49030D02*
D03*
Y44109D02*
D03*
Y39187D02*
D03*
Y34266D02*
D03*
X34051D02*
D03*
Y39187D02*
D03*
Y44109D02*
D03*
Y49030D02*
D03*
D46*
X66142Y40354D02*
D03*
Y38386D02*
D03*
Y36417D02*
D03*
Y34449D02*
D03*
Y32480D02*
D03*
Y30512D02*
D03*
X83465D02*
D03*
Y32480D02*
D03*
Y34449D02*
D03*
Y36417D02*
D03*
Y38386D02*
D03*
Y40354D02*
D03*
D47*
X69882Y26772D02*
D03*
X71850D02*
D03*
X73819D02*
D03*
X75787D02*
D03*
X77756D02*
D03*
X79724D02*
D03*
X71850Y44094D02*
D03*
X77756D02*
D03*
X79724D02*
D03*
X73819D02*
D03*
X69882D02*
D03*
X75787D02*
D03*
D48*
X11594Y107032D02*
D03*
Y89031D02*
D03*
X12387Y191300D02*
D03*
Y173300D02*
D03*
D49*
X36220Y98032D02*
D03*
X37013Y182300D02*
D03*
D50*
X242200Y43854D02*
D03*
Y35546D02*
D03*
D51*
X259100Y66700D02*
D03*
D52*
X265301Y60893D02*
D03*
Y72507D02*
D03*
D53*
X261800Y11700D02*
D03*
Y35716D02*
D03*
D54*
X147638Y54162D02*
D03*
Y29359D02*
D03*
Y33690D02*
D03*
Y12036D02*
D03*
Y16367D02*
D03*
Y20698D02*
D03*
Y25028D02*
D03*
Y38021D02*
D03*
Y49832D02*
D03*
Y58493D02*
D03*
Y62824D02*
D03*
Y67154D02*
D03*
X194882D02*
D03*
Y62824D02*
D03*
Y58493D02*
D03*
Y54162D02*
D03*
Y49832D02*
D03*
Y38021D02*
D03*
Y33690D02*
D03*
Y29359D02*
D03*
Y25028D02*
D03*
Y20698D02*
D03*
Y16367D02*
D03*
Y12036D02*
D03*
M02*
