G04*
G04 #@! TF.GenerationSoftware,Altium Limited,Altium Designer,21.9.2 (33)*
G04*
G04 Layer_Color=2752767*
%FSLAX25Y25*%
%MOIN*%
G70*
G04*
G04 #@! TF.SameCoordinates,2BD51A12-542F-4E7F-AF7E-1702C203C590*
G04*
G04*
G04 #@! TF.FilePolarity,Positive*
G04*
G01*
G75*
%ADD132C,0.00200*%
%ADD133C,0.00267*%
D132*
X132006Y255861D02*
Y257461D01*
X133606D01*
Y255861D01*
X132006D01*
Y225939D02*
Y227539D01*
X133606D01*
Y225939D01*
X132006D01*
X268000Y166000D02*
X267200Y167600D01*
X268800D01*
X268000Y166000D01*
X248000D02*
X247200Y167600D01*
X248800D01*
X248000Y166000D01*
X268000Y146000D02*
X267200Y147600D01*
X268800D01*
X268000Y146000D01*
X248000D02*
X247200Y147600D01*
X248800D01*
X248000Y146000D01*
X258000Y156000D02*
X258400Y156400D01*
X258800D01*
X258400Y156800D01*
X258800Y157200D01*
X258400D01*
X258000Y157600D01*
X257600Y157200D01*
X257200D01*
X257600Y156800D01*
X257200Y156400D01*
X257600D01*
X258000Y156000D01*
X11587Y190500D02*
X11987Y191300D01*
X11587Y192100D01*
X12387Y191700D01*
X13187Y192100D01*
X12787Y191300D01*
X13187Y190500D01*
X12387Y190900D01*
X11587Y190500D01*
X17704Y202700D02*
X18104Y203500D01*
X17704Y204300D01*
X18504Y203900D01*
X19304Y204300D01*
X18904Y203500D01*
X19304Y202700D01*
X18504Y203100D01*
X17704Y202700D01*
X46444Y85814D02*
X46844Y86614D01*
X46444Y87414D01*
X47244Y87014D01*
X48044Y87414D01*
X47644Y86614D01*
X48044Y85814D01*
X47244Y86214D01*
X46444Y85814D01*
X38570D02*
X38970Y86614D01*
X38570Y87414D01*
X39370Y87014D01*
X40170Y87414D01*
X39770Y86614D01*
X40170Y85814D01*
X39370Y86214D01*
X38570Y85814D01*
X30696D02*
X31096Y86614D01*
X30696Y87414D01*
X31496Y87014D01*
X32296Y87414D01*
X31896Y86614D01*
X32296Y85814D01*
X31496Y86214D01*
X30696Y85814D01*
X46444Y93688D02*
X46844Y94488D01*
X46444Y95288D01*
X47244Y94888D01*
X48044Y95288D01*
X47644Y94488D01*
X48044Y93688D01*
X47244Y94088D01*
X46444Y93688D01*
X30696D02*
X31096Y94488D01*
X30696Y95288D01*
X31496Y94888D01*
X32296Y95288D01*
X31896Y94488D01*
X32296Y93688D01*
X31496Y94088D01*
X30696Y93688D01*
X38570D02*
X38970Y94488D01*
X38570Y95288D01*
X39370Y94888D01*
X40170Y95288D01*
X39770Y94488D01*
X40170Y93688D01*
X39370Y94088D01*
X38570Y93688D01*
X46444Y101562D02*
X46844Y102362D01*
X46444Y103162D01*
X47244Y102762D01*
X48044Y103162D01*
X47644Y102362D01*
X48044Y101562D01*
X47244Y101962D01*
X46444Y101562D01*
X38570D02*
X38970Y102362D01*
X38570Y103162D01*
X39370Y102762D01*
X40170Y103162D01*
X39770Y102362D01*
X40170Y101562D01*
X39370Y101962D01*
X38570Y101562D01*
X30696D02*
X31096Y102362D01*
X30696Y103162D01*
X31496Y102762D01*
X32296Y103162D01*
X31896Y102362D01*
X32296Y101562D01*
X31496Y101962D01*
X30696Y101562D01*
X269279Y261405D02*
X269679Y262205D01*
X269279Y263005D01*
X270079Y262605D01*
X270879Y263005D01*
X270479Y262205D01*
X270879Y261405D01*
X270079Y261805D01*
X269279Y261405D01*
Y245657D02*
X269679Y246457D01*
X269279Y247257D01*
X270079Y246857D01*
X270879Y247257D01*
X270479Y246457D01*
X270879Y245657D01*
X270079Y246057D01*
X269279Y245657D01*
Y214161D02*
X269679Y214961D01*
X269279Y215761D01*
X270079Y215361D01*
X270879Y215761D01*
X270479Y214961D01*
X270879Y214161D01*
X270079Y214561D01*
X269279Y214161D01*
Y135421D02*
X269679Y136221D01*
X269279Y137021D01*
X270079Y136621D01*
X270879Y137021D01*
X270479Y136221D01*
X270879Y135421D01*
X270079Y135821D01*
X269279Y135421D01*
Y119673D02*
X269679Y120473D01*
X269279Y121273D01*
X270079Y120873D01*
X270879Y121273D01*
X270479Y120473D01*
X270879Y119673D01*
X270079Y120073D01*
X269279Y119673D01*
Y103925D02*
X269679Y104725D01*
X269279Y105525D01*
X270079Y105124D01*
X270879Y105525D01*
X270479Y104725D01*
X270879Y103925D01*
X270079Y104324D01*
X269279Y103925D01*
Y88177D02*
X269679Y88977D01*
X269279Y89776D01*
X270079Y89376D01*
X270879Y89776D01*
X270479Y88977D01*
X270879Y88177D01*
X270079Y88577D01*
X269279Y88177D01*
Y40932D02*
X269679Y41732D01*
X269279Y42532D01*
X270079Y42132D01*
X270879Y42532D01*
X270479Y41732D01*
X270879Y40932D01*
X270079Y41332D01*
X269279Y40932D01*
Y25184D02*
X269679Y25984D01*
X269279Y26784D01*
X270079Y26384D01*
X270879Y26784D01*
X270479Y25984D01*
X270879Y25184D01*
X270079Y25584D01*
X269279Y25184D01*
X261405Y261405D02*
X261805Y262205D01*
X261405Y263005D01*
X262205Y262605D01*
X263005Y263005D01*
X262605Y262205D01*
X263005Y261405D01*
X262205Y261805D01*
X261405Y261405D01*
X265342Y253531D02*
X265742Y254331D01*
X265342Y255131D01*
X266142Y254731D01*
X266942Y255131D01*
X266542Y254331D01*
X266942Y253531D01*
X266142Y253931D01*
X265342Y253531D01*
Y237783D02*
X265742Y238583D01*
X265342Y239383D01*
X266142Y238983D01*
X266942Y239383D01*
X266542Y238583D01*
X266942Y237783D01*
X266142Y238183D01*
X265342Y237783D01*
Y222035D02*
X265742Y222835D01*
X265342Y223635D01*
X266142Y223235D01*
X266942Y223635D01*
X266542Y222835D01*
X266942Y222035D01*
X266142Y222435D01*
X265342Y222035D01*
X261405Y214161D02*
X261805Y214961D01*
X261405Y215761D01*
X262205Y215361D01*
X263005Y215761D01*
X262605Y214961D01*
X263005Y214161D01*
X262205Y214561D01*
X261405Y214161D01*
X265342Y159043D02*
X265742Y159843D01*
X265342Y160643D01*
X266142Y160243D01*
X266942Y160643D01*
X266542Y159843D01*
X266942Y159043D01*
X266142Y159443D01*
X265342Y159043D01*
X261405Y151169D02*
X261805Y151969D01*
X261405Y152769D01*
X262205Y152369D01*
X263005Y152769D01*
X262605Y151969D01*
X263005Y151169D01*
X262205Y151569D01*
X261405Y151169D01*
Y135421D02*
X261805Y136221D01*
X261405Y137021D01*
X262205Y136621D01*
X263005Y137021D01*
X262605Y136221D01*
X263005Y135421D01*
X262205Y135821D01*
X261405Y135421D01*
X265342Y127547D02*
X265742Y128347D01*
X265342Y129147D01*
X266142Y128747D01*
X266942Y129147D01*
X266542Y128347D01*
X266942Y127547D01*
X266142Y127947D01*
X265342Y127547D01*
X261405Y119673D02*
X261805Y120473D01*
X261405Y121273D01*
X262205Y120873D01*
X263005Y121273D01*
X262605Y120473D01*
X263005Y119673D01*
X262205Y120073D01*
X261405Y119673D01*
X265342Y111799D02*
X265742Y112599D01*
X265342Y113399D01*
X266142Y112998D01*
X266942Y113399D01*
X266542Y112599D01*
X266942Y111799D01*
X266142Y112198D01*
X265342Y111799D01*
X261405Y103925D02*
X261805Y104725D01*
X261405Y105525D01*
X262205Y105124D01*
X263005Y105525D01*
X262605Y104725D01*
X263005Y103925D01*
X262205Y104324D01*
X261405Y103925D01*
X265342Y96051D02*
X265742Y96851D01*
X265342Y97650D01*
X266142Y97250D01*
X266942Y97650D01*
X266542Y96851D01*
X266942Y96051D01*
X266142Y96451D01*
X265342Y96051D01*
X261405Y88177D02*
X261805Y88977D01*
X261405Y89776D01*
X262205Y89376D01*
X263005Y89776D01*
X262605Y88977D01*
X263005Y88177D01*
X262205Y88577D01*
X261405Y88177D01*
X265342Y64554D02*
X265742Y65354D01*
X265342Y66154D01*
X266142Y65754D01*
X266942Y66154D01*
X266542Y65354D01*
X266942Y64554D01*
X266142Y64954D01*
X265342Y64554D01*
Y48806D02*
X265742Y49606D01*
X265342Y50406D01*
X266142Y50006D01*
X266942Y50406D01*
X266542Y49606D01*
X266942Y48806D01*
X266142Y49206D01*
X265342Y48806D01*
X261405Y25184D02*
X261805Y25984D01*
X261405Y26784D01*
X262205Y26384D01*
X263005Y26784D01*
X262605Y25984D01*
X263005Y25184D01*
X262205Y25584D01*
X261405Y25184D01*
X265342Y17310D02*
X265742Y18110D01*
X265342Y18910D01*
X266142Y18510D01*
X266942Y18910D01*
X266542Y18110D01*
X266942Y17310D01*
X266142Y17710D01*
X265342Y17310D01*
X257468Y222035D02*
X257868Y222835D01*
X257468Y223635D01*
X258268Y223235D01*
X259068Y223635D01*
X258668Y222835D01*
X259068Y222035D01*
X258268Y222435D01*
X257468Y222035D01*
Y206287D02*
X257868Y207087D01*
X257468Y207887D01*
X258268Y207487D01*
X259068Y207887D01*
X258668Y207087D01*
X259068Y206287D01*
X258268Y206687D01*
X257468Y206287D01*
X253531Y151169D02*
X253931Y151969D01*
X253531Y152769D01*
X254331Y152369D01*
X255131Y152769D01*
X254731Y151969D01*
X255131Y151169D01*
X254331Y151569D01*
X253531Y151169D01*
X257468Y143295D02*
X257868Y144095D01*
X257468Y144895D01*
X258268Y144495D01*
X259068Y144895D01*
X258668Y144095D01*
X259068Y143295D01*
X258268Y143695D01*
X257468Y143295D01*
X253531Y135421D02*
X253931Y136221D01*
X253531Y137021D01*
X254331Y136621D01*
X255131Y137021D01*
X254731Y136221D01*
X255131Y135421D01*
X254331Y135821D01*
X253531Y135421D01*
X257468Y127547D02*
X257868Y128347D01*
X257468Y129147D01*
X258268Y128747D01*
X259068Y129147D01*
X258668Y128347D01*
X259068Y127547D01*
X258268Y127947D01*
X257468Y127547D01*
X253531Y119673D02*
X253931Y120473D01*
X253531Y121273D01*
X254331Y120873D01*
X255131Y121273D01*
X254731Y120473D01*
X255131Y119673D01*
X254331Y120073D01*
X253531Y119673D01*
X257468Y111799D02*
X257868Y112599D01*
X257468Y113399D01*
X258268Y112998D01*
X259068Y113399D01*
X258668Y112599D01*
X259068Y111799D01*
X258268Y112198D01*
X257468Y111799D01*
X253531Y103925D02*
X253931Y104725D01*
X253531Y105525D01*
X254331Y105124D01*
X255131Y105525D01*
X254731Y104725D01*
X255131Y103925D01*
X254331Y104324D01*
X253531Y103925D01*
X257468Y96051D02*
X257868Y96851D01*
X257468Y97650D01*
X258268Y97250D01*
X259068Y97650D01*
X258668Y96851D01*
X259068Y96051D01*
X258268Y96451D01*
X257468Y96051D01*
X253531Y88177D02*
X253931Y88977D01*
X253531Y89776D01*
X254331Y89376D01*
X255131Y89776D01*
X254731Y88977D01*
X255131Y88177D01*
X254331Y88577D01*
X253531Y88177D01*
X257468Y48806D02*
X257868Y49606D01*
X257468Y50406D01*
X258268Y50006D01*
X259068Y50406D01*
X258668Y49606D01*
X259068Y48806D01*
X258268Y49206D01*
X257468Y48806D01*
X253531Y25184D02*
X253931Y25984D01*
X253531Y26784D01*
X254331Y26384D01*
X255131Y26784D01*
X254731Y25984D01*
X255131Y25184D01*
X254331Y25584D01*
X253531Y25184D01*
X257468Y17310D02*
X257868Y18110D01*
X257468Y18910D01*
X258268Y18510D01*
X259068Y18910D01*
X258668Y18110D01*
X259068Y17310D01*
X258268Y17710D01*
X257468Y17310D01*
X249594Y269279D02*
X249994Y270079D01*
X249594Y270879D01*
X250394Y270479D01*
X251194Y270879D01*
X250794Y270079D01*
X251194Y269279D01*
X250394Y269679D01*
X249594Y269279D01*
X245657Y198413D02*
X246057Y199213D01*
X245657Y200013D01*
X246457Y199613D01*
X247257Y200013D01*
X246857Y199213D01*
X247257Y198413D01*
X246457Y198813D01*
X245657Y198413D01*
X249594Y159043D02*
X249994Y159843D01*
X249594Y160643D01*
X250394Y160243D01*
X251194Y160643D01*
X250794Y159843D01*
X251194Y159043D01*
X250394Y159443D01*
X249594Y159043D01*
X245657Y135421D02*
X246057Y136221D01*
X245657Y137021D01*
X246457Y136621D01*
X247257Y137021D01*
X246857Y136221D01*
X247257Y135421D01*
X246457Y135821D01*
X245657Y135421D01*
X249594Y127547D02*
X249994Y128347D01*
X249594Y129147D01*
X250394Y128747D01*
X251194Y129147D01*
X250794Y128347D01*
X251194Y127547D01*
X250394Y127947D01*
X249594Y127547D01*
X245657Y119673D02*
X246057Y120473D01*
X245657Y121273D01*
X246457Y120873D01*
X247257Y121273D01*
X246857Y120473D01*
X247257Y119673D01*
X246457Y120073D01*
X245657Y119673D01*
X249594Y111799D02*
X249994Y112599D01*
X249594Y113399D01*
X250394Y112998D01*
X251194Y113399D01*
X250794Y112599D01*
X251194Y111799D01*
X250394Y112198D01*
X249594Y111799D01*
X245657Y103925D02*
X246057Y104725D01*
X245657Y105525D01*
X246457Y105124D01*
X247257Y105525D01*
X246857Y104725D01*
X247257Y103925D01*
X246457Y104324D01*
X245657Y103925D01*
X249594Y96051D02*
X249994Y96851D01*
X249594Y97650D01*
X250394Y97250D01*
X251194Y97650D01*
X250794Y96851D01*
X251194Y96051D01*
X250394Y96451D01*
X249594Y96051D01*
X245657Y88177D02*
X246057Y88977D01*
X245657Y89776D01*
X246457Y89376D01*
X247257Y89776D01*
X246857Y88977D01*
X247257Y88177D01*
X246457Y88577D01*
X245657Y88177D01*
X249594Y48806D02*
X249994Y49606D01*
X249594Y50406D01*
X250394Y50006D01*
X251194Y50406D01*
X250794Y49606D01*
X251194Y48806D01*
X250394Y49206D01*
X249594Y48806D01*
Y33058D02*
X249994Y33858D01*
X249594Y34658D01*
X250394Y34258D01*
X251194Y34658D01*
X250794Y33858D01*
X251194Y33058D01*
X250394Y33458D01*
X249594Y33058D01*
X241720Y269279D02*
X242120Y270079D01*
X241720Y270879D01*
X242520Y270479D01*
X243320Y270879D01*
X242920Y270079D01*
X243320Y269279D01*
X242520Y269679D01*
X241720Y269279D01*
X237783Y245657D02*
X238183Y246457D01*
X237783Y247257D01*
X238583Y246857D01*
X239383Y247257D01*
X238983Y246457D01*
X239383Y245657D01*
X238583Y246057D01*
X237783Y245657D01*
X241720Y222035D02*
X242120Y222835D01*
X241720Y223635D01*
X242520Y223235D01*
X243320Y223635D01*
X242920Y222835D01*
X243320Y222035D01*
X242520Y222435D01*
X241720Y222035D01*
X237783Y166917D02*
X238183Y167717D01*
X237783Y168517D01*
X238583Y168117D01*
X239383Y168517D01*
X238983Y167717D01*
X239383Y166917D01*
X238583Y167317D01*
X237783Y166917D01*
X241720Y159043D02*
X242120Y159843D01*
X241720Y160643D01*
X242520Y160243D01*
X243320Y160643D01*
X242920Y159843D01*
X243320Y159043D01*
X242520Y159443D01*
X241720Y159043D01*
Y127547D02*
X242120Y128347D01*
X241720Y129147D01*
X242520Y128747D01*
X243320Y129147D01*
X242920Y128347D01*
X243320Y127547D01*
X242520Y127947D01*
X241720Y127547D01*
Y111799D02*
X242120Y112599D01*
X241720Y113399D01*
X242520Y112998D01*
X243320Y113399D01*
X242920Y112599D01*
X243320Y111799D01*
X242520Y112198D01*
X241720Y111799D01*
X237783Y103925D02*
X238183Y104725D01*
X237783Y105525D01*
X238583Y105124D01*
X239383Y105525D01*
X238983Y104725D01*
X239383Y103925D01*
X238583Y104324D01*
X237783Y103925D01*
X241720Y96051D02*
X242120Y96851D01*
X241720Y97650D01*
X242520Y97250D01*
X243320Y97650D01*
X242920Y96851D01*
X243320Y96051D01*
X242520Y96451D01*
X241720Y96051D01*
X237783Y88177D02*
X238183Y88977D01*
X237783Y89776D01*
X238583Y89376D01*
X239383Y89776D01*
X238983Y88977D01*
X239383Y88177D01*
X238583Y88577D01*
X237783Y88177D01*
X241720Y80303D02*
X242120Y81103D01*
X241720Y81902D01*
X242520Y81502D01*
X243320Y81902D01*
X242920Y81103D01*
X243320Y80303D01*
X242520Y80703D01*
X241720Y80303D01*
X229909Y261405D02*
X230309Y262205D01*
X229909Y263005D01*
X230709Y262605D01*
X231509Y263005D01*
X231109Y262205D01*
X231509Y261405D01*
X230709Y261805D01*
X229909Y261405D01*
X233846Y190539D02*
X234246Y191339D01*
X233846Y192139D01*
X234646Y191739D01*
X235446Y192139D01*
X235046Y191339D01*
X235446Y190539D01*
X234646Y190939D01*
X233846Y190539D01*
X229909Y166917D02*
X230309Y167717D01*
X229909Y168517D01*
X230709Y168117D01*
X231509Y168517D01*
X231109Y167717D01*
X231509Y166917D01*
X230709Y167317D01*
X229909Y166917D01*
Y103925D02*
X230309Y104725D01*
X229909Y105525D01*
X230709Y105124D01*
X231509Y105525D01*
X231109Y104725D01*
X231509Y103925D01*
X230709Y104324D01*
X229909Y103925D01*
Y88177D02*
X230309Y88977D01*
X229909Y89776D01*
X230709Y89376D01*
X231509Y89776D01*
X231109Y88977D01*
X231509Y88177D01*
X230709Y88577D01*
X229909Y88177D01*
X233846Y80303D02*
X234246Y81103D01*
X233846Y81902D01*
X234646Y81502D01*
X235446Y81902D01*
X235046Y81103D01*
X235446Y80303D01*
X234646Y80703D01*
X233846Y80303D01*
Y48806D02*
X234246Y49606D01*
X233846Y50406D01*
X234646Y50006D01*
X235446Y50406D01*
X235046Y49606D01*
X235446Y48806D01*
X234646Y49206D01*
X233846Y48806D01*
X222035Y261405D02*
X222435Y262205D01*
X222035Y263005D01*
X222835Y262605D01*
X223635Y263005D01*
X223235Y262205D01*
X223635Y261405D01*
X222835Y261805D01*
X222035Y261405D01*
Y166917D02*
X222435Y167717D01*
X222035Y168517D01*
X222835Y168117D01*
X223635Y168517D01*
X223235Y167717D01*
X223635Y166917D01*
X222835Y167317D01*
X222035Y166917D01*
X225972Y159043D02*
X226372Y159843D01*
X225972Y160643D01*
X226772Y160243D01*
X227572Y160643D01*
X227172Y159843D01*
X227572Y159043D01*
X226772Y159443D01*
X225972Y159043D01*
X222035Y151169D02*
X222435Y151969D01*
X222035Y152769D01*
X222835Y152369D01*
X223635Y152769D01*
X223235Y151969D01*
X223635Y151169D01*
X222835Y151569D01*
X222035Y151169D01*
X225972Y111799D02*
X226372Y112599D01*
X225972Y113399D01*
X226772Y112998D01*
X227572Y113399D01*
X227172Y112599D01*
X227572Y111799D01*
X226772Y112198D01*
X225972Y111799D01*
X218098Y269279D02*
X218498Y270079D01*
X218098Y270879D01*
X218898Y270479D01*
X219698Y270879D01*
X219298Y270079D01*
X219698Y269279D01*
X218898Y269679D01*
X218098Y269279D01*
X214161Y261405D02*
X214561Y262205D01*
X214161Y263005D01*
X214961Y262605D01*
X215761Y263005D01*
X215361Y262205D01*
X215761Y261405D01*
X214961Y261805D01*
X214161Y261405D01*
Y166917D02*
X214561Y167717D01*
X214161Y168517D01*
X214961Y168117D01*
X215761Y168517D01*
X215361Y167717D01*
X215761Y166917D01*
X214961Y167317D01*
X214161Y166917D01*
X218098Y159043D02*
X218498Y159843D01*
X218098Y160643D01*
X218898Y160243D01*
X219698Y160643D01*
X219298Y159843D01*
X219698Y159043D01*
X218898Y159443D01*
X218098Y159043D01*
Y127547D02*
X218498Y128347D01*
X218098Y129147D01*
X218898Y128747D01*
X219698Y129147D01*
X219298Y128347D01*
X219698Y127547D01*
X218898Y127947D01*
X218098Y127547D01*
Y17310D02*
X218498Y18110D01*
X218098Y18910D01*
X218898Y18510D01*
X219698Y18910D01*
X219298Y18110D01*
X219698Y17310D01*
X218898Y17710D01*
X218098Y17310D01*
X210224Y269279D02*
X210624Y270079D01*
X210224Y270879D01*
X211024Y270479D01*
X211824Y270879D01*
X211424Y270079D01*
X211824Y269279D01*
X211024Y269679D01*
X210224Y269279D01*
X206287Y261405D02*
X206687Y262205D01*
X206287Y263005D01*
X207087Y262605D01*
X207887Y263005D01*
X207487Y262205D01*
X207887Y261405D01*
X207087Y261805D01*
X206287Y261405D01*
X210224Y253531D02*
X210624Y254331D01*
X210224Y255131D01*
X211024Y254731D01*
X211824Y255131D01*
X211424Y254331D01*
X211824Y253531D01*
X211024Y253931D01*
X210224Y253531D01*
X206287Y245657D02*
X206687Y246457D01*
X206287Y247257D01*
X207087Y246857D01*
X207887Y247257D01*
X207487Y246457D01*
X207887Y245657D01*
X207087Y246057D01*
X206287Y245657D01*
Y229909D02*
X206687Y230709D01*
X206287Y231509D01*
X207087Y231109D01*
X207887Y231509D01*
X207487Y230709D01*
X207887Y229909D01*
X207087Y230309D01*
X206287Y229909D01*
X210224Y190539D02*
X210624Y191339D01*
X210224Y192139D01*
X211024Y191739D01*
X211824Y192139D01*
X211424Y191339D01*
X211824Y190539D01*
X211024Y190939D01*
X210224Y190539D01*
X206287Y166917D02*
X206687Y167717D01*
X206287Y168517D01*
X207087Y168117D01*
X207887Y168517D01*
X207487Y167717D01*
X207887Y166917D01*
X207087Y167317D01*
X206287Y166917D01*
X210224Y159043D02*
X210624Y159843D01*
X210224Y160643D01*
X211024Y160243D01*
X211824Y160643D01*
X211424Y159843D01*
X211824Y159043D01*
X211024Y159443D01*
X210224Y159043D01*
X206287Y151169D02*
X206687Y151969D01*
X206287Y152769D01*
X207087Y152369D01*
X207887Y152769D01*
X207487Y151969D01*
X207887Y151169D01*
X207087Y151569D01*
X206287Y151169D01*
X210224Y143295D02*
X210624Y144095D01*
X210224Y144895D01*
X211024Y144495D01*
X211824Y144895D01*
X211424Y144095D01*
X211824Y143295D01*
X211024Y143695D01*
X210224Y143295D01*
Y127547D02*
X210624Y128347D01*
X210224Y129147D01*
X211024Y128747D01*
X211824Y129147D01*
X211424Y128347D01*
X211824Y127547D01*
X211024Y127947D01*
X210224Y127547D01*
X206287Y119673D02*
X206687Y120473D01*
X206287Y121273D01*
X207087Y120873D01*
X207887Y121273D01*
X207487Y120473D01*
X207887Y119673D01*
X207087Y120073D01*
X206287Y119673D01*
Y103925D02*
X206687Y104725D01*
X206287Y105525D01*
X207087Y105124D01*
X207887Y105525D01*
X207487Y104725D01*
X207887Y103925D01*
X207087Y104324D01*
X206287Y103925D01*
X210224Y96051D02*
X210624Y96851D01*
X210224Y97650D01*
X211024Y97250D01*
X211824Y97650D01*
X211424Y96851D01*
X211824Y96051D01*
X211024Y96451D01*
X210224Y96051D01*
X206287Y88177D02*
X206687Y88977D01*
X206287Y89776D01*
X207087Y89376D01*
X207887Y89776D01*
X207487Y88977D01*
X207887Y88177D01*
X207087Y88577D01*
X206287Y88177D01*
Y72428D02*
X206687Y73228D01*
X206287Y74028D01*
X207087Y73628D01*
X207887Y74028D01*
X207487Y73228D01*
X207887Y72428D01*
X207087Y72828D01*
X206287Y72428D01*
X210224Y48806D02*
X210624Y49606D01*
X210224Y50406D01*
X211024Y50006D01*
X211824Y50406D01*
X211424Y49606D01*
X211824Y48806D01*
X211024Y49206D01*
X210224Y48806D01*
X206287Y25184D02*
X206687Y25984D01*
X206287Y26784D01*
X207087Y26384D01*
X207887Y26784D01*
X207487Y25984D01*
X207887Y25184D01*
X207087Y25584D01*
X206287Y25184D01*
X202350Y269279D02*
X202750Y270079D01*
X202350Y270879D01*
X203150Y270479D01*
X203950Y270879D01*
X203550Y270079D01*
X203950Y269279D01*
X203150Y269679D01*
X202350Y269279D01*
X198413Y261405D02*
X198813Y262205D01*
X198413Y263005D01*
X199213Y262605D01*
X200013Y263005D01*
X199613Y262205D01*
X200013Y261405D01*
X199213Y261805D01*
X198413Y261405D01*
X202350Y253531D02*
X202750Y254331D01*
X202350Y255131D01*
X203150Y254731D01*
X203950Y255131D01*
X203550Y254331D01*
X203950Y253531D01*
X203150Y253931D01*
X202350Y253531D01*
X198413Y245657D02*
X198813Y246457D01*
X198413Y247257D01*
X199213Y246857D01*
X200013Y247257D01*
X199613Y246457D01*
X200013Y245657D01*
X199213Y246057D01*
X198413Y245657D01*
X202350Y237783D02*
X202750Y238583D01*
X202350Y239383D01*
X203150Y238983D01*
X203950Y239383D01*
X203550Y238583D01*
X203950Y237783D01*
X203150Y238183D01*
X202350Y237783D01*
X198413Y229909D02*
X198813Y230709D01*
X198413Y231509D01*
X199213Y231109D01*
X200013Y231509D01*
X199613Y230709D01*
X200013Y229909D01*
X199213Y230309D01*
X198413Y229909D01*
X202350Y222035D02*
X202750Y222835D01*
X202350Y223635D01*
X203150Y223235D01*
X203950Y223635D01*
X203550Y222835D01*
X203950Y222035D01*
X203150Y222435D01*
X202350Y222035D01*
Y190539D02*
X202750Y191339D01*
X202350Y192139D01*
X203150Y191739D01*
X203950Y192139D01*
X203550Y191339D01*
X203950Y190539D01*
X203150Y190939D01*
X202350Y190539D01*
X198413Y166917D02*
X198813Y167717D01*
X198413Y168517D01*
X199213Y168117D01*
X200013Y168517D01*
X199613Y167717D01*
X200013Y166917D01*
X199213Y167317D01*
X198413Y166917D01*
X202350Y159043D02*
X202750Y159843D01*
X202350Y160643D01*
X203150Y160243D01*
X203950Y160643D01*
X203550Y159843D01*
X203950Y159043D01*
X203150Y159443D01*
X202350Y159043D01*
X198413Y151169D02*
X198813Y151969D01*
X198413Y152769D01*
X199213Y152369D01*
X200013Y152769D01*
X199613Y151969D01*
X200013Y151169D01*
X199213Y151569D01*
X198413Y151169D01*
X202350Y143295D02*
X202750Y144095D01*
X202350Y144895D01*
X203150Y144495D01*
X203950Y144895D01*
X203550Y144095D01*
X203950Y143295D01*
X203150Y143695D01*
X202350Y143295D01*
X198413Y135421D02*
X198813Y136221D01*
X198413Y137021D01*
X199213Y136621D01*
X200013Y137021D01*
X199613Y136221D01*
X200013Y135421D01*
X199213Y135821D01*
X198413Y135421D01*
X202350Y127547D02*
X202750Y128347D01*
X202350Y129147D01*
X203150Y128747D01*
X203950Y129147D01*
X203550Y128347D01*
X203950Y127547D01*
X203150Y127947D01*
X202350Y127547D01*
X198413Y119673D02*
X198813Y120473D01*
X198413Y121273D01*
X199213Y120873D01*
X200013Y121273D01*
X199613Y120473D01*
X200013Y119673D01*
X199213Y120073D01*
X198413Y119673D01*
X202350Y111799D02*
X202750Y112599D01*
X202350Y113399D01*
X203150Y112998D01*
X203950Y113399D01*
X203550Y112599D01*
X203950Y111799D01*
X203150Y112198D01*
X202350Y111799D01*
X198413Y88177D02*
X198813Y88977D01*
X198413Y89776D01*
X199213Y89376D01*
X200013Y89776D01*
X199613Y88977D01*
X200013Y88177D01*
X199213Y88577D01*
X198413Y88177D01*
X202350Y48806D02*
X202750Y49606D01*
X202350Y50406D01*
X203150Y50006D01*
X203950Y50406D01*
X203550Y49606D01*
X203950Y48806D01*
X203150Y49206D01*
X202350Y48806D01*
Y17310D02*
X202750Y18110D01*
X202350Y18910D01*
X203150Y18510D01*
X203950Y18910D01*
X203550Y18110D01*
X203950Y17310D01*
X203150Y17710D01*
X202350Y17310D01*
X190539Y261405D02*
X190939Y262205D01*
X190539Y263005D01*
X191339Y262605D01*
X192139Y263005D01*
X191739Y262205D01*
X192139Y261405D01*
X191339Y261805D01*
X190539Y261405D01*
X194476Y253531D02*
X194876Y254331D01*
X194476Y255131D01*
X195276Y254731D01*
X196076Y255131D01*
X195676Y254331D01*
X196076Y253531D01*
X195276Y253931D01*
X194476Y253531D01*
X190539Y245657D02*
X190939Y246457D01*
X190539Y247257D01*
X191339Y246857D01*
X192139Y247257D01*
X191739Y246457D01*
X192139Y245657D01*
X191339Y246057D01*
X190539Y245657D01*
X194476Y222035D02*
X194876Y222835D01*
X194476Y223635D01*
X195276Y223235D01*
X196076Y223635D01*
X195676Y222835D01*
X196076Y222035D01*
X195276Y222435D01*
X194476Y222035D01*
Y159043D02*
X194876Y159843D01*
X194476Y160643D01*
X195276Y160243D01*
X196076Y160643D01*
X195676Y159843D01*
X196076Y159043D01*
X195276Y159443D01*
X194476Y159043D01*
X190539Y151169D02*
X190939Y151969D01*
X190539Y152769D01*
X191339Y152369D01*
X192139Y152769D01*
X191739Y151969D01*
X192139Y151169D01*
X191339Y151569D01*
X190539Y151169D01*
X194476Y143295D02*
X194876Y144095D01*
X194476Y144895D01*
X195276Y144495D01*
X196076Y144895D01*
X195676Y144095D01*
X196076Y143295D01*
X195276Y143695D01*
X194476Y143295D01*
Y127547D02*
X194876Y128347D01*
X194476Y129147D01*
X195276Y128747D01*
X196076Y129147D01*
X195676Y128347D01*
X196076Y127547D01*
X195276Y127947D01*
X194476Y127547D01*
Y111799D02*
X194876Y112599D01*
X194476Y113399D01*
X195276Y112998D01*
X196076Y113399D01*
X195676Y112599D01*
X196076Y111799D01*
X195276Y112198D01*
X194476Y111799D01*
Y96051D02*
X194876Y96851D01*
X194476Y97650D01*
X195276Y97250D01*
X196076Y97650D01*
X195676Y96851D01*
X196076Y96051D01*
X195276Y96451D01*
X194476Y96051D01*
X190539Y88177D02*
X190939Y88977D01*
X190539Y89776D01*
X191339Y89376D01*
X192139Y89776D01*
X191739Y88977D01*
X192139Y88177D01*
X191339Y88577D01*
X190539Y88177D01*
X186602Y269279D02*
X187002Y270079D01*
X186602Y270879D01*
X187402Y270479D01*
X188202Y270879D01*
X187802Y270079D01*
X188202Y269279D01*
X187402Y269679D01*
X186602Y269279D01*
X182665Y261405D02*
X183065Y262205D01*
X182665Y263005D01*
X183465Y262605D01*
X184265Y263005D01*
X183865Y262205D01*
X184265Y261405D01*
X183465Y261805D01*
X182665Y261405D01*
X186602Y253531D02*
X187002Y254331D01*
X186602Y255131D01*
X187402Y254731D01*
X188202Y255131D01*
X187802Y254331D01*
X188202Y253531D01*
X187402Y253931D01*
X186602Y253531D01*
X182665Y245657D02*
X183065Y246457D01*
X182665Y247257D01*
X183465Y246857D01*
X184265Y247257D01*
X183865Y246457D01*
X184265Y245657D01*
X183465Y246057D01*
X182665Y245657D01*
Y214161D02*
X183065Y214961D01*
X182665Y215761D01*
X183465Y215361D01*
X184265Y215761D01*
X183865Y214961D01*
X184265Y214161D01*
X183465Y214561D01*
X182665Y214161D01*
Y198413D02*
X183065Y199213D01*
X182665Y200013D01*
X183465Y199613D01*
X184265Y200013D01*
X183865Y199213D01*
X184265Y198413D01*
X183465Y198813D01*
X182665Y198413D01*
X186602Y159043D02*
X187002Y159843D01*
X186602Y160643D01*
X187402Y160243D01*
X188202Y160643D01*
X187802Y159843D01*
X188202Y159043D01*
X187402Y159443D01*
X186602Y159043D01*
X182665Y135421D02*
X183065Y136221D01*
X182665Y137021D01*
X183465Y136621D01*
X184265Y137021D01*
X183865Y136221D01*
X184265Y135421D01*
X183465Y135821D01*
X182665Y135421D01*
X186602Y127547D02*
X187002Y128347D01*
X186602Y129147D01*
X187402Y128747D01*
X188202Y129147D01*
X187802Y128347D01*
X188202Y127547D01*
X187402Y127947D01*
X186602Y127547D01*
X182665Y119673D02*
X183065Y120473D01*
X182665Y121273D01*
X183465Y120873D01*
X184265Y121273D01*
X183865Y120473D01*
X184265Y119673D01*
X183465Y120073D01*
X182665Y119673D01*
X186602Y111799D02*
X187002Y112599D01*
X186602Y113399D01*
X187402Y112998D01*
X188202Y113399D01*
X187802Y112599D01*
X188202Y111799D01*
X187402Y112198D01*
X186602Y111799D01*
Y96051D02*
X187002Y96851D01*
X186602Y97650D01*
X187402Y97250D01*
X188202Y97650D01*
X187802Y96851D01*
X188202Y96051D01*
X187402Y96451D01*
X186602Y96051D01*
Y64554D02*
X187002Y65354D01*
X186602Y66154D01*
X187402Y65754D01*
X188202Y66154D01*
X187802Y65354D01*
X188202Y64554D01*
X187402Y64954D01*
X186602Y64554D01*
Y48806D02*
X187002Y49606D01*
X186602Y50406D01*
X187402Y50006D01*
X188202Y50406D01*
X187802Y49606D01*
X188202Y48806D01*
X187402Y49206D01*
X186602Y48806D01*
Y33058D02*
X187002Y33858D01*
X186602Y34658D01*
X187402Y34258D01*
X188202Y34658D01*
X187802Y33858D01*
X188202Y33058D01*
X187402Y33458D01*
X186602Y33058D01*
X182665Y25184D02*
X183065Y25984D01*
X182665Y26784D01*
X183465Y26384D01*
X184265Y26784D01*
X183865Y25984D01*
X184265Y25184D01*
X183465Y25584D01*
X182665Y25184D01*
X186602Y17310D02*
X187002Y18110D01*
X186602Y18910D01*
X187402Y18510D01*
X188202Y18910D01*
X187802Y18110D01*
X188202Y17310D01*
X187402Y17710D01*
X186602Y17310D01*
X178728Y269279D02*
X179128Y270079D01*
X178728Y270879D01*
X179528Y270479D01*
X180328Y270879D01*
X179928Y270079D01*
X180328Y269279D01*
X179528Y269679D01*
X178728Y269279D01*
X174791Y261405D02*
X175191Y262205D01*
X174791Y263005D01*
X175591Y262605D01*
X176391Y263005D01*
X175991Y262205D01*
X176391Y261405D01*
X175591Y261805D01*
X174791Y261405D01*
X178728Y253531D02*
X179128Y254331D01*
X178728Y255131D01*
X179528Y254731D01*
X180328Y255131D01*
X179928Y254331D01*
X180328Y253531D01*
X179528Y253931D01*
X178728Y253531D01*
X174791Y245657D02*
X175191Y246457D01*
X174791Y247257D01*
X175591Y246857D01*
X176391Y247257D01*
X175991Y246457D01*
X176391Y245657D01*
X175591Y246057D01*
X174791Y245657D01*
X178728Y206287D02*
X179128Y207087D01*
X178728Y207887D01*
X179528Y207487D01*
X180328Y207887D01*
X179928Y207087D01*
X180328Y206287D01*
X179528Y206687D01*
X178728Y206287D01*
X174791Y198413D02*
X175191Y199213D01*
X174791Y200013D01*
X175591Y199613D01*
X176391Y200013D01*
X175991Y199213D01*
X176391Y198413D01*
X175591Y198813D01*
X174791Y198413D01*
X178728Y174791D02*
X179128Y175591D01*
X178728Y176391D01*
X179528Y175991D01*
X180328Y176391D01*
X179928Y175591D01*
X180328Y174791D01*
X179528Y175191D01*
X178728Y174791D01*
Y17310D02*
X179128Y18110D01*
X178728Y18910D01*
X179528Y18510D01*
X180328Y18910D01*
X179928Y18110D01*
X180328Y17310D01*
X179528Y17710D01*
X178728Y17310D01*
X166917Y261405D02*
X167317Y262205D01*
X166917Y263005D01*
X167717Y262605D01*
X168517Y263005D01*
X168117Y262205D01*
X168517Y261405D01*
X167717Y261805D01*
X166917Y261405D01*
X170854Y253531D02*
X171254Y254331D01*
X170854Y255131D01*
X171654Y254731D01*
X172454Y255131D01*
X172054Y254331D01*
X172454Y253531D01*
X171654Y253931D01*
X170854Y253531D01*
X166917Y245657D02*
X167317Y246457D01*
X166917Y247257D01*
X167717Y246857D01*
X168517Y247257D01*
X168117Y246457D01*
X168517Y245657D01*
X167717Y246057D01*
X166917Y245657D01*
Y229909D02*
X167317Y230709D01*
X166917Y231509D01*
X167717Y231109D01*
X168517Y231509D01*
X168117Y230709D01*
X168517Y229909D01*
X167717Y230309D01*
X166917Y229909D01*
Y214161D02*
X167317Y214961D01*
X166917Y215761D01*
X167717Y215361D01*
X168517Y215761D01*
X168117Y214961D01*
X168517Y214161D01*
X167717Y214561D01*
X166917Y214161D01*
X170854Y174791D02*
X171254Y175591D01*
X170854Y176391D01*
X171654Y175991D01*
X172454Y176391D01*
X172054Y175591D01*
X172454Y174791D01*
X171654Y175191D01*
X170854Y174791D01*
X166917Y135421D02*
X167317Y136221D01*
X166917Y137021D01*
X167717Y136621D01*
X168517Y137021D01*
X168117Y136221D01*
X168517Y135421D01*
X167717Y135821D01*
X166917Y135421D01*
Y25184D02*
X167317Y25984D01*
X166917Y26784D01*
X167717Y26384D01*
X168517Y26784D01*
X168117Y25984D01*
X168517Y25184D01*
X167717Y25584D01*
X166917Y25184D01*
X159043Y261405D02*
X159443Y262205D01*
X159043Y263005D01*
X159843Y262605D01*
X160643Y263005D01*
X160243Y262205D01*
X160643Y261405D01*
X159843Y261805D01*
X159043Y261405D01*
X162980Y253531D02*
X163380Y254331D01*
X162980Y255131D01*
X163780Y254731D01*
X164580Y255131D01*
X164180Y254331D01*
X164580Y253531D01*
X163780Y253931D01*
X162980Y253531D01*
X159043Y245657D02*
X159443Y246457D01*
X159043Y247257D01*
X159843Y246857D01*
X160643Y247257D01*
X160243Y246457D01*
X160643Y245657D01*
X159843Y246057D01*
X159043Y245657D01*
X162980Y222035D02*
X163380Y222835D01*
X162980Y223635D01*
X163780Y223235D01*
X164580Y223635D01*
X164180Y222835D01*
X164580Y222035D01*
X163780Y222435D01*
X162980Y222035D01*
X159043Y214161D02*
X159443Y214961D01*
X159043Y215761D01*
X159843Y215361D01*
X160643Y215761D01*
X160243Y214961D01*
X160643Y214161D01*
X159843Y214561D01*
X159043Y214161D01*
X162980Y206287D02*
X163380Y207087D01*
X162980Y207887D01*
X163780Y207487D01*
X164580Y207887D01*
X164180Y207087D01*
X164580Y206287D01*
X163780Y206687D01*
X162980Y206287D01*
X159043Y166917D02*
X159443Y167717D01*
X159043Y168517D01*
X159843Y168117D01*
X160643Y168517D01*
X160243Y167717D01*
X160643Y166917D01*
X159843Y167317D01*
X159043Y166917D01*
X162980Y64554D02*
X163380Y65354D01*
X162980Y66154D01*
X163780Y65754D01*
X164580Y66154D01*
X164180Y65354D01*
X164580Y64554D01*
X163780Y64954D01*
X162980Y64554D01*
X159043Y56680D02*
X159443Y57480D01*
X159043Y58280D01*
X159843Y57880D01*
X160643Y58280D01*
X160243Y57480D01*
X160643Y56680D01*
X159843Y57080D01*
X159043Y56680D01*
X162980Y48806D02*
X163380Y49606D01*
X162980Y50406D01*
X163780Y50006D01*
X164580Y50406D01*
X164180Y49606D01*
X164580Y48806D01*
X163780Y49206D01*
X162980Y48806D01*
Y17310D02*
X163380Y18110D01*
X162980Y18910D01*
X163780Y18510D01*
X164580Y18910D01*
X164180Y18110D01*
X164580Y17310D01*
X163780Y17710D01*
X162980Y17310D01*
X155106Y269279D02*
X155506Y270079D01*
X155106Y270879D01*
X155906Y270479D01*
X156706Y270879D01*
X156306Y270079D01*
X156706Y269279D01*
X155906Y269679D01*
X155106Y269279D01*
X151169Y261405D02*
X151569Y262205D01*
X151169Y263005D01*
X151969Y262605D01*
X152769Y263005D01*
X152369Y262205D01*
X152769Y261405D01*
X151969Y261805D01*
X151169Y261405D01*
X155106Y253531D02*
X155506Y254331D01*
X155106Y255131D01*
X155906Y254731D01*
X156706Y255131D01*
X156306Y254331D01*
X156706Y253531D01*
X155906Y253931D01*
X155106Y253531D01*
X151169Y245657D02*
X151569Y246457D01*
X151169Y247257D01*
X151969Y246857D01*
X152769Y247257D01*
X152369Y246457D01*
X152769Y245657D01*
X151969Y246057D01*
X151169Y245657D01*
Y214161D02*
X151569Y214961D01*
X151169Y215761D01*
X151969Y215361D01*
X152769Y215761D01*
X152369Y214961D01*
X152769Y214161D01*
X151969Y214561D01*
X151169Y214161D01*
X155106Y206287D02*
X155506Y207087D01*
X155106Y207887D01*
X155906Y207487D01*
X156706Y207887D01*
X156306Y207087D01*
X156706Y206287D01*
X155906Y206687D01*
X155106Y206287D01*
X151169Y151169D02*
X151569Y151969D01*
X151169Y152769D01*
X151969Y152369D01*
X152769Y152769D01*
X152369Y151969D01*
X152769Y151169D01*
X151969Y151569D01*
X151169Y151169D01*
Y88177D02*
X151569Y88977D01*
X151169Y89776D01*
X151969Y89376D01*
X152769Y89776D01*
X152369Y88977D01*
X152769Y88177D01*
X151969Y88577D01*
X151169Y88177D01*
X155106Y64554D02*
X155506Y65354D01*
X155106Y66154D01*
X155906Y65754D01*
X156706Y66154D01*
X156306Y65354D01*
X156706Y64554D01*
X155906Y64954D01*
X155106Y64554D01*
Y48806D02*
X155506Y49606D01*
X155106Y50406D01*
X155906Y50006D01*
X156706Y50406D01*
X156306Y49606D01*
X156706Y48806D01*
X155906Y49206D01*
X155106Y48806D01*
Y33058D02*
X155506Y33858D01*
X155106Y34658D01*
X155906Y34258D01*
X156706Y34658D01*
X156306Y33858D01*
X156706Y33058D01*
X155906Y33458D01*
X155106Y33058D01*
Y17310D02*
X155506Y18110D01*
X155106Y18910D01*
X155906Y18510D01*
X156706Y18910D01*
X156306Y18110D01*
X156706Y17310D01*
X155906Y17710D01*
X155106Y17310D01*
X147232Y269279D02*
X147632Y270079D01*
X147232Y270879D01*
X148032Y270479D01*
X148832Y270879D01*
X148432Y270079D01*
X148832Y269279D01*
X148032Y269679D01*
X147232Y269279D01*
X143295Y261405D02*
X143695Y262205D01*
X143295Y263005D01*
X144095Y262605D01*
X144895Y263005D01*
X144495Y262205D01*
X144895Y261405D01*
X144095Y261805D01*
X143295Y261405D01*
X147232Y253531D02*
X147632Y254331D01*
X147232Y255131D01*
X148032Y254731D01*
X148832Y255131D01*
X148432Y254331D01*
X148832Y253531D01*
X148032Y253931D01*
X147232Y253531D01*
X143295Y245657D02*
X143695Y246457D01*
X143295Y247257D01*
X144095Y246857D01*
X144895Y247257D01*
X144495Y246457D01*
X144895Y245657D01*
X144095Y246057D01*
X143295Y245657D01*
X147232Y222035D02*
X147632Y222835D01*
X147232Y223635D01*
X148032Y223235D01*
X148832Y223635D01*
X148432Y222835D01*
X148832Y222035D01*
X148032Y222435D01*
X147232Y222035D01*
Y206287D02*
X147632Y207087D01*
X147232Y207887D01*
X148032Y207487D01*
X148832Y207887D01*
X148432Y207087D01*
X148832Y206287D01*
X148032Y206687D01*
X147232Y206287D01*
Y143295D02*
X147632Y144095D01*
X147232Y144895D01*
X148032Y144495D01*
X148832Y144895D01*
X148432Y144095D01*
X148832Y143295D01*
X148032Y143695D01*
X147232Y143295D01*
X143295Y135421D02*
X143695Y136221D01*
X143295Y137021D01*
X144095Y136621D01*
X144895Y137021D01*
X144495Y136221D01*
X144895Y135421D01*
X144095Y135821D01*
X143295Y135421D01*
Y119673D02*
X143695Y120473D01*
X143295Y121273D01*
X144095Y120873D01*
X144895Y121273D01*
X144495Y120473D01*
X144895Y119673D01*
X144095Y120073D01*
X143295Y119673D01*
Y103925D02*
X143695Y104725D01*
X143295Y105525D01*
X144095Y105124D01*
X144895Y105525D01*
X144495Y104725D01*
X144895Y103925D01*
X144095Y104324D01*
X143295Y103925D01*
X135421Y261405D02*
X135821Y262205D01*
X135421Y263005D01*
X136221Y262605D01*
X137021Y263005D01*
X136621Y262205D01*
X137021Y261405D01*
X136221Y261805D01*
X135421Y261405D01*
X139358Y253531D02*
X139758Y254331D01*
X139358Y255131D01*
X140158Y254731D01*
X140958Y255131D01*
X140558Y254331D01*
X140958Y253531D01*
X140158Y253931D01*
X139358Y253531D01*
X135421Y245657D02*
X135821Y246457D01*
X135421Y247257D01*
X136221Y246857D01*
X137021Y247257D01*
X136621Y246457D01*
X137021Y245657D01*
X136221Y246057D01*
X135421Y245657D01*
Y229909D02*
X135821Y230709D01*
X135421Y231509D01*
X136221Y231109D01*
X137021Y231509D01*
X136621Y230709D01*
X137021Y229909D01*
X136221Y230309D01*
X135421Y229909D01*
Y214161D02*
X135821Y214961D01*
X135421Y215761D01*
X136221Y215361D01*
X137021Y215761D01*
X136621Y214961D01*
X137021Y214161D01*
X136221Y214561D01*
X135421Y214161D01*
Y198413D02*
X135821Y199213D01*
X135421Y200013D01*
X136221Y199613D01*
X137021Y200013D01*
X136621Y199213D01*
X137021Y198413D01*
X136221Y198813D01*
X135421Y198413D01*
Y182665D02*
X135821Y183465D01*
X135421Y184265D01*
X136221Y183865D01*
X137021Y184265D01*
X136621Y183465D01*
X137021Y182665D01*
X136221Y183065D01*
X135421Y182665D01*
Y166917D02*
X135821Y167717D01*
X135421Y168517D01*
X136221Y168117D01*
X137021Y168517D01*
X136621Y167717D01*
X137021Y166917D01*
X136221Y167317D01*
X135421Y166917D01*
Y72428D02*
X135821Y73228D01*
X135421Y74028D01*
X136221Y73628D01*
X137021Y74028D01*
X136621Y73228D01*
X137021Y72428D01*
X136221Y72828D01*
X135421Y72428D01*
Y56680D02*
X135821Y57480D01*
X135421Y58280D01*
X136221Y57880D01*
X137021Y58280D01*
X136621Y57480D01*
X137021Y56680D01*
X136221Y57080D01*
X135421Y56680D01*
Y9436D02*
X135821Y10236D01*
X135421Y11036D01*
X136221Y10636D01*
X137021Y11036D01*
X136621Y10236D01*
X137021Y9436D01*
X136221Y9836D01*
X135421Y9436D01*
X131484Y269279D02*
X131884Y270079D01*
X131484Y270879D01*
X132284Y270479D01*
X133084Y270879D01*
X132684Y270079D01*
X133084Y269279D01*
X132284Y269679D01*
X131484Y269279D01*
X127547Y261405D02*
X127947Y262205D01*
X127547Y263005D01*
X128347Y262605D01*
X129147Y263005D01*
X128747Y262205D01*
X129147Y261405D01*
X128347Y261805D01*
X127547Y261405D01*
Y245657D02*
X127947Y246457D01*
X127547Y247257D01*
X128347Y246857D01*
X129147Y247257D01*
X128747Y246457D01*
X129147Y245657D01*
X128347Y246057D01*
X127547Y245657D01*
X131484Y237783D02*
X131884Y238583D01*
X131484Y239383D01*
X132284Y238983D01*
X133084Y239383D01*
X132684Y238583D01*
X133084Y237783D01*
X132284Y238183D01*
X131484Y237783D01*
X127547Y151169D02*
X127947Y151969D01*
X127547Y152769D01*
X128347Y152369D01*
X129147Y152769D01*
X128747Y151969D01*
X129147Y151169D01*
X128347Y151569D01*
X127547Y151169D01*
Y103925D02*
X127947Y104725D01*
X127547Y105525D01*
X128347Y105124D01*
X129147Y105525D01*
X128747Y104725D01*
X129147Y103925D01*
X128347Y104324D01*
X127547Y103925D01*
Y72428D02*
X127947Y73228D01*
X127547Y74028D01*
X128347Y73628D01*
X129147Y74028D01*
X128747Y73228D01*
X129147Y72428D01*
X128347Y72828D01*
X127547Y72428D01*
X131484Y64554D02*
X131884Y65354D01*
X131484Y66154D01*
X132284Y65754D01*
X133084Y66154D01*
X132684Y65354D01*
X133084Y64554D01*
X132284Y64954D01*
X131484Y64554D01*
Y33058D02*
X131884Y33858D01*
X131484Y34658D01*
X132284Y34258D01*
X133084Y34658D01*
X132684Y33858D01*
X133084Y33058D01*
X132284Y33458D01*
X131484Y33058D01*
X127547Y9436D02*
X127947Y10236D01*
X127547Y11036D01*
X128347Y10636D01*
X129147Y11036D01*
X128747Y10236D01*
X129147Y9436D01*
X128347Y9836D01*
X127547Y9436D01*
X123610Y269279D02*
X124010Y270079D01*
X123610Y270879D01*
X124410Y270479D01*
X125210Y270879D01*
X124810Y270079D01*
X125210Y269279D01*
X124410Y269679D01*
X123610Y269279D01*
X119673Y261405D02*
X120073Y262205D01*
X119673Y263005D01*
X120473Y262605D01*
X121273Y263005D01*
X120873Y262205D01*
X121273Y261405D01*
X120473Y261805D01*
X119673Y261405D01*
X123610Y253531D02*
X124010Y254331D01*
X123610Y255131D01*
X124410Y254731D01*
X125210Y255131D01*
X124810Y254331D01*
X125210Y253531D01*
X124410Y253931D01*
X123610Y253531D01*
X119673Y245657D02*
X120073Y246457D01*
X119673Y247257D01*
X120473Y246857D01*
X121273Y247257D01*
X120873Y246457D01*
X121273Y245657D01*
X120473Y246057D01*
X119673Y245657D01*
Y151169D02*
X120073Y151969D01*
X119673Y152769D01*
X120473Y152369D01*
X121273Y152769D01*
X120873Y151969D01*
X121273Y151169D01*
X120473Y151569D01*
X119673Y151169D01*
X123610Y143295D02*
X124010Y144095D01*
X123610Y144895D01*
X124410Y144495D01*
X125210Y144895D01*
X124810Y144095D01*
X125210Y143295D01*
X124410Y143695D01*
X123610Y143295D01*
Y80303D02*
X124010Y81103D01*
X123610Y81902D01*
X124410Y81502D01*
X125210Y81902D01*
X124810Y81103D01*
X125210Y80303D01*
X124410Y80703D01*
X123610Y80303D01*
X119673Y72428D02*
X120073Y73228D01*
X119673Y74028D01*
X120473Y73628D01*
X121273Y74028D01*
X120873Y73228D01*
X121273Y72428D01*
X120473Y72828D01*
X119673Y72428D01*
Y56680D02*
X120073Y57480D01*
X119673Y58280D01*
X120473Y57880D01*
X121273Y58280D01*
X120873Y57480D01*
X121273Y56680D01*
X120473Y57080D01*
X119673Y56680D01*
X123610Y33058D02*
X124010Y33858D01*
X123610Y34658D01*
X124410Y34258D01*
X125210Y34658D01*
X124810Y33858D01*
X125210Y33058D01*
X124410Y33458D01*
X123610Y33058D01*
X119673Y25184D02*
X120073Y25984D01*
X119673Y26784D01*
X120473Y26384D01*
X121273Y26784D01*
X120873Y25984D01*
X121273Y25184D01*
X120473Y25584D01*
X119673Y25184D01*
Y9436D02*
X120073Y10236D01*
X119673Y11036D01*
X120473Y10636D01*
X121273Y11036D01*
X120873Y10236D01*
X121273Y9436D01*
X120473Y9836D01*
X119673Y9436D01*
X115735Y269279D02*
X116136Y270079D01*
X115735Y270879D01*
X116535Y270479D01*
X117335Y270879D01*
X116936Y270079D01*
X117335Y269279D01*
X116535Y269679D01*
X115735Y269279D01*
X111799Y261405D02*
X112198Y262205D01*
X111799Y263005D01*
X112599Y262605D01*
X113399Y263005D01*
X112998Y262205D01*
X113399Y261405D01*
X112599Y261805D01*
X111799Y261405D01*
X115735Y253531D02*
X116136Y254331D01*
X115735Y255131D01*
X116535Y254731D01*
X117335Y255131D01*
X116936Y254331D01*
X117335Y253531D01*
X116535Y253931D01*
X115735Y253531D01*
X111799Y166917D02*
X112198Y167717D01*
X111799Y168517D01*
X112599Y168117D01*
X113399Y168517D01*
X112998Y167717D01*
X113399Y166917D01*
X112599Y167317D01*
X111799Y166917D01*
X115735Y143295D02*
X116136Y144095D01*
X115735Y144895D01*
X116535Y144495D01*
X117335Y144895D01*
X116936Y144095D01*
X117335Y143295D01*
X116535Y143695D01*
X115735Y143295D01*
Y111799D02*
X116136Y112599D01*
X115735Y113399D01*
X116535Y112998D01*
X117335Y113399D01*
X116936Y112599D01*
X117335Y111799D01*
X116535Y112198D01*
X115735Y111799D01*
X111799Y103925D02*
X112198Y104725D01*
X111799Y105525D01*
X112599Y105124D01*
X113399Y105525D01*
X112998Y104725D01*
X113399Y103925D01*
X112599Y104324D01*
X111799Y103925D01*
X115735Y80303D02*
X116136Y81103D01*
X115735Y81902D01*
X116535Y81502D01*
X117335Y81902D01*
X116936Y81103D01*
X117335Y80303D01*
X116535Y80703D01*
X115735Y80303D01*
X111799Y40932D02*
X112198Y41732D01*
X111799Y42532D01*
X112599Y42132D01*
X113399Y42532D01*
X112998Y41732D01*
X113399Y40932D01*
X112599Y41332D01*
X111799Y40932D01*
X115735Y33058D02*
X116136Y33858D01*
X115735Y34658D01*
X116535Y34258D01*
X117335Y34658D01*
X116936Y33858D01*
X117335Y33058D01*
X116535Y33458D01*
X115735Y33058D01*
X111799Y25184D02*
X112198Y25984D01*
X111799Y26784D01*
X112599Y26384D01*
X113399Y26784D01*
X112998Y25984D01*
X113399Y25184D01*
X112599Y25584D01*
X111799Y25184D01*
X115735Y17310D02*
X116136Y18110D01*
X115735Y18910D01*
X116535Y18510D01*
X117335Y18910D01*
X116936Y18110D01*
X117335Y17310D01*
X116535Y17710D01*
X115735Y17310D01*
X111799Y9436D02*
X112198Y10236D01*
X111799Y11036D01*
X112599Y10636D01*
X113399Y11036D01*
X112998Y10236D01*
X113399Y9436D01*
X112599Y9836D01*
X111799Y9436D01*
X103925Y261405D02*
X104324Y262205D01*
X103925Y263005D01*
X104725Y262605D01*
X105525Y263005D01*
X105124Y262205D01*
X105525Y261405D01*
X104725Y261805D01*
X103925Y261405D01*
Y166917D02*
X104324Y167717D01*
X103925Y168517D01*
X104725Y168117D01*
X105525Y168517D01*
X105124Y167717D01*
X105525Y166917D01*
X104725Y167317D01*
X103925Y166917D01*
X107861Y159043D02*
X108262Y159843D01*
X107861Y160643D01*
X108661Y160243D01*
X109461Y160643D01*
X109062Y159843D01*
X109461Y159043D01*
X108661Y159443D01*
X107861Y159043D01*
Y48806D02*
X108262Y49606D01*
X107861Y50406D01*
X108661Y50006D01*
X109461Y50406D01*
X109062Y49606D01*
X109461Y48806D01*
X108661Y49206D01*
X107861Y48806D01*
Y33058D02*
X108262Y33858D01*
X107861Y34658D01*
X108661Y34258D01*
X109461Y34658D01*
X109062Y33858D01*
X109461Y33058D01*
X108661Y33458D01*
X107861Y33058D01*
X103925Y25184D02*
X104324Y25984D01*
X103925Y26784D01*
X104725Y26384D01*
X105525Y26784D01*
X105124Y25984D01*
X105525Y25184D01*
X104725Y25584D01*
X103925Y25184D01*
Y9436D02*
X104324Y10236D01*
X103925Y11036D01*
X104725Y10636D01*
X105525Y11036D01*
X105124Y10236D01*
X105525Y9436D01*
X104725Y9836D01*
X103925Y9436D01*
X96051Y261405D02*
X96451Y262205D01*
X96051Y263005D01*
X96851Y262605D01*
X97650Y263005D01*
X97250Y262205D01*
X97650Y261405D01*
X96851Y261805D01*
X96051Y261405D01*
Y245657D02*
X96451Y246457D01*
X96051Y247257D01*
X96851Y246857D01*
X97650Y247257D01*
X97250Y246457D01*
X97650Y245657D01*
X96851Y246057D01*
X96051Y245657D01*
Y166917D02*
X96451Y167717D01*
X96051Y168517D01*
X96851Y168117D01*
X97650Y168517D01*
X97250Y167717D01*
X97650Y166917D01*
X96851Y167317D01*
X96051Y166917D01*
Y151169D02*
X96451Y151969D01*
X96051Y152769D01*
X96851Y152369D01*
X97650Y152769D01*
X97250Y151969D01*
X97650Y151169D01*
X96851Y151569D01*
X96051Y151169D01*
Y135421D02*
X96451Y136221D01*
X96051Y137021D01*
X96851Y136621D01*
X97650Y137021D01*
X97250Y136221D01*
X97650Y135421D01*
X96851Y135821D01*
X96051Y135421D01*
Y119673D02*
X96451Y120473D01*
X96051Y121273D01*
X96851Y120873D01*
X97650Y121273D01*
X97250Y120473D01*
X97650Y119673D01*
X96851Y120073D01*
X96051Y119673D01*
X99988Y80303D02*
X100388Y81103D01*
X99988Y81902D01*
X100787Y81502D01*
X101587Y81902D01*
X101188Y81103D01*
X101587Y80303D01*
X100787Y80703D01*
X99988Y80303D01*
X96051Y40932D02*
X96451Y41732D01*
X96051Y42532D01*
X96851Y42132D01*
X97650Y42532D01*
X97250Y41732D01*
X97650Y40932D01*
X96851Y41332D01*
X96051Y40932D01*
Y25184D02*
X96451Y25984D01*
X96051Y26784D01*
X96851Y26384D01*
X97650Y26784D01*
X97250Y25984D01*
X97650Y25184D01*
X96851Y25584D01*
X96051Y25184D01*
Y9436D02*
X96451Y10236D01*
X96051Y11036D01*
X96851Y10636D01*
X97650Y11036D01*
X97250Y10236D01*
X97650Y9436D01*
X96851Y9836D01*
X96051Y9436D01*
X92114Y269279D02*
X92514Y270079D01*
X92114Y270879D01*
X92914Y270479D01*
X93713Y270879D01*
X93313Y270079D01*
X93713Y269279D01*
X92914Y269679D01*
X92114Y269279D01*
X88177Y261405D02*
X88577Y262205D01*
X88177Y263005D01*
X88977Y262605D01*
X89776Y263005D01*
X89376Y262205D01*
X89776Y261405D01*
X88977Y261805D01*
X88177Y261405D01*
X92114Y253531D02*
X92514Y254331D01*
X92114Y255131D01*
X92914Y254731D01*
X93713Y255131D01*
X93313Y254331D01*
X93713Y253531D01*
X92914Y253931D01*
X92114Y253531D01*
X88177Y245657D02*
X88577Y246457D01*
X88177Y247257D01*
X88977Y246857D01*
X89776Y247257D01*
X89376Y246457D01*
X89776Y245657D01*
X88977Y246057D01*
X88177Y245657D01*
X92114Y206287D02*
X92514Y207087D01*
X92114Y207887D01*
X92914Y207487D01*
X93713Y207887D01*
X93313Y207087D01*
X93713Y206287D01*
X92914Y206687D01*
X92114Y206287D01*
Y190539D02*
X92514Y191339D01*
X92114Y192139D01*
X92914Y191739D01*
X93713Y192139D01*
X93313Y191339D01*
X93713Y190539D01*
X92914Y190939D01*
X92114Y190539D01*
X88177Y40932D02*
X88577Y41732D01*
X88177Y42532D01*
X88977Y42132D01*
X89776Y42532D01*
X89376Y41732D01*
X89776Y40932D01*
X88977Y41332D01*
X88177Y40932D01*
Y25184D02*
X88577Y25984D01*
X88177Y26784D01*
X88977Y26384D01*
X89776Y26784D01*
X89376Y25984D01*
X89776Y25184D01*
X88977Y25584D01*
X88177Y25184D01*
Y9436D02*
X88577Y10236D01*
X88177Y11036D01*
X88977Y10636D01*
X89776Y11036D01*
X89376Y10236D01*
X89776Y9436D01*
X88977Y9836D01*
X88177Y9436D01*
X84240Y269279D02*
X84640Y270079D01*
X84240Y270879D01*
X85040Y270479D01*
X85839Y270879D01*
X85439Y270079D01*
X85839Y269279D01*
X85040Y269679D01*
X84240Y269279D01*
X80303Y261405D02*
X80703Y262205D01*
X80303Y263005D01*
X81103Y262605D01*
X81902Y263005D01*
X81502Y262205D01*
X81902Y261405D01*
X81103Y261805D01*
X80303Y261405D01*
X84240Y253531D02*
X84640Y254331D01*
X84240Y255131D01*
X85040Y254731D01*
X85839Y255131D01*
X85439Y254331D01*
X85839Y253531D01*
X85040Y253931D01*
X84240Y253531D01*
X80303Y245657D02*
X80703Y246457D01*
X80303Y247257D01*
X81103Y246857D01*
X81902Y247257D01*
X81502Y246457D01*
X81902Y245657D01*
X81103Y246057D01*
X80303Y245657D01*
X84240Y237783D02*
X84640Y238583D01*
X84240Y239383D01*
X85040Y238983D01*
X85839Y239383D01*
X85439Y238583D01*
X85839Y237783D01*
X85040Y238183D01*
X84240Y237783D01*
X80303Y229909D02*
X80703Y230709D01*
X80303Y231509D01*
X81103Y231109D01*
X81902Y231509D01*
X81502Y230709D01*
X81902Y229909D01*
X81103Y230309D01*
X80303Y229909D01*
Y135421D02*
X80703Y136221D01*
X80303Y137021D01*
X81103Y136621D01*
X81902Y137021D01*
X81502Y136221D01*
X81902Y135421D01*
X81103Y135821D01*
X80303Y135421D01*
Y103925D02*
X80703Y104725D01*
X80303Y105525D01*
X81103Y105124D01*
X81902Y105525D01*
X81502Y104725D01*
X81902Y103925D01*
X81103Y104324D01*
X80303Y103925D01*
Y88177D02*
X80703Y88977D01*
X80303Y89776D01*
X81103Y89376D01*
X81902Y89776D01*
X81502Y88977D01*
X81902Y88177D01*
X81103Y88577D01*
X80303Y88177D01*
X84240Y17310D02*
X84640Y18110D01*
X84240Y18910D01*
X85040Y18510D01*
X85839Y18910D01*
X85439Y18110D01*
X85839Y17310D01*
X85040Y17710D01*
X84240Y17310D01*
X80303Y9436D02*
X80703Y10236D01*
X80303Y11036D01*
X81103Y10636D01*
X81902Y11036D01*
X81502Y10236D01*
X81902Y9436D01*
X81103Y9836D01*
X80303Y9436D01*
X76365Y269279D02*
X76765Y270079D01*
X76365Y270879D01*
X77165Y270479D01*
X77965Y270879D01*
X77565Y270079D01*
X77965Y269279D01*
X77165Y269679D01*
X76365Y269279D01*
X72428Y261405D02*
X72828Y262205D01*
X72428Y263005D01*
X73228Y262605D01*
X74028Y263005D01*
X73628Y262205D01*
X74028Y261405D01*
X73228Y261805D01*
X72428Y261405D01*
X76365Y253531D02*
X76765Y254331D01*
X76365Y255131D01*
X77165Y254731D01*
X77965Y255131D01*
X77565Y254331D01*
X77965Y253531D01*
X77165Y253931D01*
X76365Y253531D01*
X72428Y245657D02*
X72828Y246457D01*
X72428Y247257D01*
X73228Y246857D01*
X74028Y247257D01*
X73628Y246457D01*
X74028Y245657D01*
X73228Y246057D01*
X72428Y245657D01*
X76365Y237783D02*
X76765Y238583D01*
X76365Y239383D01*
X77165Y238983D01*
X77965Y239383D01*
X77565Y238583D01*
X77965Y237783D01*
X77165Y238183D01*
X76365Y237783D01*
X72428Y229909D02*
X72828Y230709D01*
X72428Y231509D01*
X73228Y231109D01*
X74028Y231509D01*
X73628Y230709D01*
X74028Y229909D01*
X73228Y230309D01*
X72428Y229909D01*
X76365Y222035D02*
X76765Y222835D01*
X76365Y223635D01*
X77165Y223235D01*
X77965Y223635D01*
X77565Y222835D01*
X77965Y222035D01*
X77165Y222435D01*
X76365Y222035D01*
Y206287D02*
X76765Y207087D01*
X76365Y207887D01*
X77165Y207487D01*
X77965Y207887D01*
X77565Y207087D01*
X77965Y206287D01*
X77165Y206687D01*
X76365Y206287D01*
Y190539D02*
X76765Y191339D01*
X76365Y192139D01*
X77165Y191739D01*
X77965Y192139D01*
X77565Y191339D01*
X77965Y190539D01*
X77165Y190939D01*
X76365Y190539D01*
X72428Y182665D02*
X72828Y183465D01*
X72428Y184265D01*
X73228Y183865D01*
X74028Y184265D01*
X73628Y183465D01*
X74028Y182665D01*
X73228Y183065D01*
X72428Y182665D01*
Y103925D02*
X72828Y104725D01*
X72428Y105525D01*
X73228Y105124D01*
X74028Y105525D01*
X73628Y104725D01*
X74028Y103925D01*
X73228Y104324D01*
X72428Y103925D01*
X76365Y96051D02*
X76765Y96851D01*
X76365Y97650D01*
X77165Y97250D01*
X77965Y97650D01*
X77565Y96851D01*
X77965Y96051D01*
X77165Y96451D01*
X76365Y96051D01*
X72428Y88177D02*
X72828Y88977D01*
X72428Y89776D01*
X73228Y89376D01*
X74028Y89776D01*
X73628Y88977D01*
X74028Y88177D01*
X73228Y88577D01*
X72428Y88177D01*
Y72428D02*
X72828Y73228D01*
X72428Y74028D01*
X73228Y73628D01*
X74028Y74028D01*
X73628Y73228D01*
X74028Y72428D01*
X73228Y72828D01*
X72428Y72428D01*
X76365Y33058D02*
X76765Y33858D01*
X76365Y34658D01*
X77165Y34258D01*
X77965Y34658D01*
X77565Y33858D01*
X77965Y33058D01*
X77165Y33458D01*
X76365Y33058D01*
X72428Y9436D02*
X72828Y10236D01*
X72428Y11036D01*
X73228Y10636D01*
X74028Y11036D01*
X73628Y10236D01*
X74028Y9436D01*
X73228Y9836D01*
X72428Y9436D01*
X68491Y269279D02*
X68891Y270079D01*
X68491Y270879D01*
X69291Y270479D01*
X70091Y270879D01*
X69691Y270079D01*
X70091Y269279D01*
X69291Y269679D01*
X68491Y269279D01*
X64554Y261405D02*
X64954Y262205D01*
X64554Y263005D01*
X65354Y262605D01*
X66154Y263005D01*
X65754Y262205D01*
X66154Y261405D01*
X65354Y261805D01*
X64554Y261405D01*
X68491Y253531D02*
X68891Y254331D01*
X68491Y255131D01*
X69291Y254731D01*
X70091Y255131D01*
X69691Y254331D01*
X70091Y253531D01*
X69291Y253931D01*
X68491Y253531D01*
X64554Y245657D02*
X64954Y246457D01*
X64554Y247257D01*
X65354Y246857D01*
X66154Y247257D01*
X65754Y246457D01*
X66154Y245657D01*
X65354Y246057D01*
X64554Y245657D01*
X68491Y237783D02*
X68891Y238583D01*
X68491Y239383D01*
X69291Y238983D01*
X70091Y239383D01*
X69691Y238583D01*
X70091Y237783D01*
X69291Y238183D01*
X68491Y237783D01*
X64554Y229909D02*
X64954Y230709D01*
X64554Y231509D01*
X65354Y231109D01*
X66154Y231509D01*
X65754Y230709D01*
X66154Y229909D01*
X65354Y230309D01*
X64554Y229909D01*
X68491Y222035D02*
X68891Y222835D01*
X68491Y223635D01*
X69291Y223235D01*
X70091Y223635D01*
X69691Y222835D01*
X70091Y222035D01*
X69291Y222435D01*
X68491Y222035D01*
X64554Y214161D02*
X64954Y214961D01*
X64554Y215761D01*
X65354Y215361D01*
X66154Y215761D01*
X65754Y214961D01*
X66154Y214161D01*
X65354Y214561D01*
X64554Y214161D01*
X68491Y206287D02*
X68891Y207087D01*
X68491Y207887D01*
X69291Y207487D01*
X70091Y207887D01*
X69691Y207087D01*
X70091Y206287D01*
X69291Y206687D01*
X68491Y206287D01*
X64554Y182665D02*
X64954Y183465D01*
X64554Y184265D01*
X65354Y183865D01*
X66154Y184265D01*
X65754Y183465D01*
X66154Y182665D01*
X65354Y183065D01*
X64554Y182665D01*
X68491Y127547D02*
X68891Y128347D01*
X68491Y129147D01*
X69291Y128747D01*
X70091Y129147D01*
X69691Y128347D01*
X70091Y127547D01*
X69291Y127947D01*
X68491Y127547D01*
X64554Y119673D02*
X64954Y120473D01*
X64554Y121273D01*
X65354Y120873D01*
X66154Y121273D01*
X65754Y120473D01*
X66154Y119673D01*
X65354Y120073D01*
X64554Y119673D01*
X68491Y96051D02*
X68891Y96851D01*
X68491Y97650D01*
X69291Y97250D01*
X70091Y97650D01*
X69691Y96851D01*
X70091Y96051D01*
X69291Y96451D01*
X68491Y96051D01*
X64554Y72428D02*
X64954Y73228D01*
X64554Y74028D01*
X65354Y73628D01*
X66154Y74028D01*
X65754Y73228D01*
X66154Y72428D01*
X65354Y72828D01*
X64554Y72428D01*
X68491Y48806D02*
X68891Y49606D01*
X68491Y50406D01*
X69291Y50006D01*
X70091Y50406D01*
X69691Y49606D01*
X70091Y48806D01*
X69291Y49206D01*
X68491Y48806D01*
X64554Y25184D02*
X64954Y25984D01*
X64554Y26784D01*
X65354Y26384D01*
X66154Y26784D01*
X65754Y25984D01*
X66154Y25184D01*
X65354Y25584D01*
X64554Y25184D01*
X68491Y17310D02*
X68891Y18110D01*
X68491Y18910D01*
X69291Y18510D01*
X70091Y18910D01*
X69691Y18110D01*
X70091Y17310D01*
X69291Y17710D01*
X68491Y17310D01*
X64554Y9436D02*
X64954Y10236D01*
X64554Y11036D01*
X65354Y10636D01*
X66154Y11036D01*
X65754Y10236D01*
X66154Y9436D01*
X65354Y9836D01*
X64554Y9436D01*
X60617Y269279D02*
X61017Y270079D01*
X60617Y270879D01*
X61417Y270479D01*
X62217Y270879D01*
X61817Y270079D01*
X62217Y269279D01*
X61417Y269679D01*
X60617Y269279D01*
X56680Y261405D02*
X57080Y262205D01*
X56680Y263005D01*
X57480Y262605D01*
X58280Y263005D01*
X57880Y262205D01*
X58280Y261405D01*
X57480Y261805D01*
X56680Y261405D01*
X60617Y253531D02*
X61017Y254331D01*
X60617Y255131D01*
X61417Y254731D01*
X62217Y255131D01*
X61817Y254331D01*
X62217Y253531D01*
X61417Y253931D01*
X60617Y253531D01*
X56680Y245657D02*
X57080Y246457D01*
X56680Y247257D01*
X57480Y246857D01*
X58280Y247257D01*
X57880Y246457D01*
X58280Y245657D01*
X57480Y246057D01*
X56680Y245657D01*
X60617Y237783D02*
X61017Y238583D01*
X60617Y239383D01*
X61417Y238983D01*
X62217Y239383D01*
X61817Y238583D01*
X62217Y237783D01*
X61417Y238183D01*
X60617Y237783D01*
X56680Y229909D02*
X57080Y230709D01*
X56680Y231509D01*
X57480Y231109D01*
X58280Y231509D01*
X57880Y230709D01*
X58280Y229909D01*
X57480Y230309D01*
X56680Y229909D01*
X60617Y222035D02*
X61017Y222835D01*
X60617Y223635D01*
X61417Y223235D01*
X62217Y223635D01*
X61817Y222835D01*
X62217Y222035D01*
X61417Y222435D01*
X60617Y222035D01*
X56680Y214161D02*
X57080Y214961D01*
X56680Y215761D01*
X57480Y215361D01*
X58280Y215761D01*
X57880Y214961D01*
X58280Y214161D01*
X57480Y214561D01*
X56680Y214161D01*
X60617Y206287D02*
X61017Y207087D01*
X60617Y207887D01*
X61417Y207487D01*
X62217Y207887D01*
X61817Y207087D01*
X62217Y206287D01*
X61417Y206687D01*
X60617Y206287D01*
X56680Y182665D02*
X57080Y183465D01*
X56680Y184265D01*
X57480Y183865D01*
X58280Y184265D01*
X57880Y183465D01*
X58280Y182665D01*
X57480Y183065D01*
X56680Y182665D01*
Y135421D02*
X57080Y136221D01*
X56680Y137021D01*
X57480Y136621D01*
X58280Y137021D01*
X57880Y136221D01*
X58280Y135421D01*
X57480Y135821D01*
X56680Y135421D01*
Y119673D02*
X57080Y120473D01*
X56680Y121273D01*
X57480Y120873D01*
X58280Y121273D01*
X57880Y120473D01*
X58280Y119673D01*
X57480Y120073D01*
X56680Y119673D01*
Y88177D02*
X57080Y88977D01*
X56680Y89776D01*
X57480Y89376D01*
X58280Y89776D01*
X57880Y88977D01*
X58280Y88177D01*
X57480Y88577D01*
X56680Y88177D01*
X60617Y80303D02*
X61017Y81103D01*
X60617Y81902D01*
X61417Y81502D01*
X62217Y81902D01*
X61817Y81103D01*
X62217Y80303D01*
X61417Y80703D01*
X60617Y80303D01*
Y64554D02*
X61017Y65354D01*
X60617Y66154D01*
X61417Y65754D01*
X62217Y66154D01*
X61817Y65354D01*
X62217Y64554D01*
X61417Y64954D01*
X60617Y64554D01*
X56680Y56680D02*
X57080Y57480D01*
X56680Y58280D01*
X57480Y57880D01*
X58280Y58280D01*
X57880Y57480D01*
X58280Y56680D01*
X57480Y57080D01*
X56680Y56680D01*
X60617Y33058D02*
X61017Y33858D01*
X60617Y34658D01*
X61417Y34258D01*
X62217Y34658D01*
X61817Y33858D01*
X62217Y33058D01*
X61417Y33458D01*
X60617Y33058D01*
X56680Y25184D02*
X57080Y25984D01*
X56680Y26784D01*
X57480Y26384D01*
X58280Y26784D01*
X57880Y25984D01*
X58280Y25184D01*
X57480Y25584D01*
X56680Y25184D01*
Y9436D02*
X57080Y10236D01*
X56680Y11036D01*
X57480Y10636D01*
X58280Y11036D01*
X57880Y10236D01*
X58280Y9436D01*
X57480Y9836D01*
X56680Y9436D01*
X48806Y261405D02*
X49206Y262205D01*
X48806Y263005D01*
X49606Y262605D01*
X50406Y263005D01*
X50006Y262205D01*
X50406Y261405D01*
X49606Y261805D01*
X48806Y261405D01*
X52743Y253531D02*
X53143Y254331D01*
X52743Y255131D01*
X53543Y254731D01*
X54343Y255131D01*
X53943Y254331D01*
X54343Y253531D01*
X53543Y253931D01*
X52743Y253531D01*
X48806Y245657D02*
X49206Y246457D01*
X48806Y247257D01*
X49606Y246857D01*
X50406Y247257D01*
X50006Y246457D01*
X50406Y245657D01*
X49606Y246057D01*
X48806Y245657D01*
X52743Y237783D02*
X53143Y238583D01*
X52743Y239383D01*
X53543Y238983D01*
X54343Y239383D01*
X53943Y238583D01*
X54343Y237783D01*
X53543Y238183D01*
X52743Y237783D01*
X48806Y229909D02*
X49206Y230709D01*
X48806Y231509D01*
X49606Y231109D01*
X50406Y231509D01*
X50006Y230709D01*
X50406Y229909D01*
X49606Y230309D01*
X48806Y229909D01*
X52743Y222035D02*
X53143Y222835D01*
X52743Y223635D01*
X53543Y223235D01*
X54343Y223635D01*
X53943Y222835D01*
X54343Y222035D01*
X53543Y222435D01*
X52743Y222035D01*
Y206287D02*
X53143Y207087D01*
X52743Y207887D01*
X53543Y207487D01*
X54343Y207887D01*
X53943Y207087D01*
X54343Y206287D01*
X53543Y206687D01*
X52743Y206287D01*
X48806Y151169D02*
X49206Y151969D01*
X48806Y152769D01*
X49606Y152369D01*
X50406Y152769D01*
X50006Y151969D01*
X50406Y151169D01*
X49606Y151569D01*
X48806Y151169D01*
X52743Y127547D02*
X53143Y128347D01*
X52743Y129147D01*
X53543Y128747D01*
X54343Y129147D01*
X53943Y128347D01*
X54343Y127547D01*
X53543Y127947D01*
X52743Y127547D01*
X48806Y119673D02*
X49206Y120473D01*
X48806Y121273D01*
X49606Y120873D01*
X50406Y121273D01*
X50006Y120473D01*
X50406Y119673D01*
X49606Y120073D01*
X48806Y119673D01*
X52743Y111799D02*
X53143Y112599D01*
X52743Y113399D01*
X53543Y112998D01*
X54343Y113399D01*
X53943Y112599D01*
X54343Y111799D01*
X53543Y112198D01*
X52743Y111799D01*
Y64554D02*
X53143Y65354D01*
X52743Y66154D01*
X53543Y65754D01*
X54343Y66154D01*
X53943Y65354D01*
X54343Y64554D01*
X53543Y64954D01*
X52743Y64554D01*
X48806Y56680D02*
X49206Y57480D01*
X48806Y58280D01*
X49606Y57880D01*
X50406Y58280D01*
X50006Y57480D01*
X50406Y56680D01*
X49606Y57080D01*
X48806Y56680D01*
X52743Y33058D02*
X53143Y33858D01*
X52743Y34658D01*
X53543Y34258D01*
X54343Y34658D01*
X53943Y33858D01*
X54343Y33058D01*
X53543Y33458D01*
X52743Y33058D01*
X48806Y25184D02*
X49206Y25984D01*
X48806Y26784D01*
X49606Y26384D01*
X50406Y26784D01*
X50006Y25984D01*
X50406Y25184D01*
X49606Y25584D01*
X48806Y25184D01*
X52743Y17310D02*
X53143Y18110D01*
X52743Y18910D01*
X53543Y18510D01*
X54343Y18910D01*
X53943Y18110D01*
X54343Y17310D01*
X53543Y17710D01*
X52743Y17310D01*
X48806Y9436D02*
X49206Y10236D01*
X48806Y11036D01*
X49606Y10636D01*
X50406Y11036D01*
X50006Y10236D01*
X50406Y9436D01*
X49606Y9836D01*
X48806Y9436D01*
X40932Y261405D02*
X41332Y262205D01*
X40932Y263005D01*
X41732Y262605D01*
X42532Y263005D01*
X42132Y262205D01*
X42532Y261405D01*
X41732Y261805D01*
X40932Y261405D01*
X44869Y253531D02*
X45269Y254331D01*
X44869Y255131D01*
X45669Y254731D01*
X46469Y255131D01*
X46069Y254331D01*
X46469Y253531D01*
X45669Y253931D01*
X44869Y253531D01*
X40932Y245657D02*
X41332Y246457D01*
X40932Y247257D01*
X41732Y246857D01*
X42532Y247257D01*
X42132Y246457D01*
X42532Y245657D01*
X41732Y246057D01*
X40932Y245657D01*
X44869Y237783D02*
X45269Y238583D01*
X44869Y239383D01*
X45669Y238983D01*
X46469Y239383D01*
X46069Y238583D01*
X46469Y237783D01*
X45669Y238183D01*
X44869Y237783D01*
X40932Y229909D02*
X41332Y230709D01*
X40932Y231509D01*
X41732Y231109D01*
X42532Y231509D01*
X42132Y230709D01*
X42532Y229909D01*
X41732Y230309D01*
X40932Y229909D01*
X44869Y222035D02*
X45269Y222835D01*
X44869Y223635D01*
X45669Y223235D01*
X46469Y223635D01*
X46069Y222835D01*
X46469Y222035D01*
X45669Y222435D01*
X44869Y222035D01*
X40932Y214161D02*
X41332Y214961D01*
X40932Y215761D01*
X41732Y215361D01*
X42532Y215761D01*
X42132Y214961D01*
X42532Y214161D01*
X41732Y214561D01*
X40932Y214161D01*
X44869Y206287D02*
X45269Y207087D01*
X44869Y207887D01*
X45669Y207487D01*
X46469Y207887D01*
X46069Y207087D01*
X46469Y206287D01*
X45669Y206687D01*
X44869Y206287D01*
X40932Y151169D02*
X41332Y151969D01*
X40932Y152769D01*
X41732Y152369D01*
X42532Y152769D01*
X42132Y151969D01*
X42532Y151169D01*
X41732Y151569D01*
X40932Y151169D01*
X44869Y127547D02*
X45269Y128347D01*
X44869Y129147D01*
X45669Y128747D01*
X46469Y129147D01*
X46069Y128347D01*
X46469Y127547D01*
X45669Y127947D01*
X44869Y127547D01*
X40932Y119673D02*
X41332Y120473D01*
X40932Y121273D01*
X41732Y120873D01*
X42532Y121273D01*
X42132Y120473D01*
X42532Y119673D01*
X41732Y120073D01*
X40932Y119673D01*
X44869Y111799D02*
X45269Y112599D01*
X44869Y113399D01*
X45669Y112998D01*
X46469Y113399D01*
X46069Y112599D01*
X46469Y111799D01*
X45669Y112198D01*
X44869Y111799D01*
Y80303D02*
X45269Y81103D01*
X44869Y81902D01*
X45669Y81502D01*
X46469Y81902D01*
X46069Y81103D01*
X46469Y80303D01*
X45669Y80703D01*
X44869Y80303D01*
X40932Y9436D02*
X41332Y10236D01*
X40932Y11036D01*
X41732Y10636D01*
X42532Y11036D01*
X42132Y10236D01*
X42532Y9436D01*
X41732Y9836D01*
X40932Y9436D01*
X36995Y269279D02*
X37395Y270079D01*
X36995Y270879D01*
X37795Y270479D01*
X38595Y270879D01*
X38195Y270079D01*
X38595Y269279D01*
X37795Y269679D01*
X36995Y269279D01*
X33058Y261405D02*
X33458Y262205D01*
X33058Y263005D01*
X33858Y262605D01*
X34658Y263005D01*
X34258Y262205D01*
X34658Y261405D01*
X33858Y261805D01*
X33058Y261405D01*
X36995Y253531D02*
X37395Y254331D01*
X36995Y255131D01*
X37795Y254731D01*
X38595Y255131D01*
X38195Y254331D01*
X38595Y253531D01*
X37795Y253931D01*
X36995Y253531D01*
X33058Y245657D02*
X33458Y246457D01*
X33058Y247257D01*
X33858Y246857D01*
X34658Y247257D01*
X34258Y246457D01*
X34658Y245657D01*
X33858Y246057D01*
X33058Y245657D01*
X36995Y237783D02*
X37395Y238583D01*
X36995Y239383D01*
X37795Y238983D01*
X38595Y239383D01*
X38195Y238583D01*
X38595Y237783D01*
X37795Y238183D01*
X36995Y237783D01*
X33058Y229909D02*
X33458Y230709D01*
X33058Y231509D01*
X33858Y231109D01*
X34658Y231509D01*
X34258Y230709D01*
X34658Y229909D01*
X33858Y230309D01*
X33058Y229909D01*
X36995Y222035D02*
X37395Y222835D01*
X36995Y223635D01*
X37795Y223235D01*
X38595Y223635D01*
X38195Y222835D01*
X38595Y222035D01*
X37795Y222435D01*
X36995Y222035D01*
X33058Y214161D02*
X33458Y214961D01*
X33058Y215761D01*
X33858Y215361D01*
X34658Y215761D01*
X34258Y214961D01*
X34658Y214161D01*
X33858Y214561D01*
X33058Y214161D01*
Y166917D02*
X33458Y167717D01*
X33058Y168517D01*
X33858Y168117D01*
X34658Y168517D01*
X34258Y167717D01*
X34658Y166917D01*
X33858Y167317D01*
X33058Y166917D01*
X36995Y159043D02*
X37395Y159843D01*
X36995Y160643D01*
X37795Y160243D01*
X38595Y160643D01*
X38195Y159843D01*
X38595Y159043D01*
X37795Y159443D01*
X36995Y159043D01*
X33058Y151169D02*
X33458Y151969D01*
X33058Y152769D01*
X33858Y152369D01*
X34658Y152769D01*
X34258Y151969D01*
X34658Y151169D01*
X33858Y151569D01*
X33058Y151169D01*
Y135421D02*
X33458Y136221D01*
X33058Y137021D01*
X33858Y136621D01*
X34658Y137021D01*
X34258Y136221D01*
X34658Y135421D01*
X33858Y135821D01*
X33058Y135421D01*
X36995Y127547D02*
X37395Y128347D01*
X36995Y129147D01*
X37795Y128747D01*
X38595Y129147D01*
X38195Y128347D01*
X38595Y127547D01*
X37795Y127947D01*
X36995Y127547D01*
X33058Y119673D02*
X33458Y120473D01*
X33058Y121273D01*
X33858Y120873D01*
X34658Y121273D01*
X34258Y120473D01*
X34658Y119673D01*
X33858Y120073D01*
X33058Y119673D01*
X36995Y111799D02*
X37395Y112599D01*
X36995Y113399D01*
X37795Y112998D01*
X38595Y113399D01*
X38195Y112599D01*
X38595Y111799D01*
X37795Y112198D01*
X36995Y111799D01*
Y80303D02*
X37395Y81103D01*
X36995Y81902D01*
X37795Y81502D01*
X38595Y81902D01*
X38195Y81103D01*
X38595Y80303D01*
X37795Y80703D01*
X36995Y80303D01*
X33058Y9436D02*
X33458Y10236D01*
X33058Y11036D01*
X33858Y10636D01*
X34658Y11036D01*
X34258Y10236D01*
X34658Y9436D01*
X33858Y9836D01*
X33058Y9436D01*
X29121Y269279D02*
X29521Y270079D01*
X29121Y270879D01*
X29921Y270479D01*
X30721Y270879D01*
X30321Y270079D01*
X30721Y269279D01*
X29921Y269679D01*
X29121Y269279D01*
X25184Y261405D02*
X25584Y262205D01*
X25184Y263005D01*
X25984Y262605D01*
X26784Y263005D01*
X26384Y262205D01*
X26784Y261405D01*
X25984Y261805D01*
X25184Y261405D01*
X29121Y253531D02*
X29521Y254331D01*
X29121Y255131D01*
X29921Y254731D01*
X30721Y255131D01*
X30321Y254331D01*
X30721Y253531D01*
X29921Y253931D01*
X29121Y253531D01*
X25184Y245657D02*
X25584Y246457D01*
X25184Y247257D01*
X25984Y246857D01*
X26784Y247257D01*
X26384Y246457D01*
X26784Y245657D01*
X25984Y246057D01*
X25184Y245657D01*
X29121Y237783D02*
X29521Y238583D01*
X29121Y239383D01*
X29921Y238983D01*
X30721Y239383D01*
X30321Y238583D01*
X30721Y237783D01*
X29921Y238183D01*
X29121Y237783D01*
X25184Y229909D02*
X25584Y230709D01*
X25184Y231509D01*
X25984Y231109D01*
X26784Y231509D01*
X26384Y230709D01*
X26784Y229909D01*
X25984Y230309D01*
X25184Y229909D01*
X29121Y222035D02*
X29521Y222835D01*
X29121Y223635D01*
X29921Y223235D01*
X30721Y223635D01*
X30321Y222835D01*
X30721Y222035D01*
X29921Y222435D01*
X29121Y222035D01*
X25184Y214161D02*
X25584Y214961D01*
X25184Y215761D01*
X25984Y215361D01*
X26784Y215761D01*
X26384Y214961D01*
X26784Y214161D01*
X25984Y214561D01*
X25184Y214161D01*
Y166917D02*
X25584Y167717D01*
X25184Y168517D01*
X25984Y168117D01*
X26784Y168517D01*
X26384Y167717D01*
X26784Y166917D01*
X25984Y167317D01*
X25184Y166917D01*
X29121Y127547D02*
X29521Y128347D01*
X29121Y129147D01*
X29921Y128747D01*
X30721Y129147D01*
X30321Y128347D01*
X30721Y127547D01*
X29921Y127947D01*
X29121Y127547D01*
X25184Y119673D02*
X25584Y120473D01*
X25184Y121273D01*
X25984Y120873D01*
X26784Y121273D01*
X26384Y120473D01*
X26784Y119673D01*
X25984Y120073D01*
X25184Y119673D01*
X29121Y111799D02*
X29521Y112599D01*
X29121Y113399D01*
X29921Y112998D01*
X30721Y113399D01*
X30321Y112599D01*
X30721Y111799D01*
X29921Y112198D01*
X29121Y111799D01*
Y64554D02*
X29521Y65354D01*
X29121Y66154D01*
X29921Y65754D01*
X30721Y66154D01*
X30321Y65354D01*
X30721Y64554D01*
X29921Y64954D01*
X29121Y64554D01*
X25184Y56680D02*
X25584Y57480D01*
X25184Y58280D01*
X25984Y57880D01*
X26784Y58280D01*
X26384Y57480D01*
X26784Y56680D01*
X25984Y57080D01*
X25184Y56680D01*
Y25184D02*
X25584Y25984D01*
X25184Y26784D01*
X25984Y26384D01*
X26784Y26784D01*
X26384Y25984D01*
X26784Y25184D01*
X25984Y25584D01*
X25184Y25184D01*
X29121Y17310D02*
X29521Y18110D01*
X29121Y18910D01*
X29921Y18510D01*
X30721Y18910D01*
X30321Y18110D01*
X30721Y17310D01*
X29921Y17710D01*
X29121Y17310D01*
X25184Y9436D02*
X25584Y10236D01*
X25184Y11036D01*
X25984Y10636D01*
X26784Y11036D01*
X26384Y10236D01*
X26784Y9436D01*
X25984Y9836D01*
X25184Y9436D01*
X21247Y269279D02*
X21647Y270079D01*
X21247Y270879D01*
X22047Y270479D01*
X22847Y270879D01*
X22447Y270079D01*
X22847Y269279D01*
X22047Y269679D01*
X21247Y269279D01*
X17310Y261405D02*
X17710Y262205D01*
X17310Y263005D01*
X18110Y262605D01*
X18910Y263005D01*
X18510Y262205D01*
X18910Y261405D01*
X18110Y261805D01*
X17310Y261405D01*
X21247Y253531D02*
X21647Y254331D01*
X21247Y255131D01*
X22047Y254731D01*
X22847Y255131D01*
X22447Y254331D01*
X22847Y253531D01*
X22047Y253931D01*
X21247Y253531D01*
X17310Y245657D02*
X17710Y246457D01*
X17310Y247257D01*
X18110Y246857D01*
X18910Y247257D01*
X18510Y246457D01*
X18910Y245657D01*
X18110Y246057D01*
X17310Y245657D01*
X21247Y237783D02*
X21647Y238583D01*
X21247Y239383D01*
X22047Y238983D01*
X22847Y239383D01*
X22447Y238583D01*
X22847Y237783D01*
X22047Y238183D01*
X21247Y237783D01*
X17310Y229909D02*
X17710Y230709D01*
X17310Y231509D01*
X18110Y231109D01*
X18910Y231509D01*
X18510Y230709D01*
X18910Y229909D01*
X18110Y230309D01*
X17310Y229909D01*
X21247Y222035D02*
X21647Y222835D01*
X21247Y223635D01*
X22047Y223235D01*
X22847Y223635D01*
X22447Y222835D01*
X22847Y222035D01*
X22047Y222435D01*
X21247Y222035D01*
X17310Y214161D02*
X17710Y214961D01*
X17310Y215761D01*
X18110Y215361D01*
X18910Y215761D01*
X18510Y214961D01*
X18910Y214161D01*
X18110Y214561D01*
X17310Y214161D01*
X21247Y190539D02*
X21647Y191339D01*
X21247Y192139D01*
X22047Y191739D01*
X22847Y192139D01*
X22447Y191339D01*
X22847Y190539D01*
X22047Y190939D01*
X21247Y190539D01*
X17310Y182665D02*
X17710Y183465D01*
X17310Y184265D01*
X18110Y183865D01*
X18910Y184265D01*
X18510Y183465D01*
X18910Y182665D01*
X18110Y183065D01*
X17310Y182665D01*
X21247Y174791D02*
X21647Y175591D01*
X21247Y176391D01*
X22047Y175991D01*
X22847Y176391D01*
X22447Y175591D01*
X22847Y174791D01*
X22047Y175191D01*
X21247Y174791D01*
X17310Y135421D02*
X17710Y136221D01*
X17310Y137021D01*
X18110Y136621D01*
X18910Y137021D01*
X18510Y136221D01*
X18910Y135421D01*
X18110Y135821D01*
X17310Y135421D01*
X21247Y127547D02*
X21647Y128347D01*
X21247Y129147D01*
X22047Y128747D01*
X22847Y129147D01*
X22447Y128347D01*
X22847Y127547D01*
X22047Y127947D01*
X21247Y127547D01*
Y111799D02*
X21647Y112599D01*
X21247Y113399D01*
X22047Y112998D01*
X22847Y113399D01*
X22447Y112599D01*
X22847Y111799D01*
X22047Y112198D01*
X21247Y111799D01*
Y96051D02*
X21647Y96851D01*
X21247Y97650D01*
X22047Y97250D01*
X22847Y97650D01*
X22447Y96851D01*
X22847Y96051D01*
X22047Y96451D01*
X21247Y96051D01*
Y64554D02*
X21647Y65354D01*
X21247Y66154D01*
X22047Y65754D01*
X22847Y66154D01*
X22447Y65354D01*
X22847Y64554D01*
X22047Y64954D01*
X21247Y64554D01*
X17310Y56680D02*
X17710Y57480D01*
X17310Y58280D01*
X18110Y57880D01*
X18910Y58280D01*
X18510Y57480D01*
X18910Y56680D01*
X18110Y57080D01*
X17310Y56680D01*
Y25184D02*
X17710Y25984D01*
X17310Y26784D01*
X18110Y26384D01*
X18910Y26784D01*
X18510Y25984D01*
X18910Y25184D01*
X18110Y25584D01*
X17310Y25184D01*
X21247Y17310D02*
X21647Y18110D01*
X21247Y18910D01*
X22047Y18510D01*
X22847Y18910D01*
X22447Y18110D01*
X22847Y17310D01*
X22047Y17710D01*
X21247Y17310D01*
X17310Y9436D02*
X17710Y10236D01*
X17310Y11036D01*
X18110Y10636D01*
X18910Y11036D01*
X18510Y10236D01*
X18910Y9436D01*
X18110Y9836D01*
X17310Y9436D01*
X13373Y269279D02*
X13773Y270079D01*
X13373Y270879D01*
X14173Y270479D01*
X14973Y270879D01*
X14573Y270079D01*
X14973Y269279D01*
X14173Y269679D01*
X13373Y269279D01*
X9436Y261405D02*
X9836Y262205D01*
X9436Y263005D01*
X10236Y262605D01*
X11036Y263005D01*
X10636Y262205D01*
X11036Y261405D01*
X10236Y261805D01*
X9436Y261405D01*
X13373Y253531D02*
X13773Y254331D01*
X13373Y255131D01*
X14173Y254731D01*
X14973Y255131D01*
X14573Y254331D01*
X14973Y253531D01*
X14173Y253931D01*
X13373Y253531D01*
X9436Y245657D02*
X9836Y246457D01*
X9436Y247257D01*
X10236Y246857D01*
X11036Y247257D01*
X10636Y246457D01*
X11036Y245657D01*
X10236Y246057D01*
X9436Y245657D01*
X13373Y237783D02*
X13773Y238583D01*
X13373Y239383D01*
X14173Y238983D01*
X14973Y239383D01*
X14573Y238583D01*
X14973Y237783D01*
X14173Y238183D01*
X13373Y237783D01*
X9436Y229909D02*
X9836Y230709D01*
X9436Y231509D01*
X10236Y231109D01*
X11036Y231509D01*
X10636Y230709D01*
X11036Y229909D01*
X10236Y230309D01*
X9436Y229909D01*
X13373Y222035D02*
X13773Y222835D01*
X13373Y223635D01*
X14173Y223235D01*
X14973Y223635D01*
X14573Y222835D01*
X14973Y222035D01*
X14173Y222435D01*
X13373Y222035D01*
X9436Y214161D02*
X9836Y214961D01*
X9436Y215761D01*
X10236Y215361D01*
X11036Y215761D01*
X10636Y214961D01*
X11036Y214161D01*
X10236Y214561D01*
X9436Y214161D01*
Y198413D02*
X9836Y199213D01*
X9436Y200013D01*
X10236Y199613D01*
X11036Y200013D01*
X10636Y199213D01*
X11036Y198413D01*
X10236Y198813D01*
X9436Y198413D01*
Y182665D02*
X9836Y183465D01*
X9436Y184265D01*
X10236Y183865D01*
X11036Y184265D01*
X10636Y183465D01*
X11036Y182665D01*
X10236Y183065D01*
X9436Y182665D01*
X13373Y96051D02*
X13773Y96851D01*
X13373Y97650D01*
X14173Y97250D01*
X14973Y97650D01*
X14573Y96851D01*
X14973Y96051D01*
X14173Y96451D01*
X13373Y96051D01*
X9436Y56680D02*
X9836Y57480D01*
X9436Y58280D01*
X10236Y57880D01*
X11036Y58280D01*
X10636Y57480D01*
X11036Y56680D01*
X10236Y57080D01*
X9436Y56680D01*
X13373Y48806D02*
X13773Y49606D01*
X13373Y50406D01*
X14173Y50006D01*
X14973Y50406D01*
X14573Y49606D01*
X14973Y48806D01*
X14173Y49206D01*
X13373Y48806D01*
X9436Y40932D02*
X9836Y41732D01*
X9436Y42532D01*
X10236Y42132D01*
X11036Y42532D01*
X10636Y41732D01*
X11036Y40932D01*
X10236Y41332D01*
X9436Y40932D01*
X13373Y33058D02*
X13773Y33858D01*
X13373Y34658D01*
X14173Y34258D01*
X14973Y34658D01*
X14573Y33858D01*
X14973Y33058D01*
X14173Y33458D01*
X13373Y33058D01*
X9436Y25184D02*
X9836Y25984D01*
X9436Y26784D01*
X10236Y26384D01*
X11036Y26784D01*
X10636Y25984D01*
X11036Y25184D01*
X10236Y25584D01*
X9436Y25184D01*
X13373Y17310D02*
X13773Y18110D01*
X13373Y18910D01*
X14173Y18510D01*
X14973Y18910D01*
X14573Y18110D01*
X14973Y17310D01*
X14173Y17710D01*
X13373Y17310D01*
X9436Y9436D02*
X9836Y10236D01*
X9436Y11036D01*
X10236Y10636D01*
X11036Y11036D01*
X10636Y10236D01*
X11036Y9436D01*
X10236Y9836D01*
X9436Y9436D01*
X219672Y70066D02*
X220072Y70866D01*
X219672Y71666D01*
X220472Y71266D01*
X221272Y71666D01*
X220872Y70866D01*
X221272Y70066D01*
X220472Y70466D01*
X219672Y70066D01*
X200972Y66129D02*
X201372Y66929D01*
X200972Y67729D01*
X201772Y67329D01*
X202572Y67729D01*
X202172Y66929D01*
X202572Y66129D01*
X201772Y66529D01*
X200972Y66129D01*
X188176Y42507D02*
X188576Y43307D01*
X188176Y44107D01*
X188976Y43707D01*
X189776Y44107D01*
X189376Y43307D01*
X189776Y42507D01*
X188976Y42907D01*
X188176Y42507D01*
X172428Y30696D02*
X172828Y31496D01*
X172428Y32296D01*
X173228Y31896D01*
X174028Y32296D01*
X173628Y31496D01*
X174028Y30696D01*
X173228Y31096D01*
X172428Y30696D01*
Y18885D02*
X172828Y19685D01*
X172428Y20485D01*
X173228Y20085D01*
X174028Y20485D01*
X173628Y19685D01*
X174028Y18885D01*
X173228Y19285D01*
X172428Y18885D01*
X247089Y245413D02*
X247489Y246213D01*
X247089Y247013D01*
X247889Y246613D01*
X248689Y247013D01*
X248289Y246213D01*
X248689Y245413D01*
X247889Y245813D01*
X247089Y245413D01*
X13452Y152695D02*
X13851Y153495D01*
X13452Y154295D01*
X14252Y153895D01*
X15052Y154295D01*
X14651Y153495D01*
X15052Y152695D01*
X14252Y153095D01*
X13452Y152695D01*
Y160569D02*
X13851Y161369D01*
X13452Y162169D01*
X14252Y161769D01*
X15052Y162169D01*
X14651Y161369D01*
X15052Y160569D01*
X14252Y160969D01*
X13452Y160569D01*
Y144821D02*
X13851Y145621D01*
X13452Y146421D01*
X14252Y146021D01*
X15052Y146421D01*
X14651Y145621D01*
X15052Y144821D01*
X14252Y145221D01*
X13452Y144821D01*
X7074Y160617D02*
X7474Y161417D01*
X7074Y162217D01*
X7874Y161817D01*
X8674Y162217D01*
X8274Y161417D01*
X8674Y160617D01*
X7874Y161017D01*
X7074Y160617D01*
Y152743D02*
X7474Y153543D01*
X7074Y154343D01*
X7874Y153943D01*
X8674Y154343D01*
X8274Y153543D01*
X8674Y152743D01*
X7874Y153143D01*
X7074Y152743D01*
Y144869D02*
X7474Y145669D01*
X7074Y146469D01*
X7874Y146069D01*
X8674Y146469D01*
X8274Y145669D01*
X8674Y144869D01*
X7874Y145269D01*
X7074Y144869D01*
X59237Y158600D02*
X59637Y159400D01*
X59237Y160200D01*
X60037Y159800D01*
X60837Y160200D01*
X60437Y159400D01*
X60837Y158600D01*
X60037Y159000D01*
X59237Y158600D01*
X47426Y164506D02*
X47826Y165305D01*
X47426Y166105D01*
X48226Y165706D01*
X49026Y166105D01*
X48626Y165305D01*
X49026Y164506D01*
X48226Y164906D01*
X47426Y164506D01*
X55300D02*
X55700Y165305D01*
X55300Y166105D01*
X56100Y165706D01*
X56900Y166105D01*
X56500Y165305D01*
X56900Y164506D01*
X56100Y164906D01*
X55300Y164506D01*
X51363D02*
X51763Y165305D01*
X51363Y166105D01*
X52163Y165706D01*
X52963Y166105D01*
X52563Y165305D01*
X52963Y164506D01*
X52163Y164906D01*
X51363Y164506D01*
X63174Y152694D02*
X63574Y153495D01*
X63174Y154295D01*
X63974Y153894D01*
X64774Y154295D01*
X64374Y153495D01*
X64774Y152694D01*
X63974Y153094D01*
X63174Y152694D01*
X55300Y158600D02*
X55700Y159400D01*
X55300Y160200D01*
X56100Y159800D01*
X56900Y160200D01*
X56500Y159400D01*
X56900Y158600D01*
X56100Y159000D01*
X55300Y158600D01*
Y152694D02*
X55700Y153495D01*
X55300Y154295D01*
X56100Y153894D01*
X56900Y154295D01*
X56500Y153495D01*
X56900Y152694D01*
X56100Y153094D01*
X55300Y152694D01*
X59237D02*
X59637Y153495D01*
X59237Y154295D01*
X60037Y153894D01*
X60837Y154295D01*
X60437Y153495D01*
X60837Y152694D01*
X60037Y153094D01*
X59237Y152694D01*
X51363Y158600D02*
X51763Y159400D01*
X51363Y160200D01*
X52163Y159800D01*
X52963Y160200D01*
X52563Y159400D01*
X52963Y158600D01*
X52163Y159000D01*
X51363Y158600D01*
X138700Y156200D02*
X139100Y157000D01*
X138700Y157800D01*
X139500Y157400D01*
X140300Y157800D01*
X139900Y157000D01*
X140300Y156200D01*
X139500Y156600D01*
X138700Y156200D01*
X243295Y26759D02*
X243694Y27559D01*
X243295Y28359D01*
X244094Y27959D01*
X244895Y28359D01*
X244495Y27559D01*
X244895Y26759D01*
X244094Y27159D01*
X243295Y26759D01*
X237389D02*
X237789Y27559D01*
X237389Y28359D01*
X238189Y27959D01*
X238989Y28359D01*
X238589Y27559D01*
X238989Y26759D01*
X238189Y27159D01*
X237389Y26759D01*
X231484D02*
X231884Y27559D01*
X231484Y28359D01*
X232283Y27959D01*
X233084Y28359D01*
X232683Y27559D01*
X233084Y26759D01*
X232283Y27159D01*
X231484Y26759D01*
X225578D02*
X225978Y27559D01*
X225578Y28359D01*
X226378Y27959D01*
X227178Y28359D01*
X226778Y27559D01*
X227178Y26759D01*
X226378Y27159D01*
X225578Y26759D01*
X107905Y176365D02*
X108305Y177165D01*
X107905Y177965D01*
X108705Y177565D01*
X109505Y177965D01*
X109105Y177165D01*
X109505Y176365D01*
X108705Y176765D01*
X107905Y176365D01*
X107468Y192113D02*
X107868Y192913D01*
X107468Y193713D01*
X108268Y193313D01*
X109068Y193713D01*
X108668Y192913D01*
X109068Y192113D01*
X108268Y192513D01*
X107468Y192113D01*
Y184239D02*
X107868Y185039D01*
X107468Y185839D01*
X108268Y185439D01*
X109068Y185839D01*
X108668Y185039D01*
X109068Y184239D01*
X108268Y184639D01*
X107468Y184239D01*
X101562Y192113D02*
X101962Y192913D01*
X101562Y193713D01*
X102362Y193313D01*
X103162Y193713D01*
X102762Y192913D01*
X103162Y192113D01*
X102362Y192513D01*
X101562Y192113D01*
Y184239D02*
X101962Y185039D01*
X101562Y185839D01*
X102362Y185439D01*
X103162Y185839D01*
X102762Y185039D01*
X103162Y184239D01*
X102362Y184639D01*
X101562Y184239D01*
X87700Y190600D02*
X88100Y191400D01*
X87700Y192200D01*
X88500Y191800D01*
X89300Y192200D01*
X88900Y191400D01*
X89300Y190600D01*
X88500Y191000D01*
X87700Y190600D01*
X97200Y111200D02*
X97600Y112000D01*
X97200Y112800D01*
X98000Y112400D01*
X98800Y112800D01*
X98400Y112000D01*
X98800Y111200D01*
X98000Y111600D01*
X97200Y111200D01*
X101999Y176365D02*
X102399Y177165D01*
X101999Y177965D01*
X102799Y177565D01*
X103599Y177965D01*
X103199Y177165D01*
X103599Y176365D01*
X102799Y176765D01*
X101999Y176365D01*
X97200Y101200D02*
X97600Y102000D01*
X97200Y102800D01*
X98000Y102400D01*
X98800Y102800D01*
X98400Y102000D01*
X98800Y101200D01*
X98000Y101600D01*
X97200Y101200D01*
X140700Y180700D02*
X141100Y181500D01*
X140700Y182300D01*
X141500Y181900D01*
X142300Y182300D01*
X141900Y181500D01*
X142300Y180700D01*
X141500Y181100D01*
X140700Y180700D01*
X171200Y209100D02*
X171600Y209900D01*
X171200Y210700D01*
X172000Y210300D01*
X172800Y210700D01*
X172400Y209900D01*
X172800Y209100D01*
X172000Y209500D01*
X171200Y209100D01*
X235800Y226200D02*
X236200Y227000D01*
X235800Y227800D01*
X236600Y227400D01*
X237400Y227800D01*
X237000Y227000D01*
X237400Y226200D01*
X236600Y226600D01*
X235800Y226200D01*
X69255Y58255D02*
X69655Y59055D01*
X69255Y59855D01*
X70055Y59455D01*
X70855Y59855D01*
X70455Y59055D01*
X70855Y58255D01*
X70055Y58655D01*
X69255Y58255D01*
X68300Y63700D02*
X68700Y64500D01*
X68300Y65300D01*
X69100Y64900D01*
X69900Y65300D01*
X69500Y64500D01*
X69900Y63700D01*
X69100Y64100D01*
X68300Y63700D01*
X270300Y73985D02*
X270700Y74785D01*
X270300Y75585D01*
X271100Y75185D01*
X271900Y75585D01*
X271500Y74785D01*
X271900Y73985D01*
X271100Y74385D01*
X270300Y73985D01*
X255105Y77940D02*
X255505Y78740D01*
X255105Y79540D01*
X255906Y79140D01*
X256705Y79540D01*
X256306Y78740D01*
X256705Y77940D01*
X255906Y78340D01*
X255105Y77940D01*
X259043Y54318D02*
X259442Y55118D01*
X259043Y55918D01*
X259842Y55518D01*
X260643Y55918D01*
X260243Y55118D01*
X260643Y54318D01*
X259842Y54718D01*
X259043Y54318D01*
X239357Y74003D02*
X239757Y74803D01*
X239357Y75603D01*
X240158Y75203D01*
X240957Y75603D01*
X240558Y74803D01*
X240957Y74003D01*
X240158Y74403D01*
X239357Y74003D01*
X139948Y66129D02*
X140348Y66929D01*
X139948Y67729D01*
X140748Y67329D01*
X141548Y67729D01*
X141148Y66929D01*
X141548Y66129D01*
X140748Y66529D01*
X139948Y66129D01*
X192113Y7074D02*
X192513Y7874D01*
X192113Y8674D01*
X192913Y8274D01*
X193713Y8674D01*
X193313Y7874D01*
X193713Y7074D01*
X192913Y7474D01*
X192113Y7074D01*
X235420Y74003D02*
X235821Y74803D01*
X235420Y75603D01*
X236221Y75203D01*
X237020Y75603D01*
X236620Y74803D01*
X237020Y74003D01*
X236221Y74403D01*
X235420Y74003D01*
X223609Y33649D02*
X224009Y34449D01*
X223609Y35249D01*
X224410Y34849D01*
X225209Y35249D01*
X224810Y34449D01*
X225209Y33649D01*
X224410Y34049D01*
X223609Y33649D01*
X200972Y74003D02*
X201372Y74803D01*
X200972Y75603D01*
X201772Y75203D01*
X202572Y75603D01*
X202172Y74803D01*
X202572Y74003D01*
X201772Y74403D01*
X200972Y74003D01*
X156680Y7074D02*
X157080Y7874D01*
X156680Y8674D01*
X157480Y8274D01*
X158280Y8674D01*
X157880Y7874D01*
X158280Y7074D01*
X157480Y7474D01*
X156680Y7074D01*
X227547Y58255D02*
X227946Y59055D01*
X227547Y59855D01*
X228346Y59455D01*
X229147Y59855D01*
X228747Y59055D01*
X229147Y58255D01*
X228346Y58655D01*
X227547Y58255D01*
X172428Y70066D02*
X172828Y70866D01*
X172428Y71666D01*
X173228Y71266D01*
X174028Y71666D01*
X173628Y70866D01*
X174028Y70066D01*
X173228Y70466D01*
X172428Y70066D01*
X259043Y77940D02*
X259442Y78740D01*
X259043Y79540D01*
X259842Y79140D01*
X260643Y79540D01*
X260243Y78740D01*
X260643Y77940D01*
X259842Y78340D01*
X259043Y77940D01*
X239357Y58255D02*
X239757Y59055D01*
X239357Y59855D01*
X240158Y59455D01*
X240957Y59855D01*
X240558Y59055D01*
X240957Y58255D01*
X240158Y58655D01*
X239357Y58255D01*
X270300Y54300D02*
X270700Y55100D01*
X270300Y55900D01*
X271100Y55500D01*
X271900Y55900D01*
X271500Y55100D01*
X271900Y54300D01*
X271100Y54700D01*
X270300Y54300D01*
X144869Y74003D02*
X145269Y74803D01*
X144869Y75603D01*
X145669Y75203D01*
X146469Y75603D01*
X146069Y74803D01*
X146469Y74003D01*
X145669Y74403D01*
X144869Y74003D01*
X139948Y50381D02*
X140348Y51181D01*
X139948Y51981D01*
X140748Y51581D01*
X141548Y51981D01*
X141148Y51181D01*
X141548Y50381D01*
X140748Y50781D01*
X139948Y50381D01*
X232750Y41150D02*
X233150Y41950D01*
X232750Y42750D01*
X233550Y42350D01*
X234350Y42750D01*
X233950Y41950D01*
X234350Y41150D01*
X233550Y41550D01*
X232750Y41150D01*
X152743Y7074D02*
X153143Y7874D01*
X152743Y8674D01*
X153543Y8274D01*
X154343Y8674D01*
X153943Y7874D01*
X154343Y7074D01*
X153543Y7474D01*
X152743Y7074D01*
X156680Y42507D02*
X157080Y43307D01*
X156680Y44107D01*
X157480Y43707D01*
X158280Y44107D01*
X157880Y43307D01*
X158280Y42507D01*
X157480Y42907D01*
X156680Y42507D01*
X200972Y22822D02*
X201372Y23622D01*
X200972Y24422D01*
X201772Y24022D01*
X202572Y24422D01*
X202172Y23622D01*
X202572Y22822D01*
X201772Y23222D01*
X200972Y22822D01*
X219672Y33649D02*
X220072Y34449D01*
X219672Y35249D01*
X220472Y34849D01*
X221272Y35249D01*
X220872Y34449D01*
X221272Y33649D01*
X220472Y34049D01*
X219672Y33649D01*
X223609Y72035D02*
X224009Y72835D01*
X223609Y73635D01*
X224410Y73235D01*
X225209Y73635D01*
X224810Y72835D01*
X225209Y72035D01*
X224410Y72435D01*
X223609Y72035D01*
X172428Y7074D02*
X172828Y7874D01*
X172428Y8674D01*
X173228Y8274D01*
X174028Y8674D01*
X173628Y7874D01*
X174028Y7074D01*
X173228Y7474D01*
X172428Y7074D01*
X184239Y74003D02*
X184639Y74803D01*
X184239Y75603D01*
X185039Y75203D01*
X185839Y75603D01*
X185439Y74803D01*
X185839Y74003D01*
X185039Y74403D01*
X184239Y74003D01*
X172428Y54318D02*
X172828Y55118D01*
X172428Y55918D01*
X173228Y55518D01*
X174028Y55918D01*
X173628Y55118D01*
X174028Y54318D01*
X173228Y54718D01*
X172428Y54318D01*
X270300Y70048D02*
X270700Y70848D01*
X270300Y71648D01*
X271100Y71248D01*
X271900Y71648D01*
X271500Y70848D01*
X271900Y70048D01*
X271100Y70448D01*
X270300Y70048D01*
X255105Y58255D02*
X255505Y59055D01*
X255105Y59855D01*
X255906Y59455D01*
X256705Y59855D01*
X256306Y59055D01*
X256705Y58255D01*
X255906Y58655D01*
X255105Y58255D01*
X243295Y74003D02*
X243694Y74803D01*
X243295Y75603D01*
X244094Y75203D01*
X244895Y75603D01*
X244495Y74803D01*
X244895Y74003D01*
X244094Y74403D01*
X243295Y74003D01*
X139948Y22822D02*
X140348Y23622D01*
X139948Y24422D01*
X140748Y24022D01*
X141548Y24422D01*
X141148Y23622D01*
X141548Y22822D01*
X140748Y23222D01*
X139948Y22822D01*
Y70066D02*
X140348Y70866D01*
X139948Y71666D01*
X140748Y71266D01*
X141548Y71666D01*
X141148Y70866D01*
X141548Y70066D01*
X140748Y70466D01*
X139948Y70066D01*
X188176Y7074D02*
X188576Y7874D01*
X188176Y8674D01*
X188976Y8274D01*
X189776Y8674D01*
X189376Y7874D01*
X189776Y7074D01*
X188976Y7474D01*
X188176Y7074D01*
X236600Y42000D02*
X237000Y42800D01*
X236600Y43600D01*
X237400Y43200D01*
X238200Y43600D01*
X237800Y42800D01*
X238200Y42000D01*
X237400Y42400D01*
X236600Y42000D01*
X227547Y72035D02*
X227946Y72835D01*
X227547Y73635D01*
X228346Y73235D01*
X229147Y73635D01*
X228747Y72835D01*
X229147Y72035D01*
X228346Y72435D01*
X227547Y72035D01*
X168491Y7074D02*
X168891Y7874D01*
X168491Y8674D01*
X169291Y8274D01*
X170091Y8674D01*
X169691Y7874D01*
X170091Y7074D01*
X169291Y7474D01*
X168491Y7074D01*
X160617Y74003D02*
X161017Y74803D01*
X160617Y75603D01*
X161417Y75203D01*
X162217Y75603D01*
X161817Y74803D01*
X162217Y74003D01*
X161417Y74403D01*
X160617Y74003D01*
X219672Y58255D02*
X220072Y59055D01*
X219672Y59855D01*
X220472Y59455D01*
X221272Y59855D01*
X220872Y59055D01*
X221272Y58255D01*
X220472Y58655D01*
X219672Y58255D01*
X172428Y46444D02*
X172828Y47244D01*
X172428Y48044D01*
X173228Y47644D01*
X174028Y48044D01*
X173628Y47244D01*
X174028Y46444D01*
X173228Y46844D01*
X172428Y46444D01*
Y66129D02*
X172828Y66929D01*
X172428Y67729D01*
X173228Y67329D01*
X174028Y67729D01*
X173628Y66929D01*
X174028Y66129D01*
X173228Y66529D01*
X172428Y66129D01*
X262980Y77940D02*
X263380Y78740D01*
X262980Y79540D01*
X263779Y79140D01*
X264580Y79540D01*
X264179Y78740D01*
X264580Y77940D01*
X263779Y78340D01*
X262980Y77940D01*
X266916Y54318D02*
X267317Y55118D01*
X266916Y55918D01*
X267717Y55518D01*
X268516Y55918D01*
X268116Y55118D01*
X268516Y54318D01*
X267717Y54718D01*
X266916Y54318D01*
X247232Y74003D02*
X247632Y74803D01*
X247232Y75603D01*
X248031Y75203D01*
X248832Y75603D01*
X248431Y74803D01*
X248832Y74003D01*
X248031Y74403D01*
X247232Y74003D01*
X148806D02*
X149206Y74803D01*
X148806Y75603D01*
X149606Y75203D01*
X150406Y75603D01*
X150006Y74803D01*
X150406Y74003D01*
X149606Y74403D01*
X148806Y74003D01*
X139948Y54318D02*
X140348Y55118D01*
X139948Y55918D01*
X140748Y55518D01*
X141548Y55918D01*
X141148Y55118D01*
X141548Y54318D01*
X140748Y54718D01*
X139948Y54318D01*
X184239Y7074D02*
X184639Y7874D01*
X184239Y8674D01*
X185039Y8274D01*
X185839Y8674D01*
X185439Y7874D01*
X185839Y7074D01*
X185039Y7474D01*
X184239Y7074D01*
X148806D02*
X149206Y7874D01*
X148806Y8674D01*
X149606Y8274D01*
X150406Y8674D01*
X150006Y7874D01*
X150406Y7074D01*
X149606Y7474D01*
X148806Y7074D01*
X160617Y42507D02*
X161017Y43307D01*
X160617Y44107D01*
X161417Y43707D01*
X162217Y44107D01*
X161817Y43307D01*
X162217Y42507D01*
X161417Y42907D01*
X160617Y42507D01*
X215735Y34633D02*
X216135Y35433D01*
X215735Y36233D01*
X216535Y35833D01*
X217335Y36233D01*
X216935Y35433D01*
X217335Y34633D01*
X216535Y35033D01*
X215735Y34633D01*
X188176Y74003D02*
X188576Y74803D01*
X188176Y75603D01*
X188976Y75203D01*
X189776Y75603D01*
X189376Y74803D01*
X189776Y74003D01*
X188976Y74403D01*
X188176Y74003D01*
X235420Y58255D02*
X235821Y59055D01*
X235420Y59855D01*
X236221Y59455D01*
X237020Y59855D01*
X236620Y59055D01*
X237020Y58255D01*
X236221Y58655D01*
X235420Y58255D01*
X215735D02*
X216135Y59055D01*
X215735Y59855D01*
X216535Y59455D01*
X217335Y59855D01*
X216935Y59055D01*
X217335Y58255D01*
X216535Y58655D01*
X215735Y58255D01*
X172428Y62192D02*
X172828Y62992D01*
X172428Y63792D01*
X173228Y63392D01*
X174028Y63792D01*
X173628Y62992D01*
X174028Y62192D01*
X173228Y62592D01*
X172428Y62192D01*
X270300Y66111D02*
X270700Y66911D01*
X270300Y67711D01*
X271100Y67311D01*
X271900Y67711D01*
X271500Y66911D01*
X271900Y66111D01*
X271100Y66511D01*
X270300Y66111D01*
X251168Y58255D02*
X251569Y59055D01*
X251168Y59855D01*
X251969Y59455D01*
X252768Y59855D01*
X252368Y59055D01*
X252768Y58255D01*
X251969Y58655D01*
X251168Y58255D01*
X144869Y42507D02*
X145269Y43307D01*
X144869Y44107D01*
X145669Y43707D01*
X146469Y44107D01*
X146069Y43307D01*
X146469Y42507D01*
X145669Y42907D01*
X144869Y42507D01*
X139948Y26759D02*
X140348Y27559D01*
X139948Y28359D01*
X140748Y27959D01*
X141548Y28359D01*
X141148Y27559D01*
X141548Y26759D01*
X140748Y27159D01*
X139948Y26759D01*
X200972Y7074D02*
X201372Y7874D01*
X200972Y8674D01*
X201772Y8274D01*
X202572Y8674D01*
X202172Y7874D01*
X202572Y7074D01*
X201772Y7474D01*
X200972Y7074D01*
X164554Y42507D02*
X164954Y43307D01*
X164554Y44107D01*
X165354Y43707D01*
X166154Y44107D01*
X165754Y43307D01*
X166154Y42507D01*
X165354Y42907D01*
X164554Y42507D01*
X200972Y30696D02*
X201372Y31496D01*
X200972Y32296D01*
X201772Y31896D01*
X202572Y32296D01*
X202172Y31496D01*
X202572Y30696D01*
X201772Y31096D01*
X200972Y30696D01*
X231484Y34633D02*
X231884Y35433D01*
X231484Y36233D01*
X232283Y35833D01*
X233084Y36233D01*
X232683Y35433D01*
X233084Y34633D01*
X232283Y35033D01*
X231484Y34633D01*
Y72035D02*
X231884Y72835D01*
X231484Y73635D01*
X232283Y73235D01*
X233084Y73635D01*
X232683Y72835D01*
X233084Y72035D01*
X232283Y72435D01*
X231484Y72035D01*
X172428Y11011D02*
X172828Y11811D01*
X172428Y12611D01*
X173228Y12211D01*
X174028Y12611D01*
X173628Y11811D01*
X174028Y11011D01*
X173228Y11411D01*
X172428Y11011D01*
X164554Y7074D02*
X164954Y7874D01*
X164554Y8674D01*
X165354Y8274D01*
X166154Y8674D01*
X165754Y7874D01*
X166154Y7074D01*
X165354Y7474D01*
X164554Y7074D01*
Y74003D02*
X164954Y74803D01*
X164554Y75603D01*
X165354Y75203D01*
X166154Y75603D01*
X165754Y74803D01*
X166154Y74003D01*
X165354Y74403D01*
X164554Y74003D01*
X231484Y58255D02*
X231884Y59055D01*
X231484Y59855D01*
X232283Y59455D01*
X233084Y59855D01*
X232683Y59055D01*
X233084Y58255D01*
X232283Y58655D01*
X231484Y58255D01*
X266916Y77940D02*
X267317Y78740D01*
X266916Y79540D01*
X267717Y79140D01*
X268516Y79540D01*
X268116Y78740D01*
X268516Y77940D01*
X267717Y78340D01*
X266916Y77940D01*
X262900Y58650D02*
X263300Y59450D01*
X262900Y60250D01*
X263700Y59850D01*
X264500Y60250D01*
X264100Y59450D01*
X264500Y58650D01*
X263700Y59050D01*
X262900Y58650D01*
X251168Y74003D02*
X251569Y74803D01*
X251168Y75603D01*
X251969Y75203D01*
X252768Y75603D01*
X252368Y74803D01*
X252768Y74003D01*
X251969Y74403D01*
X251168Y74003D01*
X247232Y58255D02*
X247632Y59055D01*
X247232Y59855D01*
X248031Y59455D01*
X248832Y59855D01*
X248431Y59055D01*
X248832Y58255D01*
X248031Y58655D01*
X247232Y58255D01*
X148806Y42507D02*
X149206Y43307D01*
X148806Y44107D01*
X149606Y43707D01*
X150406Y44107D01*
X150006Y43307D01*
X150406Y42507D01*
X149606Y42907D01*
X148806Y42507D01*
X152743Y74003D02*
X153143Y74803D01*
X152743Y75603D01*
X153543Y75203D01*
X154343Y75603D01*
X153943Y74803D01*
X154343Y74003D01*
X153543Y74403D01*
X152743Y74003D01*
X139948Y58255D02*
X140348Y59055D01*
X139948Y59855D01*
X140748Y59455D01*
X141548Y59855D01*
X141148Y59055D01*
X141548Y58255D01*
X140748Y58655D01*
X139948Y58255D01*
X180302Y7074D02*
X180702Y7874D01*
X180302Y8674D01*
X181102Y8274D01*
X181902Y8674D01*
X181502Y7874D01*
X181902Y7074D01*
X181102Y7474D01*
X180302Y7074D01*
X231532Y52014D02*
X231931Y52814D01*
X231532Y53614D01*
X232331Y53214D01*
X233132Y53614D01*
X232732Y52814D01*
X233132Y52014D01*
X232331Y52414D01*
X231532Y52014D01*
X144869Y7074D02*
X145269Y7874D01*
X144869Y8674D01*
X145669Y8274D01*
X146469Y8674D01*
X146069Y7874D01*
X146469Y7074D01*
X145669Y7474D01*
X144869Y7074D01*
X200972Y34633D02*
X201372Y35433D01*
X200972Y36233D01*
X201772Y35833D01*
X202572Y36233D01*
X202172Y35433D01*
X202572Y34633D01*
X201772Y35033D01*
X200972Y34633D01*
X211798D02*
X212198Y35433D01*
X211798Y36233D01*
X212598Y35833D01*
X213398Y36233D01*
X212998Y35433D01*
X213398Y34633D01*
X212598Y35033D01*
X211798Y34633D01*
X192113Y74003D02*
X192513Y74803D01*
X192113Y75603D01*
X192913Y75203D01*
X193713Y75603D01*
X193313Y74803D01*
X193713Y74003D01*
X192913Y74403D01*
X192113Y74003D01*
X203924Y66129D02*
X204324Y66929D01*
X203924Y67729D01*
X204724Y67329D01*
X205524Y67729D01*
X205124Y66929D01*
X205524Y66129D01*
X204724Y66529D01*
X203924Y66129D01*
X172428Y58255D02*
X172828Y59055D01*
X172428Y59855D01*
X173228Y59455D01*
X174028Y59855D01*
X173628Y59055D01*
X174028Y58255D01*
X173228Y58655D01*
X172428Y58255D01*
X270300Y62174D02*
X270700Y62974D01*
X270300Y63774D01*
X271100Y63374D01*
X271900Y63774D01*
X271500Y62974D01*
X271900Y62174D01*
X271100Y62574D01*
X270300Y62174D01*
X255105Y54318D02*
X255505Y55118D01*
X255105Y55918D01*
X255906Y55518D01*
X256705Y55918D01*
X256306Y55118D01*
X256705Y54318D01*
X255906Y54718D01*
X255105Y54318D01*
X251168Y77940D02*
X251569Y78740D01*
X251168Y79540D01*
X251969Y79140D01*
X252768Y79540D01*
X252368Y78740D01*
X252768Y77940D01*
X251969Y78340D01*
X251168Y77940D01*
X139948Y62192D02*
X140348Y62992D01*
X139948Y63792D01*
X140748Y63392D01*
X141548Y63792D01*
X141148Y62992D01*
X141548Y62192D01*
X140748Y62592D01*
X139948Y62192D01*
Y42507D02*
X140348Y43307D01*
X139948Y44107D01*
X140748Y43707D01*
X141548Y44107D01*
X141148Y43307D01*
X141548Y42507D01*
X140748Y42907D01*
X139948Y42507D01*
X196050Y7074D02*
X196450Y7874D01*
X196050Y8674D01*
X196850Y8274D01*
X197650Y8674D01*
X197250Y7874D01*
X197650Y7074D01*
X196850Y7474D01*
X196050Y7074D01*
X227547Y34633D02*
X227946Y35433D01*
X227547Y36233D01*
X228346Y35833D01*
X229147Y36233D01*
X228747Y35433D01*
X229147Y34633D01*
X228346Y35033D01*
X227547Y34633D01*
X196050Y74003D02*
X196450Y74803D01*
X196050Y75603D01*
X196850Y75203D01*
X197650Y75603D01*
X197250Y74803D01*
X197650Y74003D01*
X196850Y74403D01*
X196050Y74003D01*
X160617Y7074D02*
X161017Y7874D01*
X160617Y8674D01*
X161417Y8274D01*
X162217Y8674D01*
X161817Y7874D01*
X162217Y7074D01*
X161417Y7474D01*
X160617Y7074D01*
X184239Y42507D02*
X184639Y43307D01*
X184239Y44107D01*
X185039Y43707D01*
X185839Y44107D01*
X185439Y43307D01*
X185839Y42507D01*
X185039Y42907D01*
X184239Y42507D01*
X156680Y74003D02*
X157080Y74803D01*
X156680Y75603D01*
X157480Y75203D01*
X158280Y75603D01*
X157880Y74803D01*
X158280Y74003D01*
X157480Y74403D01*
X156680Y74003D01*
X172428Y42507D02*
X172828Y43307D01*
X172428Y44107D01*
X173228Y43707D01*
X174028Y44107D01*
X173628Y43307D01*
X174028Y42507D01*
X173228Y42907D01*
X172428Y42507D01*
X223609Y58255D02*
X224009Y59055D01*
X223609Y59855D01*
X224410Y59455D01*
X225209Y59855D01*
X224810Y59055D01*
X225209Y58255D01*
X224410Y58655D01*
X223609Y58255D01*
X172428Y74003D02*
X172828Y74803D01*
X172428Y75603D01*
X173228Y75203D01*
X174028Y75603D01*
X173628Y74803D01*
X174028Y74003D01*
X173228Y74403D01*
X172428Y74003D01*
X270300Y77922D02*
X270700Y78722D01*
X270300Y79522D01*
X271100Y79122D01*
X271900Y79522D01*
X271500Y78722D01*
X271900Y77922D01*
X271100Y78322D01*
X270300Y77922D01*
Y58237D02*
X270700Y59037D01*
X270300Y59837D01*
X271100Y59437D01*
X271900Y59837D01*
X271500Y59037D01*
X271900Y58237D01*
X271100Y58637D01*
X270300Y58237D01*
X243295Y58255D02*
X243694Y59055D01*
X243295Y59855D01*
X244094Y59455D01*
X244895Y59855D01*
X244495Y59055D01*
X244895Y58255D01*
X244094Y58655D01*
X243295Y58255D01*
X152743Y42507D02*
X153143Y43307D01*
X152743Y44107D01*
X153543Y43707D01*
X154343Y44107D01*
X153943Y43307D01*
X154343Y42507D01*
X153543Y42907D01*
X152743Y42507D01*
X139948Y74003D02*
X140348Y74803D01*
X139948Y75603D01*
X140748Y75203D01*
X141548Y75603D01*
X141148Y74803D01*
X141548Y74003D01*
X140748Y74403D01*
X139948Y74003D01*
Y46444D02*
X140348Y47244D01*
X139948Y48044D01*
X140748Y47644D01*
X141548Y48044D01*
X141148Y47244D01*
X141548Y46444D01*
X140748Y46844D01*
X139948Y46444D01*
Y7074D02*
X140348Y7874D01*
X139948Y8674D01*
X140748Y8274D01*
X141548Y8674D01*
X141148Y7874D01*
X141548Y7074D01*
X140748Y7474D01*
X139948Y7074D01*
X200972Y26759D02*
X201372Y27559D01*
X200972Y28359D01*
X201772Y27959D01*
X202572Y28359D01*
X202172Y27559D01*
X202572Y26759D01*
X201772Y27159D01*
X200972Y26759D01*
X207861Y66129D02*
X208261Y66929D01*
X207861Y67729D01*
X208661Y67329D01*
X209461Y67729D01*
X209061Y66929D01*
X209461Y66129D01*
X208661Y66529D01*
X207861Y66129D01*
X176365Y7074D02*
X176765Y7874D01*
X176365Y8674D01*
X177165Y8274D01*
X177965Y8674D01*
X177565Y7874D01*
X177965Y7074D01*
X177165Y7474D01*
X176365Y7074D01*
X172428Y50381D02*
X172828Y51181D01*
X172428Y51981D01*
X173228Y51581D01*
X174028Y51981D01*
X173628Y51181D01*
X174028Y50381D01*
X173228Y50781D01*
X172428Y50381D01*
X176365Y74003D02*
X176765Y74803D01*
X176365Y75603D01*
X177165Y75203D01*
X177965Y75603D01*
X177565Y74803D01*
X177965Y74003D01*
X177165Y74403D01*
X176365Y74003D01*
X231884Y268694D02*
Y268295D01*
X232683D01*
Y268694D01*
X233084D01*
Y269495D01*
X232683D01*
Y269895D01*
X231884D01*
Y269495D01*
X231484D01*
Y268694D01*
X231884D01*
X260230D02*
Y268295D01*
X261030D01*
Y268694D01*
X261430D01*
Y269495D01*
X261030D01*
Y269895D01*
X260230D01*
Y269495D01*
X259830D01*
Y268694D01*
X260230D01*
X236109Y256877D02*
X236509D01*
X236910Y257277D01*
X237310Y256877D01*
X237709D01*
Y257277D01*
X237310Y257677D01*
X237709Y258077D01*
Y258477D01*
X237310D01*
X236910Y258077D01*
X236509Y258477D01*
X236109D01*
Y258077D01*
X236509Y257677D01*
X236109Y257277D01*
Y256877D01*
X255204D02*
X255604D01*
X256004Y257277D01*
X256404Y256877D01*
X256804D01*
Y257277D01*
X256404Y257677D01*
X256804Y258077D01*
Y258477D01*
X256404D01*
X256004Y258077D01*
X255604Y258477D01*
X255204D01*
Y258077D01*
X255604Y257677D01*
X255204Y257277D01*
Y256877D01*
X152300Y146100D02*
X152700Y146900D01*
X152300Y147700D01*
X153100Y147300D01*
X153900Y147700D01*
X153500Y146900D01*
X153900Y146100D01*
X153100Y146500D01*
X152300Y146100D01*
X144400Y131100D02*
X144800Y131900D01*
X144400Y132700D01*
X145200Y132300D01*
X146000Y132700D01*
X145600Y131900D01*
X146000Y131100D01*
X145200Y131500D01*
X144400Y131100D01*
X152300Y111400D02*
X152700Y112200D01*
X152300Y113000D01*
X153100Y112600D01*
X153900Y113000D01*
X153500Y112200D01*
X153900Y111400D01*
X153100Y111800D01*
X152300Y111400D01*
X163648Y150932D02*
X164048Y151732D01*
X163648Y152532D01*
X164448Y152132D01*
X165248Y152532D01*
X164848Y151732D01*
X165248Y150932D01*
X164448Y151332D01*
X163648Y150932D01*
X187500Y180600D02*
X187900Y181400D01*
X187500Y182200D01*
X188300Y181800D01*
X189100Y182200D01*
X188700Y181400D01*
X189100Y180600D01*
X188300Y181000D01*
X187500Y180600D01*
X223400Y103100D02*
X223800Y103900D01*
X223400Y104700D01*
X224200Y104300D01*
X225000Y104700D01*
X224600Y103900D01*
X225000Y103100D01*
X224200Y103500D01*
X223400Y103100D01*
X215800D02*
X216200Y103900D01*
X215800Y104700D01*
X216600Y104300D01*
X217400Y104700D01*
X217000Y103900D01*
X217400Y103100D01*
X216600Y103500D01*
X215800Y103100D01*
X215400Y89100D02*
X215800Y89900D01*
X215400Y90700D01*
X216200Y90300D01*
X217000Y90700D01*
X216600Y89900D01*
X217000Y89100D01*
X216200Y89500D01*
X215400Y89100D01*
X223000D02*
X223400Y89900D01*
X223000Y90700D01*
X223800Y90300D01*
X224600Y90700D01*
X224200Y89900D01*
X224600Y89100D01*
X223800Y89500D01*
X223000Y89100D01*
X105000Y77200D02*
X105400Y78000D01*
X105000Y78800D01*
X105800Y78400D01*
X106600Y78800D01*
X106200Y78000D01*
X106600Y77200D01*
X105800Y77600D01*
X105000Y77200D01*
X110500Y77300D02*
X110900Y78100D01*
X110500Y78900D01*
X111300Y78500D01*
X112100Y78900D01*
X111700Y78100D01*
X112100Y77300D01*
X111300Y77700D01*
X110500Y77300D01*
X152300Y95932D02*
X152700Y96732D01*
X152300Y97532D01*
X153100Y97132D01*
X153900Y97532D01*
X153500Y96732D01*
X153900Y95932D01*
X153100Y96332D01*
X152300Y95932D01*
X183200Y140900D02*
X183600Y141700D01*
X183200Y142500D01*
X184000Y142100D01*
X184800Y142500D01*
X184400Y141700D01*
X184800Y140900D01*
X184000Y141300D01*
X183200Y140900D01*
X191220Y131000D02*
X191620Y131800D01*
X191220Y132600D01*
X192020Y132200D01*
X192820Y132600D01*
X192420Y131800D01*
X192820Y131000D01*
X192020Y131400D01*
X191220Y131000D01*
X269800Y228884D02*
X270200Y229683D01*
X269800Y230484D01*
X270600Y230083D01*
X271400Y230484D01*
X271000Y229683D01*
X271400Y228884D01*
X270600Y229283D01*
X269800Y228884D01*
X120100Y15500D02*
X120500Y16300D01*
X120100Y17100D01*
X120900Y16700D01*
X121700Y17100D01*
X121300Y16300D01*
X121700Y15500D01*
X120900Y15900D01*
X120100Y15500D01*
X157298Y19898D02*
X157698Y20698D01*
X157298Y21498D01*
X158098Y21098D01*
X158898Y21498D01*
X158498Y20698D01*
X158898Y19898D01*
X158098Y20298D01*
X157298Y19898D01*
X241400Y47900D02*
X241800Y48700D01*
X241400Y49500D01*
X242200Y49100D01*
X243000Y49500D01*
X242600Y48700D01*
X243000Y47900D01*
X242200Y48300D01*
X241400Y47900D01*
X243400Y224900D02*
X243800Y225700D01*
X243400Y226500D01*
X244200Y226100D01*
X245000Y226500D01*
X244600Y225700D01*
X245000Y224900D01*
X244200Y225300D01*
X243400Y224900D01*
X250800D02*
X251200Y225700D01*
X250800Y226500D01*
X251600Y226100D01*
X252400Y226500D01*
X252000Y225700D01*
X252400Y224900D01*
X251600Y225300D01*
X250800Y224900D01*
X257400Y214500D02*
X257800Y215300D01*
X257400Y216100D01*
X258200Y215700D01*
X259000Y216100D01*
X258600Y215300D01*
X259000Y214500D01*
X258200Y214900D01*
X257400Y214500D01*
Y218300D02*
X257800Y219100D01*
X257400Y219900D01*
X258200Y219500D01*
X259000Y219900D01*
X258600Y219100D01*
X259000Y218300D01*
X258200Y218700D01*
X257400Y218300D01*
X94400Y145900D02*
X94800Y146700D01*
X94400Y147500D01*
X95200Y147100D01*
X96000Y147500D01*
X95600Y146700D01*
X96000Y145900D01*
X95200Y146300D01*
X94400Y145900D01*
X214200Y141000D02*
X214600Y141800D01*
X214200Y142600D01*
X215000Y142200D01*
X215800Y142600D01*
X215400Y141800D01*
X215800Y141000D01*
X215000Y141400D01*
X214200Y141000D01*
Y136000D02*
X214600Y136800D01*
X214200Y137600D01*
X215000Y137200D01*
X215800Y137600D01*
X215400Y136800D01*
X215800Y136000D01*
X215000Y136400D01*
X214200Y136000D01*
X214290Y214630D02*
X214690Y215430D01*
X214290Y216230D01*
X215090Y215830D01*
X215890Y216230D01*
X215490Y215430D01*
X215890Y214630D01*
X215090Y215030D01*
X214290Y214630D01*
X208420Y214570D02*
X208820Y215370D01*
X208420Y216170D01*
X209220Y215770D01*
X210020Y216170D01*
X209620Y215370D01*
X210020Y214570D01*
X209220Y214970D01*
X208420Y214570D01*
X201100Y214630D02*
X201500Y215430D01*
X201100Y216230D01*
X201900Y215830D01*
X202700Y216230D01*
X202300Y215430D01*
X202700Y214630D01*
X201900Y215030D01*
X201100Y214630D01*
X193540Y214570D02*
X193940Y215370D01*
X193540Y216170D01*
X194340Y215770D01*
X195140Y216170D01*
X194740Y215370D01*
X195140Y214570D01*
X194340Y214970D01*
X193540Y214570D01*
X160410Y172890D02*
X160810Y173690D01*
X160410Y174490D01*
X161210Y174090D01*
X162010Y174490D01*
X161610Y173690D01*
X162010Y172890D01*
X161210Y173290D01*
X160410Y172890D01*
X263200Y206150D02*
X263600Y206950D01*
X263200Y207750D01*
X264000Y207350D01*
X264800Y207750D01*
X264400Y206950D01*
X264800Y206150D01*
X264000Y206550D01*
X263200Y206150D01*
X262930Y190800D02*
X263330Y191600D01*
X262930Y192400D01*
X263730Y192000D01*
X264530Y192400D01*
X264130Y191600D01*
X264530Y190800D01*
X263730Y191200D01*
X262930Y190800D01*
X230770Y208800D02*
X231170Y209600D01*
X230770Y210400D01*
X231570Y210000D01*
X232370Y210400D01*
X231970Y209600D01*
X232370Y208800D01*
X231570Y209200D01*
X230770Y208800D01*
D133*
X47000Y134963D02*
G03*
X47000Y134963I-800J0D01*
G01*
Y142837D02*
G03*
X47000Y142837I-800J0D01*
G01*
X25100Y134963D02*
G03*
X25100Y134963I-800J0D01*
G01*
Y142837D02*
G03*
X25100Y142837I-800J0D01*
G01*
X63500Y111500D02*
G03*
X63500Y111500I-800J0D01*
G01*
Y101500D02*
G03*
X63500Y101500I-800J0D01*
G01*
Y91500D02*
G03*
X63500Y91500I-800J0D01*
G01*
M02*
