G04*
G04 #@! TF.GenerationSoftware,Altium Limited,Altium Designer,21.9.2 (33)*
G04*
G04 Layer_Color=32768*
%FSLAX25Y25*%
%MOIN*%
G70*
G04*
G04 #@! TF.SameCoordinates,2BD51A12-542F-4E7F-AF7E-1702C203C590*
G04*
G04*
G04 #@! TF.FilePolarity,Positive*
G04*
G01*
G75*
%ADD10C,0.00787*%
%ADD16C,0.00394*%
D10*
X14016Y197594D02*
X34095D01*
X14016D02*
Y209799D01*
X34882D01*
Y197594D02*
Y209799D01*
X34095Y197594D02*
X34882D01*
X22284Y203500D02*
X26221D01*
X24123Y201558D02*
Y205495D01*
X213539Y254418D02*
X230468D01*
X213539Y244182D02*
Y254418D01*
Y244182D02*
X230861D01*
Y254418D01*
X220232Y249300D02*
X224168D01*
X222200Y247332D02*
Y251269D01*
X245700Y64732D02*
Y68669D01*
X243731Y66700D02*
X247669D01*
X237039Y61582D02*
Y71818D01*
X254361D01*
Y61582D02*
Y71818D01*
X237432Y61582D02*
X254361D01*
X257896Y236153D02*
X261834D01*
X259949Y234172D02*
Y238109D01*
X256799Y245589D02*
X263098D01*
Y226691D02*
Y245589D01*
X256799Y226691D02*
X263098D01*
X256799D02*
Y245589D01*
X246063Y198150D02*
X250000D01*
X248031Y196182D02*
Y200119D01*
X241339Y209961D02*
X260236D01*
Y185946D02*
Y209961D01*
X235827Y185946D02*
X260236D01*
X235827D02*
Y209961D01*
X241339D01*
X202784Y136817D02*
X206721D01*
X204800Y134832D02*
Y138768D01*
X171335Y166721D02*
X238265D01*
X171335Y106879D02*
Y166721D01*
Y106879D02*
X238265D01*
Y166721D01*
X86244Y83930D02*
X86638D01*
X86244D02*
Y162619D01*
X162622D01*
Y83930D02*
Y162619D01*
X86638Y83930D02*
X162622D01*
X121433Y122119D02*
X127433D01*
X124513Y119199D02*
Y125199D01*
X92132Y199700D02*
X96069D01*
X94100Y197731D02*
Y201669D01*
X51318Y127483D02*
Y150317D01*
X32814Y127483D02*
X51318D01*
X32814D02*
Y150317D01*
X51318D01*
X46200Y136932D02*
Y140868D01*
X44202Y138930D02*
X48139D01*
X29418Y127483D02*
Y150317D01*
X10914Y127483D02*
X29418D01*
X10914D02*
Y150317D01*
X29418D01*
X24300Y136932D02*
Y140868D01*
X22302Y138930D02*
X26239D01*
X226384Y232610D02*
X230321D01*
X228353Y230641D02*
Y234578D01*
X214732Y232600D02*
X218669D01*
X216700Y230631D02*
Y234569D01*
X165492Y230628D02*
Y266848D01*
X139508Y230628D02*
X165492D01*
X139508D02*
Y271572D01*
X165492D01*
Y266848D02*
Y271572D01*
X152500Y249131D02*
Y253068D01*
X150531Y251100D02*
X154469D01*
X73431Y152300D02*
X77368D01*
X75400Y150331D02*
Y154269D01*
X70000Y130032D02*
Y133968D01*
X68032Y132000D02*
X71969D01*
X73632Y115200D02*
X77569D01*
X75600Y113232D02*
Y117168D01*
X44000Y212000D02*
Y273000D01*
X110000D01*
Y212000D02*
Y273000D01*
X44000Y212000D02*
X110000D01*
X77000Y239000D02*
Y245000D01*
X74000Y242000D02*
X80000D01*
X172039Y228618D02*
X188968D01*
X172039Y218382D02*
Y228618D01*
Y218382D02*
X189361D01*
Y228618D01*
X178732Y223500D02*
X182668D01*
X180700Y221532D02*
Y225468D01*
X139139Y228518D02*
X156068D01*
X139139Y218282D02*
Y228518D01*
Y218282D02*
X156461D01*
Y228518D01*
X145832Y223400D02*
X149768D01*
X147800Y221431D02*
Y225368D01*
X246426Y256688D02*
Y260625D01*
X244488Y258661D02*
X248425D01*
X262205Y279134D02*
X264961D01*
Y254724D02*
Y279134D01*
X227953Y254724D02*
X264961D01*
X227953D02*
Y279134D01*
X262205D01*
X196999Y230628D02*
Y266848D01*
X171015Y230628D02*
X196999D01*
X171015D02*
Y271572D01*
X196999D01*
Y266848D02*
Y271572D01*
X184007Y249131D02*
Y253068D01*
X182039Y251100D02*
X185976D01*
X88800Y179431D02*
Y183369D01*
X86831Y181400D02*
X90768D01*
X115900Y197932D02*
Y201869D01*
X113932Y199900D02*
X117868D01*
X121400Y179431D02*
Y183369D01*
X119431Y181400D02*
X123369D01*
X147800Y169332D02*
Y173268D01*
X145832Y171300D02*
X149768D01*
X156461Y166182D02*
Y176418D01*
X139139Y166182D02*
X156461D01*
X139139D02*
Y176418D01*
X156068D01*
X155800Y180731D02*
Y184669D01*
X153832Y182700D02*
X157768D01*
X144255Y196457D02*
X148192D01*
X146224Y194488D02*
Y198425D01*
X139924Y190157D02*
X152129D01*
X139924D02*
Y202756D01*
X152129D01*
Y190157D02*
Y202756D01*
X171260Y190157D02*
Y202756D01*
X159055D02*
X171260D01*
X159055Y190157D02*
Y202756D01*
Y190157D02*
X171260D01*
X165354Y194488D02*
Y198425D01*
X163386Y196457D02*
X167323D01*
X177431Y187200D02*
X181369D01*
X179400Y185231D02*
Y189169D01*
X204232Y202900D02*
X208169D01*
X206200Y200932D02*
Y204869D01*
X201082Y211561D02*
X211318D01*
Y194239D02*
Y211561D01*
X201082Y194239D02*
X211318D01*
X201082D02*
Y211168D01*
X189582Y194239D02*
Y211168D01*
Y194239D02*
X199818D01*
Y211561D01*
X189582D02*
X199818D01*
X194700Y200932D02*
Y204869D01*
X192731Y202900D02*
X196669D01*
X201500Y182931D02*
Y186869D01*
X199531Y184900D02*
X203468D01*
X221200Y204031D02*
Y207968D01*
X219232Y206000D02*
X223168D01*
X219232Y194900D02*
X223168D01*
X221200Y192931D02*
Y196869D01*
Y175732D02*
Y179668D01*
X219232Y177700D02*
X223168D01*
X232631Y17300D02*
X236568D01*
X234600Y15331D02*
Y19268D01*
X206269Y15637D02*
X227529D01*
Y7763D02*
Y15637D01*
X206269Y7763D02*
X227529D01*
X206269D02*
Y15637D01*
X214931Y11700D02*
X218868D01*
X216899Y9731D02*
Y13668D01*
X217600Y22731D02*
Y26669D01*
X215632Y24700D02*
X219568D01*
X222091Y41032D02*
Y44969D01*
X220123Y43000D02*
X224060D01*
X212249Y49299D02*
X212643D01*
X212249Y36701D02*
Y49299D01*
Y36701D02*
X231934D01*
Y49299D01*
X212643D02*
X231934D01*
X224176Y56572D02*
X230475D01*
Y53028D02*
Y56572D01*
X224176Y53028D02*
X230475D01*
X224176D02*
Y56572D01*
X225357Y54800D02*
X229294D01*
X227325Y52832D02*
Y56769D01*
X229143Y64732D02*
Y68669D01*
X227175Y66700D02*
X231112D01*
X235836Y63747D02*
Y69653D01*
X222450D02*
X235836D01*
X222450Y63747D02*
Y69653D01*
Y63747D02*
X235836D01*
X217131Y62800D02*
Y66737D01*
X215162Y64768D02*
X219099D01*
X221461Y61225D02*
Y68312D01*
X212800D02*
X221461D01*
X212800Y61225D02*
Y68312D01*
Y61225D02*
X221461D01*
X229700Y94748D02*
Y98685D01*
X227731Y96716D02*
X231668D01*
X238361Y91598D02*
Y101834D01*
X221039Y91598D02*
X238361D01*
X221039D02*
Y101834D01*
X237968D01*
X210600Y94731D02*
Y98668D01*
X208631Y96700D02*
X212568D01*
X201939Y91582D02*
Y101818D01*
X219261D01*
Y91582D02*
Y101818D01*
X202332Y91582D02*
X219261D01*
X181200Y84431D02*
Y88368D01*
X179232Y86400D02*
X183168D01*
X170100Y84431D02*
Y88368D01*
X168131Y86400D02*
X172069D01*
X69691Y162930D02*
Y179859D01*
Y162930D02*
X79928D01*
Y180253D01*
X69691D02*
X79928D01*
X74809Y169623D02*
Y173560D01*
X72841Y171591D02*
X76778D01*
X58255Y162930D02*
Y179859D01*
Y162930D02*
X68491D01*
Y180253D01*
X58255D02*
X68491D01*
X63373Y169623D02*
Y173560D01*
X61405Y171591D02*
X65342D01*
X67132Y195200D02*
X71069D01*
X69100Y193231D02*
Y197169D01*
X63982Y186539D02*
X74218D01*
X63982D02*
Y203861D01*
X74218D01*
Y186932D02*
Y203861D01*
X63718Y187232D02*
Y204161D01*
X53482D02*
X63718D01*
X53482Y186839D02*
Y204161D01*
Y186839D02*
X63718D01*
X58600Y193532D02*
Y197468D01*
X56631Y195500D02*
X60568D01*
X137218Y13732D02*
Y30661D01*
X126982D02*
X137218D01*
X126982Y13339D02*
Y30661D01*
Y13339D02*
X137218D01*
X132100Y20031D02*
Y23968D01*
X130131Y22000D02*
X134069D01*
X39700Y20932D02*
Y24869D01*
X37732Y22900D02*
X41668D01*
X120132Y56700D02*
X124068D01*
X122100Y54732D02*
Y58669D01*
X115407Y41346D02*
Y42921D01*
Y41346D02*
X128793D01*
Y72054D01*
X115407D02*
X128793D01*
X115407Y42921D02*
Y72054D01*
X114118Y54232D02*
Y71161D01*
X103882D02*
X114118D01*
X103882Y53839D02*
Y71161D01*
Y53839D02*
X114118D01*
X109000Y60532D02*
Y64468D01*
X107032Y62500D02*
X110968D01*
X31407Y54523D02*
X48336D01*
Y64759D01*
X31014D02*
X48336D01*
X31014Y54523D02*
Y64759D01*
X37707Y59641D02*
X41644D01*
X39675Y57672D02*
Y61609D01*
X20807Y43441D02*
X24744D01*
X22775Y41472D02*
Y45409D01*
X31382Y31648D02*
Y51648D01*
Y31648D02*
X45382D01*
Y51648D01*
X31382D02*
X45382D01*
X36382Y41648D02*
X40382D01*
X38382Y39648D02*
Y43648D01*
X84646Y59055D02*
X88583D01*
X86614Y57087D02*
Y61024D01*
X84646Y70866D02*
X88583D01*
X86614Y68898D02*
Y72835D01*
X89931Y42800D02*
X93868D01*
X91900Y40832D02*
Y44769D01*
X86782Y51461D02*
X97018D01*
Y34139D02*
Y51461D01*
X86782Y34139D02*
X97018D01*
X86782D02*
Y51068D01*
X97244Y16239D02*
Y33168D01*
Y16239D02*
X107480D01*
Y33561D01*
X97244D02*
X107480D01*
X102362Y22931D02*
Y26869D01*
X100394Y24900D02*
X104331D01*
X86782Y16239D02*
Y33168D01*
Y16239D02*
X97018D01*
Y33561D01*
X86782D02*
X97018D01*
X91900Y22931D02*
Y26869D01*
X89931Y24900D02*
X93868D01*
X63779Y46457D02*
X85827D01*
Y24409D02*
Y46457D01*
X63779Y24409D02*
X85827D01*
X63779D02*
Y46457D01*
X72835Y35433D02*
X76772D01*
X74803Y33465D02*
Y37402D01*
X61932Y12382D02*
X78861D01*
Y22618D01*
X61539D02*
X78861D01*
X61539Y12382D02*
Y22618D01*
X68231Y17500D02*
X72168D01*
X70200Y15531D02*
Y19468D01*
X9449Y73140D02*
X13386D01*
X11417Y71172D02*
Y75109D01*
X6299Y64479D02*
X16535D01*
X6299D02*
Y81802D01*
X16535D01*
Y64872D02*
Y81802D01*
X5010Y84646D02*
Y111417D01*
Y84646D02*
X48711D01*
X5010Y111417D02*
X48711D01*
Y84646D02*
Y111417D01*
X23908Y96063D02*
Y100000D01*
X21939Y98032D02*
X25876D01*
X14173Y117717D02*
Y121653D01*
X12205Y119685D02*
X16142D01*
X22835Y114567D02*
Y124803D01*
X5512Y114567D02*
X22835D01*
X5512D02*
Y124803D01*
X22441D01*
X10357Y165405D02*
X30436D01*
Y153201D02*
Y165405D01*
X9570Y153201D02*
X30436D01*
X9570D02*
Y165405D01*
X10357D01*
X18232Y159500D02*
X22169D01*
X20329Y157505D02*
Y161442D01*
X22731Y182300D02*
X26669D01*
X24700Y180332D02*
Y184268D01*
X49503Y168914D02*
Y195686D01*
X5802D02*
X49503D01*
X5802Y168914D02*
X49503D01*
X5802D02*
Y195686D01*
X57582Y86658D02*
Y116697D01*
X67818D01*
Y86658D02*
Y116697D01*
X57582Y86658D02*
X67818D01*
X62700Y94532D02*
Y98469D01*
X60761Y96470D02*
X64698D01*
X251818Y9032D02*
Y25961D01*
X241582D02*
X251818D01*
X241582Y8639D02*
Y25961D01*
Y8639D02*
X251818D01*
X246700Y15331D02*
Y19268D01*
X244731Y17300D02*
X248669D01*
X240231Y39700D02*
X244168D01*
X242200Y37732D02*
Y41668D01*
X238657Y33401D02*
X245743D01*
Y45999D01*
X238657D02*
X245743D01*
X238657Y33401D02*
Y45999D01*
X263332Y66700D02*
X267269D01*
X265301Y64732D02*
Y68669D01*
X256246Y75361D02*
X271994D01*
X256246Y58039D02*
Y75361D01*
Y58039D02*
X256639D01*
X271994D01*
Y75361D01*
X259832Y23708D02*
X263769D01*
X261800Y21739D02*
Y25676D01*
X253926Y39456D02*
X269674D01*
X253926Y7566D02*
Y39456D01*
Y7566D02*
X269674D01*
Y39456D01*
X171279Y37608D02*
Y41545D01*
X169291Y39595D02*
X173228D01*
X143307Y7705D02*
Y71485D01*
Y7705D02*
X199213D01*
Y71485D01*
X143701D02*
X199213D01*
X204031Y48600D02*
X207968D01*
X206000Y46632D02*
Y50568D01*
D16*
X254987Y228232D02*
Y244374D01*
X241601Y228232D02*
X254987D01*
X241601D02*
Y244374D01*
X254987D01*
X85832Y204818D02*
X102368D01*
X85832Y194582D02*
Y204818D01*
X102368Y194582D02*
Y204818D01*
X85832Y194582D02*
X102368D01*
X233471Y224342D02*
Y240877D01*
X223235D02*
X233471D01*
X223235Y224342D02*
X233471D01*
X223235D02*
Y240877D01*
X211582Y224332D02*
Y240868D01*
Y224332D02*
X221818D01*
X211582Y240868D02*
X221818D01*
Y224332D02*
Y240868D01*
X80518Y144032D02*
Y160568D01*
X70282D02*
X80518D01*
X70282Y144032D02*
X80518D01*
X70282D02*
Y160568D01*
X61732Y126882D02*
X78268D01*
Y137118D01*
X61732Y126882D02*
Y137118D01*
X78268D01*
X80718Y106932D02*
Y123468D01*
X70482D02*
X80718D01*
X70482Y106932D02*
X80718D01*
X70482D02*
Y123468D01*
X80532Y176282D02*
X97068D01*
Y186518D01*
X80532Y176282D02*
Y186518D01*
X97068D01*
X107632Y205018D02*
X124168D01*
X107632Y194782D02*
Y205018D01*
X124168Y194782D02*
Y205018D01*
X107632Y194782D02*
X124168D01*
X113132Y186518D02*
X129668D01*
X113132Y176282D02*
Y186518D01*
X129668Y176282D02*
Y186518D01*
X113132Y176282D02*
X129668D01*
X147532Y187818D02*
X164068D01*
X147532Y177582D02*
Y187818D01*
X164068Y177582D02*
Y187818D01*
X147532Y177582D02*
X164068D01*
X184518Y178932D02*
Y195468D01*
X174282D02*
X184518D01*
X174282Y178932D02*
X184518D01*
X174282D02*
Y195468D01*
X193232Y179782D02*
X209768D01*
Y190018D01*
X193232Y179782D02*
Y190018D01*
X209768D01*
X212932Y200882D02*
X229468D01*
Y211118D01*
X212932Y200882D02*
Y211118D01*
X229468D01*
X212932Y200018D02*
X229468D01*
X212932Y189782D02*
Y200018D01*
X229468Y189782D02*
Y200018D01*
X212932Y189782D02*
X229468D01*
X212932Y172582D02*
X229468D01*
Y182818D01*
X212932Y172582D02*
Y182818D01*
X229468D01*
X229482Y9032D02*
Y25568D01*
Y9032D02*
X239718D01*
X229482Y25568D02*
X239718D01*
Y9032D02*
Y25568D01*
X209332Y29818D02*
X225868D01*
X209332Y19582D02*
Y29818D01*
X225868Y19582D02*
Y29818D01*
X209332Y19582D02*
X225868D01*
X176082Y78132D02*
Y94668D01*
Y78132D02*
X186318D01*
X176082Y94668D02*
X186318D01*
Y78132D02*
Y94668D01*
X164982Y78132D02*
Y94668D01*
Y78132D02*
X175218D01*
X164982Y94668D02*
X175218D01*
Y78132D02*
Y94668D01*
X31432Y17782D02*
X47968D01*
Y28018D01*
X31432Y17782D02*
Y28018D01*
X47968D01*
X17657Y35173D02*
Y51709D01*
Y35173D02*
X27893D01*
X17657Y51709D02*
X27893D01*
Y35173D02*
Y51709D01*
X78347Y64173D02*
X94882D01*
X78347Y53937D02*
Y64173D01*
X94882Y53937D02*
Y64173D01*
X78347Y53937D02*
X94882D01*
X78347Y75984D02*
X94882D01*
X78347Y65748D02*
Y75984D01*
X94882Y65748D02*
Y75984D01*
X78347Y65748D02*
X94882D01*
X211118Y40332D02*
Y56868D01*
X200882D02*
X211118D01*
X200882Y40332D02*
X211118D01*
X200882D02*
Y56868D01*
M02*
