G04*
G04 #@! TF.GenerationSoftware,Altium Limited,Altium Designer,21.9.2 (33)*
G04*
G04 Layer_Color=32896*
%FSLAX25Y25*%
%MOIN*%
G70*
G04*
G04 #@! TF.SameCoordinates,2BD51A12-542F-4E7F-AF7E-1702C203C590*
G04*
G04*
G04 #@! TF.FilePolarity,Positive*
G04*
G01*
G75*
%ADD10C,0.00787*%
%ADD17C,0.01000*%
%ADD130C,0.00100*%
D10*
X156428Y241700D02*
G03*
X156428Y241700I-23622J0D01*
G01*
X136743Y230283D02*
X142649D01*
X139788Y227326D02*
Y233231D01*
X270598Y151288D02*
Y162312D01*
X252488Y144202D02*
X263512D01*
X245402Y151288D02*
Y162312D01*
X252488Y169398D02*
X263512D01*
D17*
X105651Y22400D02*
X108800D01*
X105651Y25549D01*
Y26336D01*
X106439Y27123D01*
X108013D01*
X108800Y26336D01*
X101716Y22400D02*
Y27123D01*
X104077Y24761D01*
X100928D01*
X99354Y22400D02*
Y23187D01*
X98567D01*
Y22400D01*
X99354D01*
X95419D02*
X93844D01*
X94631D01*
Y27123D01*
X95419Y26336D01*
X88334Y22400D02*
X91483D01*
X88334Y25549D01*
Y26336D01*
X89121Y27123D01*
X90696D01*
X91483Y26336D01*
X86760Y22400D02*
Y23187D01*
X85973D01*
Y22400D01*
X86760D01*
X79676D02*
X82824D01*
X79676Y25549D01*
Y26336D01*
X80463Y27123D01*
X82037D01*
X82824Y26336D01*
X78101D02*
X77314Y27123D01*
X75740D01*
X74953Y26336D01*
Y23187D01*
X75740Y22400D01*
X77314D01*
X78101Y23187D01*
Y26336D01*
X70230Y22400D02*
X73378D01*
X70230Y25549D01*
Y26336D01*
X71017Y27123D01*
X72591D01*
X73378Y26336D01*
X65507Y22400D02*
X68656D01*
X65507Y25549D01*
Y26336D01*
X66294Y27123D01*
X67868D01*
X68656Y26336D01*
X108224Y13400D02*
Y16549D01*
X106649Y18123D01*
X105075Y16549D01*
Y13400D01*
Y15761D01*
X108224D01*
X103501Y18123D02*
Y13400D01*
X100352D01*
X98778Y18123D02*
X97204D01*
X97991D01*
Y13400D01*
X98778D01*
X97204D01*
X94842D02*
Y18123D01*
X92481D01*
X91694Y17336D01*
Y15761D01*
X92481Y14974D01*
X94842D01*
X90119Y13400D02*
Y16549D01*
X88545Y18123D01*
X86971Y16549D01*
Y13400D01*
Y15761D01*
X90119D01*
X82248Y17336D02*
X83035Y18123D01*
X84609D01*
X85396Y17336D01*
Y16549D01*
X84609Y15761D01*
X83035D01*
X82248Y14974D01*
Y14187D01*
X83035Y13400D01*
X84609D01*
X85396Y14187D01*
X80673Y13400D02*
Y16549D01*
X79099Y18123D01*
X77525Y16549D01*
Y13400D01*
Y15761D01*
X80673D01*
X68866Y18123D02*
X70441D01*
X71228Y17336D01*
Y14187D01*
X70441Y13400D01*
X68866D01*
X68079Y14187D01*
Y17336D01*
X68866Y18123D01*
X66505D02*
Y13400D01*
Y14974D01*
X63356Y18123D01*
X65718Y15761D01*
X63356Y13400D01*
X58633Y17336D02*
X59421Y18123D01*
X60995D01*
X61782Y17336D01*
Y16549D01*
X60995Y15761D01*
X59421D01*
X58633Y14974D01*
Y14187D01*
X59421Y13400D01*
X60995D01*
X61782Y14187D01*
X57059Y18123D02*
Y14187D01*
X56272Y13400D01*
X54698D01*
X53910Y14187D01*
Y18123D01*
X52336D02*
X49188D01*
Y17336D01*
X52336Y14187D01*
Y13400D01*
X49188D01*
X105651Y39367D02*
X108800D01*
X105651Y42516D01*
Y43303D01*
X106439Y44090D01*
X108013D01*
X108800Y43303D01*
X104077D02*
X103290Y44090D01*
X101716D01*
X100928Y43303D01*
Y40155D01*
X101716Y39367D01*
X103290D01*
X104077Y40155D01*
Y43303D01*
X96206Y39367D02*
X99354D01*
X96206Y42516D01*
Y43303D01*
X96993Y44090D01*
X98567D01*
X99354Y43303D01*
X94631D02*
X93844Y44090D01*
X92270D01*
X91483Y43303D01*
Y42516D01*
X92270Y41729D01*
X93057D01*
X92270D01*
X91483Y40942D01*
Y40155D01*
X92270Y39367D01*
X93844D01*
X94631Y40155D01*
X85186Y44090D02*
X82037D01*
X83611D01*
Y39367D01*
X77314Y44090D02*
X80463D01*
Y39367D01*
X77314D01*
X80463Y41729D02*
X78888D01*
X75740Y44090D02*
Y39367D01*
Y40942D01*
X72591Y44090D01*
X74953Y41729D01*
X72591Y39367D01*
X71017D02*
Y44090D01*
X67868Y39367D01*
Y44090D01*
X63933D02*
X65507D01*
X66294Y43303D01*
Y40155D01*
X65507Y39367D01*
X63933D01*
X63146Y40155D01*
Y43303D01*
X63933Y44090D01*
X58423D02*
X61571D01*
Y41729D01*
X59997D01*
X61571D01*
Y39367D01*
X53700Y44090D02*
X56848D01*
Y39367D01*
X53700D01*
X56848Y41729D02*
X55274D01*
X48977Y43303D02*
X49764Y44090D01*
X51338D01*
X52125Y43303D01*
Y42516D01*
X51338Y41729D01*
X49764D01*
X48977Y40942D01*
Y40155D01*
X49764Y39367D01*
X51338D01*
X52125Y40155D01*
X47403Y44090D02*
X44254D01*
X45828D01*
Y39367D01*
X108800Y31300D02*
Y36023D01*
X107226Y34449D01*
X105651Y36023D01*
Y31300D01*
X104077Y36023D02*
Y32087D01*
X103290Y31300D01*
X101716D01*
X100928Y32087D01*
Y36023D01*
X99354D02*
Y35236D01*
X97780Y33661D01*
X96206Y35236D01*
Y36023D01*
X97780Y33661D02*
Y31300D01*
X89908D02*
Y36023D01*
X87547D01*
X86760Y35236D01*
Y33661D01*
X87547Y32874D01*
X89908D01*
X85186Y31300D02*
Y34449D01*
X83611Y36023D01*
X82037Y34449D01*
Y31300D01*
Y33661D01*
X85186D01*
X80463Y36023D02*
Y35236D01*
X78888Y33661D01*
X77314Y35236D01*
Y36023D01*
X78888Y33661D02*
Y31300D01*
X75740Y36023D02*
Y31300D01*
X72591D01*
X68656Y36023D02*
X70230D01*
X71017Y35236D01*
Y32087D01*
X70230Y31300D01*
X68656D01*
X67868Y32087D01*
Y35236D01*
X68656Y36023D01*
X66294Y31300D02*
Y34449D01*
X64720Y36023D01*
X63146Y34449D01*
Y31300D01*
Y33661D01*
X66294D01*
X61571Y36023D02*
Y31300D01*
X59210D01*
X58423Y32087D01*
Y35236D01*
X59210Y36023D01*
X61571D01*
X52125Y31300D02*
Y36023D01*
X49764D01*
X48977Y35236D01*
Y33661D01*
X49764Y32874D01*
X52125D01*
X44254Y35236D02*
X45041Y36023D01*
X46615D01*
X47403Y35236D01*
Y32087D01*
X46615Y31300D01*
X45041D01*
X44254Y32087D01*
X42680Y36023D02*
Y31300D01*
X40318D01*
X39531Y32087D01*
Y32874D01*
X40318Y33661D01*
X42680D01*
X40318D01*
X39531Y34449D01*
Y35236D01*
X40318Y36023D01*
X42680D01*
X33234D02*
Y32874D01*
X31660Y31300D01*
X30085Y32874D01*
Y36023D01*
X28511Y31300D02*
X26937D01*
X27724D01*
Y36023D01*
X28511Y35236D01*
X24575Y31300D02*
Y32087D01*
X23788D01*
Y31300D01*
X24575D01*
X20640Y35236D02*
X19852Y36023D01*
X18278D01*
X17491Y35236D01*
Y32087D01*
X18278Y31300D01*
X19852D01*
X20640Y32087D01*
Y35236D01*
X110122Y169390D02*
Y168603D01*
X108548Y167029D01*
X106974Y168603D01*
Y169390D01*
X108548Y167029D02*
Y164667D01*
X103038Y169390D02*
X104612D01*
X105400Y168603D01*
Y165455D01*
X104612Y164667D01*
X103038D01*
X102251Y165455D01*
Y168603D01*
X103038Y169390D01*
X100677Y164667D02*
Y169390D01*
X99102Y167816D01*
X97528Y169390D01*
Y164667D01*
X95954D02*
Y169390D01*
X93592D01*
X92805Y168603D01*
Y167029D01*
X93592Y166242D01*
X95954D01*
X94379D02*
X92805Y164667D01*
X91231D02*
Y167816D01*
X89657Y169390D01*
X88082Y167816D01*
Y164667D01*
Y167029D01*
X91231D01*
X78636Y168603D02*
X79424Y169390D01*
X80998D01*
X81785Y168603D01*
Y165455D01*
X80998Y164667D01*
X79424D01*
X78636Y165455D01*
Y167029D01*
X80211D01*
X73914Y169390D02*
X77062D01*
Y164667D01*
X73914D01*
X77062Y167029D02*
X75488D01*
X72339Y164667D02*
Y169390D01*
X69191Y164667D01*
Y169390D01*
X64468Y168603D02*
X65255Y169390D01*
X66829D01*
X67616Y168603D01*
Y165455D01*
X66829Y164667D01*
X65255D01*
X64468Y165455D01*
X62894Y169390D02*
Y164667D01*
X59745D01*
X58171Y169390D02*
X56596D01*
X57384D01*
Y164667D01*
X58171D01*
X56596D01*
X54235Y169390D02*
Y164667D01*
Y166242D01*
X51086Y169390D01*
X53448Y167029D01*
X51086Y164667D01*
X44789D02*
Y169390D01*
X43215Y167816D01*
X41641Y169390D01*
Y164667D01*
X36918Y169390D02*
X40066D01*
Y164667D01*
X36918D01*
X40066Y167029D02*
X38492D01*
X35343Y164667D02*
Y169390D01*
X32982D01*
X32195Y168603D01*
Y167029D01*
X32982Y166242D01*
X35343D01*
X33769D02*
X32195Y164667D01*
X30621Y169390D02*
Y164667D01*
Y166242D01*
X27472Y169390D01*
X29833Y167029D01*
X27472Y164667D01*
X22749Y169390D02*
X25898D01*
Y164667D01*
X22749D01*
X25898Y167029D02*
X24323D01*
X21175Y169390D02*
X18026D01*
Y168603D01*
X21175Y165455D01*
Y164667D01*
X18026D01*
X16452Y169390D02*
X14878D01*
X15665D01*
Y164667D01*
X16452D01*
X14878D01*
X87689Y161323D02*
Y157387D01*
X86901Y156600D01*
X85327D01*
X84540Y157387D01*
Y161323D01*
X82966D02*
X79817D01*
Y160536D01*
X82966Y157387D01*
Y156600D01*
X79817D01*
X78243D02*
Y159749D01*
X76669Y161323D01*
X75094Y159749D01*
Y156600D01*
Y158961D01*
X78243D01*
X73520Y161323D02*
Y160536D01*
X71946Y158961D01*
X70372Y160536D01*
Y161323D01*
X71946Y158961D02*
Y156600D01*
X64074Y161323D02*
Y156600D01*
Y158174D01*
X60926Y161323D01*
X63287Y158961D01*
X60926Y156600D01*
X59351Y161323D02*
Y157387D01*
X58564Y156600D01*
X56990D01*
X56203Y157387D01*
Y161323D01*
X54628D02*
Y156600D01*
X51480D01*
X49906Y161323D02*
Y157387D01*
X49119Y156600D01*
X47544D01*
X46757Y157387D01*
Y161323D01*
X45183D02*
Y156600D01*
X42821D01*
X42034Y157387D01*
Y158174D01*
X42821Y158961D01*
X45183D01*
X42821D01*
X42034Y159749D01*
Y160536D01*
X42821Y161323D01*
X45183D01*
X40460D02*
Y157387D01*
X39673Y156600D01*
X38098D01*
X37311Y157387D01*
Y161323D01*
X107657Y267848D02*
X112155D01*
Y265599D01*
X111406Y264849D01*
X110656D01*
X109906Y265599D01*
Y267848D01*
Y265599D01*
X109157Y264849D01*
X108407D01*
X107657Y265599D01*
Y267848D01*
Y263350D02*
Y260351D01*
X108407D01*
X111406Y263350D01*
X112155D01*
Y260351D01*
Y258851D02*
Y257352D01*
Y258102D01*
X107657D01*
X108407Y258851D01*
D130*
X86100Y177100D02*
X87900D01*
X89200D02*
X89800D01*
X91000D02*
X91600D01*
X97100D02*
X97900D01*
X86100Y177200D02*
X87000D01*
X84400D02*
X84800D01*
X89300D02*
X89800D01*
X91100D02*
X91600D01*
X96900D02*
X97900D01*
X87400D02*
X87900D01*
X79600Y177300D02*
X80100D01*
X84200D02*
X84800D01*
X86100D02*
X86500D01*
X87400D02*
X87900D01*
X89300D02*
X89800D01*
X91100D02*
X91700D01*
X96400D02*
X97800D01*
X84300Y177400D02*
X84800D01*
X79500D02*
X80100D01*
X89300D02*
X89800D01*
X91100D02*
X91700D01*
X96400D02*
X97700D01*
X87400D02*
X88000D01*
X79400Y177500D02*
X80100D01*
X84300D02*
X84800D01*
X87400D02*
X88000D01*
X89300D02*
X89800D01*
X91100D02*
X91700D01*
X96400D02*
X97500D01*
X82300Y177600D02*
X82400D01*
X84300D02*
X84900D01*
X79400D02*
X79900D01*
X79400Y177700D02*
X79800D01*
X82300D02*
X82600D01*
X84300D02*
X84900D01*
X87500D02*
X88000D01*
X91100D02*
X91700D01*
X96500D02*
X97000D01*
X79400Y177800D02*
X79800D01*
X84300D02*
X84900D01*
X87500D02*
X88000D01*
X91100D02*
X91600D01*
X82400D02*
X82700D01*
X89300Y177600D02*
X89800D01*
X91100D02*
X91700D01*
X96500D02*
X97300D01*
X87400D02*
X88000D01*
X79500Y177900D02*
X79800D01*
X82400D02*
X82900D01*
X84400D02*
X84900D01*
X87200D02*
X88000D01*
X91000D02*
X91600D01*
X79600Y178000D02*
X80100D01*
X84400D02*
X84900D01*
X86600D02*
X88100D01*
X90900D02*
X91600D01*
X82400D02*
X83100D01*
X79400Y178100D02*
X80500D01*
X82400D02*
X83300D01*
X84400D02*
X85000D01*
X86300D02*
X88100D01*
X90900D02*
X91500D01*
X79200Y178200D02*
X80700D01*
X84400D02*
X85000D01*
X86400D02*
X88100D01*
X90800D02*
X91500D01*
X82400D02*
X83400D01*
X79200Y178300D02*
X80900D01*
X82500D02*
X83600D01*
X84400D02*
X85000D01*
X86400D02*
X87500D01*
X87600D02*
X88100D01*
X90600D02*
X91400D01*
X79300Y178400D02*
X81000D01*
X82500D02*
X83800D01*
X77800D02*
X78000D01*
X77200Y178500D02*
X78000D01*
X79300D02*
X81000D01*
X82500D02*
X84000D01*
X84500D02*
X85000D01*
X87600D02*
X88200D01*
X89500D02*
X91200D01*
X79300Y178600D02*
X79500D01*
X80300D02*
X81100D01*
X76700D02*
X78000D01*
X84500D02*
X85100D01*
X87600D02*
X88200D01*
X89500D02*
X91100D01*
X82500D02*
X84100D01*
X86400Y178400D02*
X86900D01*
X87600D02*
X88100D01*
X90300D02*
X91300D01*
X84500D02*
X85000D01*
X80400Y178700D02*
X81200D01*
X82500D02*
X83100D01*
X103300Y182000D02*
X105500D01*
X76600Y178700D02*
X78000D01*
X84500D02*
X85100D01*
X87700D02*
X88200D01*
X89500D02*
X91000D01*
X83300D02*
X84300D01*
X80500Y178800D02*
X81200D01*
X82500D02*
X83100D01*
X99900Y182000D02*
X101800D01*
X76600Y178800D02*
X78000D01*
X87700D02*
X88200D01*
X89500D02*
X90800D01*
X111900Y181800D02*
X113900D01*
X83500Y178800D02*
X85100D01*
X74800Y179000D02*
X75400D01*
X76700D02*
X77200D01*
X77500D02*
X78100D01*
X80700D02*
X81300D01*
X82600D02*
X83200D01*
X83800D02*
X85100D01*
X86900D02*
X88200D01*
X111900D02*
X113900D01*
X74800Y179100D02*
X75400D01*
X77500D02*
X78100D01*
X80700D02*
X81300D01*
X82600D02*
X83200D01*
X84000D02*
X85100D01*
X86500D02*
X88300D01*
X111900D02*
X113900D01*
X77600Y179200D02*
X78100D01*
X80800D02*
X81300D01*
X74900D02*
X75400D01*
X84200D02*
X85200D01*
X86500D02*
X88300D01*
X111900D02*
X113900D01*
X82600D02*
X83200D01*
X75100Y178900D02*
X75400D01*
X76700D02*
X78100D01*
X80600D02*
X81300D01*
X82600D02*
X83100D01*
X87500D02*
X88200D01*
X89600D02*
X90400D01*
X112000D02*
X113900D01*
X83600D02*
X85100D01*
X74900Y179300D02*
X75500D01*
X77600D02*
X78100D01*
X80800D02*
X81400D01*
X73100D02*
X73500D01*
X84300D02*
X85200D01*
X86500D02*
X87900D01*
X111900D02*
X113900D01*
X82600D02*
X83200D01*
X74900Y179400D02*
X75500D01*
X77600D02*
X78100D01*
X80800D02*
X81400D01*
X72900D02*
X73500D01*
X84500D02*
X85200D01*
X86500D02*
X87400D01*
X111900D02*
X113900D01*
X82700D02*
X83200D01*
X74900Y179500D02*
X75500D01*
X77600D02*
X78200D01*
X80800D02*
X81400D01*
X72900D02*
X73500D01*
X71500Y179600D02*
X71900D01*
X73000D02*
X73500D01*
X74900D02*
X75500D01*
X77600D02*
X78200D01*
X80800D02*
X81300D01*
X82700D02*
X83300D01*
X84900D02*
X85200D01*
X108400D02*
X109200D01*
X111900D02*
X113900D01*
X71200Y179700D02*
X72000D01*
X73000D02*
X73600D01*
X75000D02*
X75500D01*
X77700D02*
X78200D01*
X80700D02*
X81300D01*
X82700D02*
X83300D01*
X85000D02*
X85300D01*
X107900D02*
X109000D01*
X111900D02*
X113900D01*
X71300Y179800D02*
X72100D01*
X84700Y179500D02*
X85200D01*
X86500D02*
X86800D01*
X111900D02*
X113900D01*
X82700D02*
X83200D01*
X75000Y179800D02*
X75600D01*
X77700D02*
X78200D01*
X80700D02*
X81300D01*
X73000D02*
X73600D01*
X73000Y179900D02*
X73600D01*
X75000D02*
X75600D01*
X77700D02*
X78200D01*
X71400D02*
X72200D01*
X82700D02*
X83300D01*
X106900D02*
X109000D01*
X111900D02*
X113900D01*
X80600D02*
X81300D01*
X85200Y179800D02*
X85300D01*
X107400D02*
X109000D01*
X111900D02*
X113900D01*
X82700D02*
X83300D01*
X73000Y180000D02*
X73600D01*
X75000D02*
X75600D01*
X77700D02*
X78300D01*
X71500D02*
X72300D01*
X73100Y180100D02*
X73600D01*
X75000D02*
X75600D01*
X77700D02*
X78300D01*
X71600D02*
X72500D01*
X82800D02*
X83400D01*
X105800D02*
X109000D01*
X111900D02*
X113900D01*
X80400D02*
X81200D01*
X82800Y180000D02*
X83300D01*
X106300D02*
X109000D01*
X111900D02*
X113900D01*
X80600D02*
X81200D01*
X72000Y180400D02*
X72800D01*
X73100D02*
X73700D01*
X75100D02*
X75700D01*
X67400D02*
X67700D01*
X79600D02*
X80900D01*
X104300D02*
X109000D01*
X111900D02*
X113900D01*
X77800D02*
X78300D01*
X72100Y180500D02*
X72900D01*
X73100D02*
X73700D01*
X75100D02*
X75700D01*
X67400D02*
X67700D01*
X79600D02*
X80800D01*
X103800D02*
X109000D01*
X111900D02*
X113900D01*
X77800D02*
X78400D01*
X67400Y180600D02*
X67800D01*
X72200D02*
X73000D01*
X73100D02*
X73700D01*
X75100D02*
X75700D01*
X79700D02*
X80700D01*
X103200D02*
X109000D01*
X111900D02*
X113900D01*
X77800D02*
X78400D01*
X67400Y180700D02*
X67900D01*
X72300D02*
X73700D01*
X75100D02*
X75700D01*
X77800D02*
X78400D01*
X79700D02*
X80500D01*
X103200D02*
X109000D01*
X111900D02*
X113900D01*
X64700Y180800D02*
X65100D01*
X72400D02*
X73100D01*
X73200D02*
X73800D01*
X75200D02*
X75700D01*
X67300D02*
X67900D01*
X79700D02*
X80000D01*
X103200D02*
X109000D01*
X111900D02*
X113900D01*
X77900D02*
X78400D01*
X87100Y176700D02*
X87800D01*
X90600D02*
X91500D01*
X97500D02*
X98100D01*
X100700D02*
X102300D01*
X89200D02*
X89800D01*
X86600Y176800D02*
X87800D01*
X89200D02*
X89700D01*
X90800D02*
X91500D01*
X97500D02*
X98100D01*
X100800D02*
X101800D01*
X86100Y176900D02*
X87900D01*
X89200Y177000D02*
X89700D01*
X91000D02*
X91600D01*
X97300D02*
X98000D01*
X86100D02*
X87900D01*
X90900Y176900D02*
X91600D01*
X97400D02*
X98000D01*
X100800D02*
X101300D01*
X89200D02*
X89700D01*
X64200Y180900D02*
X65100D01*
X67300D02*
X68000D01*
X72500D02*
X73000D01*
X73200D02*
X73800D01*
X75200D02*
X75800D01*
X101700D02*
X101800D01*
X103200D02*
X109000D01*
X111900D02*
X113900D01*
X77900D02*
X78400D01*
X63600Y181000D02*
X65100D01*
X67300D02*
X68100D01*
X72500D02*
X73000D01*
X73200D02*
X73800D01*
X75200D02*
X75800D01*
X77900D02*
X78400D01*
X101200D02*
X101800D01*
X103200D02*
X109000D01*
X111900D02*
X113900D01*
X63300Y181100D02*
X65200D01*
X72400D02*
X72900D01*
X73200D02*
X73800D01*
X75200D02*
X75800D01*
X67300D02*
X68200D01*
X100600D02*
X101800D01*
X103200D02*
X109000D01*
X111900D02*
X113900D01*
X77900D02*
X78100D01*
X67200Y181200D02*
X68200D01*
X72300D02*
X72900D01*
X73300D02*
X73800D01*
X63300D02*
X65200D01*
X100000D02*
X101800D01*
X103200D02*
X109000D01*
X111900D02*
X113900D01*
X75200D02*
X75800D01*
X67200Y181300D02*
X68300D01*
X72300D02*
X72800D01*
X73300D02*
X73800D01*
X63400D02*
X65200D01*
X96000Y182000D02*
X96700D01*
X93900Y195300D02*
X94400D01*
X94300Y193200D02*
X94600D01*
X89400Y195300D02*
X90700D01*
X63400Y181400D02*
X64100D01*
X64700D02*
X65200D01*
X67200D02*
X67700D01*
X67800D02*
X68400D01*
X72200D02*
X72800D01*
X73300D02*
X73900D01*
X99900D02*
X101800D01*
X103200D02*
X109000D01*
X111900D02*
X113900D01*
X75300D02*
X75800D01*
X63400Y181500D02*
X63600D01*
X64700D02*
X65200D01*
X67200D02*
X67600D01*
X67800D02*
X68400D01*
X72200D02*
X72700D01*
X73300D02*
X73900D01*
X75300D02*
X75900D01*
X99900D02*
X101800D01*
X103200D02*
X109000D01*
X111900D02*
X113900D01*
X64700Y181600D02*
X65300D01*
X60000D02*
X60500D01*
X67900D02*
X68500D01*
X72100D02*
X72600D01*
X73300D02*
X73900D01*
X67100D02*
X67600D01*
X96800Y181800D02*
X97200D01*
X99900D02*
X101800D01*
X103300D02*
X106600D01*
X107100D02*
X109000D01*
X92200Y191000D02*
X93400D01*
X59200Y182100D02*
X60000D01*
X64200D02*
X65300D01*
X67000D02*
X67500D01*
X68200D02*
X68900D01*
X57500D02*
X57800D01*
X71800D02*
X72400D01*
X75500D02*
X75900D01*
X95400D02*
X96800D01*
X112000D02*
X113900D01*
X57200Y182200D02*
X57800D01*
X59200D02*
X59800D01*
X63700D02*
X65400D01*
X67000D02*
X67500D01*
X68300D02*
X69000D01*
X71800D02*
X72200D01*
X75400D02*
X76000D01*
X94900D02*
X96900D01*
X99900D02*
X101800D01*
X103200D02*
X104500D01*
X107100D02*
X109000D01*
X107100Y182300D02*
X109000D01*
X57200D02*
X57800D01*
X99900Y182100D02*
X101800D01*
X103300D02*
X105000D01*
X107100D02*
X109000D01*
X112000Y182200D02*
X113900D01*
X59100Y182400D02*
X59700D01*
X63700D02*
X65400D01*
X66900D02*
X67400D01*
X57300D02*
X57900D01*
X59100Y182300D02*
X59700D01*
X63600D02*
X65400D01*
X66900D02*
X67500D01*
X68400D02*
X69000D01*
X75500D02*
X75900D01*
X94400D02*
X97000D01*
X99900D02*
X101800D01*
X103200D02*
X104000D01*
X112000D02*
X113900D01*
X68400Y182400D02*
X69100D01*
X75500D02*
X75800D01*
X94300D02*
X97100D01*
X112000D02*
X113900D01*
X57300Y182500D02*
X57900D01*
X59100D02*
X59700D01*
X63700D02*
X64500D01*
X64900D02*
X65400D01*
X66900D02*
X67400D01*
X68500D02*
X69200D01*
X94400D02*
X97200D01*
X99900D02*
X101800D01*
X107100D02*
X109000D01*
X112000D02*
X113900D01*
X59100Y182600D02*
X59700D01*
X63700D02*
X64000D01*
X57300D02*
X57900D01*
X66900D02*
X67400D01*
X68600D02*
X69200D01*
X92900D02*
X93400D01*
X64900D02*
X65400D01*
X57300Y182700D02*
X57900D01*
X59200D02*
X59800D01*
X64900D02*
X65500D01*
X66800D02*
X67400D01*
X68600D02*
X69300D01*
X92400D02*
X93400D01*
X94500D02*
X97300D01*
X99900D02*
X101800D01*
X107100D02*
X109000D01*
X112000D02*
X113900D01*
X57300Y182800D02*
X57900D01*
X64900D02*
X65500D01*
X66800D02*
X67400D01*
X91800D02*
X93400D01*
X59200D02*
X59900D01*
X94400Y182600D02*
X97200D01*
X99900D02*
X101800D01*
X107100D02*
X109000D01*
X112000Y182800D02*
X113900D01*
X94600D02*
X97400D01*
X99900D02*
X101800D01*
X107100D02*
X109000D01*
X112000Y182900D02*
X113900D01*
X99900Y182400D02*
X101800D01*
X103200D02*
X103500D01*
X107100D02*
X109000D01*
X112000Y182600D02*
X113900D01*
X52900Y182900D02*
X53900D01*
X56900D02*
X58000D01*
X65000D02*
X65500D01*
X66800D02*
X67300D01*
X91400D02*
X93300D01*
X59200D02*
X60200D01*
X52700Y183000D02*
X54100D01*
X56600D02*
X58000D01*
X59300D02*
X60500D01*
X64900D02*
X65500D01*
X66800D02*
X67300D01*
X91400D02*
X93300D01*
X94800D02*
X97600D01*
X99900D02*
X101800D01*
X107100D02*
X109000D01*
X112000D02*
X113900D01*
X56400Y183100D02*
X58000D01*
X52500D02*
X54300D01*
X64500D02*
X65500D01*
X66700D02*
X67100D01*
X91400D02*
X93300D01*
X59500D02*
X60700D01*
X94700Y182900D02*
X97500D01*
X99900D02*
X101800D01*
X107100D02*
X109000D01*
X112000Y183100D02*
X113900D01*
X52400Y183200D02*
X54400D01*
X56300D02*
X58000D01*
X59700D02*
X60800D01*
X64000D02*
X65500D01*
X91400D02*
X93300D01*
X94900D02*
X97700D01*
X99900D02*
X101800D01*
X107100D02*
X109000D01*
X112000D02*
X113900D01*
X56200Y183300D02*
X58000D01*
X52300D02*
X54500D01*
X63800D02*
X65600D01*
X88600D02*
X88700D01*
X91400D02*
X93300D01*
X60000D02*
X60900D01*
X94900Y183100D02*
X97700D01*
X99900D02*
X101800D01*
X107100D02*
X109000D01*
X112000Y183300D02*
X113900D01*
X50400Y183400D02*
X50500D01*
X52200D02*
X53100D01*
X53700D02*
X54500D01*
X56100D02*
X56900D01*
X57500D02*
X58000D01*
X60200D02*
X60900D01*
X63800D02*
X65600D01*
X88100D02*
X88700D01*
X91400D02*
X93300D01*
X95100D02*
X97900D01*
X99900D02*
X101800D01*
X107100D02*
X109000D01*
X112000D02*
X113900D01*
X49900Y183500D02*
X50500D01*
X52200D02*
X52900D01*
X53900D02*
X54600D01*
X56000D02*
X56700D01*
X57500D02*
X58100D01*
X60300D02*
X61000D01*
X63800D02*
X65000D01*
X87500D02*
X88300D01*
X91400D02*
X93300D01*
X95200D02*
X98000D01*
X99900D02*
X101800D01*
X107100D02*
X109000D01*
X112000D02*
X113900D01*
X50000Y183600D02*
X50600D01*
X95000Y183300D02*
X97800D01*
X99900D02*
X101900D01*
X107100D02*
X109000D01*
X112000Y183600D02*
X113900D01*
X54000D02*
X54700D01*
X56000D02*
X56600D01*
X57500D02*
X58100D01*
X52100D02*
X52800D01*
X63800D02*
X64500D01*
X87000D02*
X87800D01*
X91400D02*
X93300D01*
X60400D02*
X61000D01*
X48700Y183700D02*
X48900D01*
X50000D02*
X50600D01*
X52100D02*
X52700D01*
X54100D02*
X54700D01*
X56000D02*
X56600D01*
X57500D02*
X58100D01*
X60400D02*
X61000D01*
X63800D02*
X63900D01*
X86400D02*
X87200D01*
X91400D02*
X93300D01*
X95400D02*
X98200D01*
X99900D02*
X101900D01*
X107100D02*
X109000D01*
X112000D02*
X113900D01*
X48300Y183800D02*
X49000D01*
X50000D02*
X50600D01*
X52000D02*
X52600D01*
X54100D02*
X54700D01*
X55900D02*
X56500D01*
X57500D02*
X58100D01*
X60300D02*
X60900D01*
X85900D02*
X86700D01*
X91400D02*
X93400D01*
X95400D02*
X98200D01*
X99900D02*
X101900D01*
X106700D02*
X109000D01*
X112000D02*
X113900D01*
X48400Y183900D02*
X49100D01*
X52000D02*
X52600D01*
X54200D02*
X54800D01*
X55900D02*
X56500D01*
X50000D02*
X50600D01*
X60200D02*
X60900D01*
X85700D02*
X86100D01*
X91400D02*
X93400D01*
X57500D02*
X58100D01*
X95300Y183600D02*
X98100D01*
X99900D02*
X101800D01*
X107100D02*
X109000D01*
X112000Y183900D02*
X113900D01*
X95500D02*
X98300D01*
X99900D02*
X101900D01*
X106200D02*
X109000D01*
X112000Y184000D02*
X113900D01*
X48500D02*
X49200D01*
X50000D02*
X50600D01*
X52000D02*
X52500D01*
X54200D02*
X54800D01*
X55900D02*
X56500D01*
X59500D02*
X60900D01*
X85500D02*
X85800D01*
X91400D02*
X93400D01*
X57600D02*
X58200D01*
X48600Y184100D02*
X49300D01*
X50100D02*
X50600D01*
X52000D02*
X52500D01*
X54200D02*
X54800D01*
X55900D02*
X56600D01*
X57600D02*
X58200D01*
X59500D02*
X60800D01*
X85500D02*
X85900D01*
X91400D02*
X93400D01*
X95700D02*
X98500D01*
X99900D02*
X101900D01*
X105100D02*
X109000D01*
X112000D02*
X113900D01*
X48600Y184200D02*
X49300D01*
X52000D02*
X52500D01*
X54200D02*
X54800D01*
X56000D02*
X56600D01*
X50100D02*
X50700D01*
X59600D02*
X60700D01*
X85500D02*
X86100D01*
X91400D02*
X93400D01*
X57600D02*
X58200D01*
X95600Y184000D02*
X98400D01*
X99900D02*
X101900D01*
X105700D02*
X109000D01*
X112000Y184200D02*
X114000D01*
X48700Y184300D02*
X49400D01*
X50000D02*
X50700D01*
X52000D02*
X52500D01*
X54200D02*
X54800D01*
X56000D02*
X56700D01*
X57600D02*
X58200D01*
X59600D02*
X60500D01*
X85500D02*
X86200D01*
X91400D02*
X93400D01*
X95900D02*
X98700D01*
X99900D02*
X101900D01*
X104100D02*
X109000D01*
X112000D02*
X114000D01*
X48800Y184400D02*
X50700D01*
X44600D02*
X45600D01*
X54200D02*
X54800D01*
X56000D02*
X56800D01*
X57300D02*
X58200D01*
X52000D02*
X52500D01*
X82600D02*
X82800D01*
X85500D02*
X86300D01*
X91400D02*
X93400D01*
X59600D02*
X60200D01*
X95800Y184200D02*
X98600D01*
X99900D02*
X101900D01*
X104600D02*
X109000D01*
X112000Y184400D02*
X114000D01*
X95900D02*
X98700D01*
X99900D02*
X101900D01*
X103600D02*
X109000D01*
X112000Y184500D02*
X114000D01*
X44200D02*
X45600D01*
X48900D02*
X50700D01*
X52000D02*
X52600D01*
X54200D02*
X54800D01*
X56100D02*
X58200D01*
X48900Y184600D02*
X50700D01*
X52000D02*
X52600D01*
X54200D02*
X54700D01*
X44000D02*
X45600D01*
X81500D02*
X82400D01*
X85500D02*
X86600D01*
X91400D02*
X93400D01*
X56200D02*
X58300D01*
X82100Y184500D02*
X82800D01*
X85500D02*
X86500D01*
X91400D02*
X93400D01*
X96000D02*
X98800D01*
X99900D02*
X101900D01*
X103600D02*
X109000D01*
X112000Y184600D02*
X114000D01*
X48900Y184700D02*
X50800D01*
X52000D02*
X52700D01*
X54100D02*
X54700D01*
X43800D02*
X45600D01*
X81400D02*
X81900D01*
X85500D02*
X86800D01*
X91400D02*
X93400D01*
X56300D02*
X58300D01*
X96100Y184600D02*
X98900D01*
X99900D02*
X101900D01*
X103600D02*
X109000D01*
X112000Y184700D02*
X114000D01*
X48800Y184800D02*
X49600D01*
X50200D02*
X50800D01*
X52100D02*
X52700D01*
X43700D02*
X45700D01*
X56400D02*
X57900D01*
X85500D02*
X86900D01*
X91400D02*
X93400D01*
X54100D02*
X54700D01*
X96200Y184700D02*
X99000D01*
X99900D02*
X101900D01*
X103600D02*
X109000D01*
X112000Y184800D02*
X114000D01*
X96300D02*
X99100D01*
X99900D02*
X101900D01*
X103600D02*
X109000D01*
X112000Y184900D02*
X114000D01*
X42200D02*
X42300D01*
X43600D02*
X44500D01*
X45100D02*
X45700D01*
X48700D02*
X49400D01*
X50200D02*
X50800D01*
X52100D02*
X52800D01*
X54000D02*
X54600D01*
X80100D02*
X80900D01*
X85500D02*
X87100D01*
X91400D02*
X93400D01*
X56600D02*
X57300D01*
X41800Y185000D02*
X42300D01*
X43600D02*
X44200D01*
X45200D02*
X45700D01*
X48700D02*
X49300D01*
X50200D02*
X50800D01*
X52200D02*
X53000D01*
X53800D02*
X54600D01*
X79500D02*
X81500D01*
X85500D02*
X87200D01*
X91400D02*
X93400D01*
X96500D02*
X99200D01*
X99900D02*
X101900D01*
X103600D02*
X109000D01*
X112000D02*
X114000D01*
X43500Y185100D02*
X44100D01*
X41700D02*
X42300D01*
X48700D02*
X49200D01*
X50200D02*
X50800D01*
X52300D02*
X53200D01*
X45200D02*
X45700D01*
X79200D02*
X81800D01*
X85500D02*
X87300D01*
X91400D02*
X93400D01*
X53500D02*
X54500D01*
X96400Y184900D02*
X99200D01*
X99900D02*
X101900D01*
X103600D02*
X109000D01*
X112000Y185100D02*
X114000D01*
X41700Y185200D02*
X42300D01*
X43500D02*
X44100D01*
X45200D02*
X45700D01*
X48600D02*
X49200D01*
X50300D02*
X50800D01*
X52300D02*
X54400D01*
X78900D02*
X82100D01*
X85500D02*
X87500D01*
X91400D02*
X93400D01*
X96600D02*
X99400D01*
X99900D02*
X101900D01*
X103600D02*
X109000D01*
X96800Y185400D02*
X99600D01*
X40000Y185300D02*
X40400D01*
X43500D02*
X44000D01*
X45200D02*
X45800D01*
X48600D02*
X49200D01*
X41700D02*
X42200D01*
X52400D02*
X54300D01*
X78600D02*
X82300D01*
X85500D02*
X87600D01*
X50300D02*
X50900D01*
X91400D02*
X93400D01*
X96700D02*
X99500D01*
X99900D02*
X101900D01*
X112000D02*
X114000D01*
X96500Y185100D02*
X99300D01*
X99900D02*
X101800D01*
X103600Y185300D02*
X109000D01*
X112000Y185200D02*
X114000D01*
X36700Y185900D02*
X37100D01*
X38200D02*
X38700D01*
X40200D02*
X41300D01*
X41600D02*
X42100D01*
X43700D02*
X45900D01*
X48800D02*
X51000D01*
X77600D02*
X83100D01*
X85500D02*
X88500D01*
X91400D02*
X93400D01*
X97200D02*
X101900D01*
X103500D02*
X104800D01*
X107200D02*
X109000D01*
X112000D02*
X115800D01*
X36400Y186000D02*
X37200D01*
X38200D02*
X38700D01*
X40200D02*
X40900D01*
X41600D02*
X42000D01*
X43900D02*
X45200D01*
X45300D02*
X45900D01*
X48900D02*
X51000D01*
X77500D02*
X83200D01*
X85500D02*
X88600D01*
X91400D02*
X93400D01*
X97300D02*
X101900D01*
X103500D02*
X104300D01*
X107200D02*
X109000D01*
X91400Y186100D02*
X93400D01*
X36500D02*
X37300D01*
X38100Y185800D02*
X38700D01*
X40100D02*
X42100D01*
X43600D02*
X45800D01*
X48700D02*
X51000D01*
X40300Y186100D02*
X40900D01*
X41500D02*
X42000D01*
X44100D02*
X44700D01*
X38200D02*
X38800D01*
X49000D02*
X50600D01*
X77300D02*
X83300D01*
X85500D02*
X88800D01*
X45400D02*
X45900D01*
X77700Y185800D02*
X83000D01*
X85500D02*
X88300D01*
X91400D02*
X93400D01*
X97100D02*
X101900D01*
X103500D02*
X105300D01*
X97400Y186100D02*
X101900D01*
X112000Y186000D02*
X115800D01*
X35000Y186200D02*
X35400D01*
X36600D02*
X37400D01*
X38200D02*
X38800D01*
X40400D02*
X40900D01*
X41500D02*
X42000D01*
X44100D02*
X44500D01*
X45400D02*
X45900D01*
X49200D02*
X50100D01*
X77200D02*
X83400D01*
X85500D02*
X88900D01*
X91400D02*
X93400D01*
X97400D02*
X101900D01*
X107200D02*
X109000D01*
X97500Y186300D02*
X101900D01*
X34800D02*
X35400D01*
X38300D02*
X38800D01*
X40500D02*
X41000D01*
X41500D02*
X42000D01*
X36700D02*
X37500D01*
X45400D02*
X45900D01*
X77100D02*
X83400D01*
X85500D02*
X89100D01*
X44000D02*
X44500D01*
X91400D02*
X93400D01*
X107200D02*
X109000D01*
X97700Y186500D02*
X99700D01*
X111200Y186300D02*
X115900D01*
X103600Y186100D02*
X103700D01*
X107200D02*
X109000D01*
X97600Y186400D02*
X99800D01*
X111700Y186200D02*
X115900D01*
X112000Y186100D02*
X115800D01*
X34800Y186400D02*
X35400D01*
X36800D02*
X37600D01*
X38300D02*
X38800D01*
X41500D02*
X41900D01*
X44000D02*
X44500D01*
X45400D02*
X46000D01*
X40500D02*
X41100D01*
X77000D02*
X83500D01*
X85500D02*
X89200D01*
X91400D02*
X93400D01*
X73400D02*
X73900D01*
X34800Y186500D02*
X35300D01*
X36900D02*
X37700D01*
X38300D02*
X38800D01*
X33400D02*
X33500D01*
X41500D02*
X41900D01*
X43900D02*
X44500D01*
X45400D02*
X46000D01*
X40600D02*
X41100D01*
X76900D02*
X83600D01*
X85500D02*
X89300D01*
X91400D02*
X93400D01*
X72800D02*
X73900D01*
X99900Y186400D02*
X101900D01*
X107200D02*
X109000D01*
X99900Y186500D02*
X101900D01*
X110600Y186400D02*
X115900D01*
X34800Y186600D02*
X35300D01*
X37000D02*
X37800D01*
X38300D02*
X38900D01*
X40700D02*
X41200D01*
X41400D02*
X41900D01*
X43900D02*
X44500D01*
X45400D02*
X46000D01*
X32900Y186700D02*
X33600D01*
X32900Y186600D02*
X33500D01*
X72300D02*
X73900D01*
X76800D02*
X83600D01*
X85500D02*
X89500D01*
X91400D02*
X93400D01*
X97700D02*
X99700D01*
X99900D02*
X101900D01*
X107200D02*
X109000D01*
X110100D02*
X115900D01*
X34700Y186700D02*
X35300D01*
X37100D02*
X37900D01*
X38300D02*
X38900D01*
X40700D02*
X41300D01*
X41400D02*
X41900D01*
X44000D02*
X44700D01*
X44900D02*
X46000D01*
X72000D02*
X73900D01*
X76700D02*
X83700D01*
X85500D02*
X89600D01*
X91400D02*
X93400D01*
X97600D02*
X99600D01*
X99900D02*
X101900D01*
X107200D02*
X109000D01*
X88400Y188300D02*
X93400D01*
X33000Y186800D02*
X33700D01*
X107200Y186500D02*
X109000D01*
X107200Y186800D02*
X109000D01*
X110100Y186700D02*
X115900D01*
X110200Y186500D02*
X115900D01*
X73100Y180200D02*
X73600D01*
X75000D02*
X75600D01*
X77700D02*
X78300D01*
X71700D02*
X72600D01*
X71900Y180300D02*
X72700D01*
X73100D02*
X73700D01*
X75100D02*
X75600D01*
X67500D02*
X67600D01*
X79600D02*
X81000D01*
X104900D02*
X109000D01*
X111900D02*
X113900D01*
X77800D02*
X78300D01*
X82800Y180200D02*
X83100D01*
X105300D02*
X109000D01*
X111900D02*
X113900D01*
X80300D02*
X81100D01*
X37200Y186800D02*
X38100D01*
X38300D02*
X38900D01*
X40800D02*
X41800D01*
X34200D02*
X35300D01*
X72000D02*
X73900D01*
X76600D02*
X83700D01*
X85500D02*
X89800D01*
X44000D02*
X46000D01*
X33100Y186900D02*
X35200D01*
X37400D02*
X38200D01*
X91400D02*
X93400D01*
X31300D02*
X31700D01*
X40900D02*
X41800D01*
X44000D02*
X46000D01*
X69000D02*
X69300D01*
X38300D02*
X38900D01*
X72000D02*
X73900D01*
X76500D02*
X80000D01*
X80400D02*
X83800D01*
X85500D02*
X89900D01*
X72000Y187000D02*
X73900D01*
X91400Y186800D02*
X93400D01*
X97600D02*
X99500D01*
X99900D02*
X101900D01*
X110100D02*
X115900D01*
X97500Y186900D02*
X99500D01*
X99900D02*
X101900D01*
X107200D02*
X109000D01*
X110100D02*
X115900D01*
X31200Y187000D02*
X31700D01*
X33200D02*
X35200D01*
X37500D02*
X38900D01*
X41000D02*
X41800D01*
X44100D02*
X45700D01*
X68500D02*
X69300D01*
X76500D02*
X79500D01*
X80900D02*
X83800D01*
X85500D02*
X90100D01*
X107200D02*
X109000D01*
X33200Y187100D02*
X35200D01*
X37600D02*
X38900D01*
X91500Y187500D02*
X93400D01*
X31200Y187100D02*
X31800D01*
X44300D02*
X45200D01*
X67900D02*
X68800D01*
X72000D02*
X73900D01*
X41000D02*
X41700D01*
X81100D02*
X83900D01*
X85500D02*
X90200D01*
X91500D02*
X93400D01*
X76400D02*
X79200D01*
X91400Y187000D02*
X93400D01*
X97400D02*
X99400D01*
X99900D02*
X101900D01*
X110100D02*
X115900D01*
X33300Y187200D02*
X34100D01*
X34700D02*
X35100D01*
X37700D02*
X38300D01*
X31200D02*
X31800D01*
X41100D02*
X41700D01*
X67600D02*
X68200D01*
X72000D02*
X73900D01*
X38400D02*
X39000D01*
X81300D02*
X83900D01*
X85500D02*
X90300D01*
X91500D02*
X93400D01*
X76300D02*
X79000D01*
X97300D02*
X99300D01*
X99900D02*
X101900D01*
X106600D02*
X109000D01*
X110100D02*
X115800D01*
X97400Y187100D02*
X99400D01*
X99900D02*
X101900D01*
X107100D02*
X109000D01*
X110100D02*
X115900D01*
X72000Y187300D02*
X73900D01*
X81400D02*
X84000D01*
X85500D02*
X90500D01*
X91500D02*
X93400D01*
X76300D02*
X78800D01*
X31300D02*
X31800D01*
X33400D02*
X34000D01*
X34600D02*
X35100D01*
X37600D02*
X38200D01*
X38400D02*
X39000D01*
X41200D02*
X41700D01*
X31300Y187400D02*
X31800D01*
X33400D02*
X34000D01*
X34600D02*
X35100D01*
X29300D02*
X29500D01*
X38500D02*
X39000D01*
X41200D02*
X41700D01*
X72000D02*
X73900D01*
X37600D02*
X38100D01*
X81500D02*
X84000D01*
X85500D02*
X90600D01*
X91500D02*
X93400D01*
X76200D02*
X78600D01*
X97200Y187300D02*
X99200D01*
X99900D02*
X101900D01*
X106000D02*
X109000D01*
X110100D02*
X115400D01*
X31300Y187500D02*
X31800D01*
X33500D02*
X34100D01*
X34600D02*
X35100D01*
X29300D02*
X29600D01*
X38500D02*
X39000D01*
X41300D02*
X41600D01*
X72000D02*
X73900D01*
X37500D02*
X38100D01*
X76100D02*
X78500D01*
X81600D02*
X84000D01*
X85500D02*
X90800D01*
X76100Y187600D02*
X78400D01*
X97100Y187500D02*
X99100D01*
X99900D02*
X101900D01*
X105000D02*
X109000D01*
X110100D02*
X114300D01*
X97200Y187400D02*
X99200D01*
X99900D02*
X101900D01*
X105500D02*
X109000D01*
X110100D02*
X114900D01*
X27300Y187600D02*
X27900D01*
X29300D02*
X29800D01*
X31300D02*
X31800D01*
X26800Y187700D02*
X28000D01*
X26600Y187800D02*
X28000D01*
X67300Y187600D02*
X67900D01*
X72000D02*
X73900D01*
X81700D02*
X84000D01*
X85500D02*
X90900D01*
X91500D02*
X93400D01*
X110100D02*
X113800D01*
X33600D02*
X34200D01*
X34600D02*
X35000D01*
X37500D02*
X38000D01*
X38500D02*
X39000D01*
X41400D02*
X41600D01*
X29400Y187700D02*
X30000D01*
X31300D02*
X31900D01*
X33700D02*
X34200D01*
X34600D02*
X35000D01*
X37400D02*
X38000D01*
X38500D02*
X39100D01*
X37400Y187800D02*
X37900D01*
X41500Y187700D02*
X41600D01*
X66800D02*
X67900D01*
X72000D02*
X73900D01*
X76000D02*
X78300D01*
X81800D02*
X84100D01*
X85500D02*
X91000D01*
X91500D02*
X93400D01*
X97000D02*
X99000D01*
X99900D02*
X101900D01*
X103900D02*
X109000D01*
X31300Y187800D02*
X31900D01*
X33700D02*
X34300D01*
X34500D02*
X35000D01*
X29400D02*
X30200D01*
X66300D02*
X67900D01*
X72000D02*
X73900D01*
X76000D02*
X78200D01*
X81800D02*
X84100D01*
X38500D02*
X39100D01*
X85500D02*
X87500D01*
X87600D02*
X91200D01*
X91500D02*
X93400D01*
X110100D02*
X112800D01*
X26600Y187900D02*
X28000D01*
X29400D02*
X30400D01*
X31400D02*
X31900D01*
X33800D02*
X34300D01*
X34500D02*
X35000D01*
X37300D02*
X37900D01*
X38500D02*
X39100D01*
X34500Y188000D02*
X34900D01*
X25100D02*
X25400D01*
X65800Y187900D02*
X67900D01*
X72000D02*
X73900D01*
X75900D02*
X78100D01*
X81900D02*
X84100D01*
X85500D02*
X87500D01*
X87800D02*
X91300D01*
X91500D02*
X93400D01*
X96800D02*
X98800D01*
X99900D02*
X101900D01*
X103400D02*
X109000D01*
X96900Y187800D02*
X98900D01*
X99900D02*
X101900D01*
X103500D02*
X109000D01*
X110100Y187900D02*
X112300D01*
X97000Y187600D02*
X99000D01*
X99900D02*
X101900D01*
X104400D02*
X109000D01*
X110100Y187700D02*
X113300D01*
X29400Y188000D02*
X30500D01*
X31400D02*
X31900D01*
X33900D02*
X34400D01*
X26600D02*
X28000D01*
X38600D02*
X39100D01*
X65300D02*
X67900D01*
X72000D02*
X73900D01*
X75800D02*
X78000D01*
X37200D02*
X37800D01*
X82000D02*
X84100D01*
X85500D02*
X87500D01*
X87900D02*
X93400D01*
X110100D02*
X111800D01*
X24800Y188100D02*
X25400D01*
X26600D02*
X27100D01*
X27400D02*
X28000D01*
X29400D02*
X30700D01*
X31400D02*
X31900D01*
X24800Y188200D02*
X25400D01*
X33900Y188100D02*
X34900D01*
X37200D02*
X37800D01*
X38600D02*
X39100D01*
X64700D02*
X67900D01*
X72000D02*
X73900D01*
X75800D02*
X77900D01*
X82000D02*
X84100D01*
X85500D02*
X87500D01*
X88100D02*
X93400D01*
X96700D02*
X98700D01*
X99900D02*
X101900D01*
X103400D02*
X109000D01*
X110100D02*
X111300D01*
X27500Y188200D02*
X28100D01*
X29500D02*
X30900D01*
X31400D02*
X32000D01*
X34000D02*
X34900D01*
X37100D02*
X37700D01*
X38600D02*
X39100D01*
X37100Y188300D02*
X37600D01*
X24900D02*
X25400D01*
X64200Y188200D02*
X67900D01*
X72000D02*
X73900D01*
X75800D02*
X77800D01*
X82000D02*
X84200D01*
X85500D02*
X87500D01*
X88200D02*
X93400D01*
X96600D02*
X98600D01*
X99900D02*
X101900D01*
X103400D02*
X109000D01*
X109800D02*
X109900D01*
X96800Y188000D02*
X98800D01*
X99900D02*
X101900D01*
X103400D02*
X109000D01*
X110100Y188200D02*
X110700D01*
X29500Y188300D02*
X31100D01*
X31400D02*
X32000D01*
X34100D02*
X34800D01*
X27500D02*
X28100D01*
X63700D02*
X67900D01*
X72000D02*
X73900D01*
X75700D02*
X77800D01*
X82100D02*
X84200D01*
X38600D02*
X38700D01*
X85500D02*
X87500D01*
X94700Y191000D02*
X96400D01*
X94700Y192500D02*
X95100D01*
X96600Y188300D02*
X98600D01*
X27500Y188400D02*
X28100D01*
X29500D02*
X30000D01*
X30300D02*
X31200D01*
X24900D02*
X25400D01*
X34200D02*
X34800D01*
X37000D02*
X37600D01*
X63200D02*
X67900D01*
X31500D02*
X32000D01*
X72000D02*
X73900D01*
X75700D02*
X77700D01*
X82100D02*
X84200D01*
X85500D02*
X87500D01*
X72000Y188500D02*
X73900D01*
X96500Y188400D02*
X98500D01*
X99900D02*
X101900D01*
X103400D02*
X109000D01*
X109800D02*
X110000D01*
X99900Y188300D02*
X101900D01*
X103400D02*
X109000D01*
X109800D02*
X110000D01*
X110100D02*
X110200D01*
X62700Y188500D02*
X67900D01*
X75600D02*
X77700D01*
X82100D02*
X84200D01*
X85500D02*
X87500D01*
X103400D02*
X109000D01*
X24900D02*
X25500D01*
X27500D02*
X28100D01*
X29500D02*
X30000D01*
X30500D02*
X32000D01*
X34200D02*
X34800D01*
X37000D02*
X37500D01*
X24900Y188600D02*
X25500D01*
X27500D02*
X28100D01*
X29500D02*
X30100D01*
X21800D02*
X22900D01*
X34300D02*
X34800D01*
X36900D02*
X37100D01*
X62200D02*
X67900D01*
X72000D02*
X73900D01*
X30600D02*
X32000D01*
X88600Y188500D02*
X93400D01*
X96400D02*
X98400D01*
X99900D02*
X101900D01*
X109800D02*
X110000D01*
X75600Y188600D02*
X77600D01*
X82200D02*
X84200D01*
X85500D02*
X87500D01*
X103400D02*
X108700D01*
X24900Y188700D02*
X25500D01*
X27600D02*
X28100D01*
X29500D02*
X30100D01*
X21500D02*
X23100D01*
X34400D02*
X34700D01*
X62200D02*
X67900D01*
X72000D02*
X73900D01*
X75600D02*
X77600D01*
X30800D02*
X32000D01*
X88800Y188600D02*
X93400D01*
X96400D02*
X98400D01*
X99900D02*
X101900D01*
X109800D02*
X110000D01*
X82200Y188700D02*
X84200D01*
X85500D02*
X87500D01*
X88900D02*
X93400D01*
X109800D02*
X110000D01*
X96300D02*
X98300D01*
X99900D02*
X101900D01*
X103400D02*
X108200D01*
X109800Y188800D02*
X110000D01*
X24900D02*
X25500D01*
X27600D02*
X28200D01*
X29600D02*
X30100D01*
X21400D02*
X23300D01*
X34400D02*
X34700D01*
X62200D02*
X67900D01*
X72000D02*
X73900D01*
X31000D02*
X32100D01*
X82200D02*
X84200D01*
X85500D02*
X87500D01*
X85500Y189900D02*
X87500D01*
X75500Y188800D02*
X77500D01*
X21300Y188900D02*
X23400D01*
X25000D02*
X25500D01*
X27600D02*
X28200D01*
X29600D02*
X30100D01*
X31200D02*
X32100D01*
X34500D02*
X34700D01*
X19600Y189000D02*
X19900D01*
X62200Y188900D02*
X67900D01*
X72000D02*
X73900D01*
X75500D02*
X77500D01*
X82200D02*
X84200D01*
X85500D02*
X87500D01*
X89200D02*
X93400D01*
X96200D02*
X98200D01*
X99900D02*
X101900D01*
X85500Y189000D02*
X87500D01*
X103400Y188900D02*
X107200D01*
X25000Y189000D02*
X25600D01*
X27600D02*
X28200D01*
X29600D02*
X30100D01*
X21300D02*
X23500D01*
X59000D02*
X60600D01*
X62200D02*
X67900D01*
X72000D02*
X73900D01*
X31300D02*
X32100D01*
X75500D02*
X77400D01*
X82200D02*
X84200D01*
X82200Y189900D02*
X84100D01*
X75400Y189100D02*
X77400D01*
X96100Y189000D02*
X98100D01*
X99900D02*
X101900D01*
X103400D02*
X106700D01*
X109800D02*
X110000D01*
X96200Y188800D02*
X98200D01*
X99900D02*
X101900D01*
X103400D02*
X107700D01*
X109800Y188900D02*
X110000D01*
X82200Y189100D02*
X84200D01*
X85500D02*
X87500D01*
X94800Y190900D02*
X96800D01*
X109800Y189100D02*
X110000D01*
X19400D02*
X19900D01*
X21300D02*
X21900D01*
X22800D02*
X23600D01*
X25000D02*
X25600D01*
X27600D02*
X28200D01*
X29600D02*
X30100D01*
X31500D02*
X32100D01*
X19400Y189200D02*
X20000D01*
X21300D02*
X21800D01*
X22900D02*
X23600D01*
X25000D02*
X25600D01*
X27700D02*
X28200D01*
X29600D02*
X30200D01*
X31700D02*
X32100D01*
X29700Y189300D02*
X30200D01*
X19400D02*
X20000D01*
X58600Y189100D02*
X60900D01*
X62200D02*
X67900D01*
X72000D02*
X73900D01*
X58300Y189200D02*
X61000D01*
X62200D02*
X67900D01*
X72000D02*
X73900D01*
X75400D02*
X77400D01*
X82200D02*
X84200D01*
X85500D02*
X87500D01*
X89700D02*
X93400D01*
X96000D02*
X97900D01*
X99900D02*
X101900D01*
X103400D02*
X105700D01*
X23000Y189300D02*
X23700D01*
X25000D02*
X25600D01*
X27700D02*
X28300D01*
X21300D02*
X21800D01*
X58000D02*
X61000D01*
X62200D02*
X67900D01*
X72000D02*
X73900D01*
X75400Y189500D02*
X77300D01*
X31900Y189300D02*
X32200D01*
X75400D02*
X77400D01*
X82200D02*
X84200D01*
X85500D02*
X87500D01*
X109800D02*
X110000D01*
X19400Y189400D02*
X20000D01*
X21300D02*
X21800D01*
X23100D02*
X23700D01*
X25100D02*
X25600D01*
X27700D02*
X28300D01*
X29700D02*
X30200D01*
X32000D02*
X32200D01*
X19400Y189500D02*
X20000D01*
X57800Y189400D02*
X61000D01*
X62200D02*
X67900D01*
X72000D02*
X73900D01*
X75400D02*
X77300D01*
X82200D02*
X84200D01*
X85500D02*
X87500D01*
X89900D02*
X93400D01*
X95800D02*
X97800D01*
X99900D02*
X101900D01*
X103400D02*
X104600D01*
X109800D02*
X110000D01*
X95900Y189300D02*
X97900D01*
X99900D02*
X101900D01*
X103400D02*
X105100D01*
X109800Y189500D02*
X110000D01*
X96000Y189100D02*
X98000D01*
X99900D02*
X101900D01*
X103400D02*
X106200D01*
X109800Y189200D02*
X110000D01*
X23100Y189500D02*
X23700D01*
X25100D02*
X25600D01*
X27700D02*
X28300D01*
X21400D02*
X21900D01*
X57600D02*
X61000D01*
X62200D02*
X67900D01*
X72000D02*
X73900D01*
X29700D02*
X30200D01*
X82200D02*
X84200D01*
X85500D02*
X87500D01*
X90100D02*
X93400D01*
X109800Y189700D02*
X109900D01*
X19500Y189600D02*
X20000D01*
X21400D02*
X21900D01*
X23200D02*
X23800D01*
X25100D02*
X25700D01*
X27700D02*
X28300D01*
X29700D02*
X30200D01*
X21400Y189700D02*
X21900D01*
X19500D02*
X20000D01*
X57500Y189600D02*
X61000D01*
X62200D02*
X67900D01*
X72000D02*
X73900D01*
X75300D02*
X77300D01*
X82200D02*
X84200D01*
X85500D02*
X87500D01*
X90200D02*
X93400D01*
X95700D02*
X97700D01*
X99900D02*
X101900D01*
X103400D02*
X103600D01*
X109800D02*
X110000D01*
X25100Y189700D02*
X25700D01*
X27800D02*
X28300D01*
X29700D02*
X30300D01*
X23200D02*
X23800D01*
X57300D02*
X61000D01*
X62200D02*
X65900D01*
X66100D02*
X67900D01*
X72000D02*
X73900D01*
X75300D02*
X77300D01*
X82200D02*
X84100D01*
X85500D02*
X87500D01*
X90400D02*
X93400D01*
X95600D02*
X97600D01*
X99900D02*
X101900D01*
X29800Y189900D02*
X29900D01*
X19500Y189800D02*
X20100D01*
X21400D02*
X21900D01*
X23200D02*
X23800D01*
X25100D02*
X25700D01*
X27800D02*
X28300D01*
X29700D02*
X30300D01*
X19500Y189900D02*
X20100D01*
X57200Y189800D02*
X61000D01*
X62200D02*
X65400D01*
X66100D02*
X67900D01*
X72000D02*
X73900D01*
X75300D02*
X77300D01*
X82200D02*
X84100D01*
X85500D02*
X87500D01*
X90500D02*
X93400D01*
X95600D02*
X97500D01*
X99900D02*
X101900D01*
X109800D02*
X109900D01*
X95800Y189500D02*
X97700D01*
X99900D02*
X101900D01*
X103400D02*
X104100D01*
X109800Y189900D02*
X109900D01*
X23200D02*
X23800D01*
X25100D02*
X25700D01*
X27800D02*
X28400D01*
X21400D02*
X22000D01*
X57000D02*
X61000D01*
X62200D02*
X64900D01*
X66100D02*
X67900D01*
X72000D02*
X73900D01*
X52600D02*
X53200D01*
X75300D02*
X77300D01*
X97400Y192500D02*
X98500D01*
X97400Y192800D02*
X98700D01*
X109800Y190100D02*
X109900D01*
X19500Y190000D02*
X20100D01*
X21500D02*
X21900D01*
X23200D02*
X23800D01*
X25200D02*
X25700D01*
X27800D02*
X28400D01*
X23200Y190100D02*
X23800D01*
X25200D02*
X25800D01*
X19500D02*
X20100D01*
X52800Y190000D02*
X53000D01*
X56900D02*
X61000D01*
X62200D02*
X64400D01*
X66100D02*
X67900D01*
X72000D02*
X73900D01*
X75300D02*
X77300D01*
X82100D02*
X84100D01*
X85500D02*
X87500D01*
X90800D02*
X93400D01*
X95400D02*
X97400D01*
X99900D02*
X101500D01*
X109800D02*
X109900D01*
X90700Y189900D02*
X93400D01*
X95500D02*
X97500D01*
X99900D02*
X101900D01*
X109800Y190700D02*
X109900D01*
X56800Y190100D02*
X61000D01*
X62200D02*
X63800D01*
X66100D02*
X67900D01*
X27800D02*
X28400D01*
X75300D02*
X77200D01*
X82100D02*
X84100D01*
X85500D02*
X87500D01*
X72000D02*
X73900D01*
X22800Y190600D02*
X23600D01*
X25300D02*
X25800D01*
X51700D02*
X53300D01*
X56400D02*
X61100D01*
X66100D02*
X68000D01*
X71600D02*
X73900D01*
X75300D02*
X77300D01*
X81900D02*
X83900D01*
X85500D02*
X87500D01*
X91700D02*
X93400D01*
X95000D02*
X97000D01*
X109800D02*
X109900D01*
X22700Y190700D02*
X23500D01*
X19700D02*
X20200D01*
X51300D02*
X53300D01*
X56300D02*
X59500D01*
X60100D02*
X61100D01*
X25300D02*
X25500D01*
X71000D02*
X73900D01*
X75300D02*
X77300D01*
X81900D02*
X83900D01*
X66100D02*
X68000D01*
X19700Y190800D02*
X20200D01*
X21600D02*
X21700D01*
X22300D02*
X23400D01*
X51300D02*
X53300D01*
X56300D02*
X59100D01*
X60600D02*
X61100D01*
X66100D02*
X68000D01*
X70500D02*
X73900D01*
X75300D02*
X77300D01*
X81900D02*
X83900D01*
X85500D02*
X87500D01*
X91900D02*
X93400D01*
X94900D02*
X96900D01*
X109800D02*
X109900D01*
X19700Y190900D02*
X20300D01*
X51300D02*
X53300D01*
X56200D02*
X58800D01*
X60800D02*
X61100D01*
X21600D02*
X23300D01*
X70000D02*
X73900D01*
X75300D02*
X77300D01*
X81800D02*
X83800D01*
X66100D02*
X68000D01*
X90900Y190100D02*
X93400D01*
X95300D02*
X97300D01*
X99900D02*
X101000D01*
X109800Y190900D02*
X109900D01*
X41500Y185500D02*
X42200D01*
X43500D02*
X44100D01*
X78200D02*
X82600D01*
X39900D02*
X40500D01*
X39800Y185400D02*
X40400D01*
X41700D02*
X42200D01*
X43500D02*
X44100D01*
X45200D02*
X45800D01*
X48600D02*
X49200D01*
X50300D02*
X50900D01*
X52600D02*
X54100D01*
X48600Y185500D02*
X49300D01*
X50300D02*
X50900D01*
X52700D02*
X53900D01*
X45200D02*
X45800D01*
X78400Y185400D02*
X82500D01*
X85500D02*
X87800D01*
X91400D02*
X93400D01*
X99900D02*
X101900D01*
X103600D02*
X109000D01*
X112000D02*
X114000D01*
X99900Y185500D02*
X101900D01*
X115700Y185400D02*
X115800D01*
X85500Y185500D02*
X87900D01*
X91400D02*
X93400D01*
X96900D02*
X99600D01*
X103500D02*
X106800D01*
X38400Y185600D02*
X38700D01*
X40000D02*
X40600D01*
X40900D02*
X42200D01*
X43500D02*
X44200D01*
X45100D02*
X45800D01*
X48700D02*
X49300D01*
X50300D02*
X50900D01*
X53100D02*
X53600D01*
X40000Y185700D02*
X42100D01*
X43600D02*
X44300D01*
X38100D02*
X38700D01*
X78000Y185600D02*
X82800D01*
X85500D02*
X88000D01*
X91400D02*
X93400D01*
X97000D02*
X99700D01*
X99900D02*
X101900D01*
X103500D02*
X106300D01*
X107200D02*
X109000D01*
X112000D02*
X114000D01*
X48700Y185700D02*
X49400D01*
X50200D02*
X50900D01*
X77900D02*
X82900D01*
X85500D02*
X88200D01*
X44600D02*
X45800D01*
X91400D02*
X93400D01*
X97000D02*
X99800D01*
X99900D02*
X101900D01*
X112000Y185800D02*
X115800D01*
X103500Y185700D02*
X105800D01*
X107200D02*
X109000D01*
X112000D02*
X114000D01*
X114200D02*
X115800D01*
X107200Y185500D02*
X109000D01*
X112000D02*
X114000D01*
X107200Y185800D02*
X109000D01*
X114700Y185600D02*
X115800D01*
X115200Y185500D02*
X115800D01*
X19600Y190400D02*
X20200D01*
X23100D02*
X23700D01*
X25200D02*
X25800D01*
X52800D02*
X53300D01*
X56500D02*
X61000D01*
X62200D02*
X62400D01*
X72000D02*
X73900D01*
X75300D02*
X77300D01*
X82000D02*
X84000D01*
X66100D02*
X68000D01*
X91400D02*
X93400D01*
X95100D02*
X97100D01*
X109800D02*
X109900D01*
X85500D02*
X87500D01*
X19600Y190500D02*
X20200D01*
X23000D02*
X23600D01*
X25300D02*
X25800D01*
X52300D02*
X53300D01*
X56500D02*
X61100D01*
X66100D02*
X68000D01*
X72000D02*
X73900D01*
X75300D02*
X77300D01*
X82000D02*
X84000D01*
X85500D02*
X87500D01*
X91500D02*
X93400D01*
X95100D02*
X97100D01*
X109800D02*
X109900D01*
X19600Y190600D02*
X20200D01*
X85500Y190700D02*
X87500D01*
X91800D02*
X93400D01*
X94900D02*
X96900D01*
X85500Y190900D02*
X87500D01*
X21600Y191000D02*
X23200D01*
X51300D02*
X53300D01*
X56200D02*
X58600D01*
X19700D02*
X20300D01*
X69500D02*
X73900D01*
X75300D02*
X77400D01*
X81700D02*
X83800D01*
X66100D02*
X68000D01*
X19700Y191100D02*
X20300D01*
X21600D02*
X23000D01*
X51300D02*
X53300D01*
X56100D02*
X58400D01*
X66100D02*
X68000D01*
X69300D02*
X73900D01*
X75300D02*
X77400D01*
X81700D02*
X83700D01*
X85500D02*
X87500D01*
X92400D02*
X93400D01*
X94700D02*
X95900D01*
X109800D02*
X109900D01*
X19700Y191200D02*
X20300D01*
X85500Y191000D02*
X87500D01*
X109800Y191200D02*
X109900D01*
X109800Y191400D02*
X109900D01*
X109800Y191000D02*
X109900D01*
X21700Y191200D02*
X22800D01*
X51300D02*
X53300D01*
X56100D02*
X58300D01*
X66100D02*
X68000D01*
X69300D02*
X73900D01*
X75300D02*
X77400D01*
X81600D02*
X83700D01*
X85600D02*
X87500D01*
X92500D02*
X93400D01*
X94600D02*
X95400D01*
X51300Y191400D02*
X53300D01*
X19800Y191300D02*
X20300D01*
X21800D02*
X22500D01*
X51300D02*
X53300D01*
X56000D02*
X58200D01*
X66100D02*
X68000D01*
X69300D02*
X73900D01*
X75300D02*
X77500D01*
X81500D02*
X83600D01*
X85600D02*
X87500D01*
X92700D02*
X93400D01*
X94500D02*
X94900D01*
X109800D02*
X109900D01*
X19800Y191400D02*
X20400D01*
X66100D02*
X68000D01*
X69300D02*
X73900D01*
X75300D02*
X77500D01*
X81400Y191500D02*
X83500D01*
X56000Y191400D02*
X58100D01*
X81500D02*
X83600D01*
X85600D02*
X87500D01*
X92800D02*
X93400D01*
X109800Y191800D02*
X109900D01*
X19800Y191500D02*
X20400D01*
X51300D02*
X53300D01*
X19800Y191600D02*
X20400D01*
X22600D02*
X23100D01*
X19800Y191700D02*
X20000D01*
X56000Y191500D02*
X58000D01*
X66100D02*
X68000D01*
X69300D02*
X73900D01*
X75400D02*
X77600D01*
X51300Y191600D02*
X53300D01*
X55900D02*
X57900D01*
X66100D02*
X68000D01*
X69300D02*
X74000D01*
X75400D02*
X77600D01*
X81300D02*
X83500D01*
X85600D02*
X87500D01*
X93100D02*
X93400D01*
X109800D02*
X109900D01*
X22300Y191700D02*
X23200D01*
X51300D02*
X53300D01*
X55900D02*
X57900D01*
X66000D02*
X68000D01*
X69300D02*
X74000D01*
X75400D02*
X77700D01*
X81200D02*
X83400D01*
X85600D02*
X87500D01*
X96200D02*
X97100D01*
X109800D02*
X109900D01*
X22900Y191800D02*
X23300D01*
X51300D02*
X53300D01*
X22200D02*
X22800D01*
X55900D02*
X57900D01*
X65500D02*
X68000D01*
X69300D02*
X74000D01*
X75400D02*
X77800D01*
X81100D02*
X83400D01*
X85600D02*
X87500D01*
X95800D02*
X97500D01*
X55800Y192100D02*
X57800D01*
X85600Y191500D02*
X87500D01*
X92900D02*
X93400D01*
X109800D02*
X109900D01*
X109800Y192300D02*
X109900D01*
X22200Y191900D02*
X22600D01*
X23000D02*
X23300D01*
X45000D02*
X45100D01*
X51300D02*
X53300D01*
X55900D02*
X57800D01*
X65000D02*
X68000D01*
X69300D02*
X74000D01*
X75500D02*
X77900D01*
X81000D02*
X83300D01*
X85600D02*
X87500D01*
X95600D02*
X97700D01*
X109800D02*
X109900D01*
X22200Y192000D02*
X22500D01*
X44500D02*
X45200D01*
X51300D02*
X53300D01*
X55800D02*
X57800D01*
X64500D02*
X68000D01*
X69300D02*
X74000D01*
X75500D02*
X78000D01*
X80800D02*
X83300D01*
X85600D02*
X87500D01*
X95400D02*
X96100D01*
X97100D02*
X97900D01*
X109800D02*
X109900D01*
X51300Y192100D02*
X53300D01*
X44000D02*
X45200D01*
X69300D02*
X74000D01*
X75500D02*
X78100D01*
X80700D02*
X83200D01*
X85600D02*
X87500D01*
X64000D02*
X68000D01*
X95200D02*
X95800D01*
X97400D02*
X98000D01*
X109800D02*
X109900D01*
X109800Y192500D02*
X109900D01*
X43500Y192200D02*
X45200D01*
X51300D02*
X53300D01*
X55800D02*
X57800D01*
X63400D02*
X68000D01*
X69300D02*
X74000D01*
X75600D02*
X78200D01*
X80500D02*
X83100D01*
X85600D02*
X87500D01*
X95100D02*
X95600D01*
X97400D02*
X98200D01*
X109800D02*
X109900D01*
X51300Y192300D02*
X53300D01*
X43200D02*
X45200D01*
X55800D02*
X57800D01*
X62900D02*
X68000D01*
X69300D02*
X71800D01*
X72000D02*
X74000D01*
X75600D02*
X78400D01*
X80200D02*
X83000D01*
X85600D02*
X87500D01*
X95000D02*
X95400D01*
X97400D02*
X98300D01*
X55800Y192500D02*
X57900D01*
X43200Y192400D02*
X45200D01*
X51300D02*
X53300D01*
X55800D02*
X57800D01*
X62500D02*
X68000D01*
X69300D02*
X71300D01*
X72000D02*
X74000D01*
X75600D02*
X78700D01*
X79900D02*
X83000D01*
X85600D02*
X87500D01*
X94800D02*
X95300D01*
X97400D02*
X98400D01*
X109800D02*
X109900D01*
X51300Y192500D02*
X53300D01*
X43200D02*
X45200D01*
X69300D02*
X70800D01*
X72000D02*
X74000D01*
X75700D02*
X82900D01*
X85600D02*
X87500D01*
X62500D02*
X68000D01*
X43200Y192600D02*
X45200D01*
X51300D02*
X53300D01*
X55800D02*
X57900D01*
X62500D02*
X68000D01*
X69300D02*
X70300D01*
X72000D02*
X74000D01*
X75700D02*
X82800D01*
X85600D02*
X87500D01*
X94700D02*
X95000D01*
X97400D02*
X98600D01*
X51300Y192700D02*
X53300D01*
X55800D02*
X58000D01*
X43200D02*
X45200D01*
X69300D02*
X69800D01*
X72000D02*
X74000D01*
X75800D02*
X82700D01*
X85600Y192900D02*
X86600D01*
X62500Y192700D02*
X68000D01*
X85600D02*
X87500D01*
X94600D02*
X94900D01*
X97400D02*
X98700D01*
X109800D02*
X109900D01*
X97500Y193000D02*
X98900D01*
X97500Y193200D02*
X98900D01*
X97500Y193400D02*
X99000D01*
X109800Y192600D02*
X109900D01*
X43200Y192800D02*
X45200D01*
X51300D02*
X53300D01*
X55800D02*
X58000D01*
X43200Y192900D02*
X45200D01*
X51300D02*
X53300D01*
X55800D02*
X58200D01*
X40000D02*
X40200D01*
X62500Y192800D02*
X68000D01*
X72000D02*
X74000D01*
X75800D02*
X82600D01*
X85600D02*
X87100D01*
X72000Y192900D02*
X74000D01*
X75900D02*
X82500D01*
X85600Y193000D02*
X86100D01*
X62500Y192900D02*
X68000D01*
X94400D02*
X94800D01*
X97500D02*
X98800D01*
X100500D02*
X102800D01*
X109800D02*
X109900D01*
X94500Y192800D02*
X94800D01*
X101000D02*
X102400D01*
X97600Y195300D02*
X99000D01*
X109800Y192800D02*
X109900D01*
X43200Y193100D02*
X45200D01*
X51300D02*
X53300D01*
X76000D02*
X82300D01*
X39000D02*
X40200D01*
X39500Y193000D02*
X40200D01*
X43200D02*
X45200D01*
X51300D02*
X53300D01*
X55800D02*
X58300D01*
X62500D02*
X68000D01*
X72000D02*
X74000D01*
X76000D02*
X82400D01*
X62500Y193100D02*
X68000D01*
X72000D02*
X74000D01*
X76100Y193200D02*
X82200D01*
X55900Y193100D02*
X58500D01*
X94300D02*
X94600D01*
X97500D02*
X98900D01*
X99500D02*
X103500D01*
X109800D02*
X109900D01*
X94400Y193000D02*
X94700D01*
X100000D02*
X103200D01*
X99000Y195900D02*
X109600D01*
X109800Y193000D02*
X109900D01*
X43200Y193300D02*
X45200D01*
X51300D02*
X53300D01*
X94200Y193400D02*
X94500D01*
X38000Y193300D02*
X40200D01*
X38500Y193200D02*
X40200D01*
X43200D02*
X45200D01*
X51300D02*
X53300D01*
X55900D02*
X58800D01*
X62500D02*
X68000D01*
X72000D02*
X74000D01*
X62500Y193300D02*
X68000D01*
X72000D02*
X74000D01*
X76200D02*
X82100D01*
X55900D02*
X59100D01*
X94200D02*
X94500D01*
X97500D02*
X99000D01*
X99200D02*
X104100D01*
X109800D02*
X109900D01*
X99200Y193200D02*
X103800D01*
X99200Y193400D02*
X104400D01*
X99200Y195300D02*
X108700D01*
X109800Y193200D02*
X109900D01*
X43200Y193700D02*
X45200D01*
X51300D02*
X53300D01*
X56100D02*
X60100D01*
X35900D02*
X40200D01*
X36400Y193600D02*
X40200D01*
X43200D02*
X45200D01*
X51300D02*
X53300D01*
X56000D02*
X60000D01*
X62500D02*
X65100D01*
X66100D02*
X68000D01*
X72000D02*
X74000D01*
X76500D02*
X81700D01*
X66100Y193700D02*
X68000D01*
X72000D02*
X74000D01*
X76600D02*
X81500D01*
X62500D02*
X64700D01*
X94100Y193600D02*
X94400D01*
X97500D02*
X99100D01*
X99300D02*
X104900D01*
X109800Y193900D02*
X109900D01*
X94100Y193700D02*
X94400D01*
X97500D02*
X99100D01*
X99300D02*
X105200D01*
X109800Y194000D02*
X109900D01*
X43200Y193500D02*
X45200D01*
X51300D02*
X53300D01*
X56000D02*
X59700D01*
X36900D02*
X40200D01*
X37500Y193400D02*
X40200D01*
X43200D02*
X45200D01*
X51300D02*
X53300D01*
X55900D02*
X59400D01*
X62500D02*
X68000D01*
X72000D02*
X74000D01*
X76300D02*
X82000D01*
X66100Y193500D02*
X68000D01*
X72000D02*
X74000D01*
X76400D02*
X81800D01*
X62500D02*
X65600D01*
X94100D02*
X94400D01*
X97500D02*
X99100D01*
X99200D02*
X104600D01*
X109800Y193800D02*
X109900D01*
X109800Y193500D02*
X109900D01*
X109800Y193600D02*
X109900D01*
X109800Y193700D02*
X109900D01*
X109800Y193400D02*
X109900D01*
X19600Y190200D02*
X20100D01*
X23200D02*
X23800D01*
X25200D02*
X25800D01*
X27800D02*
X28000D01*
X56700D02*
X61000D01*
X62200D02*
X63300D01*
X66100D02*
X68000D01*
X72000D02*
X73900D01*
X75300D02*
X77200D01*
X82100D02*
X84000D01*
X85500D02*
X87500D01*
X91100D02*
X93400D01*
X95300D02*
X97300D01*
X99900D02*
X100500D01*
X109800D02*
X109900D01*
X19600Y190300D02*
X20200D01*
X25200D02*
X25800D01*
X56600D02*
X61000D01*
X62200D02*
X62800D01*
X23100D02*
X23700D01*
X72000D02*
X73900D01*
X75300D02*
X77300D01*
X82100D02*
X84000D01*
X66100D02*
X68000D01*
X91200D02*
X93400D01*
X95200D02*
X97200D01*
X109800D02*
X109900D01*
X85500D02*
X87500D01*
X99800Y181300D02*
X101800D01*
X103200D02*
X109000D01*
X111900D02*
X113900D01*
X75200D02*
X75800D01*
X99900Y181600D02*
X101800D01*
X103200D02*
X109000D01*
X111900D02*
X113900D01*
X75300D02*
X75400D01*
X59600Y181700D02*
X60600D01*
X64700D02*
X65300D01*
X67100D02*
X67600D01*
X68000D02*
X68600D01*
X72100D02*
X72600D01*
X73400D02*
X73900D01*
X99900D02*
X101800D01*
X103300D02*
X107000D01*
X107100D02*
X109000D01*
X111900D02*
X113900D01*
X64700Y181800D02*
X65300D01*
X59500D02*
X60700D01*
X59400Y181900D02*
X60700D01*
X64800D02*
X65300D01*
X67000D02*
X67600D01*
X68100D02*
X68700D01*
X71900D02*
X72500D01*
X73400D02*
X73800D01*
X96500D02*
X97000D01*
X99900D02*
X101800D01*
X103300D02*
X106100D01*
X107100D02*
X109000D01*
X112000D02*
X113900D01*
X64700Y182000D02*
X65300D01*
X59300D02*
X60700D01*
X68200D02*
X68800D01*
X71900D02*
X72400D01*
X75500D02*
X75900D01*
X67000D02*
X67500D01*
X68000Y181800D02*
X68700D01*
X72000D02*
X72500D01*
X73400D02*
X73900D01*
X67100D02*
X67600D01*
X39500Y205900D02*
X48600D01*
X50300D02*
X50500D01*
X53200D02*
X54100D01*
X54600D02*
X55100D01*
X55700D02*
X56000D01*
X15700Y206600D02*
X16000D01*
X26900Y211500D02*
X30300D01*
X38600D02*
X43800D01*
X47700D02*
X51000D01*
X54200D02*
X54600D01*
X22900Y208200D02*
X24500D01*
X28400D02*
X36000D01*
X28300Y208300D02*
X36000D01*
X22100D02*
X24500D01*
X14800Y215100D02*
X25000D01*
X14700Y214900D02*
X19500D01*
X14700Y214800D02*
X19000D01*
X14700Y214700D02*
X18700D01*
X14600Y214600D02*
X18500D01*
X14600Y214500D02*
X18400D01*
X14600Y214400D02*
X18300D01*
X14500Y214300D02*
X18200D01*
X14500Y214200D02*
X18100D01*
X14500Y214100D02*
X18000D01*
X14500Y213800D02*
X17900D01*
X14500Y213500D02*
X17800D01*
X15700Y206700D02*
X16000D01*
X14800Y200800D02*
X16800D01*
X17700D02*
X19500D01*
X19900D02*
X22200D01*
X14800Y200900D02*
X16800D01*
X17800Y200600D02*
X19600D01*
X19700D02*
X22100D01*
X17700Y200700D02*
X19600D01*
X19800D02*
X22100D01*
X14800D02*
X16800D01*
X100900Y174300D02*
X101500D01*
X101000Y174400D02*
X101500D01*
X99100Y174500D02*
X99400D01*
X101000Y174600D02*
X101600D01*
X99000Y174700D02*
X99500D01*
X101000D02*
X101600D01*
X99000Y174800D02*
X99500D01*
X101000D02*
X101600D01*
X99000Y174900D02*
X99500D01*
X101000D02*
X101600D01*
X101000Y174500D02*
X101600D01*
X96000Y175300D02*
X97700D01*
X101000Y174200D02*
X101500D01*
X112400Y178800D02*
X113900D01*
X112900Y178700D02*
X113900D01*
X113400Y178600D02*
X113900D01*
X96000Y175100D02*
X97400D01*
X101100D02*
X101700D01*
X96000Y175200D02*
X97600D01*
X101100D02*
X101700D01*
X88500Y188400D02*
X93400D01*
X99000Y174600D02*
X99500D01*
X107100Y182000D02*
X109000D01*
X112000D02*
X113900D01*
X103600Y185100D02*
X109000D01*
X94300Y175400D02*
X94600D01*
X96100D02*
X97800D01*
X101100D02*
X101700D01*
X89100Y188800D02*
X93400D01*
X94200Y175500D02*
X94700D01*
X96100D02*
X96400D01*
X97000D02*
X97900D01*
X94200Y175600D02*
X94800D01*
X97200D02*
X98000D01*
X89400Y189000D02*
X93400D01*
X94200Y175700D02*
X94800D01*
X97300D02*
X98000D01*
X101200D02*
X101800D01*
X89500Y189100D02*
X93400D01*
X94300Y175800D02*
X94700D01*
X97400D02*
X98000D01*
X97500Y175900D02*
X98100D01*
X101200D02*
X101800D01*
X89800Y189300D02*
X93400D01*
X89700Y176200D02*
X90800D01*
X97600D02*
X98100D01*
X101300D02*
X101900D01*
X102400D02*
X102500D01*
X97600Y176300D02*
X98100D01*
X101300D02*
X102500D01*
X89500D02*
X91000D01*
X89300Y176400D02*
X91200D01*
X97600D02*
X98100D01*
X101300D02*
X102500D01*
X97600Y176500D02*
X98100D01*
X100800D02*
X102500D01*
X89200D02*
X91300D01*
X89100Y176600D02*
X91400D01*
X97500D02*
X98100D01*
X100700D02*
X102600D01*
X87700D02*
X87800D01*
X97500Y176000D02*
X98100D01*
X97600Y176100D02*
X98100D01*
X101300D02*
X101800D01*
X92100Y190900D02*
X93400D01*
X101100Y175000D02*
X101600D01*
X101200Y176000D02*
X101800D01*
X101200Y175800D02*
X101800D01*
X101200Y175600D02*
X101800D01*
X101200Y175500D02*
X101700D01*
X101100Y175300D02*
X101700D01*
X96300Y175000D02*
X97200D01*
X50300Y205300D02*
X50500D01*
X52700D02*
X53800D01*
X54000D02*
X54400D01*
X56300D02*
X56600D01*
X62400D02*
X63600D01*
X71300D02*
X72100D01*
X76900D02*
X77500D01*
X89000D02*
X89300D01*
X92500D02*
X97500D01*
X97600D02*
X97800D01*
X99200D02*
X99300D01*
X108000D02*
X108100D01*
X109700D02*
X109800D01*
X50300Y205400D02*
X50500D01*
X52700D02*
X53800D01*
X54100D02*
X54600D01*
X56200D02*
X56500D01*
X62400D02*
X63600D01*
X71600D02*
X72400D01*
X77100D02*
X77700D01*
X89000D02*
X89400D01*
X92400D02*
X97300D01*
X97600D02*
X97800D01*
X99200D02*
X99300D01*
X108000D02*
X108100D01*
X50300Y206600D02*
X50500D01*
X15500Y205500D02*
X16700D01*
X40600D02*
X48000D01*
X50300D02*
X50500D01*
X52800D02*
X53900D01*
X54200D02*
X54700D01*
X56000D02*
X56400D01*
X62400D02*
X63600D01*
X71900D02*
X72600D01*
X77300D02*
X77800D01*
X89100D02*
X89500D01*
X92400D02*
X97100D01*
X97600D02*
X97800D01*
X99200D02*
X99300D01*
X108000D02*
X108100D01*
X109700D02*
X109800D01*
X15500Y205600D02*
X16600D01*
X40300D02*
X48100D01*
X50300D02*
X50500D01*
X52900D02*
X53900D01*
X54400D02*
X54900D01*
X56000D02*
X56300D01*
X62400D02*
X63700D01*
X72100D02*
X72900D01*
X77400D02*
X78000D01*
X89200D02*
X89600D01*
X92400D02*
X96900D01*
X97600D02*
X97800D01*
X99200D02*
X99300D01*
X108000D02*
X108100D01*
X38200Y206600D02*
X49300D01*
X15500Y205700D02*
X16600D01*
X40000D02*
X48300D01*
X50300D02*
X50500D01*
X53000D02*
X53900D01*
X54500D02*
X55200D01*
X55900D02*
X56200D01*
X62400D02*
X63700D01*
X72400D02*
X73200D01*
X77600D02*
X78200D01*
X89300D02*
X89600D01*
X92300D02*
X96600D01*
X97600D02*
X97800D01*
X99200D02*
X99300D01*
X108000D02*
X108100D01*
X62500Y206200D02*
X63700D01*
X15500Y205800D02*
X16500D01*
X39800D02*
X48500D01*
X50300D02*
X50500D01*
X53100D02*
X53900D01*
X54700D02*
X55200D01*
X55800D02*
X56100D01*
X62500D02*
X63700D01*
X72700D02*
X73500D01*
X77800D02*
X78400D01*
X89300D02*
X89700D01*
X92300D02*
X96400D01*
X97600D02*
X97800D01*
X99200D02*
X99300D01*
X108000D02*
X108100D01*
X62500Y205900D02*
X63700D01*
X15600D02*
X16400D01*
X92100Y206200D02*
X95600D01*
X92000Y206600D02*
X94700D01*
X92200Y205900D02*
X96200D01*
X89800Y206600D02*
X90100D01*
X43200Y193900D02*
X45200D01*
X51300D02*
X53300D01*
X56200D02*
X60400D01*
X34900D02*
X40200D01*
X35400Y193800D02*
X40200D01*
X43200D02*
X45200D01*
X51300D02*
X53300D01*
X56200D02*
X60300D01*
X62500D02*
X64100D01*
X66100D02*
X68000D01*
X72000D02*
X74000D01*
X76800D02*
X81400D01*
X66100Y193900D02*
X68000D01*
X72000D02*
X74000D01*
X76900D02*
X81200D01*
X62500D02*
X63600D01*
X94000D02*
X94300D01*
X97500D02*
X99200D01*
X99300D02*
X105700D01*
X109800Y194200D02*
X109900D01*
X94100Y193800D02*
X94300D01*
X97500D02*
X99100D01*
X99300D02*
X105400D01*
X109800Y194100D02*
X109900D01*
X43200D02*
X45200D01*
X51300D02*
X53300D01*
X56400D02*
X60600D01*
X34500D02*
X40200D01*
X34500Y194000D02*
X40200D01*
X43200D02*
X45200D01*
X51300D02*
X53300D01*
X56300D02*
X60500D01*
X62500D02*
X63100D01*
X66100D02*
X68000D01*
X71500D02*
X74000D01*
X77100D02*
X81000D01*
X66100Y194100D02*
X68000D01*
X71000D02*
X74000D01*
X77200D02*
X80700D01*
X62500D02*
X62600D01*
X94000Y194000D02*
X94300D01*
X97500D02*
X99200D01*
X99400D02*
X105900D01*
X109800Y194300D02*
X109900D01*
X94000Y194100D02*
X94300D01*
X97500D02*
X99200D01*
X99400D02*
X106200D01*
X109800Y194400D02*
X109900D01*
X34500Y194300D02*
X40200D01*
X43200D02*
X45200D01*
X51300D02*
X53300D01*
X32700D02*
X33800D01*
X33300Y194200D02*
X33800D01*
X34500D02*
X40200D01*
X43200D02*
X45200D01*
X51300D02*
X53300D01*
X56500D02*
X60700D01*
X66100D02*
X68000D01*
X70500D02*
X74000D01*
X77500D02*
X80500D01*
X66100Y194300D02*
X68000D01*
X70000D02*
X74000D01*
X77800D02*
X80100D01*
X56700D02*
X60800D01*
X93900D02*
X94200D01*
X97600D02*
X99200D01*
X99400D02*
X106600D01*
X109800Y194700D02*
X109900D01*
X94000Y194200D02*
X94300D01*
X97600D02*
X99200D01*
X99400D02*
X106400D01*
X109800Y194500D02*
X109900D01*
X34500D02*
X40200D01*
X43200D02*
X45200D01*
X51300D02*
X53300D01*
X31800D02*
X33700D01*
X32200Y194400D02*
X33700D01*
X34500D02*
X40200D01*
X43200D02*
X45200D01*
X51300D02*
X53300D01*
X56800D02*
X60900D01*
X66100D02*
X68000D01*
X69500D02*
X74000D01*
X78200D02*
X79700D01*
X66100Y194500D02*
X68000D01*
X69200D02*
X74000D01*
X93100D02*
X94200D01*
X57000D02*
X60900D01*
X93500Y194400D02*
X94200D01*
X97600D02*
X99200D01*
X99400D02*
X106800D01*
X109800Y194800D02*
X109900D01*
X97600Y194500D02*
X99200D01*
X99400D02*
X107100D01*
X108100D02*
X108200D01*
X109800Y195000D02*
X109900D01*
X31700Y194600D02*
X33600D01*
X34500D02*
X40200D01*
X43200D02*
X45200D01*
X51300D02*
X53300D01*
X57200D02*
X61000D01*
X66100D02*
X68000D01*
X69200D02*
X74000D01*
X92600D02*
X94200D01*
X97600D02*
X99200D01*
X99400D02*
X107300D01*
X108000D02*
X108200D01*
X109800D02*
X109900D01*
X31600Y194700D02*
X33600D01*
X43200D02*
X45200D01*
X51300D02*
X53300D01*
X57500D02*
X61000D01*
X34500D02*
X40200D01*
X69200D02*
X74000D01*
X92200D02*
X93500D01*
X93800D02*
X94200D01*
X66100D02*
X68000D01*
X97600D02*
X99200D01*
X99400D02*
X107500D01*
X107900D02*
X108200D01*
X109800Y195100D02*
X109900D01*
X31600Y194900D02*
X33500D01*
X34500D02*
X40200D01*
X43200D02*
X45200D01*
X51300D02*
X53300D01*
X58100D02*
X61100D01*
X66100D02*
X68000D01*
X69200D02*
X74000D01*
X91200D02*
X92600D01*
X93800D02*
X94300D01*
X97600D02*
X99100D01*
X99300D02*
X107900D01*
X108100D02*
X108200D01*
X109800D02*
X109900D01*
X34500Y195000D02*
X40200D01*
X31500D02*
X33500D01*
X31600Y194800D02*
X33600D01*
X34500D02*
X40200D01*
X43200D02*
X45200D01*
X51300D02*
X53300D01*
X57800D02*
X61000D01*
X66100D02*
X68000D01*
X69200D02*
X74000D01*
X51300Y195000D02*
X53300D01*
X58400D02*
X61100D01*
X66100D02*
X68000D01*
X43200D02*
X45200D01*
X69200D02*
X74000D01*
X90800D02*
X92100D01*
X93800D02*
X94300D01*
X97600D02*
X99100D01*
X99300D02*
X108200D01*
X69200Y195300D02*
X74000D01*
X91700Y194800D02*
X93000D01*
X93800D02*
X94300D01*
X97600D02*
X99200D01*
X99400D02*
X108200D01*
X109800Y195300D02*
X109900D01*
X31500Y195100D02*
X33500D01*
X34500D02*
X38100D01*
X38400D02*
X40200D01*
X43200D02*
X45200D01*
X51300D02*
X53300D01*
X58600D02*
X61100D01*
X65900D02*
X68000D01*
X69200D02*
X74000D01*
X90300D02*
X91700D01*
X93800D02*
X94300D01*
X97600D02*
X99100D01*
X99300D02*
X108300D01*
X64800Y195300D02*
X68000D01*
X31500Y195200D02*
X33400D01*
X34500D02*
X37600D01*
X38400D02*
X40200D01*
X43200D02*
X45200D01*
X51300D02*
X53300D01*
X58800D02*
X61100D01*
X65300D02*
X68000D01*
X69200D02*
X74000D01*
X89900D02*
X91200D01*
X93900D02*
X94300D01*
X97600D02*
X99100D01*
X99300D02*
X108500D01*
X109800D02*
X109900D01*
X34500Y195300D02*
X37100D01*
X31400D02*
X33300D01*
X43200D02*
X45200D01*
X51300D02*
X53300D01*
X58900D02*
X61100D01*
X38400D02*
X40200D01*
X109700Y195700D02*
X109900D01*
X109700Y195900D02*
X109900D01*
X109700Y204600D02*
X109800D01*
X109700Y204800D02*
X109800D01*
X109700Y204900D02*
X109800D01*
X109700Y205200D02*
X109800D01*
Y195400D02*
X109900D01*
X27100D02*
X27600D01*
X31400D02*
X33300D01*
X34500D02*
X36600D01*
X38400D02*
X40200D01*
X43200D02*
X45200D01*
X51300D02*
X53300D01*
X58900D02*
X61100D01*
X64300D02*
X68000D01*
X69200D02*
X73800D01*
X88900D02*
X90300D01*
X93900D02*
X94400D01*
X97600D02*
X99000D01*
X99200D02*
X108900D01*
X31300Y195500D02*
X33300D01*
X109700D02*
X109900D01*
X26600D02*
X27700D01*
X38400D02*
X40200D01*
X43200D02*
X45200D01*
X51300D02*
X53300D01*
X34500D02*
X36100D01*
X63800D02*
X68000D01*
X69200D02*
X73300D01*
X88500D02*
X89800D01*
X59000D02*
X61100D01*
X93900D02*
X94400D01*
X97700D02*
X99000D01*
X99200D02*
X109000D01*
X109700Y205400D02*
X109800D01*
X26000Y195600D02*
X27700D01*
X31300D02*
X33200D01*
X34500D02*
X35600D01*
X38400D02*
X40200D01*
X43200D02*
X45200D01*
X51300D02*
X53300D01*
X59000D02*
X61100D01*
X63300D02*
X68000D01*
X69200D02*
X72800D01*
X88000D02*
X89300D01*
X94000D02*
X94500D01*
X97700D02*
X98900D01*
X99100D02*
X109200D01*
X109700D02*
X109900D01*
X31300Y195700D02*
X33200D01*
X25600D02*
X27800D01*
X38400D02*
X40200D01*
X43200D02*
X45200D01*
X51300D02*
X53300D01*
X34500D02*
X35100D01*
X62800D02*
X68000D01*
X69200D02*
X72300D01*
X87600D02*
X88900D01*
X59000D02*
X61100D01*
X94000D02*
X94500D01*
X97700D02*
X98900D01*
X99100D02*
X109300D01*
X109700Y205600D02*
X109800D01*
X25500Y195800D02*
X27800D01*
X31200D02*
X33200D01*
X34500D02*
X34600D01*
X38400D02*
X40200D01*
X43200D02*
X45200D01*
X51300D02*
X53300D01*
X59000D02*
X61100D01*
X62300D02*
X68000D01*
X69200D02*
X71700D01*
X87100D02*
X88400D01*
X94000D02*
X94600D01*
X97700D02*
X98800D01*
X99000D02*
X109500D01*
X109700D02*
X109900D01*
X25500Y195900D02*
X27800D01*
X24500D02*
X25000D01*
X38400D02*
X40200D01*
X43200D02*
X45200D01*
X51300D02*
X53300D01*
X31200D02*
X33100D01*
X62300D02*
X68000D01*
X69200D02*
X71200D01*
X86600D02*
X87900D01*
X59000D02*
X61100D01*
X94100D02*
X94700D01*
X97700D02*
X98800D01*
X109600Y205800D02*
X109800D01*
X109700Y205700D02*
X109800D01*
X25700Y196300D02*
X28000D01*
X30000D02*
X33000D01*
X38400D02*
X40200D01*
X23000D02*
X24900D01*
X51300D02*
X53300D01*
X58800D02*
X61000D01*
X62300D02*
X68000D01*
X43200D02*
X45200D01*
X94300D02*
X95000D01*
X97700D02*
X98500D01*
X98700D02*
X110000D01*
X84800D02*
X86100D01*
X23100Y196200D02*
X24900D01*
X25700D02*
X28000D01*
X30500D02*
X33000D01*
X38400D02*
X40200D01*
X43200D02*
X45200D01*
X51300D02*
X53300D01*
X58900D02*
X61000D01*
X62300D02*
X68000D01*
X69200D02*
X69700D01*
X94200D02*
X94900D01*
X97700D02*
X98500D01*
X98800D02*
X109900D01*
X85300D02*
X86500D01*
X24000Y196000D02*
X25000D01*
X25600D02*
X27900D01*
X31200D02*
X33100D01*
X38400D02*
X40200D01*
X43200D02*
X45200D01*
X51300D02*
X53300D01*
X59000D02*
X61000D01*
X62300D02*
X68000D01*
X69200D02*
X70700D01*
X86200D02*
X87500D01*
X94100D02*
X94700D01*
X97700D02*
X98700D01*
X98900D02*
X109900D01*
X23400Y196100D02*
X24900D01*
X31000D02*
X33000D01*
X38400D02*
X40200D01*
X43200D02*
X45200D01*
X25600D02*
X27900D01*
X58900D02*
X61000D01*
X62300D02*
X68000D01*
X69200D02*
X70200D01*
X51300D02*
X53300D01*
X94200D02*
X94800D01*
X97700D02*
X98600D01*
X98900D02*
X109900D01*
X85700D02*
X87000D01*
X25800Y196500D02*
X28100D01*
X29000D02*
X32900D01*
X38400D02*
X40200D01*
X22900D02*
X24900D01*
X51300D02*
X53300D01*
X58600D02*
X60900D01*
X62300D02*
X68000D01*
X43200D02*
X45200D01*
X94400D02*
X95200D01*
X97700D02*
X98300D01*
X98500D02*
X110100D01*
X83900D02*
X85200D01*
X23000Y196400D02*
X24900D01*
X25800D02*
X28000D01*
X29500D02*
X32900D01*
X38400D02*
X40200D01*
X43200D02*
X45200D01*
X51300D02*
X53300D01*
X58700D02*
X60900D01*
X62300D02*
X68000D01*
X94400D02*
X95100D01*
X97700D02*
X98400D01*
X98600D02*
X110000D01*
X84400D02*
X85600D01*
X25900Y196700D02*
X32800D01*
X38400D02*
X40200D01*
X43200D02*
X45200D01*
X22900D02*
X24900D01*
X58300D02*
X60800D01*
X62300D02*
X67100D01*
X72800D02*
X74600D01*
X51300D02*
X53300D01*
X94600D02*
X95600D01*
X97400D02*
X98000D01*
X98300D02*
X110200D01*
X82900D02*
X84200D01*
X22900Y196600D02*
X24900D01*
X25900D02*
X28100D01*
X28500D02*
X32800D01*
X38400D02*
X40200D01*
X43200D02*
X45200D01*
X51300D02*
X53300D01*
X58500D02*
X60800D01*
X62300D02*
X67600D01*
X73100D02*
X74200D01*
X94500D02*
X95400D01*
X97600D02*
X98100D01*
X98400D02*
X110200D01*
X83400D02*
X84700D01*
X22900Y196800D02*
X24800D01*
X26000D02*
X32800D01*
X38400D02*
X40200D01*
X43200D02*
X45200D01*
X51300D02*
X53300D01*
X58100D02*
X60700D01*
X62300D02*
X66600D01*
X72600D02*
X74800D01*
X82500D02*
X83800D01*
X94700D02*
X95800D01*
X97200D02*
X97900D01*
X98200D02*
X110200D01*
X26000Y196900D02*
X32700D01*
X22900D02*
X24800D01*
X43200D02*
X45200D01*
X51300D02*
X53300D01*
X56200D02*
X56600D01*
X38400D02*
X40200D01*
X62300D02*
X66100D01*
X72400D02*
X73100D01*
X74200D02*
X75000D01*
X57700D02*
X60700D01*
X94800D02*
X96300D01*
X96800D02*
X97700D01*
X98000D02*
X110200D01*
X82000D02*
X83300D01*
X22900Y197000D02*
X24800D01*
X26100D02*
X32700D01*
X38400D02*
X40200D01*
X43200D02*
X45200D01*
X51300D02*
X53300D01*
X56200D02*
X60600D01*
X62300D02*
X65600D01*
X72200D02*
X72800D01*
X74400D02*
X75100D01*
X81500D02*
X82900D01*
X94900D02*
X97500D01*
X97800D02*
X110200D01*
X22900Y197100D02*
X24800D01*
X38200D02*
X40200D01*
X43200D02*
X45200D01*
X51300D02*
X53300D01*
X26100D02*
X32600D01*
X62300D02*
X65100D01*
X72100D02*
X72600D01*
X74400D02*
X75200D01*
X56200D02*
X60500D01*
X95100D02*
X95700D01*
X95900D02*
X97200D01*
X97600D02*
X110300D01*
X81100D02*
X82400D01*
X26200Y197300D02*
X32600D01*
X37200D02*
X40300D01*
X43200D02*
X45200D01*
X22800D02*
X24800D01*
X54600D02*
X55200D01*
X56200D02*
X60400D01*
X62300D02*
X64000D01*
X51300D02*
X53300D01*
X74500D02*
X75500D01*
X80200D02*
X81500D01*
X95200D02*
X110200D01*
X71900D02*
X72300D01*
X22900Y197200D02*
X24800D01*
X26200D02*
X32600D01*
X37700D02*
X40300D01*
X43200D02*
X45200D01*
X51300D02*
X53300D01*
X55100D02*
X55200D01*
X56200D02*
X60400D01*
X62300D02*
X64500D01*
X72000D02*
X72400D01*
X80600D02*
X81900D01*
X95200D02*
X96000D01*
X97300D02*
X110200D01*
X74400D02*
X75400D01*
X26300Y197500D02*
X32500D01*
X36200D02*
X40300D01*
X43200D02*
X45200D01*
X22800D02*
X24800D01*
X53500D02*
X55200D01*
X56200D02*
X60200D01*
X62300D02*
X63000D01*
X51300D02*
X53300D01*
X74500D02*
X75600D01*
X79300D02*
X80600D01*
X95100D02*
X110200D01*
X71700D02*
X72100D01*
X22800Y197400D02*
X24800D01*
X26300D02*
X32500D01*
X36600D02*
X40300D01*
X43200D02*
X45200D01*
X51300D02*
X53300D01*
X54000D02*
X55200D01*
X56200D02*
X60300D01*
X62300D02*
X63500D01*
X74500D02*
X75600D01*
X79700D02*
X81000D01*
X95200D02*
X110200D01*
X71800D02*
X72200D01*
X15700Y197600D02*
X16300D01*
X22800D02*
X24700D01*
X26400D02*
X32400D01*
X35700D02*
X40300D01*
X43200D02*
X45200D01*
X51300D02*
X55200D01*
X56300D02*
X60100D01*
X62400D02*
X62500D01*
X71600D02*
X72000D01*
X74500D02*
X75700D01*
X78800D02*
X80100D01*
X95100D02*
X110200D01*
X15200Y197700D02*
X16300D01*
X22800D02*
X24700D01*
X26400D02*
X30400D01*
X30600D02*
X32400D01*
X19600D02*
X19800D01*
X43200D02*
X45200D01*
X51300D02*
X55200D01*
X56300D02*
X59900D01*
X35200D02*
X40300D01*
X74500D02*
X75800D01*
X78400D02*
X79700D01*
X95100D02*
X110100D01*
X71600D02*
X71900D01*
X14700Y197800D02*
X16400D01*
X22800D02*
X24700D01*
X26500D02*
X29900D01*
X30600D02*
X32400D01*
X19400D02*
X19900D01*
X43200D02*
X45200D01*
X51300D02*
X55200D01*
X56300D02*
X59800D01*
X34800D02*
X40300D01*
X14300Y197900D02*
X16400D01*
X19400D02*
X20000D01*
X22800D02*
X24700D01*
X26500D02*
X29400D01*
X30500D02*
X32300D01*
X34800D02*
X40300D01*
X43200D02*
X45200D01*
X51300D02*
X55200D01*
X56300D02*
X59700D01*
X71400D02*
X71800D01*
X74500D02*
X75900D01*
X77500D02*
X78700D01*
X95000D02*
X110000D01*
X14300Y198000D02*
X16400D01*
X74500Y197800D02*
X75800D01*
X77900D02*
X79200D01*
X95000D02*
X110100D01*
X71500D02*
X71800D01*
X19300Y198000D02*
X20000D01*
X22800D02*
X24700D01*
X26600D02*
X28900D01*
X30500D02*
X32300D01*
X34800D02*
X40300D01*
X43200D02*
X45200D01*
X50900D02*
X55200D01*
X56300D02*
X59500D01*
X71400D02*
X71700D01*
X74500D02*
X75900D01*
X77000D02*
X78300D01*
X95000D02*
X109900D01*
X14400Y198100D02*
X16400D01*
X22700D02*
X24600D01*
X26600D02*
X28700D01*
X30500D02*
X32200D01*
X19200D02*
X20100D01*
X43300D02*
X45200D01*
X50400D02*
X55200D01*
X56300D02*
X59400D01*
X34800D02*
X40300D01*
X74500D02*
X76000D01*
X76500D02*
X77800D01*
X94900D02*
X109900D01*
X71300D02*
X71600D01*
X14400Y198200D02*
X16400D01*
X19200D02*
X20200D01*
X22700D02*
X24600D01*
X26700D02*
X28800D01*
X30400D02*
X32200D01*
X34800D02*
X40300D01*
X43300D02*
X45200D01*
X49900D02*
X55200D01*
X56300D02*
X59200D01*
X71300D02*
X71600D01*
X74500D02*
X76000D01*
X76200D02*
X77400D01*
X94900D02*
X109900D01*
X14400Y198300D02*
X16400D01*
X22700D02*
X24600D01*
X26700D02*
X28800D01*
X30400D02*
X32100D01*
X19100D02*
X20300D01*
X43300D02*
X45200D01*
X49500D02*
X55200D01*
X56300D02*
X58900D01*
X34800D02*
X40300D01*
X74500D02*
X76100D01*
X76200D02*
X76900D01*
X94800D02*
X109900D01*
X71200D02*
X71500D01*
X14400Y198400D02*
X16400D01*
X19100D02*
X20400D01*
X22700D02*
X24600D01*
X26800D02*
X28800D01*
X30400D02*
X32100D01*
X34800D02*
X40300D01*
X43300D02*
X45200D01*
X49400D02*
X55200D01*
X56300D02*
X58700D01*
X71200D02*
X71500D01*
X74500D02*
X76100D01*
X76200D02*
X76500D01*
X94800D02*
X109600D01*
X109700D02*
X109900D01*
X19000Y198500D02*
X20400D01*
X14400D02*
X16500D01*
X26800D02*
X28900D01*
X30300D02*
X32100D01*
X34800D02*
X40300D01*
X22700D02*
X24600D01*
X49400D02*
X55200D01*
X56300D02*
X58400D01*
X71200D02*
X71500D01*
X43300D02*
X45200D01*
X76300D02*
X76600D01*
X94800D02*
X109500D01*
X109700D02*
X109900D01*
X74500D02*
X76100D01*
X14500Y198800D02*
X16500D01*
X18800Y198900D02*
X20700D01*
X22600D02*
X24500D01*
X14500D02*
X16500D01*
X18800Y198800D02*
X20700D01*
X22700D02*
X24600D01*
X27000D02*
X29000D01*
X30200D02*
X31900D01*
X34800D02*
X40300D01*
X43300D02*
X45200D01*
X46700D02*
X47100D01*
X49500D02*
X55200D01*
X71100D02*
X71400D01*
X74600D02*
X76200D01*
X76300D02*
X76600D01*
X94700D02*
X109200D01*
X109700D02*
X109900D01*
X30200Y198900D02*
X31900D01*
X34800D02*
X37800D01*
X38400D02*
X40300D01*
X27000D02*
X29100D01*
X46200D02*
X47100D01*
X49500D02*
X55200D01*
X71100D02*
X71400D01*
X43300D02*
X45200D01*
X76300D02*
X76600D01*
X94600D02*
X109100D01*
X109700D02*
X109900D01*
X74600D02*
X76200D01*
X14400Y198600D02*
X16500D01*
X18900D02*
X20500D01*
X22700D02*
X24600D01*
X26900D02*
X28900D01*
X30300D02*
X32000D01*
X34800D02*
X40300D01*
X43300D02*
X45200D01*
X49400D02*
X55200D01*
X56300D02*
X58000D01*
X71200D02*
X71400D01*
X74600D02*
X76100D01*
X76300D02*
X76600D01*
X94700D02*
X109400D01*
X109700D02*
X109900D01*
X18900Y198700D02*
X20600D01*
X14400D02*
X16500D01*
X26900D02*
X29000D01*
X30300D02*
X32000D01*
X34800D02*
X40300D01*
X22700D02*
X24600D01*
X49500D02*
X55200D01*
X56600D02*
X57400D01*
X71100D02*
X71400D01*
X43300D02*
X45200D01*
X76300D02*
X76600D01*
X94700D02*
X109300D01*
X109700D02*
X109900D01*
X74600D02*
X76200D01*
X14500Y199000D02*
X16500D01*
X18700D02*
X20800D01*
X18700Y199100D02*
X20900D01*
X22600D02*
X24500D01*
X14500D02*
X16500D01*
X22600Y199000D02*
X24500D01*
X27100D02*
X29100D01*
X30200D02*
X31900D01*
X34800D02*
X37400D01*
X38400D02*
X40300D01*
X43300D02*
X45200D01*
X45700D02*
X47100D01*
X49500D02*
X55200D01*
X71100D02*
X71400D01*
X74600D02*
X76200D01*
X76300D02*
X76600D01*
X94600D02*
X109000D01*
X109700D02*
X109900D01*
X30100Y199100D02*
X31800D01*
X34800D02*
X36900D01*
X38400D02*
X40300D01*
X27100D02*
X29100D01*
X45400D02*
X47100D01*
X49500D02*
X54800D01*
X71100D02*
X71300D01*
X43300D02*
X45300D01*
X76300D02*
X76600D01*
X94600D02*
X108800D01*
X109700D02*
X109900D01*
X74600D02*
X76200D01*
X14500Y199200D02*
X16600D01*
X18600D02*
X21000D01*
X22600D02*
X24500D01*
X27200D02*
X29200D01*
X30100D02*
X31800D01*
X34800D02*
X36300D01*
X38400D02*
X40300D01*
X43300D02*
X47100D01*
X49500D02*
X54300D01*
X71100D02*
X71300D01*
X74600D02*
X76200D01*
X76300D02*
X76600D01*
X94500D02*
X108700D01*
X109700D02*
X109900D01*
X18500Y199300D02*
X21100D01*
X14500D02*
X16600D01*
X27200D02*
X29200D01*
X30100D02*
X31700D01*
X34800D02*
X35800D01*
X22600D02*
X24500D01*
X43300D02*
X47100D01*
X49500D02*
X53700D01*
X71100D02*
X71300D01*
X38400D02*
X40300D01*
X76300D02*
X76600D01*
X94500D02*
X108500D01*
X109700D02*
X109900D01*
X74600D02*
X76200D01*
X14600Y199400D02*
X16600D01*
X18500D02*
X21100D01*
X22600D02*
X24500D01*
X27300D02*
X29300D01*
X30000D02*
X31700D01*
X34800D02*
X35300D01*
X38400D02*
X40300D01*
X43300D02*
X47100D01*
X49500D02*
X53200D01*
X70800D02*
X71300D01*
X74600D02*
X76200D01*
X76300D02*
X76600D01*
X94500D02*
X108400D01*
X109700D02*
X109900D01*
X14600Y199500D02*
X16600D01*
X22600D02*
X24500D01*
X27300D02*
X29300D01*
X30000D02*
X31600D01*
X18400D02*
X21200D01*
X43100D02*
X47100D01*
X49500D02*
X52700D01*
X70400D02*
X71300D01*
X38400D02*
X40300D01*
X76300D02*
X76600D01*
X94400D02*
X108200D01*
X109700D02*
X109900D01*
X74600D02*
X76200D01*
X14600Y199600D02*
X16600D01*
X18400D02*
X21300D01*
X22600D02*
X24400D01*
X27400D02*
X29300D01*
X30000D02*
X31600D01*
X38400D02*
X40300D01*
X42600D02*
X47100D01*
X49500D02*
X52200D01*
X70000D02*
X71300D01*
X74600D02*
X76200D01*
X76300D02*
X76600D01*
X94400D02*
X108200D01*
X109700D02*
X109900D01*
X18300Y199700D02*
X21400D01*
X14600D02*
X16600D01*
X27400D02*
X29400D01*
X29900D02*
X31600D01*
X38400D02*
X40300D01*
X22500D02*
X24400D01*
X49500D02*
X51700D01*
X69500D02*
X71400D01*
X74600D02*
X76200D01*
X42100D02*
X47100D01*
X94400D02*
X107900D01*
X108000D02*
X108200D01*
X109700D02*
X109900D01*
X76300D02*
X76600D01*
X14600Y199800D02*
X16700D01*
X18300D02*
X21400D01*
X18200Y199900D02*
X21500D01*
X22500D02*
X24400D01*
X14600D02*
X16700D01*
X22500Y199800D02*
X24400D01*
X27500D02*
X29400D01*
X29900D02*
X31500D01*
X38400D02*
X40300D01*
X41600D02*
X47100D01*
X49500D02*
X51200D01*
X69100D02*
X70300D01*
X70800D02*
X71400D01*
X74700D02*
X76100D01*
X76300D02*
X76600D01*
X94300D02*
X107800D01*
X108000D02*
X108200D01*
X109700D02*
X109900D01*
X29900Y199900D02*
X31500D01*
X38400D02*
X40300D01*
X41400D02*
X47100D01*
X27500D02*
X29500D01*
X68900D02*
X69900D01*
X70800D02*
X71400D01*
X74700D02*
X76100D01*
X49500D02*
X50700D01*
X94300D02*
X107600D01*
X108000D02*
X108200D01*
X109700D02*
X109900D01*
X76200D02*
X76500D01*
X14700Y200000D02*
X16700D01*
X18200D02*
X21600D01*
X22500D02*
X24400D01*
X18100Y200100D02*
X21700D01*
X22500D02*
X24400D01*
X14700D02*
X16700D01*
X27500Y200000D02*
X29500D01*
X29800D02*
X31400D01*
X38400D02*
X40300D01*
X41400D02*
X47100D01*
X49500D02*
X50000D01*
X50300D02*
X50500D01*
X68800D02*
X69400D01*
X70900D02*
X71400D01*
X74700D02*
X76100D01*
X76200D02*
X76500D01*
X94300D02*
X107400D01*
X108000D02*
X108200D01*
X109700D02*
X109800D01*
X29800Y200100D02*
X31400D01*
X38400D02*
X40300D01*
X41400D02*
X47100D01*
X27600D02*
X29500D01*
X68700D02*
X69100D01*
X70900D02*
X71500D01*
X74700D02*
X76100D01*
X50300D02*
X50500D01*
X94200D02*
X107200D01*
X108000D02*
X108200D01*
X109700D02*
X109800D01*
X76200D02*
X76500D01*
X14700Y200200D02*
X16700D01*
X18000D02*
X21700D01*
X18000Y200300D02*
X21800D01*
X22500D02*
X24400D01*
X14700D02*
X16700D01*
X22500Y200200D02*
X24400D01*
X27600D02*
X29600D01*
X29800D02*
X31400D01*
X38400D02*
X40300D01*
X41400D02*
X47100D01*
X50300D02*
X50500D01*
X68600D02*
X69000D01*
X70900D02*
X71500D01*
X74700D02*
X76000D01*
X76200D02*
X76400D01*
X94200D02*
X107100D01*
X108000D02*
X108200D01*
X109700D02*
X109800D01*
X29700Y200300D02*
X31300D01*
X38400D02*
X40300D01*
X41400D02*
X47100D01*
X27700D02*
X29600D01*
X68500D02*
X68900D01*
X70900D02*
X71500D01*
X74700D02*
X76000D01*
X50300D02*
X50500D01*
X94200D02*
X106900D01*
X108000D02*
X108200D01*
X109700D02*
X109800D01*
X76100D02*
X76400D01*
X14700Y200500D02*
X16800D01*
X17900D02*
X22000D01*
X22400D02*
X24300D01*
X27800D02*
X31200D01*
X38000D02*
X40300D01*
X41400D02*
X47100D01*
X50300D02*
X50500D01*
X57600D02*
X57800D01*
X68300D02*
X68700D01*
X71000D02*
X71600D01*
X74700D02*
X75900D01*
X76000D02*
X76300D01*
X94100D02*
X106600D01*
X108000D02*
X108200D01*
X109700D02*
X109800D01*
X14700Y200600D02*
X16800D01*
X22400D02*
X24300D01*
X27800D02*
X31200D01*
X37500D02*
X40300D01*
X41400D02*
X47000D01*
X50300D02*
X50500D01*
X57500D02*
X58100D01*
X68200D02*
X68600D01*
X71100D02*
X71700D01*
X74700D02*
X75900D01*
X76000D02*
X76300D01*
X94100D02*
X106400D01*
X108000D02*
X108200D01*
X109700D02*
X109800D01*
X15500Y205300D02*
X16800D01*
X41300D02*
X47600D01*
X40900Y205400D02*
X47800D01*
X15500D02*
X16700D01*
X14700Y200400D02*
X16700D01*
X17900D02*
X21900D01*
X22500D02*
X24300D01*
X27700D02*
X31300D01*
X38400D02*
X40300D01*
X41400D02*
X47100D01*
X50300D02*
X50500D01*
X68400D02*
X68800D01*
X71000D02*
X71600D01*
X74700D02*
X76000D01*
X94100D02*
X106700D01*
X108000D02*
X108200D01*
X109700D02*
X109800D01*
X76100D02*
X76400D01*
X22400Y200700D02*
X24300D01*
X27900D02*
X31200D01*
X37000D02*
X40300D01*
X41400D02*
X46400D01*
X50300D02*
X50500D01*
X68100D02*
X68500D01*
X71100D02*
X71700D01*
X74700D02*
X75800D01*
X57500D02*
X58300D01*
X22400Y200800D02*
X24300D01*
X27900D02*
X31100D01*
X36500D02*
X40300D01*
X41400D02*
X45900D01*
X50300D02*
X50500D01*
X57500D02*
X58500D01*
X68000D02*
X68400D01*
X71200D02*
X71800D01*
X74700D02*
X75700D01*
X75800D02*
X76200D01*
X94000D02*
X106000D01*
X108000D02*
X108200D01*
X109700D02*
X109800D01*
X56400Y205200D02*
X56800D01*
X62400D02*
X63500D01*
X71100D02*
X71800D01*
X76700D02*
X77300D01*
X88900D02*
X89300D01*
X92500D02*
X97800D01*
X99200D02*
X99300D01*
X108000D02*
X108100D01*
X55200Y206600D02*
X55500D01*
X94000Y200700D02*
X106200D01*
X108000D02*
X108200D01*
X109700D02*
X109800D01*
X75900D02*
X76200D01*
X19900Y200900D02*
X22300D01*
X22400D02*
X24300D01*
X28000D02*
X31100D01*
X17600D02*
X19400D01*
X41400D02*
X45400D01*
X50300D02*
X50500D01*
X57500D02*
X57700D01*
X36000D02*
X40300D01*
X67900D02*
X68300D01*
X71200D02*
X71900D01*
X74700D02*
X75700D01*
X58000D02*
X58700D01*
X94000D02*
X105900D01*
X108000D02*
X108200D01*
X109700D02*
X109800D01*
X75800D02*
X76100D01*
X17600Y201000D02*
X19400D01*
X20000D02*
X24300D01*
X28000D02*
X31000D01*
X14800D02*
X16800D01*
X41400D02*
X44900D01*
X50300D02*
X50500D01*
X57500D02*
X57700D01*
X35500D02*
X40300D01*
X67800D02*
X68200D01*
X71300D02*
X72000D01*
X74700D02*
X75600D01*
X58200D02*
X58800D01*
X93900D02*
X105700D01*
X108000D02*
X108200D01*
X109700D02*
X109800D01*
X75700D02*
X76000D01*
X17500Y201200D02*
X19300D01*
X20200D02*
X24200D01*
X28100D02*
X31000D01*
X14800D02*
X16900D01*
X41400D02*
X43900D01*
X50300D02*
X50500D01*
X57500D02*
X57800D01*
X34700D02*
X40300D01*
X67700D02*
X68000D01*
X71400D02*
X72200D01*
X74800D02*
X75400D01*
X58600D02*
X59200D01*
X93900D02*
X105300D01*
X108000D02*
X108200D01*
X109700D02*
X109800D01*
X75500D02*
X75900D01*
X17500Y201100D02*
X19300D01*
X20100D02*
X24200D01*
X28100D02*
X31000D01*
X14800D02*
X16800D01*
X41400D02*
X44400D01*
X50300D02*
X50500D01*
X57500D02*
X57800D01*
X35000D02*
X40300D01*
X67800D02*
X68100D01*
X71300D02*
X72100D01*
X74800D02*
X75500D01*
X58400D02*
X59000D01*
X93900D02*
X105500D01*
X108000D02*
X108200D01*
X109700D02*
X109800D01*
X75600D02*
X76000D01*
X17400Y201300D02*
X19200D01*
X20300D02*
X24200D01*
X28200D02*
X30900D01*
X14800D02*
X16900D01*
X41400D02*
X43400D01*
X50300D02*
X50500D01*
X57500D02*
X57800D01*
X34700D02*
X40300D01*
X67600D02*
X68000D01*
X71500D02*
X72300D01*
X74800D02*
X75300D01*
X58800D02*
X59300D01*
X93800D02*
X105200D01*
X108000D02*
X108200D01*
X109700D02*
X109800D01*
X75400D02*
X75800D01*
X17300Y201400D02*
X19100D01*
X20300D02*
X24200D01*
X28200D02*
X30900D01*
X14900D02*
X16900D01*
X41400D02*
X42800D01*
X50300D02*
X50500D01*
X57500D02*
X57800D01*
X34700D02*
X40300D01*
X67600D02*
X67900D01*
X71600D02*
X72500D01*
X74700D02*
X75200D01*
X58900D02*
X59500D01*
X93800D02*
X105000D01*
X108000D02*
X108200D01*
X109700D02*
X109800D01*
X75300D02*
X75700D01*
X17300Y201500D02*
X19100D01*
X20400D02*
X24200D01*
X28300D02*
X30800D01*
X14900D02*
X16900D01*
X41400D02*
X42300D01*
X50300D02*
X50500D01*
X57600D02*
X57800D01*
X34700D02*
X40300D01*
X67500D02*
X67800D01*
X71700D02*
X72600D01*
X74500D02*
X75100D01*
X59100D02*
X59600D01*
X93800D02*
X104800D01*
X108000D02*
X108200D01*
X109700D02*
X109800D01*
X75200D02*
X75600D01*
X17200Y201600D02*
X19000D01*
X20500D02*
X24200D01*
X28300D02*
X30800D01*
X14900D02*
X16900D01*
X41400D02*
X41800D01*
X50300D02*
X50500D01*
X57600D02*
X57900D01*
X34700D02*
X40300D01*
X67400D02*
X67800D01*
X71800D02*
X72900D01*
X74200D02*
X74900D01*
X59300D02*
X59800D01*
X93700D02*
X104600D01*
X108000D02*
X108200D01*
X109700D02*
X109800D01*
X75000D02*
X75500D01*
X14900Y201700D02*
X16900D01*
X17200D02*
X18900D01*
X20600D02*
X24200D01*
X34700D02*
X40300D01*
X50300D02*
X50500D01*
X57600D02*
X57900D01*
X28400D02*
X30800D01*
X67400D02*
X67700D01*
X71900D02*
X73300D01*
X73800D02*
X74700D01*
X59400D02*
X59900D01*
X14900Y201800D02*
X16900D01*
X17100D02*
X18900D01*
X20700D02*
X24200D01*
X28400D02*
X30700D01*
X34700D02*
X40300D01*
X50300D02*
X50500D01*
X57600D02*
X57900D01*
X59500D02*
X60000D01*
X67300D02*
X67600D01*
X72000D02*
X74500D01*
X74700D02*
X75200D01*
X93700D02*
X104200D01*
X108000D02*
X108200D01*
X109700D02*
X109800D01*
X14900Y201900D02*
X17000D01*
X93700Y201700D02*
X104400D01*
X108000D02*
X108200D01*
X109700D02*
X109800D01*
X74900D02*
X75400D01*
X17100Y201900D02*
X18800D01*
X20800D02*
X24100D01*
X28500D02*
X30700D01*
X34700D02*
X40300D01*
X50300D02*
X50500D01*
X57600D02*
X57900D01*
X59700D02*
X60200D01*
X67300D02*
X67600D01*
X72200D02*
X74200D01*
X74400D02*
X75100D01*
X93600D02*
X104000D01*
X108000D02*
X108200D01*
X109700D02*
X109800D01*
X20800Y202000D02*
X24100D01*
X15000D02*
X18800D01*
X34700D02*
X39700D01*
X50300D02*
X50500D01*
X53500D02*
X53700D01*
X28500D02*
X30600D01*
X59800D02*
X60300D01*
X67200D02*
X67500D01*
X72400D02*
X73700D01*
X57700D02*
X58000D01*
X93600D02*
X103900D01*
X108000D02*
X108200D01*
X109700D02*
X109800D01*
X74000D02*
X74900D01*
X15000Y202100D02*
X18700D01*
X20900D02*
X24100D01*
X28600D02*
X30600D01*
X34700D02*
X39200D01*
X50300D02*
X50500D01*
X52400D02*
X55200D01*
X57700D02*
X58000D01*
X60000D02*
X60400D01*
X67200D02*
X67500D01*
X72600D02*
X74700D01*
X93500D02*
X103700D01*
X108000D02*
X108100D01*
X109700D02*
X109800D01*
X15000Y202200D02*
X18600D01*
X28600D02*
X30600D01*
X34700D02*
X38700D01*
X50300D02*
X50500D01*
X21000D02*
X24100D01*
X57700D02*
X58000D01*
X60100D02*
X60600D01*
X67200D02*
X67400D01*
X52300D02*
X55500D01*
X93500D02*
X103500D01*
X108000D02*
X108100D01*
X109700D02*
X109800D01*
X72900D02*
X74400D01*
X15000Y202300D02*
X18600D01*
X21100D02*
X24100D01*
X34700D02*
X38200D01*
X50300D02*
X50500D01*
X52300D02*
X53500D01*
X28700D02*
X30500D01*
X57800D02*
X58000D01*
X60200D02*
X60700D01*
X67100D02*
X67400D01*
X54700D02*
X55700D01*
X15000Y202400D02*
X18500D01*
X21200D02*
X24100D01*
X28700D02*
X30500D01*
X34700D02*
X37700D01*
X50300D02*
X50500D01*
X52300D02*
X53400D01*
X55300D02*
X55800D01*
X57800D02*
X58100D01*
X60400D02*
X60800D01*
X67100D02*
X67400D01*
X93400D02*
X103100D01*
X108000D02*
X108100D01*
X109700D02*
X109800D01*
X15000Y202500D02*
X18500D01*
X93500Y202300D02*
X103300D01*
X108000D02*
X108100D01*
X109700D02*
X109800D01*
X73500D02*
X73800D01*
X21200Y202500D02*
X24100D01*
X28800D02*
X30400D01*
X34700D02*
X37200D01*
X50300D02*
X50500D01*
X52300D02*
X53400D01*
X55500D02*
X56000D01*
X57800D02*
X58100D01*
X60500D02*
X60900D01*
X67100D02*
X67400D01*
X93400D02*
X102900D01*
X108000D02*
X108100D01*
X109700D02*
X109800D01*
X15100Y202600D02*
X18400D01*
X28800D02*
X30400D01*
X34700D02*
X36700D01*
X50300D02*
X50500D01*
X21300D02*
X24000D01*
X55600D02*
X56100D01*
X57800D02*
X58100D01*
X60600D02*
X61100D01*
X52300D02*
X53400D01*
X93400D02*
X102700D01*
X108000D02*
X108100D01*
X109700D02*
X109800D01*
X67100D02*
X67300D01*
X15100Y202700D02*
X18300D01*
X21400D02*
X24000D01*
X28900D02*
X30400D01*
X34700D02*
X36100D01*
X50300D02*
X50500D01*
X52300D02*
X53400D01*
X55800D02*
X56200D01*
X57900D02*
X58200D01*
X60700D02*
X61200D01*
X67100D02*
X67300D01*
X93300D02*
X102500D01*
X108000D02*
X108100D01*
X109700D02*
X109800D01*
X15100Y202800D02*
X18300D01*
X28900D02*
X30300D01*
X34700D02*
X35600D01*
X50300D02*
X50500D01*
X21500D02*
X24000D01*
X55900D02*
X56300D01*
X57900D02*
X58200D01*
X60800D02*
X61300D01*
X52300D02*
X53500D01*
X93300D02*
X102400D01*
X108000D02*
X108100D01*
X109700D02*
X109800D01*
X67100D02*
X67300D01*
X15100Y202900D02*
X18200D01*
X21600D02*
X24000D01*
X29000D02*
X30300D01*
X34700D02*
X35100D01*
X50300D02*
X50500D01*
X52300D02*
X53500D01*
X56000D02*
X56400D01*
X57900D02*
X58200D01*
X61000D02*
X61400D01*
X93300D02*
X102200D01*
X108000D02*
X108100D01*
X109700D02*
X109800D01*
X67100D02*
X67300D01*
X21600Y203000D02*
X24000D01*
X29000D02*
X30200D01*
X50300D02*
X50500D01*
X15100D02*
X18200D01*
X56100D02*
X56400D01*
X58000D02*
X58300D01*
X61100D02*
X61500D01*
X52300D02*
X53500D01*
X93200D02*
X102000D01*
X108000D02*
X108100D01*
X109700D02*
X109800D01*
X67100D02*
X67400D01*
X15200Y203300D02*
X18000D01*
X21900D02*
X24000D01*
X29200D02*
X30100D01*
X50300D02*
X50500D01*
X52300D02*
X55200D01*
X56300D02*
X56500D01*
X58100D02*
X58300D01*
X61400D02*
X61900D01*
X67300D02*
X67700D01*
X93100D02*
X101400D01*
X108000D02*
X108100D01*
X109700D02*
X109800D01*
X15200Y203400D02*
X17900D01*
X29200D02*
X30100D01*
X50300D02*
X50500D01*
X52300D02*
X53800D01*
X22000D02*
X23900D01*
X56300D02*
X56600D01*
X58100D02*
X58400D01*
X61500D02*
X62000D01*
X54500D02*
X55400D01*
X93100D02*
X101200D01*
X108000D02*
X108100D01*
X109700D02*
X109800D01*
X67400D02*
X67900D01*
X15100Y203100D02*
X18100D01*
X21700D02*
X24000D01*
X29100D02*
X30200D01*
X50300D02*
X50500D01*
X52300D02*
X54000D01*
X56200D02*
X56500D01*
X58000D02*
X58300D01*
X61200D02*
X61700D01*
X93200D02*
X101800D01*
X108000D02*
X108100D01*
X109700D02*
X109800D01*
X67100D02*
X67500D01*
X21800Y203200D02*
X24000D01*
X29100D02*
X30200D01*
X50300D02*
X50500D01*
X15100D02*
X18000D01*
X56200D02*
X56500D01*
X58000D02*
X58300D01*
X61300D02*
X61800D01*
X52300D02*
X54900D01*
X93200D02*
X101600D01*
X108000D02*
X108100D01*
X109700D02*
X109800D01*
X67200D02*
X67600D01*
X15200Y203500D02*
X17900D01*
X22000D02*
X23900D01*
X29300D02*
X30000D01*
X50300D02*
X50500D01*
X52400D02*
X53700D01*
X55000D02*
X55600D01*
X56300D02*
X56600D01*
X58100D02*
X58400D01*
X61600D02*
X62100D01*
X67500D02*
X68000D01*
X93100D02*
X101000D01*
X108000D02*
X108100D01*
X109700D02*
X109800D01*
X15200Y203600D02*
X17800D01*
X29300D02*
X30000D01*
X50300D02*
X50500D01*
X52400D02*
X53700D01*
X22100D02*
X23900D01*
X56300D02*
X56600D01*
X58100D02*
X58400D01*
X61700D02*
X62200D01*
X55200D02*
X55700D01*
X93000D02*
X100900D01*
X108000D02*
X108100D01*
X109700D02*
X109800D01*
X67700D02*
X68200D01*
X15200Y203700D02*
X17700D01*
X22200D02*
X23900D01*
X29400D02*
X30000D01*
X50300D02*
X50500D01*
X52400D02*
X53700D01*
X55400D02*
X55900D01*
X56300D02*
X56600D01*
X58200D02*
X58500D01*
X61800D02*
X62300D01*
X67800D02*
X68400D01*
X83800D02*
X85900D01*
X93000D02*
X100700D01*
X108000D02*
X108100D01*
X109700D02*
X109800D01*
X22300Y203800D02*
X23900D01*
X15200D02*
X17700D01*
X50300D02*
X50500D01*
X52400D02*
X53700D01*
X55500D02*
X56000D01*
X29400D02*
X29900D01*
X58200D02*
X58500D01*
X61900D02*
X62400D01*
X68000D02*
X68600D01*
X56300D02*
X56600D01*
X93000D02*
X100500D01*
X108000D02*
X108100D01*
X109700D02*
X109800D01*
X82800D02*
X86500D01*
X15300Y203900D02*
X17600D01*
X22400D02*
X23900D01*
X29500D02*
X29900D01*
X22400Y204000D02*
X23900D01*
X29500D02*
X29800D01*
X15300D02*
X17600D01*
X50300Y203900D02*
X50500D01*
X52400D02*
X53700D01*
X55700D02*
X56100D01*
X56300D02*
X56600D01*
X58200D02*
X58500D01*
X62000D02*
X62500D01*
X68200D02*
X68800D01*
X81900D02*
X86900D01*
X92900D02*
X100300D01*
X108000D02*
X108100D01*
X109700D02*
X109800D01*
X52400Y204000D02*
X53800D01*
X55800D02*
X56200D01*
X56300D02*
X56600D01*
X50300D02*
X50500D01*
X62100D02*
X62600D01*
X68400D02*
X69000D01*
X81000D02*
X83500D01*
X58300D02*
X58600D01*
X92900D02*
X100100D01*
X108000D02*
X108100D01*
X109700D02*
X109800D01*
X86100D02*
X87200D01*
X15300Y204100D02*
X17500D01*
X22500D02*
X23800D01*
X50300D02*
X50500D01*
X52400D02*
X53800D01*
X55900D02*
X56200D01*
X56300D02*
X56600D01*
X58300D02*
X58600D01*
X62200D02*
X62700D01*
X68600D02*
X69200D01*
X80100D02*
X82600D01*
X86500D02*
X87600D01*
X92900D02*
X99900D01*
X108000D02*
X108100D01*
X109700D02*
X109800D01*
X15300Y204200D02*
X17500D01*
X50300D02*
X50500D01*
X52400D02*
X53800D01*
X56000D02*
X56600D01*
X22600D02*
X23800D01*
X62200D02*
X62800D01*
X68800D02*
X69400D01*
X79200D02*
X81800D01*
X58300D02*
X58600D01*
X92800D02*
X99700D01*
X108000D02*
X108100D01*
X109700D02*
X109800D01*
X86900D02*
X87900D01*
X15300Y204300D02*
X17400D01*
X50300D02*
X50500D01*
X52400D02*
X53800D01*
X56000D02*
X56500D01*
X22700D02*
X23800D01*
X62200D02*
X62800D01*
X69000D02*
X69600D01*
X78300D02*
X80900D01*
X58300D02*
X58600D01*
X15300Y204400D02*
X17300D01*
X22800D02*
X23800D01*
X50300D02*
X50500D01*
X52400D02*
X53900D01*
X56100D02*
X56500D01*
X58400D02*
X58700D01*
X62200D02*
X62900D01*
X69200D02*
X69900D01*
X77400D02*
X80000D01*
X87600D02*
X88300D01*
X92800D02*
X99400D01*
X108000D02*
X108100D01*
X109700D02*
X109800D01*
X15300Y204500D02*
X17300D01*
X92800Y204300D02*
X99500D01*
X108000D02*
X108100D01*
X109700D02*
X109800D01*
X87300D02*
X88100D01*
X22800Y204500D02*
X23800D01*
X50300D02*
X50500D01*
X52400D02*
X53900D01*
X56100D02*
X56500D01*
X57200D02*
X57600D01*
X58400D02*
X58700D01*
X62300D02*
X63000D01*
X69400D02*
X70100D01*
X76700D02*
X79000D01*
X87900D02*
X88500D01*
X92700D02*
X99300D01*
X108000D02*
X108100D01*
X109700D02*
X109800D01*
X22900Y204600D02*
X23800D01*
X15400D02*
X17200D01*
X52500D02*
X54000D01*
X56100D02*
X56400D01*
X57000D02*
X57900D01*
X50300D02*
X50500D01*
X62300D02*
X63100D01*
X69600D02*
X70300D01*
X76600D02*
X78100D01*
X58400D02*
X58700D01*
X88100D02*
X88600D01*
X92700D02*
X98900D01*
X99200D02*
X99300D01*
X108000D02*
X108100D01*
X79300Y206600D02*
X79900D01*
X15400Y204700D02*
X17200D01*
X23000D02*
X23800D01*
X50300D02*
X50500D01*
X52500D02*
X54000D01*
X56900D02*
X58200D01*
X58500D02*
X58700D01*
X62300D02*
X63200D01*
X69900D02*
X70600D01*
X76500D02*
X77200D01*
X88300D02*
X88800D01*
X92700D02*
X98700D01*
X99200D02*
X99300D01*
X108000D02*
X108100D01*
X109700D02*
X109800D01*
X15400Y204800D02*
X17100D01*
X44200D02*
X45300D01*
X50300D02*
X50500D01*
X52500D02*
X54100D01*
X23100D02*
X23800D01*
X57600D02*
X58700D01*
X62300D02*
X63200D01*
X70100D02*
X70800D01*
X56800D02*
X57200D01*
X76500D02*
X76800D01*
X88400D02*
X88900D01*
X92600D02*
X98500D01*
X99200D02*
X99300D01*
X108000D02*
X108100D01*
X74900Y206600D02*
X75800D01*
X23200Y204900D02*
X23700D01*
X43200D02*
X46200D01*
X50300D02*
X50500D01*
X15400D02*
X17000D01*
X56700D02*
X57100D01*
X58000D02*
X58700D01*
X62300D02*
X63300D01*
X52500D02*
X54100D01*
X15400Y205000D02*
X17000D01*
X23200D02*
X23700D01*
X42500D02*
X46700D01*
X50300D02*
X50500D01*
X52500D02*
X54200D01*
X56600D02*
X57000D01*
X58300D02*
X58600D01*
X62300D02*
X63400D01*
X70600D02*
X71300D01*
X76500D02*
X76900D01*
X88700D02*
X89100D01*
X92600D02*
X98100D01*
X99200D02*
X99300D01*
X108000D02*
X108100D01*
X109700D02*
X109800D01*
X15400Y205100D02*
X16900D01*
X70300Y204900D02*
X71100D01*
X76500D02*
X76800D01*
X88600D02*
X89000D01*
X92600D02*
X98300D01*
X99200D02*
X99300D01*
X108000D02*
X108100D01*
X62600Y206600D02*
X63600D01*
X23300Y205100D02*
X23700D01*
X42000D02*
X47000D01*
X50300D02*
X50500D01*
X52600D02*
X53800D01*
X53900D02*
X54300D01*
X56500D02*
X56900D01*
X62300D02*
X63400D01*
X70800D02*
X71600D01*
X76600D02*
X77100D01*
X88800D02*
X89200D01*
X92500D02*
X97900D01*
X99200D02*
X99300D01*
X108000D02*
X108100D01*
X109700D02*
X109800D01*
X23400Y205200D02*
X23700D01*
X15500D02*
X16900D01*
X50300D02*
X50500D01*
X52600D02*
X53800D01*
X54000D02*
X54300D01*
X41600D02*
X47300D01*
X72900Y205900D02*
X73700D01*
X78000D02*
X78600D01*
X89400D02*
X89700D01*
X97600Y206600D02*
X97800D01*
X97600Y205900D02*
X97800D01*
X99200D02*
X99300D01*
X108000D02*
X108100D01*
X109600D02*
X109800D01*
X15600Y206000D02*
X16400D01*
X39300D02*
X48700D01*
X50300D02*
X50500D01*
X53400D02*
X55000D01*
X55600D02*
X55900D01*
X62500D02*
X63700D01*
X73200D02*
X74000D01*
X78200D02*
X78800D01*
X89500D02*
X89800D01*
X92200D02*
X96000D01*
X97600D02*
X97800D01*
X99200D02*
X99300D01*
X108000D02*
X108100D01*
X109600D02*
X109800D01*
X15600Y206100D02*
X16300D01*
X39000D02*
X48800D01*
X50300D02*
X50500D01*
X53700D02*
X54900D01*
X55500D02*
X55900D01*
X62500D02*
X63700D01*
X73500D02*
X74300D01*
X78400D02*
X78900D01*
X89500D02*
X89900D01*
X92200D02*
X95800D01*
X97600D02*
X97800D01*
X99200D02*
X99300D01*
X108000D02*
X108100D01*
X15600Y206200D02*
X16300D01*
X38800D02*
X48900D01*
X109600Y206100D02*
X109800D01*
X50300Y206200D02*
X50500D01*
X54100D02*
X54600D01*
X55400D02*
X55800D01*
X99200Y206600D02*
X99300D01*
X73800Y206200D02*
X74600D01*
X78500D02*
X79100D01*
X89600D02*
X89900D01*
X108000Y206600D02*
X108100D01*
X15600Y206300D02*
X16200D01*
X38600D02*
X49000D01*
X50300D02*
X50500D01*
X55300D02*
X55700D01*
X62500D02*
X63700D01*
X74000D02*
X74900D01*
X78700D02*
X79300D01*
X89600D02*
X90000D01*
X92100D02*
X95400D01*
X97600D02*
X97800D01*
X99200D02*
X99300D01*
X108000D02*
X108100D01*
X15600Y206400D02*
X16100D01*
X109600Y206300D02*
X109800D01*
X38400Y206400D02*
X49100D01*
X50300D02*
X50500D01*
X55300D02*
X55600D01*
X62500D02*
X63700D01*
X74300D02*
X75200D01*
X78900D02*
X79500D01*
X89700D02*
X90000D01*
X92100D02*
X95100D01*
X97600D02*
X97800D01*
X99200D02*
X99300D01*
X108000D02*
X108100D01*
X15700Y206500D02*
X16100D01*
X109600Y206400D02*
X109800D01*
X32700Y206500D02*
X35000D01*
X38200D02*
X49200D01*
X50300D02*
X50500D01*
X55200D02*
X55500D01*
X62600D02*
X63600D01*
X74600D02*
X75500D01*
X79100D02*
X79700D01*
X89700D02*
X90100D01*
X92000D02*
X94900D01*
X97600D02*
X97800D01*
X99200D02*
X99300D01*
X108000D02*
X108100D01*
X109600D02*
X109800D01*
X32000Y206600D02*
X35600D01*
X109600D02*
X109800D01*
X38300Y208200D02*
X41400D01*
X46200D02*
X50500D01*
X51300D02*
X51700D01*
X54800D02*
X55500D01*
X62800D02*
X66000D01*
X68000D02*
X69000D01*
X79800D02*
X80800D01*
X83500D02*
X84600D01*
X90300D02*
X91100D01*
X97600D02*
X97800D01*
X99200D02*
X99300D01*
X107000D02*
X107200D01*
X109600D02*
X109800D01*
X38300Y208300D02*
X41400D01*
X46300D02*
X50500D01*
X51400D02*
X51700D01*
X62800D02*
X66100D01*
X68000D02*
X68100D01*
X68600D02*
X69600D01*
X80100D02*
X81100D01*
X90100D02*
X90800D01*
X15100Y211400D02*
X18800D01*
X21600D02*
X24700D01*
X26900D02*
X30200D01*
X38500D02*
X43800D01*
X47700D02*
X51000D01*
X54100D02*
X54500D01*
X62800D02*
X63600D01*
X64700D02*
X68400D01*
X82200D02*
X82400D01*
X87500D02*
X87600D01*
X97600D02*
X97700D01*
X99100D02*
X99300D01*
X103500D02*
X103800D01*
X15000Y211500D02*
X18700D01*
X21600D02*
X24700D01*
X109600Y211400D02*
X109700D01*
X62700Y211500D02*
X63300D01*
X65000D02*
X68500D01*
X82200D02*
X82400D01*
X87500D02*
X87600D01*
X97600Y206200D02*
X97800D01*
X99200D02*
X99300D01*
X108000D02*
X108100D01*
X109600D02*
X109800D01*
X31500Y206700D02*
X36000D01*
X38200D02*
X49400D01*
X50300D02*
X50500D01*
X55200D02*
X55400D01*
X62600D02*
X63700D01*
X75200D02*
X76100D01*
X79500D02*
X80000D01*
X89800D02*
X90100D01*
X92000D02*
X94500D01*
X97600D02*
X97800D01*
X99200D02*
X99300D01*
X108000D02*
X108100D01*
X109600D02*
X109800D01*
X31200Y206800D02*
X36200D01*
X38200D02*
X49500D01*
X50300D02*
X50500D01*
X55200D02*
X55400D01*
X62600D02*
X64000D01*
X75500D02*
X76400D01*
X79600D02*
X80200D01*
X89800D02*
X90100D01*
X91900D02*
X94300D01*
X97600D02*
X97800D01*
X99200D02*
X99300D01*
X108000D02*
X108100D01*
X30800Y206900D02*
X36200D01*
X109600Y206800D02*
X109800D01*
X38200Y206900D02*
X49600D01*
X50300D02*
X50500D01*
X55200D02*
X55400D01*
X62600D02*
X64200D01*
X75800D02*
X76700D01*
X79800D02*
X80400D01*
X89800D02*
X90100D01*
X91900D02*
X94000D01*
X97600D02*
X97800D01*
X99200D02*
X99300D01*
X108000D02*
X108100D01*
X109600D02*
X109800D01*
X30500Y207000D02*
X36200D01*
X38200D02*
X49700D01*
X50300D02*
X50500D01*
X55200D02*
X55500D01*
X62600D02*
X64400D01*
X76100D02*
X77000D01*
X80000D02*
X80600D01*
X89800D02*
X90100D01*
X91900D02*
X93800D01*
X97600D02*
X97800D01*
X99200D02*
X99300D01*
X108000D02*
X108100D01*
X30300Y207100D02*
X36200D01*
X109600Y207000D02*
X109800D01*
X38200Y207100D02*
X49700D01*
X50300D02*
X50500D01*
X55200D02*
X55500D01*
X62600D02*
X64500D01*
X76400D02*
X77300D01*
X80200D02*
X80800D01*
X89700D02*
X90100D01*
X91800D02*
X93600D01*
X97600D02*
X97800D01*
X99200D02*
X99300D01*
X108000D02*
X108100D01*
X109600D02*
X109800D01*
X77900Y207600D02*
X78800D01*
X81100D02*
X81700D01*
X87300D02*
X89000D01*
X91700D02*
X92500D01*
X97600D02*
X97800D01*
X99200D02*
X99300D01*
X107600D02*
X107800D01*
X109600D02*
X109800D01*
X29100Y207700D02*
X36100D01*
X38300D02*
X42000D01*
X45300D02*
X50100D01*
X50300D02*
X50500D01*
X29300Y207600D02*
X36100D01*
X38300D02*
X42300D01*
X45100D02*
X50100D01*
X50300D02*
X50500D01*
X51100D02*
X51400D01*
X52200D02*
X53600D01*
X55400D02*
X55700D01*
X62700D02*
X65300D01*
X51200Y207700D02*
X51400D01*
X52700D02*
X54000D01*
X55400D02*
X55700D01*
X62700D02*
X65400D01*
X78200D02*
X79100D01*
X81300D02*
X82100D01*
X86600D02*
X88400D01*
X91500D02*
X92200D01*
X97600D02*
X97800D01*
X99200D02*
X99300D01*
X107500D02*
X107700D01*
X109600D02*
X109800D01*
X28900Y207800D02*
X36100D01*
X38300D02*
X41700D01*
X45500D02*
X50200D01*
X50300D02*
X50500D01*
X51200D02*
X51500D01*
X53200D02*
X54400D01*
X55500D02*
X55700D01*
X62700D02*
X65600D01*
X78500D02*
X79500D01*
X81500D02*
X82500D01*
X85900D02*
X87900D01*
X91300D02*
X92000D01*
X97600D02*
X97800D01*
X99200D02*
X99300D01*
X107400D02*
X107600D01*
X109600D02*
X109800D01*
X30000Y207200D02*
X36200D01*
X38200D02*
X49800D01*
X50300D02*
X50500D01*
X55200D02*
X55500D01*
X62700D02*
X64700D01*
X76700D02*
X77600D01*
X80400D02*
X81000D01*
X89500D02*
X90000D01*
X91800D02*
X93400D01*
X97600D02*
X97800D01*
X99200D02*
X99300D01*
X108000D02*
X108100D01*
X109600D02*
X109800D01*
X29800Y207300D02*
X36200D01*
X38200D02*
X49900D01*
X50300D02*
X50500D01*
X51200D02*
X52100D01*
X55300D02*
X55600D01*
X62700D02*
X64900D01*
X77000D02*
X77900D01*
X80500D02*
X81100D01*
X89000D02*
X89900D01*
X91800D02*
X93100D01*
X97600D02*
X97800D01*
X99200D02*
X99300D01*
X107900D02*
X108100D01*
X29600Y207400D02*
X36100D01*
X38200D02*
X49900D01*
X109600Y207300D02*
X109800D01*
X50300Y207400D02*
X50500D01*
X51100D02*
X52600D01*
X55300D02*
X55600D01*
X62700D02*
X65000D01*
X77300D02*
X78200D01*
X80700D02*
X81300D01*
X88500D02*
X89800D01*
X91700D02*
X92900D01*
X97600D02*
X97800D01*
X99200D02*
X99300D01*
X107800D02*
X108100D01*
X109600D02*
X109800D01*
X29400Y207500D02*
X36100D01*
X38200D02*
X42900D01*
X44700D02*
X50000D01*
X50300D02*
X50500D01*
X51100D02*
X51400D01*
X51700D02*
X53100D01*
X55300D02*
X55600D01*
X62700D02*
X65200D01*
X77600D02*
X78500D01*
X80900D02*
X81500D01*
X87900D02*
X89500D01*
X91700D02*
X92700D01*
X97600D02*
X97800D01*
X99200D02*
X99300D01*
X107700D02*
X108000D01*
X109600D02*
X109800D01*
X28800Y207900D02*
X36100D01*
X38300D02*
X41400D01*
X45700D02*
X50200D01*
X50300D02*
X50500D01*
X51200D02*
X51500D01*
X53600D02*
X54800D01*
X55400D02*
X55700D01*
X62800D02*
X65700D01*
X78900D02*
X79800D01*
X81700D02*
X83200D01*
X85000D02*
X87200D01*
X91000D02*
X91800D01*
X97600D02*
X97800D01*
X99200D02*
X99300D01*
X107300D02*
X107500D01*
X109600D02*
X109800D01*
X28700Y208000D02*
X36000D01*
X38300D02*
X41400D01*
X45900D02*
X50500D01*
X51300D02*
X51600D01*
X54100D02*
X55100D01*
X55300D02*
X55700D01*
X62800D02*
X65800D01*
X79200D02*
X80100D01*
X82100D02*
X86500D01*
X90800D02*
X91600D01*
X97600D02*
X97800D01*
X99200D02*
X99300D01*
X107200D02*
X107400D01*
X28600Y208100D02*
X36000D01*
X38300D02*
X41400D01*
X109600Y208000D02*
X109800D01*
X46000Y208100D02*
X50500D01*
X51300D02*
X51600D01*
X54500D02*
X55600D01*
X62800D02*
X65900D01*
X68000D02*
X68400D01*
X79500D02*
X80400D01*
X82600D02*
X85800D01*
X90600D02*
X91300D01*
X97600D02*
X97800D01*
X99200D02*
X99300D01*
X107100D02*
X107300D01*
X109600D02*
X109800D01*
X97600Y208300D02*
X97800D01*
X99200D02*
X99300D01*
X106900D02*
X107100D01*
X109600D02*
X109800D01*
X21400Y208400D02*
X24500D01*
X28200D02*
X36000D01*
X38300D02*
X41400D01*
X46400D02*
X50500D01*
X51400D02*
X51800D01*
X62800D02*
X66200D01*
X68000D02*
X68100D01*
X69200D02*
X70200D01*
X80400D02*
X81500D01*
X89800D02*
X90600D01*
X97600D02*
X97800D01*
X99200D02*
X99300D01*
X106800D02*
X107000D01*
X20800Y208500D02*
X24500D01*
X28100D02*
X36000D01*
X109600Y208400D02*
X109800D01*
X38300Y208500D02*
X41400D01*
X46500D02*
X50500D01*
X51500D02*
X51800D01*
X62900D02*
X66300D01*
X68000D02*
X68100D01*
X69900D02*
X70800D01*
X80800D02*
X81800D01*
X89600D02*
X90400D01*
X97600D02*
X97800D01*
X99200D02*
X99300D01*
X106700D02*
X106900D01*
X109600D02*
X109800D01*
X20200Y208600D02*
X24500D01*
X28000D02*
X35900D01*
X38300D02*
X41400D01*
X46600D02*
X50500D01*
X51600D02*
X51900D01*
X62900D02*
X66400D01*
X68000D02*
X68100D01*
X70500D02*
X71400D01*
X81100D02*
X82200D01*
X89400D02*
X90100D01*
X97600D02*
X97800D01*
X99200D02*
X99300D01*
X106600D02*
X106800D01*
X19700Y208700D02*
X24500D01*
X28000D02*
X35900D01*
X109600Y208600D02*
X109800D01*
X38300Y208700D02*
X41400D01*
X46700D02*
X50600D01*
X51600D02*
X52000D01*
X62900D02*
X66500D01*
X68000D02*
X68100D01*
X71100D02*
X72000D01*
X81500D02*
X82600D01*
X89100D02*
X89900D01*
X97600D02*
X97800D01*
X99200D02*
X99300D01*
X106400D02*
X106700D01*
X109600D02*
X109800D01*
X19300Y208800D02*
X24500D01*
X27900D02*
X35900D01*
X38300D02*
X41400D01*
X46800D02*
X50600D01*
X51700D02*
X52000D01*
X62900D02*
X66600D01*
X68000D02*
X68100D01*
X71700D02*
X72600D01*
X81900D02*
X83000D01*
X88800D02*
X89600D01*
X97600D02*
X97800D01*
X99200D02*
X99300D01*
X106300D02*
X106600D01*
X18900Y208900D02*
X24500D01*
X27800D02*
X35900D01*
X109600Y208800D02*
X109800D01*
X38400Y208900D02*
X41400D01*
X46800D02*
X50600D01*
X51800D02*
X52100D01*
X62900D02*
X66700D01*
X68000D02*
X68100D01*
X72300D02*
X73200D01*
X82200D02*
X83500D01*
X88600D02*
X89400D01*
X97600D02*
X97800D01*
X99200D02*
X99300D01*
X106200D02*
X106500D01*
X109600D02*
X109800D01*
X97600Y211500D02*
X97700D01*
X99100D02*
X99300D01*
X103400D02*
X103700D01*
X109600D02*
X109700D01*
X18600Y209000D02*
X24600D01*
X27700D02*
X35900D01*
X38400D02*
X41400D01*
X46900D02*
X50700D01*
X51800D02*
X52200D01*
X62900D02*
X66800D01*
X68000D02*
X68100D01*
X72900D02*
X73800D01*
X82700D02*
X84000D01*
X88300D02*
X89100D01*
X97600D02*
X97700D01*
X99200D02*
X99300D01*
X106100D02*
X106300D01*
X109600D02*
X109800D01*
X33900Y209100D02*
X35900D01*
X38400D02*
X41500D01*
X47000D02*
X50700D01*
X51900D02*
X52300D01*
X62900D02*
X66900D01*
X68000D02*
X68100D01*
X73500D02*
X74400D01*
X83100D02*
X84600D01*
X88000D02*
X88800D01*
X97600D02*
X97700D01*
X99200D02*
X99300D01*
X106000D02*
X106200D01*
X109600D02*
X109800D01*
X38400Y209200D02*
X41500D01*
X47000D02*
X50700D01*
X52000D02*
X52300D01*
X63000D02*
X67000D01*
X68000D02*
X68100D01*
X74100D02*
X75000D01*
X83600D02*
X85300D01*
X87600D02*
X88600D01*
X97600D02*
X97700D01*
X99200D02*
X99300D01*
X105900D02*
X106100D01*
X109600D02*
X109800D01*
X18300Y209100D02*
X24600D01*
X27700D02*
X32900D01*
X27600Y209200D02*
X32100D01*
X34700D02*
X35800D01*
X18000D02*
X24600D01*
X63000Y209300D02*
X67000D01*
X68000D02*
X68100D01*
X74700D02*
X75700D01*
X84100D02*
X88400D01*
X97600D02*
X97700D01*
X99200D02*
X99300D01*
X105800D02*
X106000D01*
X109600D02*
X109800D01*
X17500Y209400D02*
X24600D01*
X27500D02*
X31400D01*
X35600D02*
X35800D01*
X38400D02*
X41500D01*
X47100D02*
X50800D01*
X52100D02*
X52500D01*
X63000D02*
X67100D01*
X68000D02*
X68100D01*
X75300D02*
X76300D01*
X84700D02*
X88300D01*
X97600D02*
X97700D01*
X99200D02*
X99300D01*
X105700D02*
X105900D01*
X17300Y209500D02*
X24600D01*
X27400D02*
X31200D01*
X109600Y209400D02*
X109800D01*
X38400Y209500D02*
X41500D01*
X47200D02*
X50800D01*
X52200D02*
X52600D01*
X63000D02*
X67200D01*
X68000D02*
X68100D01*
X75900D02*
X76900D01*
X85500D02*
X87500D01*
X87900D02*
X88100D01*
X97600D02*
X97700D01*
X99200D02*
X99300D01*
X105600D02*
X105800D01*
X109600D02*
X109800D01*
X17700Y209300D02*
X24600D01*
X27500D02*
X31700D01*
X35200D02*
X35800D01*
X38400D02*
X41500D01*
X47100D02*
X50700D01*
X52100D02*
X52400D01*
X63000Y209600D02*
X67300D01*
X68000D02*
X68100D01*
X76500D02*
X77500D01*
X87800D02*
X88000D01*
X97600D02*
X97700D01*
X99200D02*
X99300D01*
X105500D02*
X105700D01*
X109600D02*
X109800D01*
X16900Y209700D02*
X24600D01*
X27300D02*
X30800D01*
X38400D02*
X41500D01*
X47300D02*
X50800D01*
X52400D02*
X52800D01*
X63000D02*
X67400D01*
X68000D02*
X68100D01*
X77100D02*
X78100D01*
X87600D02*
X87900D01*
X97600D02*
X97700D01*
X99200D02*
X99300D01*
X105400D02*
X105600D01*
X16700Y209800D02*
X24600D01*
X109600Y209700D02*
X109800D01*
X27300Y209800D02*
X30700D01*
X38400D02*
X41500D01*
X47300D02*
X50900D01*
X52500D02*
X52900D01*
X63000D02*
X67400D01*
X68000D02*
X68100D01*
X77700D02*
X78700D01*
X87500D02*
X87800D01*
X97600D02*
X97700D01*
X99200D02*
X99300D01*
X105300D02*
X105500D01*
X109600D02*
X109800D01*
X17100Y209600D02*
X24600D01*
X27400D02*
X31000D01*
X38400D02*
X41500D01*
X47200D02*
X50800D01*
X52300D02*
X52700D01*
X63100Y209900D02*
X67500D01*
X68000D02*
X68200D01*
X78400D02*
X79300D01*
X87500D02*
X87600D01*
X97600D02*
X97700D01*
X99200D02*
X99300D01*
X105200D02*
X105400D01*
X109600D02*
X109800D01*
X16400Y210000D02*
X24600D01*
X27200D02*
X30500D01*
X38400D02*
X41500D01*
X47400D02*
X50900D01*
X52700D02*
X53100D01*
X63100D02*
X67600D01*
X68000D02*
X68200D01*
X79000D02*
X80000D01*
X87500D02*
X87600D01*
X97600D02*
X97700D01*
X99200D02*
X99300D01*
X105000D02*
X105300D01*
X16300Y210100D02*
X24600D01*
X109600Y210000D02*
X109800D01*
X27200Y210100D02*
X30400D01*
X38400D02*
X41600D01*
X47400D02*
X50900D01*
X52800D02*
X53200D01*
X63100D02*
X67600D01*
X68000D02*
X68200D01*
X79600D02*
X80600D01*
X87500D02*
X87600D01*
X97600D02*
X97700D01*
X99200D02*
X99300D01*
X104900D02*
X105200D01*
X109600D02*
X109800D01*
X16600Y209900D02*
X24600D01*
X27200D02*
X30600D01*
X38400D02*
X41500D01*
X47400D02*
X50900D01*
X52600D02*
X53000D01*
X63100Y210200D02*
X67700D01*
X68000D02*
X68200D01*
X80200D02*
X81200D01*
X87500D02*
X87600D01*
X97600D02*
X97700D01*
X99200D02*
X99300D01*
X104800D02*
X105100D01*
X109600D02*
X109800D01*
X16000Y210300D02*
X24700D01*
X27100D02*
X30300D01*
X38500D02*
X41600D01*
X47500D02*
X50900D01*
X53000D02*
X53400D01*
X63100D02*
X67800D01*
X68000D02*
X68200D01*
X80800D02*
X81800D01*
X87500D02*
X87600D01*
X97600D02*
X97700D01*
X99200D02*
X99300D01*
X104700D02*
X105000D01*
X15900Y210400D02*
X24700D01*
X109600Y210300D02*
X109700D01*
X27100Y210400D02*
X30200D01*
X38500D02*
X41600D01*
X47500D02*
X50900D01*
X53100D02*
X53500D01*
X63100D02*
X67800D01*
X68000D02*
X68200D01*
X81400D02*
X82300D01*
X87500D02*
X87600D01*
X97600D02*
X97700D01*
X99200D02*
X99300D01*
X104600D02*
X104800D01*
X109600D02*
X109700D01*
X16100Y210200D02*
X24600D01*
X27100D02*
X30300D01*
X38500D02*
X41600D01*
X47500D02*
X50900D01*
X52900D02*
X53300D01*
X15800Y210500D02*
X24700D01*
X27100D02*
X30200D01*
X38500D02*
X41600D01*
X47500D02*
X50900D01*
X53200D02*
X53600D01*
X63100D02*
X67900D01*
X68000D02*
X68200D01*
X82000D02*
X82400D01*
X87500D02*
X87600D01*
X97600D02*
X97700D01*
X99200D02*
X99300D01*
X104500D02*
X104700D01*
X109600D02*
X109700D01*
X15700Y210600D02*
X24700D01*
X27000D02*
X30200D01*
X38500D02*
X41600D01*
X43300D02*
X43800D01*
X47600D02*
X51000D01*
X53300D02*
X53700D01*
X63200D02*
X68200D01*
X82200D02*
X82400D01*
X87500D02*
X87600D01*
X97600D02*
X97700D01*
X99100D02*
X99300D01*
X104400D02*
X104600D01*
X15600Y210700D02*
X24700D01*
X109600Y210600D02*
X109700D01*
X53400Y210700D02*
X53800D01*
X63200D02*
X68200D01*
X82200D02*
X82400D01*
X87500D02*
X87600D01*
X97600D02*
X97700D01*
X99100D02*
X99300D01*
X104300D02*
X104500D01*
X109600D02*
X109700D01*
X27000D02*
X30200D01*
X38500D02*
X41600D01*
X42700D02*
X43800D01*
X47600D02*
X51000D01*
X15500Y210800D02*
X21100D01*
X21500D02*
X24700D01*
X27000D02*
X30100D01*
X38500D02*
X41600D01*
X42100D02*
X43800D01*
X47600D02*
X51000D01*
X53500D02*
X53900D01*
X63200D02*
X68200D01*
X82200D02*
X82400D01*
X87500D02*
X87600D01*
X97600D02*
X97700D01*
X99100D02*
X99300D01*
X104200D02*
X104400D01*
X109600D02*
X109700D01*
X15400Y210900D02*
X20400D01*
X21500D02*
X24700D01*
X27000D02*
X30100D01*
X38500D02*
X43800D01*
X47600D02*
X51000D01*
X53600D02*
X54000D01*
X63200D02*
X68200D01*
X82200D02*
X82400D01*
X87500D02*
X87600D01*
X97600D02*
X97700D01*
X99100D02*
X99300D01*
X104100D02*
X104300D01*
X15300Y211000D02*
X19800D01*
X109600Y210900D02*
X109700D01*
X53700Y211000D02*
X54100D01*
X63200D02*
X68200D01*
X82200D02*
X82400D01*
X87500D02*
X87600D01*
X97600D02*
X97700D01*
X99100D02*
X99300D01*
X104000D02*
X104200D01*
X109600D02*
X109700D01*
X21500D02*
X24700D01*
X27000D02*
X30200D01*
X38500D02*
X43800D01*
X47600D02*
X51000D01*
X15300Y211100D02*
X19500D01*
X21600D02*
X24700D01*
X27000D02*
X30200D01*
X38500D02*
X43800D01*
X47600D02*
X51000D01*
X53800D02*
X54200D01*
X63200D02*
X68300D01*
X82200D02*
X82400D01*
X87500D02*
X87600D01*
X97600D02*
X97700D01*
X99100D02*
X99300D01*
X103900D02*
X104100D01*
X109600D02*
X109700D01*
X15200Y211200D02*
X19200D01*
X21600D02*
X24700D01*
X27000D02*
X30200D01*
X38500D02*
X43800D01*
X47700D02*
X51000D01*
X53900D02*
X54300D01*
X63200D02*
X68300D01*
X82200D02*
X82400D01*
X87500D02*
X87600D01*
X97600D02*
X97700D01*
X99100D02*
X99300D01*
X103800D02*
X104000D01*
X15100Y211300D02*
X19000D01*
X109600Y211200D02*
X109700D01*
X54000Y211300D02*
X54400D01*
X63000D02*
X68400D01*
X82200D02*
X82400D01*
X87500D02*
X87600D01*
X97600D02*
X97700D01*
X99100D02*
X99300D01*
X103700D02*
X103900D01*
X109600D02*
X109700D01*
X21600D02*
X24700D01*
X26900D02*
X30200D01*
X38500D02*
X43800D01*
X47700D02*
X51000D01*
X21600Y211600D02*
X24800D01*
X26900D02*
X30300D01*
X38600D02*
X43800D01*
X47700D02*
X51000D01*
X54300D02*
X54700D01*
X62500D02*
X63100D01*
X65200D02*
X68600D01*
X82200D02*
X82400D01*
X87500D02*
X87600D01*
X97600D02*
X97700D01*
X99100D02*
X99300D01*
X103300D02*
X103600D01*
X109600D02*
X109700D01*
X38600Y211700D02*
X43800D01*
X47700D02*
X51000D01*
X54400D02*
X54800D01*
X62400D02*
X62900D01*
X65400D02*
X68600D01*
X82200D02*
X82400D01*
X87500D02*
X87600D01*
X97600D02*
X97700D01*
X27000Y211800D02*
X30500D01*
X38600D02*
X43800D01*
X47700D02*
X51000D01*
X54500D02*
X55000D01*
X62300D02*
X62800D01*
X65500D02*
X68700D01*
X82200D02*
X82400D01*
X87500D02*
X87600D01*
X97600D02*
X97700D01*
X99100D02*
X99300D01*
X103100D02*
X103300D01*
X106000D02*
X107100D01*
X109600D02*
X109700D01*
X99100Y211700D02*
X99300D01*
X103200D02*
X103400D01*
X106200D02*
X106900D01*
X109600D02*
X109700D01*
X38600Y211900D02*
X43900D01*
X47700D02*
X51000D01*
X54700D02*
X55100D01*
X62200D02*
X62700D01*
X65600D02*
X68700D01*
X82200D02*
X82400D01*
X87500D02*
X87600D01*
X97600D02*
X97700D01*
X99100D02*
X99300D01*
X103000D02*
X103200D01*
X105800D02*
X107200D01*
X109600D02*
X109700D01*
X27000Y212000D02*
X30700D01*
X38600D02*
X43900D01*
X47700D02*
X51000D01*
X54800D02*
X55200D01*
X62200D02*
X62600D01*
X65700D02*
X68800D01*
X82200D02*
X82400D01*
X87500D02*
X87600D01*
X97600D02*
X97700D01*
X99100D02*
X99300D01*
X102900D02*
X103100D01*
X105700D02*
X107300D01*
X109600D02*
X109700D01*
X38600Y212100D02*
X43900D01*
X47700D02*
X50900D01*
X54900D02*
X55300D01*
X62100D02*
X62500D01*
X65800D02*
X68900D01*
X82200D02*
X82400D01*
X87500D02*
X87600D01*
X97600D02*
X97700D01*
X99100D02*
X99300D01*
X102800D02*
X103000D01*
X105600D02*
X107300D01*
X109600D02*
X109700D01*
X27000Y212200D02*
X31100D01*
X38600D02*
X43900D01*
X47700D02*
X50900D01*
X55000D02*
X55400D01*
X62000D02*
X62400D01*
X65900D02*
X68900D01*
X82200D02*
X82400D01*
X87500D02*
X87600D01*
X97600D02*
X97700D01*
X99100D02*
X99300D01*
X102700D02*
X102900D01*
X105500D02*
X107400D01*
X109600D02*
X109700D01*
X38600Y212300D02*
X43900D01*
X47700D02*
X50900D01*
X55100D02*
X55500D01*
X62000D02*
X62300D01*
X66000D02*
X69000D01*
X82200D02*
X82400D01*
X87500D02*
X87600D01*
X97600D02*
X97700D01*
X82200Y212400D02*
X82400D01*
X87500D02*
X87600D01*
X97600D02*
X97700D01*
X99100D02*
X99300D01*
X82200Y212500D02*
X82400D01*
X87500D02*
X87600D01*
X97600D02*
X97700D01*
X99100D02*
X99300D01*
X99100Y212300D02*
X99300D01*
X102600D02*
X102800D01*
X105400D02*
X107400D01*
X109600D02*
X109700D01*
X14800Y211800D02*
X18300D01*
X21600D02*
X24800D01*
X21600Y211900D02*
X24800D01*
X27000D02*
X30600D01*
X14800D02*
X18200D01*
X14700Y212200D02*
X18000D01*
X21600D02*
X24800D01*
X21600Y212300D02*
X24800D01*
X27000D02*
X31400D01*
X14700D02*
X18000D01*
X14800Y212000D02*
X18200D01*
X21600D02*
X24800D01*
X21600Y212100D02*
X24800D01*
X27000D02*
X30900D01*
X14700D02*
X18100D01*
X14900Y211600D02*
X18500D01*
X21600Y211700D02*
X24800D01*
X27000D02*
X30400D01*
X14900D02*
X18400D01*
X14600Y212400D02*
X17900D01*
X21600D02*
X24800D01*
X27100D02*
X31700D01*
X38600D02*
X43900D01*
X47700D02*
X50900D01*
X55200D02*
X55700D01*
X61900D02*
X62200D01*
X66100D02*
X69000D01*
X14600Y212500D02*
X17900D01*
X21700D02*
X24800D01*
X27100D02*
X32100D01*
X38600D02*
X43900D01*
X47600D02*
X50900D01*
X55400D02*
X55800D01*
X61900D02*
X62200D01*
X66100D02*
X69100D01*
X14600Y212600D02*
X17800D01*
X21700D02*
X24800D01*
X27100D02*
X32600D01*
X38600D02*
X43900D01*
X47600D02*
X50900D01*
X55500D02*
X55900D01*
X61800D02*
X62100D01*
X66200D02*
X69100D01*
X82200D02*
X82400D01*
X87500D02*
X87600D01*
X97600D02*
X97700D01*
X99100D02*
X99300D01*
X38600Y212700D02*
X43900D01*
X47600D02*
X50900D01*
X55600D02*
X56100D01*
X61800D02*
X62100D01*
X66200D02*
X69200D01*
X82200D02*
X82400D01*
X87500D02*
X87600D01*
X97600D02*
X97700D01*
X99100D02*
X99300D01*
X102100D02*
X102400D01*
X105000D02*
X105700D01*
X106800D02*
X107500D01*
X109600D02*
X109700D01*
X21700Y212800D02*
X24800D01*
X27200D02*
X33500D01*
X38700D02*
X43900D01*
X47600D02*
X50900D01*
X55800D02*
X56500D01*
X57000D02*
X57900D01*
X61700D02*
X62000D01*
X66300D02*
X69300D01*
X82200D02*
X82400D01*
X87500D02*
X87600D01*
X97600D02*
X97700D01*
X99100D02*
X99300D01*
X38700Y212900D02*
X43900D01*
X47600D02*
X50800D01*
X55900D02*
X57900D01*
X61700D02*
X62000D01*
X66300D02*
X69300D01*
X82200D02*
X82400D01*
X87500D02*
X87600D01*
X97600D02*
X97700D01*
X99100D02*
X99300D01*
X101900D02*
X102200D01*
X104900D02*
X105500D01*
X106900D02*
X107500D01*
X109600D02*
X109700D01*
X14600Y212700D02*
X17800D01*
X21700D02*
X24800D01*
X27100D02*
X33000D01*
X14500Y212800D02*
X17800D01*
X14500Y213400D02*
X17800D01*
X21700D02*
X24900D01*
X27400D02*
X35000D01*
X38700D02*
X41200D01*
X21700Y213500D02*
X24900D01*
X27500D02*
X35200D01*
X28500Y219400D02*
X35500D01*
X38700Y213500D02*
X40600D01*
X58200Y213700D02*
X58500D01*
X61600D02*
X61900D01*
X66400D02*
X69700D01*
X82200D02*
X82400D01*
X87500D02*
X87600D01*
X97600D02*
X97700D01*
X99100D02*
X99300D01*
X101100D02*
X101300D01*
X104900D02*
X105500D01*
X106800D02*
X107400D01*
X21800Y213800D02*
X24900D01*
X27700D02*
X35600D01*
X109600Y213700D02*
X109700D01*
X38800Y213600D02*
X39900D01*
X47400D02*
X50700D01*
X58100D02*
X58500D01*
X61600D02*
X61900D01*
X66400D02*
X69600D01*
X82200D02*
X82400D01*
X87500D02*
X87600D01*
X97600D02*
X97700D01*
X99100D02*
X99300D01*
X101200D02*
X101400D01*
X104800D02*
X105500D01*
X106900D02*
X107400D01*
X109600D02*
X109700D01*
X27600Y213700D02*
X35500D01*
X38800D02*
X39300D01*
X47400D02*
X50600D01*
X22200Y219400D02*
X25400D01*
X47300Y213800D02*
X50600D01*
X58300D02*
X58600D01*
X61600D02*
X61900D01*
X66400D02*
X69700D01*
X82200D02*
X82400D01*
X87500D02*
X87600D01*
X97600D02*
X97700D01*
X99100D02*
X99300D01*
X101000D02*
X101200D01*
X104900D02*
X105600D01*
X106800D02*
X107300D01*
X109600D02*
X109700D01*
X58400Y214000D02*
X58800D01*
X61700D02*
X62000D01*
X66300D02*
X69800D01*
X82200D02*
X82400D01*
X87500D02*
X87600D01*
X97600D02*
X97700D01*
X99100D02*
X99300D01*
X100800D02*
X101000D01*
X105000D02*
X105600D01*
X106700D02*
X107300D01*
X21800Y214100D02*
X24900D01*
X28000D02*
X35900D01*
X109600Y214000D02*
X109700D01*
X21800D02*
X24900D01*
X27900D02*
X35800D01*
X47200D02*
X50500D01*
X40700Y219300D02*
X42400D01*
X14500Y213900D02*
X17900D01*
X21800D02*
X24900D01*
X27800D02*
X35700D01*
X47300D02*
X50600D01*
X58400D02*
X58700D01*
X61600D02*
X61900D01*
X66400D02*
X69800D01*
X82200D02*
X82400D01*
X87500D02*
X87600D01*
X97600D02*
X97700D01*
X99100D02*
X99300D01*
X100900D02*
X101100D01*
X104900D02*
X105600D01*
X106700D02*
X107300D01*
X14500Y214000D02*
X18000D01*
X109600Y213900D02*
X109700D01*
X14500Y213600D02*
X17800D01*
X21700D02*
X24900D01*
X27600D02*
X35300D01*
X21700Y213700D02*
X24900D01*
X14500D02*
X17900D01*
X14500Y212900D02*
X17800D01*
X21700D02*
X24900D01*
X27200D02*
X33800D01*
X14500Y213000D02*
X17800D01*
X21700D02*
X24900D01*
X27200D02*
X34100D01*
X38700D02*
X43700D01*
X47600D02*
X50800D01*
X56100D02*
X57500D01*
X57600D02*
X58000D01*
X61700D02*
X62000D01*
X66300D02*
X69400D01*
X82200D02*
X82400D01*
X87500D02*
X87600D01*
X97600D02*
X97700D01*
X99100D02*
X99300D01*
X101800D02*
X102100D01*
X104900D02*
X105400D01*
X106900D02*
X107500D01*
X109600D02*
X109700D01*
X14500Y213100D02*
X17800D01*
X21700D02*
X24900D01*
X27300D02*
X34400D01*
X38700D02*
X43100D01*
X47500D02*
X50800D01*
X57700D02*
X58100D01*
X61700D02*
X62000D01*
X66300D02*
X69400D01*
X82200D02*
X82400D01*
X87500D02*
X87600D01*
X97600D02*
X97700D01*
X99100D02*
X99300D01*
X101700D02*
X101900D01*
X104800D02*
X105400D01*
X106900D02*
X107500D01*
X109600D02*
X109700D01*
X14500Y213200D02*
X17800D01*
X21700D02*
X24900D01*
X27300D02*
X34600D01*
X38700D02*
X42400D01*
X47500D02*
X50800D01*
X57800D02*
X58100D01*
X61600D02*
X61900D01*
X66400D02*
X69500D01*
X82200D02*
X82400D01*
X87500D02*
X87600D01*
X97600D02*
X97700D01*
X99100D02*
X99300D01*
X101600D02*
X101800D01*
X104800D02*
X105400D01*
X106900D02*
X107500D01*
X109600D02*
X109700D01*
X14500Y213300D02*
X17800D01*
X21700D02*
X24900D01*
X27400D02*
X34800D01*
X38700D02*
X41800D01*
X47500D02*
X50700D01*
X57900D02*
X58200D01*
X61600D02*
X61900D01*
X66400D02*
X69500D01*
X82200D02*
X82400D01*
X87500D02*
X87600D01*
X97600D02*
X97700D01*
X99100D02*
X99300D01*
X101500D02*
X101700D01*
X104700D02*
X105400D01*
X106900D02*
X107500D01*
X109600D02*
X109700D01*
X47500Y213400D02*
X50700D01*
X58000D02*
X58300D01*
X61600D02*
X61900D01*
X66400D02*
X69600D01*
X82200D02*
X82400D01*
X87500D02*
X87600D01*
X97600D02*
X97700D01*
X99100D02*
X99300D01*
X47400Y213500D02*
X50700D01*
X58000D02*
X58400D01*
X61600D02*
X61900D01*
X66400D02*
X69600D01*
X82200D02*
X82400D01*
X87500D02*
X87600D01*
X97600D02*
X97700D01*
X99100D02*
X99300D01*
X101300D02*
X101500D01*
X104800D02*
X105500D01*
X106900D02*
X107400D01*
X109600D02*
X109700D01*
X101400Y213400D02*
X101600D01*
X104800D02*
X105400D01*
X106900D02*
X107500D01*
X109600D02*
X109700D01*
X21800Y214200D02*
X25000D01*
X28200D02*
X36000D01*
X28300Y214300D02*
X36100D01*
X39700Y218700D02*
X45400D01*
X21800Y214300D02*
X25000D01*
X28400Y214400D02*
X36200D01*
X47000D02*
X50500D01*
X58800D02*
X59100D01*
X61800D02*
X62100D01*
X66200D02*
X69900D01*
X82200D02*
X82400D01*
X87500D02*
X87600D01*
X97600D02*
X97700D01*
X99100D02*
X99300D01*
X100300D02*
X100500D01*
X103000D02*
X103500D01*
X106400D02*
X107000D01*
X109300D02*
X109600D01*
X46900Y214600D02*
X50300D01*
X50400D02*
X50500D01*
X59000D02*
X59300D01*
X61800D02*
X62200D01*
X66100D02*
X70000D01*
X82200D02*
X82400D01*
X87500D02*
X87600D01*
X97500D02*
X97700D01*
X99100D02*
X99300D01*
X100100D02*
X100300D01*
X102800D02*
X103600D01*
X106100D02*
X106900D01*
X109100D02*
X109300D01*
X47100Y214200D02*
X50500D01*
X58600D02*
X59000D01*
X61700D02*
X62000D01*
X66300D02*
X69900D01*
X82200D02*
X82400D01*
X87500D02*
X87600D01*
X97600D02*
X97700D01*
X99100D02*
X99300D01*
X100500D02*
X100800D01*
X103300D02*
X103500D01*
X105000D02*
X105300D01*
X106600D02*
X107100D01*
X109500D02*
X109700D01*
X47200Y214100D02*
X50500D01*
X58500D02*
X58900D01*
X61700D02*
X62000D01*
X66300D02*
X69800D01*
X82200D02*
X82400D01*
X87500D02*
X87600D01*
X97600D02*
X97700D01*
X99100D02*
X99300D01*
X100600D02*
X100900D01*
X105000D02*
X105500D01*
X106600D02*
X107200D01*
X39700Y218800D02*
X45100D01*
X109600Y214100D02*
X109700D01*
X21800Y214400D02*
X25000D01*
X28600Y214500D02*
X36200D01*
X39800Y218100D02*
X46800D01*
X21800Y214500D02*
X25000D01*
X47100Y214300D02*
X50500D01*
X58700D02*
X59100D01*
X61700D02*
X62000D01*
X66300D02*
X69900D01*
X82200D02*
X82400D01*
X87500D02*
X87600D01*
X97600D02*
X97700D01*
X99100D02*
X99300D01*
X100400D02*
X100700D01*
X103100D02*
X103500D01*
X105100D02*
X105200D01*
X106500D02*
X107100D01*
X39800Y218200D02*
X46600D01*
X109400Y214300D02*
X109700D01*
X21900Y214600D02*
X25000D01*
X28700D02*
X36300D01*
X28900Y214700D02*
X36400D01*
X50400Y217200D02*
X50500D01*
X21700Y214700D02*
X25000D01*
X46900Y214500D02*
X50500D01*
X58900D02*
X59200D01*
X61800D02*
X62100D01*
X66200D02*
X70000D01*
X82200D02*
X82400D01*
X87500D02*
X87600D01*
X97500D02*
X97700D01*
X99100D02*
X99300D01*
X100200D02*
X100400D01*
X102900D02*
X103600D01*
X106200D02*
X107000D01*
X39800Y217900D02*
X47200D01*
X109200Y214500D02*
X109500D01*
X21100Y214800D02*
X25000D01*
X29100D02*
X36400D01*
X46700D02*
X50200D01*
X65800Y215100D02*
X70100D01*
X20300Y214900D02*
X25000D01*
X29400D02*
X36500D01*
X29600Y215000D02*
X36500D01*
X46500D02*
X50100D01*
X14800D02*
X25000D01*
X29900Y215100D02*
X36600D01*
X46500D02*
X50000D01*
X50400D02*
X50500D01*
X59400D02*
X59800D01*
X62100D02*
X62500D01*
X15500Y219400D02*
X18600D01*
X14900Y215200D02*
X25000D01*
X30300D02*
X36600D01*
X46400D02*
X50000D01*
X50400Y217400D02*
X50500D01*
X33600Y216700D02*
X36800D01*
X40000D02*
X41000D01*
X42500D02*
X48800D01*
X50400Y217600D02*
X50500D01*
X22000Y217400D02*
X25200D01*
X33500D02*
X36700D01*
X39900D02*
X48000D01*
X50400Y218400D02*
X50500D01*
X15000Y215300D02*
X25000D01*
X30700D02*
X36600D01*
X46200D02*
X49900D01*
X15000Y215400D02*
X25000D01*
X22100Y217600D02*
X25200D01*
X33400D02*
X36600D01*
X39900D02*
X47700D01*
X50400Y219400D02*
X50500D01*
X46800Y214700D02*
X50200D01*
X50400D02*
X50500D01*
X59000D02*
X59400D01*
X61900D02*
X62200D01*
X66100D02*
X70000D01*
X82200D02*
X82400D01*
X87500D02*
X87600D01*
X97500D02*
X97700D01*
X99100D02*
X99300D01*
X50400Y214800D02*
X50500D01*
X59100D02*
X59500D01*
X61900D02*
X62300D01*
X66000D02*
X70100D01*
X82200D02*
X82400D01*
X87500D02*
X87600D01*
X97500D02*
X97700D01*
X99100D02*
X99300D01*
X99900D02*
X100100D01*
X102600D02*
X103700D01*
X105600D02*
X106700D01*
X50400Y216700D02*
X50500D01*
X108900Y214800D02*
X109100D01*
X46600Y214900D02*
X50100D01*
X50400D02*
X50500D01*
X59200D02*
X59600D01*
X62000D02*
X62400D01*
X65900D02*
X70100D01*
X82200D02*
X82400D01*
X87500D02*
X87600D01*
X97500D02*
X97700D01*
X99100D02*
X99300D01*
X99800D02*
X100000D01*
X102500D02*
X103700D01*
X105500D02*
X106600D01*
X108800D02*
X109000D01*
X50400Y215000D02*
X50500D01*
X59300D02*
X59700D01*
X62100D02*
X62400D01*
X65900D02*
X70100D01*
X82200D02*
X82400D01*
X87500D02*
X87600D01*
X97500D02*
X97700D01*
X99100D02*
X99300D01*
X99700D02*
X99900D01*
X102400D02*
X103700D01*
X105500D02*
X106500D01*
X50400Y215200D02*
X50500D01*
X108700Y215000D02*
X108900D01*
X82200Y215100D02*
X82400D01*
X87500D02*
X87600D01*
X97500D02*
X97700D01*
X99100D02*
X99300D01*
X99600D02*
X99800D01*
X102200D02*
X103800D01*
X105500D02*
X106300D01*
X108600D02*
X108800D01*
X100000Y214700D02*
X100200D01*
X102700D02*
X103600D01*
X105600D02*
X106800D01*
X109000D02*
X109200D01*
X33200Y216100D02*
X36800D01*
X45000D02*
X49300D01*
X50400D02*
X50500D01*
X60500D02*
X61000D01*
X63900D02*
X70400D01*
X82200D02*
X82400D01*
X87500D02*
X87600D01*
X97500D02*
X97700D01*
X101700D02*
X101900D01*
X102800D02*
X104100D01*
X15900Y216200D02*
X25100D01*
X107500Y216100D02*
X107700D01*
X33300Y216200D02*
X36800D01*
X44800D02*
X49200D01*
X50400D02*
X50500D01*
X60600D02*
X61100D01*
X64000D02*
X70400D01*
X82200D02*
X82400D01*
X87500D02*
X87600D01*
X97500D02*
X97700D01*
X102700D02*
X104200D01*
X16100Y216300D02*
X25100D01*
X107400Y216200D02*
X107600D01*
X33400Y216300D02*
X36800D01*
X44500D02*
X49200D01*
X50400D02*
X50500D01*
X60800D02*
X61200D01*
X64000D02*
X70400D01*
X82200D02*
X82400D01*
X87500D02*
X87600D01*
X97500D02*
X97700D01*
X102600D02*
X103300D01*
X103500D02*
X104200D01*
X16300Y216400D02*
X25100D01*
X107300Y216300D02*
X107500D01*
X33400Y216400D02*
X36800D01*
X44200D02*
X49100D01*
X50400D02*
X50500D01*
X60900D02*
X61300D01*
X64000D02*
X70500D01*
X82200D02*
X82400D01*
X87500D02*
X87600D01*
X97500D02*
X97700D01*
X102500D02*
X103200D01*
X103500D02*
X104200D01*
X16500Y216500D02*
X25100D01*
X107200Y216400D02*
X107400D01*
X33500Y216500D02*
X36800D01*
X43800D02*
X49000D01*
X50400D02*
X50500D01*
X61000D02*
X61500D01*
X64000D02*
X70500D01*
X82200D02*
X82400D01*
X87500D02*
X87600D01*
X97500D02*
X97700D01*
X102400D02*
X103100D01*
X103500D02*
X104300D01*
X16900Y216600D02*
X25100D01*
X107100Y216500D02*
X107300D01*
X33500Y216600D02*
X36800D01*
X40100D02*
X40500D01*
X43300D02*
X48900D01*
X50400D02*
X50500D01*
X61100D02*
X61600D01*
X64100D02*
X70500D01*
X82200D02*
X82400D01*
X87500D02*
X87600D01*
X97400D02*
X97600D01*
X102200D02*
X103000D01*
X103600D02*
X104300D01*
X17400Y216700D02*
X25100D01*
X107000Y216600D02*
X107200D01*
X61300Y216700D02*
X61800D01*
X64100D02*
X70500D01*
X82200D02*
X82400D01*
X87500D02*
X87600D01*
X97300D02*
X97500D01*
X102100D02*
X102800D01*
X103600D02*
X104300D01*
X106900D02*
X107100D01*
X17400Y216800D02*
X25200D01*
X33600D02*
X36800D01*
X40000D02*
X48700D01*
X50400D02*
X50500D01*
X61400D02*
X61900D01*
X64100D02*
X70500D01*
X82200D02*
X82400D01*
X87500D02*
X87600D01*
X97200D02*
X97400D01*
X100300D02*
X100400D01*
X102200D02*
X102700D01*
X103600D02*
X104400D01*
X17300Y216900D02*
X25200D01*
X106700Y216800D02*
X107000D01*
X33600Y216900D02*
X36800D01*
X40000D02*
X48600D01*
X50400D02*
X50500D01*
X61600D02*
X62100D01*
X64100D02*
X70600D01*
X82200D02*
X82400D01*
X87500D02*
X87600D01*
X97100D02*
X97300D01*
X64100Y217000D02*
X70600D01*
X82200D02*
X82400D01*
X87500D02*
X87600D01*
X97000D02*
X97200D01*
X100200Y216900D02*
X100500D01*
X102200D02*
X102600D01*
X103500D02*
X104300D01*
X106600D02*
X106900D01*
X17000Y217100D02*
X20900D01*
X22000D02*
X25200D01*
X33600D02*
X36700D01*
X40000D02*
X48300D01*
X50400D02*
X50500D01*
X61900D02*
X62400D01*
X64100D02*
X70600D01*
X82200D02*
X82400D01*
X87500D02*
X87600D01*
X96900D02*
X97100D01*
X100000D02*
X100500D01*
X102300D02*
X102400D01*
X103300D02*
X104000D01*
X16800Y217200D02*
X20400D01*
X106400Y217100D02*
X106600D01*
X22000Y217200D02*
X25200D01*
X33600D02*
X36700D01*
X40000D02*
X48200D01*
X50400Y217800D02*
X50500D01*
X62000Y217200D02*
X62600D01*
X64100D02*
X70600D01*
X82200D02*
X82400D01*
X87500D02*
X87600D01*
X96800D02*
X97000D01*
X99900D02*
X100600D01*
X103200D02*
X103900D01*
X106300D02*
X106500D01*
X16700Y217300D02*
X20100D01*
X22000D02*
X25200D01*
X33600D02*
X36700D01*
X39900D02*
X48100D01*
X50400D02*
X50500D01*
X62200D02*
X62800D01*
X64200D02*
X70600D01*
X82200D02*
X82400D01*
X87500D02*
X87600D01*
X96600D02*
X96900D01*
X99900D02*
X100600D01*
X103100D02*
X103800D01*
X16600Y217400D02*
X19800D01*
X106200Y217300D02*
X106400D01*
X62400Y217400D02*
X63000D01*
X64200D02*
X70600D01*
X82200D02*
X82400D01*
X87500D02*
X87600D01*
X96500D02*
X96800D01*
X99900D02*
X100600D01*
X103000D02*
X103700D01*
X106100D02*
X106300D01*
X16500Y217500D02*
X19600D01*
X22000D02*
X25200D01*
X33500D02*
X36700D01*
X39900D02*
X47800D01*
X50400D02*
X50500D01*
X62500D02*
X63200D01*
X64200D02*
X70700D01*
X82200D02*
X82400D01*
X87500D02*
X87600D01*
X96400D02*
X96700D01*
X99900D02*
X100700D01*
X102800D02*
X103600D01*
X16400Y217600D02*
X19500D01*
X106000Y217500D02*
X106200D01*
X62700Y217600D02*
X63400D01*
X64200D02*
X70700D01*
X82200D02*
X82400D01*
X87500D02*
X87600D01*
X16300Y217700D02*
X19300D01*
X22100D02*
X25200D01*
X33400D02*
X36600D01*
X39900D02*
X47500D01*
X50400D02*
X50500D01*
X62900D02*
X63700D01*
X64200D02*
X70700D01*
X82200D02*
X82400D01*
X87500D02*
X87600D01*
X96200D02*
X96400D01*
X100000D02*
X100700D01*
X102600D02*
X103400D01*
X16200Y217800D02*
X19200D01*
X105800Y217700D02*
X106000D01*
X63100Y217800D02*
X63900D01*
X64200D02*
X70700D01*
X82200D02*
X82400D01*
X87500D02*
X87600D01*
X96300Y217600D02*
X96500D01*
X100000D02*
X100700D01*
X102700D02*
X103500D01*
X105900D02*
X106100D01*
X17100Y217000D02*
X21500D01*
X22000D02*
X25200D01*
X33600D02*
X36800D01*
X40000D02*
X48400D01*
X50400D02*
X50500D01*
X61700D02*
X62200D01*
X100100D02*
X100500D01*
X102200D02*
X102500D01*
X103400D02*
X104100D01*
X106500D02*
X106800D01*
X59500Y215200D02*
X59900D01*
X62200D02*
X62600D01*
X65700D02*
X70200D01*
X82200D02*
X82400D01*
X87500D02*
X87600D01*
X97500D02*
X97700D01*
X99100D02*
X99300D01*
X99500D02*
X99700D01*
X50400Y215300D02*
X50500D01*
X59600D02*
X60000D01*
X62300D02*
X62700D01*
X65600D02*
X70200D01*
X82200D02*
X82400D01*
X87500D02*
X87600D01*
X97500D02*
X97700D01*
X99100D02*
X99300D01*
X99400D02*
X99600D01*
X102000D02*
X102800D01*
X103100D02*
X103800D01*
X105400D02*
X106000D01*
X108400D02*
X108600D01*
X31100Y215400D02*
X36700D01*
X46100D02*
X49800D01*
X50400D02*
X50500D01*
X59700D02*
X60100D01*
X62400D02*
X62900D01*
X65400D02*
X70200D01*
X82200D02*
X82400D01*
X87500D02*
X87600D01*
X97500D02*
X97700D01*
X99100D02*
X99500D01*
X101900D02*
X102600D01*
X103200D02*
X103900D01*
X15100Y215500D02*
X25100D01*
X108300Y215400D02*
X108500D01*
X31600Y215500D02*
X36700D01*
X46000D02*
X49800D01*
X50400D02*
X50500D01*
X59800D02*
X60200D01*
X62500D02*
X63000D01*
X65300D02*
X70200D01*
X82200D02*
X82400D01*
X87500D02*
X87600D01*
X97500D02*
X97700D01*
X99100D02*
X99400D01*
X101800D02*
X102500D01*
X103200D02*
X103900D01*
X15200Y215600D02*
X25100D01*
X108100Y215500D02*
X108400D01*
X32000Y215600D02*
X36700D01*
X45900D02*
X49700D01*
X50400D02*
X50500D01*
X59900D02*
X60400D01*
X62600D02*
X63200D01*
X65100D02*
X70300D01*
X82200D02*
X82400D01*
X87500D02*
X87600D01*
X97500D02*
X97700D01*
X99100D02*
X99300D01*
X101700D02*
X102400D01*
X103200D02*
X104000D01*
X15300Y215700D02*
X25100D01*
X108000Y215600D02*
X108300D01*
X32300Y215700D02*
X36700D01*
X45700D02*
X49600D01*
X50400D02*
X50500D01*
X60100D02*
X60500D01*
X62800D02*
X63500D01*
X64800D02*
X70300D01*
X82200D02*
X82400D01*
X87500D02*
X87600D01*
X97500D02*
X97700D01*
X99100D02*
X99200D01*
X101600D02*
X102300D01*
X103200D02*
X104000D01*
X15400Y215800D02*
X25100D01*
X107900Y215700D02*
X108200D01*
X32600Y215800D02*
X36700D01*
X45600D02*
X49600D01*
X50400D02*
X50500D01*
X60200D02*
X60600D01*
X62900D02*
X64000D01*
X64300D02*
X70300D01*
X82200D02*
X82400D01*
X87500D02*
X87600D01*
X97500D02*
X97700D01*
X101600D02*
X102200D01*
X103100D02*
X104000D01*
X15500Y215900D02*
X25100D01*
X107800Y215800D02*
X108000D01*
X32800Y215900D02*
X36800D01*
X45400D02*
X49500D01*
X50400D02*
X50500D01*
X60300D02*
X60700D01*
X63100D02*
X70300D01*
X82200D02*
X82400D01*
X87500D02*
X87600D01*
X97500D02*
X97700D01*
X101600D02*
X102100D01*
X103000D02*
X104100D01*
X15600Y216000D02*
X25100D01*
X107700Y215900D02*
X107900D01*
X33000Y216000D02*
X36800D01*
X45200D02*
X49400D01*
X50400D02*
X50500D01*
X60400D02*
X60800D01*
X63400D02*
X70400D01*
X82200D02*
X82400D01*
X87500D02*
X87600D01*
X97500D02*
X97700D01*
X101600D02*
X102000D01*
X102900D02*
X104100D01*
X15700Y216100D02*
X25100D01*
X107600Y216000D02*
X107800D01*
X102100Y215200D02*
X102900D01*
X103100D02*
X103800D01*
X105400D02*
X106200D01*
X108500D02*
X108700D01*
X102400Y212500D02*
X102600D01*
X105200D02*
X105900D01*
X106700D02*
X107500D01*
X109600D02*
X109700D01*
X102300Y212600D02*
X102500D01*
X105100D02*
X105800D01*
X106700D02*
X107500D01*
X109600D02*
X109700D01*
X102000Y212800D02*
X102300D01*
X105000D02*
X105600D01*
X106800D02*
X107500D01*
X109600D02*
X109700D01*
X102500Y212400D02*
X102700D01*
X105300D02*
X106100D01*
X106500D02*
X107400D01*
X109600D02*
X109700D01*
X39700Y218900D02*
X44800D01*
X50400D02*
X50500D01*
X66800D02*
X70900D01*
X87500Y219400D02*
X87600D01*
X15600Y219000D02*
X18600D01*
X22200D02*
X25300D01*
X28600D02*
X35900D01*
X39600D02*
X44400D01*
X50400D02*
X50500D01*
X67200D02*
X70900D01*
X82200D02*
X82400D01*
X87500D02*
X87600D01*
X94800D02*
X95000D01*
X98300D02*
X101200D01*
X15500Y219100D02*
X18600D01*
X22200D02*
X25300D01*
X28600D02*
X35800D01*
X104400Y219000D02*
X104600D01*
X39600Y219100D02*
X43900D01*
X50400D02*
X50500D01*
X67700D02*
X70900D01*
X94400Y219400D02*
X94600D01*
X87500Y219100D02*
X87600D01*
X94700D02*
X94900D01*
X98300D02*
X101200D01*
X104300D02*
X104500D01*
X50400Y219300D02*
X50500D01*
X68200D02*
X68400D01*
X69100D02*
X70900D01*
X99400Y219400D02*
X101300D01*
X87500Y219300D02*
X87600D01*
X94500D02*
X94700D01*
X103900Y219400D02*
X104200D01*
X104000Y219300D02*
X104300D01*
X50400Y219600D02*
X50500D01*
X68200D02*
X68400D01*
X82200D02*
X82400D01*
X87500D02*
X87600D01*
X15600Y218900D02*
X18600D01*
X22200D02*
X25300D01*
X28600D02*
X36000D01*
X87500D02*
X87600D01*
X94900D02*
X95100D01*
X98200D02*
X101200D01*
X104500D02*
X104700D01*
X15500Y219200D02*
X18600D01*
X22200D02*
X25300D01*
X28600D02*
X35700D01*
X40000D02*
X43300D01*
X50400D02*
X50500D01*
X68200D02*
X70900D01*
X98400Y219300D02*
X101300D01*
X87500Y219200D02*
X87600D01*
X94600D02*
X94800D01*
X98300D02*
X101300D01*
X104100D02*
X104400D01*
X15500Y219300D02*
X18600D01*
X22200D02*
X25300D01*
X28500D02*
X35600D01*
X98400Y219400D02*
X99100D01*
X15400Y219700D02*
X18700D01*
X22200D02*
X25400D01*
X28500D02*
X35200D01*
X50400D02*
X50500D01*
X68200D02*
X68400D01*
X82200D02*
X82400D01*
X87500D02*
X87600D01*
X94000D02*
X94300D01*
X95700D02*
X96000D01*
X98500D02*
X99200D01*
X100300D02*
X101100D01*
X15400Y219800D02*
X18800D01*
X22200D02*
X25400D01*
X103600Y219700D02*
X103800D01*
X94100Y219600D02*
X94400D01*
X98500D02*
X99200D01*
X100000D02*
X101200D01*
X103700D02*
X103900D01*
X20600Y220500D02*
X25400D01*
X28300D02*
X33900D01*
X50400D02*
X50500D01*
X55600D02*
X56300D01*
X68200D02*
X68400D01*
X82200D02*
X82400D01*
X87500D02*
X87600D01*
X93200D02*
X93400D01*
X15500Y220600D02*
X25400D01*
X28300D02*
X33700D01*
X50400D02*
X50500D01*
X55600D02*
X56300D01*
X57600D02*
X57900D01*
X68200D02*
X68400D01*
X82200D02*
X82400D01*
X87500D02*
X87600D01*
X93100D02*
X93300D01*
X95200D02*
X97300D01*
X98800D02*
X99500D01*
X102600D02*
X102900D01*
X95200Y220500D02*
X95900D01*
X96200D02*
X97100D01*
X98800D02*
X99500D01*
X102700D02*
X103000D01*
X16100Y218000D02*
X19000D01*
X22100D02*
X25200D01*
X33100D02*
X36500D01*
X39800D02*
X47000D01*
X50400D02*
X50500D01*
X63600D02*
X70700D01*
X82200D02*
X82400D01*
X87500D02*
X87600D01*
X95900D02*
X96100D01*
X100100D02*
X100800D01*
X102400D02*
X103000D01*
X105400D02*
X105700D01*
X50400Y218100D02*
X50500D01*
X63800D02*
X70800D01*
X82200D02*
X82400D01*
X87500D02*
X87600D01*
X95800D02*
X96000D01*
X100200D02*
X100900D01*
X102400D02*
X102900D01*
X105300D02*
X105600D01*
X50400Y218200D02*
X50500D01*
X64100D02*
X70800D01*
X82200D02*
X82400D01*
X87500D02*
X87600D01*
X95700D02*
X95900D01*
X100200D02*
X100900D01*
X102400D02*
X102800D01*
X105200D02*
X105500D01*
X64800Y218400D02*
X70800D01*
X82200D02*
X82400D01*
X87500D02*
X87600D01*
X95500D02*
X95700D01*
X98500D02*
X98900D01*
X100300D02*
X101000D01*
X102500D02*
X102600D01*
X105000D02*
X105200D01*
X96100Y217800D02*
X96300D01*
X100100D02*
X100800D01*
X102500D02*
X103200D01*
X105700D02*
X105900D01*
X16100Y217900D02*
X19100D01*
X22100D02*
X25200D01*
X33200D02*
X36500D01*
X69900Y219400D02*
X70900D01*
X50400Y217900D02*
X50500D01*
X63300D02*
X70700D01*
X82200D02*
X82400D01*
X87500D02*
X87600D01*
X96000D02*
X96200D01*
X100100D02*
X100800D01*
X102400D02*
X103100D01*
X105600D02*
X105800D01*
X16000Y218100D02*
X18900D01*
X22100D02*
X25300D01*
X32900D02*
X36400D01*
X82200Y218900D02*
X82400D01*
X15900Y218200D02*
X18800D01*
X22100D02*
X25300D01*
X32800D02*
X36400D01*
X82200Y219100D02*
X82400D01*
X15900Y218300D02*
X18800D01*
X22100D02*
X25300D01*
X32600D02*
X36300D01*
X39800D02*
X46400D01*
X50400D02*
X50500D01*
X64400D02*
X70800D01*
X82200D02*
X82400D01*
X87500D02*
X87600D01*
X95600D02*
X95800D01*
X100200D02*
X100900D01*
X102500D02*
X102700D01*
X15800Y218400D02*
X18700D01*
X105100Y218300D02*
X105300D01*
X22100Y218400D02*
X25300D01*
X32300D02*
X36300D01*
X39700D02*
X46200D01*
X82200Y219200D02*
X82400D01*
X15800Y218500D02*
X18700D01*
X22100D02*
X25300D01*
X28700D02*
X29200D01*
X32000D02*
X36200D01*
X39700D02*
X46000D01*
X50400D02*
X50500D01*
X65200D02*
X70800D01*
X82200D02*
X82400D01*
X87500D02*
X87600D01*
X95300D02*
X95600D01*
X98400D02*
X99200D01*
X100300D02*
X101000D01*
X15700Y218600D02*
X18600D01*
X104900Y218500D02*
X105100D01*
X50400Y218600D02*
X50500D01*
X65500D02*
X70800D01*
X82200D02*
X82400D01*
X87500D02*
X87600D01*
X15700Y218700D02*
X18600D01*
X22100D02*
X25300D01*
X28700D02*
X36100D01*
X82200Y219300D02*
X82400D01*
X15600Y218800D02*
X18600D01*
X22100D02*
X25300D01*
X28600D02*
X36000D01*
X82200Y219400D02*
X82400D01*
X22100Y217800D02*
X25200D01*
X33300D02*
X36600D01*
X39800D02*
X47400D01*
X68200Y219400D02*
X68400D01*
X50400Y218700D02*
X50500D01*
X65900D02*
X70800D01*
X82200D02*
X82400D01*
X87500D02*
X87600D01*
X95100D02*
X95400D01*
X98200D02*
X99800D01*
X100400D02*
X101100D01*
X104700D02*
X104900D01*
X50400Y218800D02*
X50500D01*
X66300D02*
X70900D01*
X82200D02*
X82400D01*
X87500D02*
X87600D01*
X95000D02*
X95200D01*
X98200D02*
X100100D01*
X100400D02*
X101100D01*
X104600D02*
X104800D01*
X22200Y219500D02*
X25400D01*
X28500D02*
X35400D01*
X50400D02*
X50500D01*
X68200D02*
X68400D01*
X82200D02*
X82400D01*
X87500D02*
X87600D01*
X94300D02*
X94500D01*
X98400D02*
X99200D01*
X99700D02*
X101300D01*
X22200Y219600D02*
X25400D01*
X28500D02*
X35300D01*
X25900Y237100D02*
X26800D01*
X103800Y219500D02*
X104000D01*
X28400Y219800D02*
X35100D01*
X50400D02*
X50500D01*
X68200D02*
X68400D01*
X82200D02*
X82400D01*
X87500D02*
X87600D01*
X93900D02*
X94200D01*
X95600D02*
X96000D01*
X98500D02*
X99300D01*
X100600D02*
X101000D01*
X26300Y237000D02*
X27200D01*
X103500Y219800D02*
X103700D01*
X22200Y219900D02*
X25400D01*
X28400D02*
X34900D01*
X50400D02*
X50500D01*
X55600D02*
X56000D01*
X68200D02*
X68400D01*
X82200D02*
X82400D01*
X87500D02*
X87600D01*
X93800D02*
X94000D01*
X95500D02*
X95900D01*
X98600D02*
X99300D01*
X22200Y220000D02*
X25400D01*
X20200Y237000D02*
X20900D01*
X103400Y219900D02*
X103600D01*
X28400Y220000D02*
X34800D01*
X50400D02*
X50500D01*
X55600D02*
X56200D01*
X68200D02*
X68400D01*
X82200D02*
X82400D01*
X87500D02*
X87600D01*
X93700D02*
X93900D01*
X95400D02*
X95800D01*
X98600D02*
X99300D01*
X26600Y236900D02*
X27500D01*
X103300Y220000D02*
X103500D01*
X22300Y220100D02*
X25400D01*
X28400D02*
X34700D01*
X50400D02*
X50500D01*
X55600D02*
X56300D01*
X68200D02*
X68400D01*
X82200D02*
X82400D01*
X87500D02*
X87600D01*
X93600D02*
X93800D01*
X95300D02*
X95700D01*
X98600D02*
X99400D01*
X22100Y220200D02*
X25400D01*
X28400D02*
X34500D01*
X20500Y236900D02*
X21200D01*
X103200Y220100D02*
X103400D01*
X50400Y220200D02*
X50500D01*
X55600D02*
X56300D01*
X68200D02*
X68400D01*
X82200D02*
X82400D01*
X87500D02*
X87600D01*
X93500D02*
X93700D01*
X95300D02*
X95600D01*
X98700D02*
X99400D01*
X29700Y230600D02*
X30100D01*
X103100Y220200D02*
X103300D01*
X21700Y220300D02*
X25400D01*
X28400D02*
X34300D01*
X50400D02*
X50500D01*
X55600D02*
X56300D01*
X68200D02*
X68400D01*
X82200D02*
X82400D01*
X87500D02*
X87600D01*
X93400D02*
X93600D01*
X95200D02*
X95600D01*
X95800D02*
X95900D01*
X98700D02*
X99400D01*
X21200Y220400D02*
X25400D01*
X28300D02*
X34100D01*
X31900Y230500D02*
X33000D01*
X103000Y220300D02*
X103200D01*
X50400Y220400D02*
X50500D01*
X55600D02*
X56300D01*
X68200D02*
X68400D01*
X82200D02*
X82400D01*
X87500D02*
X87600D01*
X93300D02*
X93500D01*
X95200D02*
X95900D01*
X96500D02*
X96900D01*
X98700D02*
X99500D01*
X31100Y230300D02*
X32200D01*
X102800Y220400D02*
X103100D01*
X22100Y218600D02*
X25300D01*
X28700D02*
X29800D01*
X31400D02*
X36200D01*
X39700D02*
X45700D01*
X95200D02*
X95500D01*
X98300D02*
X99500D01*
X100300D02*
X101000D01*
X104800D02*
X105000D01*
X50400Y222800D02*
X50500D01*
X55800D02*
X56300D01*
X30600Y229500D02*
X31000D01*
X58100Y222800D02*
X59300D01*
X27900Y227700D02*
X28200D01*
X32000D02*
X32300D01*
X33600D02*
X34500D01*
X35800D02*
X36900D01*
X28000Y227600D02*
X28300D01*
X32100D02*
X32400D01*
X33300D02*
X34200D01*
X21000Y227700D02*
X21700D01*
X25600Y237200D02*
X26500D01*
X24900Y237400D02*
X25800D01*
X19900Y237100D02*
X20700D01*
X18200Y222800D02*
X20500D01*
X15500Y220500D02*
X19900D01*
X15500Y220400D02*
X19500D01*
X15500Y220300D02*
X19200D01*
X15500Y220200D02*
X19100D01*
X15400Y220100D02*
X19000D01*
X15400Y220000D02*
X18900D01*
X15400Y219900D02*
X18800D01*
X15400Y219600D02*
X18700D01*
X15500Y219500D02*
X18600D01*
X27500Y228500D02*
X27800D01*
X31400D02*
X31700D01*
X36400D02*
X37300D01*
X39500D02*
X40400D01*
X21700Y228600D02*
X22000D01*
X24700D02*
X25500D01*
X27400D02*
X27700D01*
X31300D02*
X31700D01*
X36700D02*
X37200D01*
X24900Y228700D02*
X25900D01*
X21700D02*
X22000D01*
X27400D02*
X27700D01*
X31300D02*
X31600D01*
X36700D02*
X37100D01*
X40200D02*
X41100D01*
X36600Y228800D02*
X37000D01*
X40500D02*
X41500D01*
X42300D02*
X42500D01*
X43100D02*
X43400D01*
X21900Y228900D02*
X22200D01*
X25600D02*
X26600D01*
X27300D02*
X27600D01*
X31100D02*
X31400D01*
X36600D02*
X36900D01*
X40900D02*
X41800D01*
X21900Y229000D02*
X22300D01*
X22900Y230300D02*
X23200D01*
X25600D02*
X25900D01*
X26400D02*
X26700D01*
X47900Y231300D02*
X48400D01*
X25700Y230500D02*
X26000D01*
X26300D02*
X26600D01*
X29800D02*
X29900D01*
X68600Y230600D02*
X69000D01*
X34500Y230500D02*
X35000D01*
X50200D02*
X52700D01*
X68400D02*
X68800D01*
X77500D02*
X78600D01*
X32300Y230600D02*
X33500D01*
X34500D02*
X34800D01*
X50200D02*
X52100D01*
X83900Y236800D02*
X84300D01*
X23100Y230600D02*
X23400D01*
X25800D02*
X26100D01*
X26200D02*
X26500D01*
X69900Y231100D02*
X70300D01*
X25500Y230200D02*
X25800D01*
X26500D02*
X26800D01*
X30700D02*
X31800D01*
X47900Y231200D02*
X48300D01*
X22300Y229500D02*
X22600D01*
X25100D02*
X25400D01*
X25600D02*
X26600D01*
X34900Y230200D02*
X35400D01*
X21800Y228800D02*
X22100D01*
X25300D02*
X26200D01*
X27300D02*
X27600D01*
X31200D02*
X31500D01*
X26000Y229000D02*
X27000D01*
X27200D02*
X27500D01*
X31000D02*
X31400D01*
X36500D02*
X36800D01*
X22000Y229100D02*
X22300D01*
X25000D02*
X25200D01*
X26400D02*
X27400D01*
X30900D02*
X31300D01*
X36400D02*
X36700D01*
X41600D02*
X42500D01*
X25000Y229200D02*
X25500D01*
X22100D02*
X22400D01*
X41200Y229000D02*
X42500D01*
X43000D02*
X43300D01*
X44500D02*
X44800D01*
X49000D02*
X61700D01*
X64700D02*
X65100D01*
X73600D02*
X73900D01*
X75200D02*
X76000D01*
X77500D02*
X78200D01*
X79000D02*
X79500D01*
X87200D02*
X88900D01*
X89100D02*
X89800D01*
X91500D02*
X91900D01*
X93600D02*
X93800D01*
X42900Y229100D02*
X43200D01*
X44500D02*
X44800D01*
X49400D02*
X61100D01*
X64900D02*
X65300D01*
X73600D02*
X74200D01*
X75200D02*
X76000D01*
X77500D02*
X78200D01*
X78900D02*
X79500D01*
X80300D02*
X80700D01*
X87500D02*
X88900D01*
X89200D02*
X89900D01*
X91500D02*
X91800D01*
X93400D02*
X93700D01*
X26700Y229200D02*
X27400D01*
X30900D02*
X31200D01*
X36400D02*
X36700D01*
X41900D02*
X42400D01*
X42900D02*
X43200D01*
X44500D02*
X44700D01*
X50200D02*
X60500D01*
X65200D02*
X65600D01*
X73600D02*
X74400D01*
X75200D02*
X76000D01*
X77500D02*
X78200D01*
X78800D02*
X79600D01*
X22200Y229300D02*
X22500D01*
X25000D02*
X25900D01*
X27100D02*
X27300D01*
X30800D02*
X31100D01*
X36300D02*
X36600D01*
X22200Y229400D02*
X22500D01*
X42300Y229300D02*
X42400D01*
X42900D02*
X43500D01*
X44500D02*
X44700D01*
X50200D02*
X59900D01*
X65400D02*
X65800D01*
X73600D02*
X74700D01*
X75200D02*
X76000D01*
X77500D02*
X78200D01*
X78800D02*
X79600D01*
X80300D02*
X81000D01*
X88100D02*
X88900D01*
X89200D02*
X90000D01*
X93200D02*
X93500D01*
X80300Y229200D02*
X80900D01*
X87800D02*
X88900D01*
X89200D02*
X89900D01*
X93300D02*
X93600D01*
X25000Y229400D02*
X26200D01*
X30700D02*
X31000D01*
X36300D02*
X36600D01*
X43000D02*
X43900D01*
X44400D02*
X44700D01*
X50200D02*
X59300D01*
X65700D02*
X66100D01*
X73600D02*
X75000D01*
X75200D02*
X76000D01*
X77500D02*
X78200D01*
X78700D02*
X79700D01*
X80300D02*
X81000D01*
X88300D02*
X88800D01*
X89300D02*
X90000D01*
X93100D02*
X93300D01*
X36200Y229500D02*
X36500D01*
X43200D02*
X44200D01*
X44400D02*
X44700D01*
X50200D02*
X58700D01*
X65900D02*
X66300D01*
X73800D02*
X76000D01*
X77500D02*
X78200D01*
X78600D02*
X79700D01*
X22400Y229600D02*
X22700D01*
X25200D02*
X25500D01*
X26000D02*
X26900D01*
X30600D02*
X30900D01*
X36200D02*
X36500D01*
X43600D02*
X44700D01*
X50200D02*
X58100D01*
X66200D02*
X66600D01*
X74000D02*
X76000D01*
X77500D02*
X78200D01*
X78500D02*
X79800D01*
X80300D02*
X81000D01*
X88300D02*
X88800D01*
X89300D02*
X89900D01*
X22400Y229700D02*
X22800D01*
X92900Y229600D02*
X93100D01*
X25200Y229700D02*
X25500D01*
X26300D02*
X27100D01*
X30500D02*
X30800D01*
X35800D02*
X35900D01*
X36000D02*
X36400D01*
X43900D02*
X44700D01*
X50200D02*
X57500D01*
X66400D02*
X66800D01*
X74300D02*
X76000D01*
X77500D02*
X78200D01*
X78400D02*
X79800D01*
X80300D02*
X81000D01*
X88300D02*
X88700D01*
X89400D02*
X89800D01*
X22500Y229800D02*
X22800D01*
X92800Y229700D02*
X93000D01*
X25300Y229800D02*
X25600D01*
X26700D02*
X27000D01*
X30400D02*
X30700D01*
X35600D02*
X36300D01*
X44300D02*
X44500D01*
X50200D02*
X56900D01*
X66600D02*
X67100D01*
X74600D02*
X76000D01*
X77500D02*
X78200D01*
X78300D02*
X79200D01*
X79300D02*
X79900D01*
X80300D02*
X81000D01*
X88200D02*
X88700D01*
X89400D02*
X89700D01*
X22600Y229900D02*
X22900D01*
X92700Y229800D02*
X92900D01*
X80300Y229500D02*
X81000D01*
X88300D02*
X88800D01*
X89300D02*
X90000D01*
X93000D02*
X93200D01*
X22700Y230000D02*
X23000D01*
X25400D02*
X25700D01*
X26600D02*
X26900D01*
X30300D02*
X30900D01*
X35300D02*
X36000D01*
X50200D02*
X55700D01*
X67100D02*
X67600D01*
X75100D02*
X76000D01*
X77500D02*
X79000D01*
X79400D02*
X80000D01*
X80300D02*
X81000D01*
X88200D02*
X88700D01*
X22700Y230100D02*
X23100D01*
X92500Y230000D02*
X92700D01*
X25500Y230100D02*
X25800D01*
X26500D02*
X26800D01*
X30300D02*
X31300D01*
X35100D02*
X35600D01*
X50200D02*
X55100D01*
X67400D02*
X67800D01*
X75400D02*
X76000D01*
X77500D02*
X79000D01*
X79500D02*
X80000D01*
X80300D02*
X81000D01*
X88200D02*
X88600D01*
X22800Y230200D02*
X23100D01*
X92400Y230100D02*
X92600D01*
X50200Y230200D02*
X54500D01*
X67600D02*
X68000D01*
X75600D02*
X76000D01*
X77500D02*
X78900D01*
X79500D02*
X80100D01*
X80300D02*
X81000D01*
X88100D02*
X88600D01*
X92300D02*
X92500D01*
X34800Y230300D02*
X35300D01*
X50200D02*
X53900D01*
X67900D02*
X68300D01*
X77500D02*
X78800D01*
X79600D02*
X80100D01*
X80300D02*
X81000D01*
X88100D02*
X88600D01*
X92100D02*
X92400D01*
X23000Y230400D02*
X23300D01*
X25600D02*
X25900D01*
X26300D02*
X26700D01*
X31500D02*
X32600D01*
X34400D02*
X35100D01*
X50200D02*
X53300D01*
X68100D02*
X68500D01*
X77500D02*
X78700D01*
X79600D02*
X80200D01*
X80300D02*
X81000D01*
X88100D02*
X88500D01*
X23000Y230500D02*
X23300D01*
X92000Y230400D02*
X92300D01*
X79700Y230500D02*
X80200D01*
X80300D02*
X81000D01*
X88000D02*
X88500D01*
X91900D02*
X92200D01*
X77500Y230600D02*
X78600D01*
X79700D02*
X81000D01*
X88000D02*
X88500D01*
X91800D02*
X92000D01*
X25300Y229900D02*
X25600D01*
X26700D02*
X27000D01*
X30300D02*
X30700D01*
X35400D02*
X36200D01*
X50200D02*
X56300D01*
X66900D02*
X67300D01*
X74800D02*
X76000D01*
X77500D02*
X78200D01*
X78300D02*
X79100D01*
X79400D02*
X79900D01*
X80300D02*
X81000D01*
X88200D02*
X88700D01*
X89400D02*
X89600D01*
X92600D02*
X92800D01*
X23200Y230700D02*
X23500D01*
X25800D02*
X26500D01*
X29700D02*
X30400D01*
X32800D02*
X34000D01*
X34200D02*
X34800D01*
X49500D02*
X51500D01*
X68900D02*
X69300D01*
X77500D02*
X78500D01*
X79800D02*
X81000D01*
X88000D02*
X88500D01*
X23200Y230800D02*
X23600D01*
X91700Y230700D02*
X91900D01*
X25900Y230800D02*
X26400D01*
X29600D02*
X30800D01*
X33200D02*
X34700D01*
X48800D02*
X50900D01*
X69100D02*
X69500D01*
X77500D02*
X78400D01*
X79800D02*
X81000D01*
X88000D02*
X88400D01*
X23300Y230900D02*
X23600D01*
X91600Y230800D02*
X91800D01*
X25900Y230900D02*
X26300D01*
X29500D02*
X29800D01*
X30200D02*
X31100D01*
X33700D02*
X34500D01*
X48300D02*
X50300D01*
X69400D02*
X69800D01*
X77600D02*
X78300D01*
X79900D02*
X81000D01*
X87900D02*
X88400D01*
X23400Y231000D02*
X23700D01*
X91500Y230900D02*
X91700D01*
X26000Y231000D02*
X26300D01*
X29400D02*
X29800D01*
X30600D02*
X31500D01*
X48000D02*
X49400D01*
X69600D02*
X70000D01*
X77800D02*
X78200D01*
X79900D02*
X81000D01*
X87900D02*
X88300D01*
X23500Y231100D02*
X23800D01*
X26100D02*
X26200D01*
X91400Y231000D02*
X91600D01*
X29400Y231100D02*
X29700D01*
X30900D02*
X31800D01*
X47900D02*
X48700D01*
X84200Y236900D02*
X84600D01*
X23500Y231200D02*
X23900D01*
X29300D02*
X29600D01*
X31200D02*
X32200D01*
X84400Y237000D02*
X84800D01*
X70100Y231200D02*
X70500D01*
X80000D02*
X81000D01*
X87900D02*
X88100D01*
X91200D02*
X91400D01*
X23600Y231300D02*
X23900D01*
X29200D02*
X29500D01*
X31600D02*
X32500D01*
X84700Y237100D02*
X85000D01*
X70300Y231300D02*
X70800D01*
X80100D02*
X81000D01*
X87800D02*
X88000D01*
X91100D02*
X91300D01*
X29100Y231500D02*
X29400D01*
X32300D02*
X32900D01*
X48100D02*
X49100D01*
X70800D02*
X71300D01*
X80200D02*
X81000D01*
X23800Y231600D02*
X24100D01*
X90800Y231500D02*
X91100D01*
X29000Y231600D02*
X29300D01*
X32600D02*
X33500D01*
X48400D02*
X49400D01*
X71100D02*
X71500D01*
X80200D02*
X81000D01*
X23900Y231700D02*
X24200D01*
X28900D02*
X29200D01*
X32600D02*
X33700D01*
X90700Y231600D02*
X91000D01*
X23700Y231400D02*
X24000D01*
X29100D02*
X29500D01*
X31900D02*
X32800D01*
X47900D02*
X48800D01*
X70600D02*
X71000D01*
X80100D02*
X81000D01*
X87800D02*
X87900D01*
X23700Y231500D02*
X24100D01*
X91000Y231400D02*
X91200D01*
X78000Y231100D02*
X78200D01*
X80000D02*
X81000D01*
X87900D02*
X88200D01*
X91300D02*
X91500D01*
X48800Y231700D02*
X49600D01*
X71300D02*
X71700D01*
X80300D02*
X81000D01*
X90600D02*
X90900D01*
X24000Y231800D02*
X24300D01*
X28800D02*
X29100D01*
X33000D02*
X33700D01*
X49100D02*
X49900D01*
X71600D02*
X72000D01*
X80300D02*
X81000D01*
X24000Y231900D02*
X24400D01*
X90500Y231800D02*
X90700D01*
X28700Y231900D02*
X29100D01*
X33500D02*
X33800D01*
X49300D02*
X50100D01*
X71800D02*
X72200D01*
X80400D02*
X81000D01*
X24100Y232000D02*
X24400D01*
X90400Y231900D02*
X90600D01*
X28700Y232000D02*
X29000D01*
X33500D02*
X33900D01*
X49600D02*
X50400D01*
X72100D02*
X72500D01*
X80400D02*
X81000D01*
X24200Y232100D02*
X24500D01*
X28600D02*
X28900D01*
X33600D02*
X34600D01*
X90300Y232000D02*
X90500D01*
X49800Y232100D02*
X50600D01*
X72300D02*
X72700D01*
X80700D02*
X81000D01*
X90200D02*
X90400D01*
X24300Y232200D02*
X24600D01*
X28500D02*
X28800D01*
X33600D02*
X34400D01*
X50100D02*
X50800D01*
X72600D02*
X73000D01*
X24300Y232300D02*
X24600D01*
X90100Y232200D02*
X90300D01*
X28400Y232300D02*
X28800D01*
X33400D02*
X34100D01*
X50200D02*
X51100D01*
X72800D02*
X73200D01*
X24400Y232400D02*
X24700D01*
X28400D02*
X28700D01*
X90000Y232300D02*
X90200D01*
X33100Y232400D02*
X33900D01*
X50200D02*
X51300D01*
X73100D02*
X73500D01*
X89900D02*
X90100D01*
X24500Y232500D02*
X24800D01*
X28300D02*
X28600D01*
X32800D02*
X33600D01*
X50200D02*
X51500D01*
X73300D02*
X73700D01*
X24500Y232600D02*
X25300D01*
X89800Y232500D02*
X90000D01*
X28200Y232600D02*
X28500D01*
X32500D02*
X33300D01*
X50200D02*
X51700D01*
X73600D02*
X74000D01*
X24600Y232700D02*
X25500D01*
X89700Y232600D02*
X89900D01*
X28100Y232800D02*
X28400D01*
X32000D02*
X32700D01*
X50200D02*
X52200D01*
X74000D02*
X74500D01*
X24800Y232900D02*
X25000D01*
X89400Y232800D02*
X89700D01*
X28100Y232700D02*
X28500D01*
X32200D02*
X33000D01*
X50200D02*
X51900D01*
X73800D02*
X74200D01*
X24700Y232800D02*
X25500D01*
X89600Y232700D02*
X89800D01*
X25300Y232900D02*
X25600D01*
X28000D02*
X28300D01*
X31700D02*
X32400D01*
X50200D02*
X52400D01*
X74300D02*
X74700D01*
X25300Y233000D02*
X25600D01*
X27900D02*
X28200D01*
X89300Y232900D02*
X89600D01*
X31400Y233000D02*
X32200D01*
X50200D02*
X52600D01*
X74500D02*
X75000D01*
X89200D02*
X89500D01*
X25300Y233100D02*
X25800D01*
X27800D02*
X28200D01*
X31100D02*
X31900D01*
X50200D02*
X52800D01*
X74800D02*
X75200D01*
X25300Y233200D02*
X26100D01*
X89100Y233100D02*
X89300D01*
X27800Y233200D02*
X28100D01*
X30800D02*
X31600D01*
X38800D02*
X40000D01*
X50200D02*
X53000D01*
X75000D02*
X75400D01*
X25600Y233300D02*
X26300D01*
X89000Y233200D02*
X89200D01*
X27700Y233300D02*
X28000D01*
X30600D02*
X31300D01*
X38500D02*
X40300D01*
X50200D02*
X53200D01*
X75300D02*
X75700D01*
X25900Y233400D02*
X26600D01*
X88900Y233300D02*
X89100D01*
X27700Y233400D02*
X28000D01*
X30300D02*
X31000D01*
X38100D02*
X39100D01*
X39700D02*
X40700D01*
X50200D02*
X53400D01*
X75500D02*
X75900D01*
X26100Y233500D02*
X26900D01*
X88800Y233400D02*
X89000D01*
X27800Y233500D02*
X28000D01*
X30000D02*
X30800D01*
X37800D02*
X38700D01*
X40100D02*
X41200D01*
X50200D02*
X53600D01*
X75800D02*
X76200D01*
X26400Y233600D02*
X27200D01*
X88700Y233500D02*
X88900D01*
X27700Y233600D02*
X28000D01*
X29700D02*
X30500D01*
X37400D02*
X38300D01*
X40500D02*
X41700D01*
X50200D02*
X53800D01*
X76000D02*
X76400D01*
X26700Y233700D02*
X28000D01*
X88600Y233600D02*
X88800D01*
X29400Y233700D02*
X30200D01*
X37100D02*
X38000D01*
X40900D02*
X42200D01*
X50200D02*
X54000D01*
X76300D02*
X76700D01*
X27000Y233800D02*
X27900D01*
X29200D02*
X29900D01*
X36800D02*
X37700D01*
X88500Y233700D02*
X88700D01*
X41400Y233800D02*
X42800D01*
X50200D02*
X54200D01*
X76500D02*
X76900D01*
X88400D02*
X88600D01*
X28900Y233900D02*
X29600D01*
X36400D02*
X37300D01*
X41900D02*
X43300D01*
X50200D02*
X54300D01*
X76800D02*
X77200D01*
X28600Y234000D02*
X29400D01*
X36100D02*
X37000D01*
X88300Y233900D02*
X88500D01*
X28300Y234100D02*
X29100D01*
X35700D02*
X36600D01*
X43000D02*
X44400D01*
X50200D02*
X54500D01*
X77300D02*
X77700D01*
X28000Y234200D02*
X28800D01*
X35400D02*
X36300D01*
X88000Y234100D02*
X88300D01*
X42400Y234000D02*
X43900D01*
X50200D02*
X54400D01*
X77000D02*
X77400D01*
X88100D02*
X88400D01*
X43500Y234200D02*
X45000D01*
X50200D02*
X54500D01*
X77500D02*
X77900D01*
X87900D02*
X88200D01*
X27800Y234300D02*
X28500D01*
X35100D02*
X36000D01*
X44100D02*
X45600D01*
X50200D02*
X54600D01*
X77700D02*
X78200D01*
X27500Y234400D02*
X28200D01*
X34800D02*
X35600D01*
X87800Y234300D02*
X88000D01*
X44600Y234400D02*
X46200D01*
X50200D02*
X54600D01*
X78000D02*
X78400D01*
X87700D02*
X87900D01*
X27200Y234500D02*
X28000D01*
X34400D02*
X35300D01*
X45200D02*
X46800D01*
X50200D02*
X54600D01*
X78200D02*
X78700D01*
X26900Y234600D02*
X27700D01*
X34100D02*
X35000D01*
X87600Y234500D02*
X87800D01*
X45800Y234600D02*
X47300D01*
X50200D02*
X54600D01*
X78500D02*
X78900D01*
X87500D02*
X87700D01*
X26600Y234700D02*
X27400D01*
X33800D02*
X34700D01*
X46300D02*
X47900D01*
X50200D02*
X54500D01*
X78700D02*
X79200D01*
X26400Y234800D02*
X27100D01*
X33500D02*
X34300D01*
X87400Y234700D02*
X87600D01*
X46900Y234800D02*
X48500D01*
X50200D02*
X54400D01*
X79000D02*
X79400D01*
X87300D02*
X87500D01*
X26100Y234900D02*
X26800D01*
X33100D02*
X34000D01*
X47400D02*
X49200D01*
X50200D02*
X54300D01*
X79200D02*
X79700D01*
X25800Y235000D02*
X26600D01*
X32800D02*
X33700D01*
X87200Y234900D02*
X87400D01*
X48000Y235000D02*
X50000D01*
X50200D02*
X54200D01*
X79500D02*
X79900D01*
X87100D02*
X87300D01*
X25500Y235100D02*
X26300D01*
X32500D02*
X33300D01*
X48600D02*
X53900D01*
X79700D02*
X80200D01*
X25200Y235200D02*
X26000D01*
X87000Y235100D02*
X87200D01*
X32200Y235200D02*
X33000D01*
X49200D02*
X53700D01*
X80000D02*
X80400D01*
X86800D02*
X87100D01*
X24900Y235300D02*
X25700D01*
X31900D02*
X32700D01*
X50000D02*
X53300D01*
X80200D02*
X80700D01*
X24700Y235400D02*
X25400D01*
X86700Y235300D02*
X87000D01*
X31600Y235400D02*
X32400D01*
X51100D02*
X52500D01*
X80500D02*
X80900D01*
X86600D02*
X86900D01*
X24400Y235500D02*
X25100D01*
X31300D02*
X32100D01*
X80700D02*
X81200D01*
X86500D02*
X86700D01*
X24100Y235600D02*
X24900D01*
X31000D02*
X31800D01*
X81000D02*
X81400D01*
X86400D02*
X86600D01*
X23800Y235700D02*
X24600D01*
X30600D02*
X31500D01*
X81200D02*
X81600D01*
X86300D02*
X86500D01*
X23500Y235800D02*
X24300D01*
X30300D02*
X31200D01*
X81500D02*
X81900D01*
X86200D02*
X86400D01*
X23200Y235900D02*
X24000D01*
X30000D02*
X30800D01*
X81700D02*
X82100D01*
X86100D02*
X86300D01*
X23000Y236000D02*
X23700D01*
X29600D02*
X30500D01*
X81900D02*
X82400D01*
X86000D02*
X86200D01*
X22700Y236100D02*
X23400D01*
X29300D02*
X30200D01*
X82200D02*
X82600D01*
X85900D02*
X86100D01*
X22400Y236200D02*
X23200D01*
X29000D02*
X29900D01*
X82400D02*
X82900D01*
X85800D02*
X86000D01*
X22100Y236300D02*
X22900D01*
X28600D02*
X29500D01*
X82700D02*
X83100D01*
X85700D02*
X85900D01*
X21900Y236400D02*
X22600D01*
X28300D02*
X29200D01*
X82900D02*
X83300D01*
X85500D02*
X85800D01*
X21600Y236500D02*
X22300D01*
X28000D02*
X28900D01*
X83200D02*
X83600D01*
X85400D02*
X85700D01*
X21300Y236600D02*
X22100D01*
X27600D02*
X28500D01*
X83400D02*
X83800D01*
X85300D02*
X85600D01*
X21000Y236700D02*
X21800D01*
X27300D02*
X28200D01*
X83700D02*
X84100D01*
X20700Y236800D02*
X21500D01*
X85200Y236700D02*
X85500D01*
X26900Y236800D02*
X27800D01*
X85000Y236900D02*
X85200D01*
X84900Y237000D02*
X85100D01*
Y236800D02*
X85300D01*
X19800Y239000D02*
X20600D01*
X19400Y239100D02*
X20300D01*
X19100Y239200D02*
X20000D01*
X21100Y238600D02*
X21900D01*
X21700Y238400D02*
X22600D01*
X22400Y238200D02*
X23200D01*
X23000Y238000D02*
X23800D01*
X23600Y237800D02*
X24500D01*
X24300Y237600D02*
X25200D01*
X18300Y239300D02*
X19700D01*
X19600Y237200D02*
X20400D01*
X19400Y237300D02*
X20100D01*
X25300D02*
X26200D01*
X18600Y239400D02*
X19300D01*
X19100Y237400D02*
X19800D01*
X18800Y237500D02*
X19600D01*
X24600D02*
X25500D01*
X18000Y239200D02*
X18900D01*
X18500Y237600D02*
X19300D01*
X18200Y237700D02*
X19000D01*
X23900D02*
X24800D01*
X17800Y239100D02*
X18500D01*
X18000Y237800D02*
X18700D01*
X17700Y237900D02*
X18400D01*
X23300D02*
X24200D01*
X17600Y239000D02*
X18200D01*
X17400Y238000D02*
X18200D01*
X22700Y238100D02*
X23500D01*
X20100Y238900D02*
X21000D01*
X17100Y238100D02*
X17900D01*
X16900Y238200D02*
X17600D01*
X22000Y238300D02*
X22900D01*
X17400Y238900D02*
X17900D01*
X16700Y238300D02*
X17300D01*
X16800Y238500D02*
X17300D01*
X21400D02*
X22300D01*
X20400Y238800D02*
X21300D01*
X16700Y238400D02*
X17100D01*
Y238700D02*
X17600D01*
X20700D02*
X21600D01*
X17300Y238800D02*
X17700D01*
X17000Y238600D02*
X17400D01*
X15500Y220700D02*
X25500D01*
X28300D02*
X33500D01*
X50400D02*
X50500D01*
X55600D02*
X56300D01*
X57600D02*
X58100D01*
X68200D02*
X68400D01*
X82200D02*
X82400D01*
X87500D02*
X87600D01*
X15600Y220800D02*
X25500D01*
X28300D02*
X33200D01*
X50400D02*
X50500D01*
X55600D02*
X56300D01*
X57600D02*
X58400D01*
X68200D02*
X68400D01*
X82200D02*
X82400D01*
X87500D02*
X87600D01*
X92800D02*
X93100D01*
X95700D02*
X97400D01*
X98900D02*
X99600D01*
X102400D02*
X102600D01*
X15600Y220900D02*
X25500D01*
X28200D02*
X32800D01*
X50400D02*
X50500D01*
X55600D02*
X56300D01*
X57600D02*
X58700D01*
X68200D02*
X68400D01*
X82200D02*
X82400D01*
X87500D02*
X87600D01*
X92700D02*
X93000D01*
X95600D02*
X97500D01*
X98900D02*
X99600D01*
X102300D02*
X102500D01*
X15600Y221000D02*
X25500D01*
X28300D02*
X32500D01*
X50400D02*
X50500D01*
X55600D02*
X56300D01*
X57600D02*
X58900D01*
X68200D02*
X68500D01*
X82200D02*
X82400D01*
X87500D02*
X87600D01*
X92600D02*
X92900D01*
X95500D02*
X97500D01*
X99000D02*
X99600D01*
X102200D02*
X102400D01*
X15700Y221100D02*
X25500D01*
X28700D02*
X32000D01*
X50400D02*
X50500D01*
X55600D02*
X56300D01*
X57700D02*
X59200D01*
X68300D02*
X68800D01*
X82200D02*
X82400D01*
X87500D02*
X87600D01*
X92500D02*
X92700D01*
X95400D02*
X97500D01*
X99000D02*
X99500D01*
X15700Y221200D02*
X25500D01*
X102100Y221100D02*
X102300D01*
X93000Y220700D02*
X93200D01*
X95300D02*
X97300D01*
X98900D02*
X99600D01*
X102500D02*
X102800D01*
X29300Y221200D02*
X31200D01*
X50400D02*
X50500D01*
X55600D02*
X56300D01*
X58000D02*
X59500D01*
X68600D02*
X69100D01*
X82200D02*
X82400D01*
X87500D02*
X87600D01*
X92400D02*
X92600D01*
X15800Y221300D02*
X25500D01*
X50400D02*
X50500D01*
X55600D02*
X56300D01*
X58200D02*
X59700D01*
X68900D02*
X69400D01*
X82200D02*
X82400D01*
X87500D02*
X87600D01*
X92300D02*
X92500D01*
X95300D02*
X96000D01*
X96800D02*
X97600D01*
X99100D02*
X99300D01*
X15800Y221400D02*
X25500D01*
X101900Y221300D02*
X102100D01*
X50400Y221400D02*
X50500D01*
X55600D02*
X56300D01*
X58500D02*
X60000D01*
X69200D02*
X69700D01*
X82200D02*
X82400D01*
X87500D02*
X87600D01*
X92200D02*
X92400D01*
X95200D02*
X95800D01*
X96900D02*
X97600D01*
X99100D02*
X99200D01*
X15900Y221500D02*
X25500D01*
X101800Y221400D02*
X102000D01*
X50400Y221500D02*
X50500D01*
X55600D02*
X56300D01*
X58800D02*
X60300D01*
X69500D02*
X70000D01*
X82200D02*
X82400D01*
X87500D02*
X87600D01*
X92100D02*
X92300D01*
X95200D02*
X95700D01*
X96900D02*
X97600D01*
X16000Y221600D02*
X25500D01*
X101700Y221500D02*
X101900D01*
X50400Y221600D02*
X50500D01*
X55600D02*
X56300D01*
X59000D02*
X60400D01*
X69800D02*
X70200D01*
X82200D02*
X82400D01*
X87500D02*
X87600D01*
X92000D02*
X92200D01*
X95100D02*
X95700D01*
X97000D02*
X97600D01*
X16100Y221700D02*
X25500D01*
X101600Y221600D02*
X101800D01*
X50400Y221700D02*
X50500D01*
X55600D02*
X56300D01*
X59300D02*
X60400D01*
X70100D02*
X70500D01*
X82200D02*
X82400D01*
X87500D02*
X87600D01*
X91900D02*
X92100D01*
X95100D02*
X95600D01*
X97000D02*
X97600D01*
X16200Y221800D02*
X25300D01*
X101400Y221700D02*
X101700D01*
X50400Y221800D02*
X50500D01*
X55600D02*
X56300D01*
X59300D02*
X60400D01*
X70400D02*
X70800D01*
X82200D02*
X82400D01*
X87500D02*
X87600D01*
X91800D02*
X92000D01*
X95000D02*
X95500D01*
X97000D02*
X97600D01*
X16300Y221900D02*
X25000D01*
X101300Y221800D02*
X101600D01*
X50400Y221900D02*
X50500D01*
X55600D02*
X56300D01*
X59200D02*
X60400D01*
X70600D02*
X71100D01*
X82200D02*
X82400D01*
X87500D02*
X87600D01*
X91600D02*
X91900D01*
X95000D02*
X95500D01*
X97000D02*
X97600D01*
X16400Y222000D02*
X24600D01*
X101200Y221900D02*
X101500D01*
X50400Y222000D02*
X50500D01*
X55600D02*
X56300D01*
X59100D02*
X60300D01*
X70900D02*
X71400D01*
X82200D02*
X82400D01*
X87500D02*
X87600D01*
X91500D02*
X91800D01*
X94900D02*
X95400D01*
X97000D02*
X97600D01*
X16500Y222100D02*
X24300D01*
X101100Y222000D02*
X101300D01*
X50400Y222100D02*
X50500D01*
X55600D02*
X56300D01*
X58900D02*
X60200D01*
X61600D02*
X61900D01*
X71200D02*
X71700D01*
X82200D02*
X82400D01*
X87500D02*
X87600D01*
X91400D02*
X91700D01*
X94900D02*
X95400D01*
X97000D02*
X97600D01*
X16600Y222200D02*
X23800D01*
X101000Y222100D02*
X101200D01*
X50400Y222200D02*
X50500D01*
X55600D02*
X56300D01*
X58800D02*
X60100D01*
X61600D02*
X62100D01*
X71500D02*
X72000D01*
X82200D02*
X82400D01*
X87500D02*
X87600D01*
X91300D02*
X91500D01*
X94900D02*
X95400D01*
X97000D02*
X97600D01*
X16800Y222300D02*
X23400D01*
X100900Y222200D02*
X101100D01*
X50400Y222300D02*
X50500D01*
X55600D02*
X56300D01*
X58700D02*
X59900D01*
X61600D02*
X62400D01*
X71800D02*
X72300D01*
X82200D02*
X82400D01*
X87500D02*
X87600D01*
X91200D02*
X91400D01*
X97000D02*
X97500D01*
X17000Y222400D02*
X22900D01*
X100800Y222300D02*
X101000D01*
X95400Y221200D02*
X96100D01*
X96700D02*
X97600D01*
X99000D02*
X99400D01*
X102000D02*
X102200D01*
X50400Y222400D02*
X50500D01*
X55600D02*
X56300D01*
X58600D02*
X59800D01*
X61600D02*
X62700D01*
X72100D02*
X72600D01*
X82200D02*
X82400D01*
X87500D02*
X87600D01*
X91100D02*
X91300D01*
X97000D02*
X97500D01*
X17200Y222500D02*
X22400D01*
X100700Y222400D02*
X100900D01*
X50400Y222500D02*
X50500D01*
X55600D02*
X56300D01*
X58400D02*
X59700D01*
X61600D02*
X62900D01*
X72400D02*
X72900D01*
X82200D02*
X82400D01*
X87500D02*
X87600D01*
X91000D02*
X91200D01*
X96900D02*
X97500D01*
X17500Y222600D02*
X21900D01*
X100600Y222500D02*
X100800D01*
X50400Y222600D02*
X50500D01*
X55600D02*
X56300D01*
X58300D02*
X59600D01*
X61700D02*
X63200D01*
X72700D02*
X73200D01*
X82200D02*
X82400D01*
X87500D02*
X87600D01*
X90900D02*
X91100D01*
X96900D02*
X97400D01*
X17800Y222700D02*
X21300D01*
X50400D02*
X50500D01*
X55600D02*
X56300D01*
X100500Y222600D02*
X100700D01*
X58200Y222700D02*
X59400D01*
X62000D02*
X63500D01*
X73000D02*
X73400D01*
X82200D02*
X82400D01*
X87500D02*
X87600D01*
X90800D02*
X91000D01*
X96800D02*
X97400D01*
X100400D02*
X100600D01*
X62300Y222800D02*
X63800D01*
X73300D02*
X73700D01*
X82200D02*
X82400D01*
X87500D02*
X87600D01*
X50400Y222900D02*
X50500D01*
X56100D02*
X56300D01*
X57900D02*
X59200D01*
X62500D02*
X64000D01*
X73600D02*
X74000D01*
X82200D02*
X82400D01*
X87500D02*
X87600D01*
X90600D02*
X90800D01*
X93400D02*
X93700D01*
X96700D02*
X97300D01*
X50400Y223000D02*
X50500D01*
X57800D02*
X59000D01*
X100100Y222900D02*
X100400D01*
X62800Y223000D02*
X64000D01*
X73800D02*
X74300D01*
X82200D02*
X82400D01*
X87500D02*
X87600D01*
X90500D02*
X90700D01*
X93300D02*
X93800D01*
X96600D02*
X97200D01*
X100000D02*
X100300D01*
X50400Y223100D02*
X50600D01*
X57700D02*
X58900D01*
X63100D02*
X64000D01*
X74100D02*
X74600D01*
X82200D02*
X82400D01*
X87500D02*
X87600D01*
X90300D02*
X90600D01*
X93200D02*
X93800D01*
X96500D02*
X97200D01*
X50400Y223200D02*
X50800D01*
X99900Y223100D02*
X100200D01*
X55700Y223200D02*
X56100D01*
X57700D02*
X58800D01*
X63200D02*
X64000D01*
X74400D02*
X74900D01*
X82200D02*
X82400D01*
X87500D02*
X87600D01*
X90200D02*
X90500D01*
X93100D02*
X93800D01*
X96400D02*
X97100D01*
X50600Y223300D02*
X51000D01*
X99800Y223200D02*
X100000D01*
X55600Y223300D02*
X56200D01*
X57700D02*
X58700D01*
X63200D02*
X64000D01*
X74700D02*
X75200D01*
X82200D02*
X82400D01*
X87500D02*
X87600D01*
X90100D02*
X90400D01*
X93000D02*
X93900D01*
X96300D02*
X97000D01*
X50800Y223400D02*
X51300D01*
X99700Y223300D02*
X99900D01*
X90700Y222800D02*
X90900D01*
X93600D02*
X93700D01*
X96800D02*
X97400D01*
X100300D02*
X100500D01*
X61600Y224700D02*
X62400D01*
X63200D02*
X64000D01*
X66000D02*
X66600D01*
X67400D02*
X68100D01*
X78800D02*
X79300D01*
X82200D02*
X82400D01*
X87500D02*
X87600D01*
X88600D02*
X88800D01*
X92000D02*
X92200D01*
X93600D02*
X94400D01*
X54300Y224800D02*
X54700D01*
X98200Y224700D02*
X98400D01*
X61600Y224800D02*
X62600D01*
X63200D02*
X64000D01*
X66100D02*
X66700D01*
X67400D02*
X68100D01*
X79100D02*
X79600D01*
X82200D02*
X82400D01*
X87500D02*
X87600D01*
X88500D02*
X88700D01*
X93700D02*
X94400D01*
X54600Y224900D02*
X55000D01*
X98100Y224800D02*
X98300D01*
X61600Y224900D02*
X62900D01*
X63200D02*
X64000D01*
X66100D02*
X66800D01*
X67300D02*
X68100D01*
X79400D02*
X79800D01*
X82200D02*
X82400D01*
X87500D02*
X87600D01*
X88400D02*
X88600D01*
X93700D02*
X94400D01*
X54800Y225000D02*
X55200D01*
X98000Y224900D02*
X98200D01*
X61700Y225000D02*
X64000D01*
X66200D02*
X66800D01*
X67200D02*
X68100D01*
X69500D02*
X69700D01*
X79600D02*
X80100D01*
X82200D02*
X82400D01*
X87500D02*
X87600D01*
X88300D02*
X88500D01*
X93700D02*
X94500D01*
X55000Y225100D02*
X55500D01*
X62000D02*
X64000D01*
X66200D02*
X66900D01*
X97900Y225000D02*
X98100D01*
X67000Y225100D02*
X68100D01*
X69500D02*
X69900D01*
X79900D02*
X80400D01*
X82200D02*
X82400D01*
X87500D02*
X87600D01*
X88200D02*
X88400D01*
X93800D02*
X94500D01*
X97800D02*
X98000D01*
X44200Y225200D02*
X44700D01*
X55300D02*
X55700D01*
X62200D02*
X64000D01*
X66300D02*
X68100D01*
X69600D02*
X70200D01*
X80200D02*
X80700D01*
X82200D02*
X82400D01*
X87500D02*
X87600D01*
X44000Y225300D02*
X44900D01*
X55500D02*
X56000D01*
X62500D02*
X64000D01*
X66400D02*
X68100D01*
X69600D02*
X70200D01*
X80500D02*
X81000D01*
X82200D02*
X82400D01*
X87500D02*
X87600D01*
X88000D02*
X88200D01*
X90700D02*
X90900D01*
X93800D02*
X94600D01*
X97600D02*
X97800D01*
X43900Y225400D02*
X45100D01*
X55800D02*
X56200D01*
X62800D02*
X64000D01*
X66400D02*
X68100D01*
X69700D02*
X70300D01*
X80800D02*
X81300D01*
X82200D02*
X82400D01*
X87500D02*
X87600D01*
X87800D02*
X88100D01*
X90600D02*
X91000D01*
X93900D02*
X94600D01*
X43800Y225500D02*
X44200D01*
X97400Y225400D02*
X97700D01*
X88100Y225200D02*
X88300D01*
X90800D02*
X90900D01*
X93800D02*
X94500D01*
X97700D02*
X97900D01*
X44700Y225500D02*
X45200D01*
X56000D02*
X56400D01*
X63000D02*
X64000D01*
X66400D02*
X68100D01*
X69800D02*
X70400D01*
X81100D02*
X81600D01*
X82200D02*
X82400D01*
X87500D02*
X87600D01*
X43800Y225600D02*
X44100D01*
X44900D02*
X45200D01*
X56300D02*
X56700D01*
X63300D02*
X64000D01*
X66300D02*
X68100D01*
X69800D02*
X70400D01*
X81400D02*
X81900D01*
X82200D02*
X82400D01*
X87500D02*
X87900D01*
X90400D02*
X91000D01*
X94000D02*
X94400D01*
X43700Y225700D02*
X44000D01*
X45000D02*
X45300D01*
X56500D02*
X56900D01*
X97200Y225600D02*
X97500D01*
X63600Y225700D02*
X64000D01*
X66100D02*
X68100D01*
X69900D02*
X70500D01*
X81700D02*
X82400D01*
X43700Y225800D02*
X44000D01*
X45000D02*
X45300D01*
X28800Y225900D02*
X29800D01*
X43700D02*
X44000D01*
X45100D02*
X45300D01*
X28800Y225800D02*
X29200D01*
X87500Y225700D02*
X87700D01*
X90300D02*
X91100D01*
X94000D02*
X94300D01*
X97100D02*
X97300D01*
X56800Y225800D02*
X57200D01*
X63800D02*
X63900D01*
X66000D02*
X67200D01*
X67400D02*
X68100D01*
X69900D02*
X70500D01*
X71400D02*
X71800D01*
X82000D02*
X82400D01*
X87500D02*
X87600D01*
X90400D02*
X91100D01*
X94000D02*
X94200D01*
X97000D02*
X97200D01*
X57000Y225900D02*
X57400D01*
X65800D02*
X67100D01*
X67400D02*
X68100D01*
X70000D02*
X70600D01*
X71400D02*
X72100D01*
X82300D02*
X82400D01*
X90400D02*
X91100D01*
X96900D02*
X97100D01*
X28800Y226000D02*
X30400D01*
X43700D02*
X44000D01*
X45100D02*
X45300D01*
X57300D02*
X57700D01*
X65700D02*
X66900D01*
X67400D02*
X68100D01*
X70000D02*
X70600D01*
X71400D02*
X72200D01*
X90500D02*
X91200D01*
X28800Y226100D02*
X29100D01*
X29400D02*
X31100D01*
X43700D02*
X43900D01*
X96800Y226000D02*
X97000D01*
X45100Y226100D02*
X45400D01*
X57500D02*
X57900D01*
X65500D02*
X66800D01*
X67400D02*
X68100D01*
X70100D02*
X70700D01*
X71400D02*
X72200D01*
X90500D02*
X91200D01*
X96700D02*
X96900D01*
X87700Y225500D02*
X88000D01*
X90500D02*
X91000D01*
X93900D02*
X94600D01*
X97300D02*
X97600D01*
X55600Y223400D02*
X56300D01*
X57700D02*
X58900D01*
X61800D02*
X62000D01*
X63200D02*
X64000D01*
X65200D02*
X65400D01*
X75000D02*
X75500D01*
X82200D02*
X82400D01*
X87500D02*
X87600D01*
X90000D02*
X90200D01*
X92900D02*
X93900D01*
X95800D02*
X95900D01*
X96000D02*
X97000D01*
X51100Y223500D02*
X51500D01*
X99600Y223400D02*
X99800D01*
X55600Y223500D02*
X56300D01*
X57700D02*
X59200D01*
X61800D02*
X62300D01*
X63200D02*
X64000D01*
X65200D02*
X65600D01*
X75300D02*
X75800D01*
X82200D02*
X82400D01*
X87500D02*
X87600D01*
X89900D02*
X90100D01*
X92800D02*
X93900D01*
X95700D02*
X96900D01*
X51300Y223600D02*
X51800D01*
X99500Y223500D02*
X99700D01*
X55700Y223600D02*
X56300D01*
X57900D02*
X59400D01*
X61800D02*
X62600D01*
X63200D02*
X64000D01*
X65300D02*
X65900D01*
X75600D02*
X76100D01*
X82200D02*
X82400D01*
X87500D02*
X87600D01*
X89800D02*
X90000D01*
X92600D02*
X94000D01*
X95700D02*
X96800D01*
X51600Y223700D02*
X52000D01*
X99400Y223600D02*
X99600D01*
X55800Y223700D02*
X56300D01*
X58200D02*
X59700D01*
X61800D02*
X62800D01*
X63200D02*
X64000D01*
X65400D02*
X66000D01*
X75900D02*
X76400D01*
X82200D02*
X82400D01*
X87500D02*
X87600D01*
X89700D02*
X89900D01*
X92500D02*
X94000D01*
X95700D02*
X96700D01*
X51800Y223800D02*
X52300D01*
X99300Y223700D02*
X99500D01*
X55900Y223800D02*
X56300D01*
X58500D02*
X60000D01*
X61800D02*
X63100D01*
X63200D02*
X64000D01*
X65400D02*
X66100D01*
X76200D02*
X76600D01*
X82200D02*
X82400D01*
X87500D02*
X87600D01*
X89600D02*
X89800D01*
X92400D02*
X93200D01*
X93300D02*
X94100D01*
X95600D02*
X96500D01*
X52100Y223900D02*
X52500D01*
X99200Y223800D02*
X99400D01*
X58700Y223900D02*
X60200D01*
X62000D02*
X64000D01*
X65500D02*
X66100D01*
X76500D02*
X76900D01*
X82200D02*
X82400D01*
X87500D02*
X87600D01*
X89500D02*
X89700D01*
X92300D02*
X93100D01*
X93400D02*
X94100D01*
X95600D02*
X96400D01*
X52300Y224000D02*
X52700D01*
X99100Y223900D02*
X99300D01*
X59000Y224000D02*
X60300D01*
X62200D02*
X64000D01*
X65600D02*
X66200D01*
X76800D02*
X77200D01*
X82200D02*
X82400D01*
X87500D02*
X87600D01*
X89400D02*
X89600D01*
X92200D02*
X92900D01*
X93400D02*
X94100D01*
X95600D02*
X96200D01*
X52600Y224100D02*
X53000D01*
X99000Y224000D02*
X99200D01*
X59300Y224100D02*
X60300D01*
X62500D02*
X64000D01*
X65600D02*
X66300D01*
X77000D02*
X77500D01*
X82200D02*
X82400D01*
X87500D02*
X87600D01*
X89300D02*
X89500D01*
X92100D02*
X92800D01*
X93400D02*
X94200D01*
X52800Y224200D02*
X53200D01*
X98800Y224100D02*
X99100D01*
X59500Y224200D02*
X60300D01*
X62800D02*
X64000D01*
X65700D02*
X66300D01*
X67400D02*
X67500D01*
X77300D02*
X77800D01*
X82200D02*
X82400D01*
X87500D02*
X87600D01*
X89100D02*
X89400D01*
X92000D02*
X92700D01*
X93500D02*
X94200D01*
X53100Y224300D02*
X53500D01*
X98700Y224200D02*
X99000D01*
X59800Y224300D02*
X60300D01*
X63000D02*
X64000D01*
X65700D02*
X66400D01*
X67400D02*
X67800D01*
X77600D02*
X78100D01*
X82200D02*
X82400D01*
X87500D02*
X87600D01*
X89000D02*
X89300D01*
X91900D02*
X92600D01*
X93500D02*
X94200D01*
X53300Y224400D02*
X53700D01*
X98600Y224300D02*
X98900D01*
X60100Y224400D02*
X60300D01*
X63200D02*
X64000D01*
X65800D02*
X66500D01*
X67400D02*
X68000D01*
X77900D02*
X78400D01*
X82200D02*
X82400D01*
X87500D02*
X87600D01*
X88900D02*
X89200D01*
X91900D02*
X92500D01*
X93500D02*
X94300D01*
X53600Y224500D02*
X54000D01*
X98500Y224400D02*
X98800D01*
X61600Y224500D02*
X61800D01*
X63200D02*
X64000D01*
X65900D02*
X66500D01*
X67400D02*
X68100D01*
X78200D02*
X78700D01*
X82200D02*
X82400D01*
X87500D02*
X87600D01*
X88800D02*
X89000D01*
X92000D02*
X92400D01*
X93600D02*
X94300D01*
X53800Y224600D02*
X54200D01*
X98400Y224500D02*
X98600D01*
X61600Y224600D02*
X62100D01*
X63200D02*
X64000D01*
X65900D02*
X66600D01*
X67400D02*
X68100D01*
X78500D02*
X79000D01*
X82200D02*
X82400D01*
X87500D02*
X87600D01*
X88700D02*
X88900D01*
X92000D02*
X92300D01*
X93600D02*
X94300D01*
X54100Y224700D02*
X54500D01*
X98300Y224600D02*
X98500D01*
X28800Y226200D02*
X29000D01*
X30000D02*
X31500D01*
X43700D02*
X44000D01*
X45100D02*
X45400D01*
X57800D02*
X58200D01*
X65300D02*
X66600D01*
X67400D02*
X68100D01*
X69800D02*
X70800D01*
X71400D02*
X72200D01*
X90500D02*
X91200D01*
X28700Y226300D02*
X29000D01*
X30700D02*
X31900D01*
X43700D02*
X44000D01*
X96600Y226200D02*
X96800D01*
X45100Y226300D02*
X45400D01*
X58000D02*
X58400D01*
X65200D02*
X66500D01*
X67400D02*
X68100D01*
X69700D02*
X70900D01*
X71400D02*
X72200D01*
X90600D02*
X91300D01*
X96500D02*
X96700D01*
X28600Y226400D02*
X28900D01*
X31300D02*
X32300D01*
X43700D02*
X44000D01*
X45100D02*
X45300D01*
X58300D02*
X58700D01*
X65400D02*
X66300D01*
X67400D02*
X68100D01*
X69600D02*
X71200D01*
X71400D02*
X72200D01*
X90600D02*
X91300D01*
X28600Y226500D02*
X28900D01*
X31700D02*
X32600D01*
X43700D02*
X44000D01*
X96400Y226400D02*
X96600D01*
X45000Y226500D02*
X45300D01*
X58500D02*
X58900D01*
X65700D02*
X66100D01*
X67400D02*
X68100D01*
X69500D02*
X72200D01*
X73600D02*
X73700D01*
X90600D02*
X91400D01*
X96300D02*
X96500D01*
X28500Y226600D02*
X28800D01*
X32000D02*
X32900D01*
X43700D02*
X44000D01*
X45000D02*
X45300D01*
X58700D02*
X59200D01*
X67400D02*
X68100D01*
X69500D02*
X72200D01*
X73600D02*
X73900D01*
X90700D02*
X91400D01*
X28500Y226700D02*
X28800D01*
X32300D02*
X33100D01*
X38100D02*
X39000D01*
X96100Y226600D02*
X96400D01*
X43700Y226700D02*
X44000D01*
X44900D02*
X45200D01*
X59000D02*
X59400D01*
X67400D02*
X68100D01*
X69500D02*
X72200D01*
X73600D02*
X74200D01*
X90700D02*
X91400D01*
X96000D02*
X96300D01*
X28400Y226800D02*
X28700D01*
X32600D02*
X33300D01*
X38000D02*
X39200D01*
X43700D02*
X44000D01*
X44100D02*
X44400D01*
X44700D02*
X45100D01*
X59200D02*
X59700D01*
X67400D02*
X68100D01*
X69500D02*
X70300D01*
X70800D02*
X72200D01*
X73600D02*
X74500D01*
X89000D02*
X89100D01*
X90700D02*
X91500D01*
X28400Y226900D02*
X28700D01*
X32900D02*
X33700D01*
X95900Y226800D02*
X96200D01*
X37900Y226900D02*
X38300D01*
X38800D02*
X39300D01*
X43600D02*
X43900D01*
X44100D02*
X45000D01*
X59500D02*
X59900D01*
X67400D02*
X68100D01*
X69500D02*
X70200D01*
X71100D02*
X72200D01*
X73600D02*
X74700D01*
X88900D02*
X89100D01*
X90800D02*
X91500D01*
X95800D02*
X96000D01*
X28300Y227000D02*
X28600D01*
X33100D02*
X34000D01*
X37800D02*
X38200D01*
X39000D02*
X39300D01*
X43500D02*
X43800D01*
X44000D02*
X44900D01*
X59700D02*
X60100D01*
X67400D02*
X68100D01*
X69500D02*
X70200D01*
X71300D02*
X72200D01*
X73600D02*
X75000D01*
X88800D02*
X89200D01*
X90800D02*
X91500D01*
X28300Y227100D02*
X28600D01*
X33500D02*
X34400D01*
X95700Y227000D02*
X95900D01*
X37800Y227100D02*
X38100D01*
X39100D02*
X39400D01*
X43500D02*
X43800D01*
X43900D02*
X44200D01*
X60000D02*
X60400D01*
X67400D02*
X68100D01*
X69500D02*
X70200D01*
X71400D02*
X72200D01*
X28200Y227200D02*
X28500D01*
X32400Y227300D02*
X33100D01*
X34200D02*
X35200D01*
X28100D02*
X28400D01*
X73800Y227100D02*
X75300D01*
X88700D02*
X89200D01*
X90800D02*
X91600D01*
X95600D02*
X95800D01*
X33800Y227200D02*
X34800D01*
X37800D02*
X38000D01*
X39200D02*
X39400D01*
X43400D02*
X43700D01*
X43900D02*
X44200D01*
X60200D02*
X60600D01*
X67600D02*
X68100D01*
X69500D02*
X70200D01*
X71400D02*
X72200D01*
X74100D02*
X75500D01*
X88600D02*
X89200D01*
X90900D02*
X91600D01*
X95500D02*
X95700D01*
X37700Y227300D02*
X38000D01*
X39200D02*
X39500D01*
X43400D02*
X43700D01*
X43800D02*
X44100D01*
X60500D02*
X60900D01*
X67900D02*
X68100D01*
X69600D02*
X70200D01*
X71400D02*
X72200D01*
X74300D02*
X75800D01*
X88500D02*
X89300D01*
X90900D02*
X91600D01*
X95400D02*
X95600D01*
X28100Y227400D02*
X28400D01*
X32300D02*
X33500D01*
X34600D02*
X35600D01*
X37700D02*
X38000D01*
X39200D02*
X39500D01*
X43300D02*
X43600D01*
X43800D02*
X44100D01*
X60700D02*
X61100D01*
X69600D02*
X70300D01*
X71400D02*
X72200D01*
X74600D02*
X76000D01*
X88600D02*
X89300D01*
X90900D02*
X91700D01*
X28000Y227500D02*
X28300D01*
X32200D02*
X33800D01*
X95300Y227400D02*
X95500D01*
X35000Y227500D02*
X36100D01*
X37700D02*
X38000D01*
X39200D02*
X39500D01*
X43300D02*
X43600D01*
X43700D02*
X44000D01*
X61000D02*
X61400D01*
X69700D02*
X70300D01*
X71400D02*
X72200D01*
X74900D02*
X76000D01*
X88600D02*
X89300D01*
X91000D02*
X91700D01*
X95200D02*
X95400D01*
X21000Y227900D02*
X22700D01*
X27800D02*
X28100D01*
X31900D02*
X32200D01*
X34300D02*
X35200D01*
X21000Y228000D02*
X21500D01*
X21900D02*
X23200D01*
X27800D02*
X28100D01*
X31800D02*
X32100D01*
X34700D02*
X35600D01*
X37100D02*
X38100D01*
X21200Y228100D02*
X21600D01*
X22400D02*
X23700D01*
X27700D02*
X28000D01*
X31700D02*
X32000D01*
X35000D02*
X35900D01*
X37500D02*
X38300D01*
X21300Y228200D02*
X21700D01*
X22900D02*
X24100D01*
X27600D02*
X27900D01*
X31600D02*
X32000D01*
X35300D02*
X36300D01*
X38000D02*
X38400D01*
X39000D02*
X39400D01*
X21400Y228300D02*
X21800D01*
X23400D02*
X24600D01*
X27600D02*
X27900D01*
X31600D02*
X31900D01*
X35700D02*
X36600D01*
X21500Y228400D02*
X21800D01*
X23900D02*
X24900D01*
X27500D02*
X27800D01*
X31500D02*
X31800D01*
X36000D02*
X37000D01*
X24300Y228500D02*
X25200D01*
X21600D02*
X21900D01*
X21000Y227800D02*
X22200D01*
X27900D02*
X28200D01*
X31900D02*
X32300D01*
X34000D02*
X34900D01*
X35400Y227600D02*
X36500D01*
X37700D02*
X38000D01*
X39200D02*
X39500D01*
X43200D02*
X43500D01*
X43700D02*
X44000D01*
X58500D02*
X58600D01*
X61000D02*
X61800D01*
X69700D02*
X70400D01*
X71400D02*
X72200D01*
X75100D02*
X76000D01*
X88600D02*
X89400D01*
X91000D02*
X91700D01*
X95100D02*
X95300D01*
X37700Y227700D02*
X38000D01*
X39200D02*
X39500D01*
X43100D02*
X43400D01*
X43600D02*
X43900D01*
X58400D02*
X59000D01*
X60100D02*
X62400D01*
X69800D02*
X70500D01*
X71400D02*
X72200D01*
X75200D02*
X76000D01*
X88700D02*
X89400D01*
X91000D02*
X91800D01*
X95000D02*
X95200D01*
X36200Y227800D02*
X37400D01*
X37800D02*
X38000D01*
X39200D02*
X39500D01*
X43100D02*
X43400D01*
X43600D02*
X43900D01*
X58400D02*
X62900D01*
X69900D02*
X70700D01*
X71400D02*
X72200D01*
X36700Y227900D02*
X38100D01*
X39200D02*
X39500D01*
X43000D02*
X43300D01*
X43500D02*
X43800D01*
X45200D02*
X45400D01*
X58200D02*
X63200D01*
X70000D02*
X71000D01*
X71400D02*
X72200D01*
X73800D02*
X74100D01*
X75200D02*
X76000D01*
X88700D02*
X89500D01*
X91100D02*
X91800D01*
X94700D02*
X95000D01*
X39100Y228000D02*
X39400D01*
X43000D02*
X43300D01*
X43500D02*
X43800D01*
X45000D02*
X45800D01*
X57300D02*
X63500D01*
X70100D02*
X71200D01*
X71400D02*
X72200D01*
X73800D02*
X74400D01*
X75200D02*
X76000D01*
X77500D02*
X77700D01*
X88800D02*
X89500D01*
X91100D02*
X91700D01*
X94600D02*
X94900D01*
X39000Y228100D02*
X39400D01*
X42900D02*
X43200D01*
X43400D02*
X43700D01*
X45000D02*
X46100D01*
X54700D02*
X55400D01*
X56300D02*
X63700D01*
X70200D02*
X72200D01*
X73800D02*
X74600D01*
X75200D02*
X76000D01*
X77500D02*
X78000D01*
X88700D02*
X89500D01*
X91200D02*
X91600D01*
X94500D02*
X94700D01*
X42400Y228200D02*
X42700D01*
X42800D02*
X43200D01*
X43400D02*
X43700D01*
X45000D02*
X45300D01*
X45500D02*
X46500D01*
X54700D02*
X63900D01*
X70400D02*
X72200D01*
X73800D02*
X74900D01*
X75200D02*
X76000D01*
X77500D02*
X78200D01*
X88700D02*
X89600D01*
X91200D02*
X91500D01*
X94400D02*
X94600D01*
X39100Y228300D02*
X39700D01*
X42300D02*
X43100D01*
X43300D02*
X43600D01*
X44900D02*
X45200D01*
X45800D02*
X47100D01*
X54800D02*
X64100D01*
X70600D02*
X72200D01*
X73800D02*
X76000D01*
X77500D02*
X78200D01*
X87300D02*
X87500D01*
X88700D02*
X89600D01*
X91300D02*
X91400D01*
X94300D02*
X94500D01*
X39200Y228400D02*
X40100D01*
X42300D02*
X43000D01*
X43300D02*
X43600D01*
X44900D02*
X45200D01*
X46200D02*
X47700D01*
X54100D02*
X64200D01*
X70800D02*
X72200D01*
X74000D02*
X76000D01*
X77500D02*
X78200D01*
X87200D02*
X87800D01*
X88600D02*
X89600D01*
X91700D02*
X92000D01*
X94200D02*
X94400D01*
X75200Y227800D02*
X76000D01*
X88700D02*
X89400D01*
X91100D02*
X91800D01*
X94800D02*
X95100D01*
X42300Y228500D02*
X42600D01*
X42900D02*
X43000D01*
X43200D02*
X43500D01*
X44600D02*
X45200D01*
X46600D02*
X48100D01*
X53200D02*
X64200D01*
X71100D02*
X72200D01*
X74300D02*
X76000D01*
X77500D02*
X78200D01*
X39800Y228600D02*
X40800D01*
X42300D02*
X42600D01*
X43200D02*
X43500D01*
X44600D02*
X45200D01*
X47300D02*
X48500D01*
X52300D02*
X64200D01*
X71300D02*
X72200D01*
X74500D02*
X76000D01*
X77500D02*
X78200D01*
X87000D02*
X88400D01*
X88600D02*
X89700D01*
X91500D02*
X92100D01*
X94000D02*
X94200D01*
X87100Y228500D02*
X88100D01*
X88600D02*
X89700D01*
X91600D02*
X92100D01*
X94100D02*
X94300D01*
X42300Y228700D02*
X42500D01*
X43100D02*
X43400D01*
X44500D02*
X45300D01*
X47800D02*
X48900D01*
X51300D02*
X63500D01*
X63900D02*
X64300D01*
X71600D02*
X72200D01*
X74800D02*
X76000D01*
X77500D02*
X78200D01*
X86900D02*
X89700D01*
X91500D02*
X92100D01*
X93900D02*
X94100D01*
X44500Y228800D02*
X44800D01*
X44900D02*
X45200D01*
X48200D02*
X49400D01*
X50500D02*
X62900D01*
X64200D02*
X64600D01*
X71900D02*
X72200D01*
X75100D02*
X76000D01*
X77500D02*
X78200D01*
X42200Y228900D02*
X42500D01*
X43000D02*
X43300D01*
X44500D02*
X44800D01*
X44900D02*
X45200D01*
X48500D02*
X62300D01*
X64400D02*
X64800D01*
X75200D02*
X76000D01*
X77500D02*
X78200D01*
X79100D02*
X79300D01*
X87000D02*
X89000D01*
X89100D02*
X89800D01*
X91500D02*
X92000D01*
X93700D02*
X93900D01*
X86800Y228800D02*
X89000D01*
X89100D02*
X89800D01*
X91500D02*
X92000D01*
X93800D02*
X94000D01*
M02*
