G04*
G04 #@! TF.GenerationSoftware,Altium Limited,Altium Designer,21.9.2 (33)*
G04*
G04 Layer_Physical_Order=1*
G04 Layer_Color=255*
%FSLAX25Y25*%
%MOIN*%
G70*
G04*
G04 #@! TF.SameCoordinates,2BD51A12-542F-4E7F-AF7E-1702C203C590*
G04*
G04*
G04 #@! TF.FilePolarity,Positive*
G04*
G01*
G75*
%ADD12C,0.03000*%
%ADD17C,0.01000*%
%ADD18R,0.07087X0.08780*%
%ADD19R,0.04000X0.08900*%
%ADD20R,0.02323X0.04764*%
%ADD21R,0.04803X0.03819*%
%ADD22R,0.01181X0.03740*%
%ADD23R,0.03740X0.01181*%
%ADD24R,0.05906X0.03150*%
%ADD25R,0.03543X0.03543*%
%ADD26R,0.03543X0.05906*%
%ADD27R,0.05906X0.03543*%
%ADD28R,0.08900X0.04000*%
%ADD29R,0.03937X0.07087*%
%ADD30R,0.05118X0.05079*%
%ADD31R,0.05512X0.05079*%
%ADD32R,0.06614X0.03150*%
%ADD33R,0.05906X0.06299*%
%ADD34R,0.05906X0.06693*%
%ADD35R,0.06693X0.05906*%
%ADD36R,0.01575X0.05315*%
%ADD37R,0.03150X0.02362*%
%ADD38R,0.06299X0.05906*%
%ADD39R,0.03701X0.03701*%
%ADD40R,0.04291X0.06496*%
%ADD41R,0.01575X0.01968*%
%ADD42R,0.04528X0.04331*%
%ADD43R,0.02756X0.00906*%
%ADD44R,0.01772X0.05906*%
%ADD45R,0.04331X0.02362*%
%ADD46R,0.03150X0.01378*%
%ADD47R,0.01378X0.03150*%
%ADD48R,0.11024X0.05906*%
%ADD49R,0.24016X0.24803*%
%ADD50R,0.01772X0.02323*%
%ADD51R,0.04134X0.03937*%
%ADD52R,0.08661X0.04134*%
%ADD53R,0.13780X0.05906*%
%ADD54R,0.07087X0.03150*%
%ADD98C,0.00900*%
%ADD99C,0.02000*%
%ADD100C,0.01500*%
%ADD101C,0.00800*%
%ADD102C,0.01470*%
%ADD103C,0.01100*%
%ADD104C,0.01380*%
%ADD105C,0.01760*%
%ADD106C,0.01430*%
%ADD107C,0.01700*%
%ADD108C,0.05118*%
%ADD109C,0.05906*%
%ADD110C,0.08661*%
%ADD111C,0.07874*%
%ADD112C,0.06299*%
%ADD113C,0.02362*%
%ADD114C,0.07677*%
%ADD115C,0.04921*%
G36*
X274273Y1318D02*
X1318D01*
Y274273D01*
X274273D01*
Y1318D01*
D02*
G37*
%LPC*%
G36*
X109732Y272833D02*
X106780D01*
Y269486D01*
X109732D01*
Y272833D01*
D02*
G37*
G36*
X104780D02*
X101827D01*
Y269486D01*
X104780D01*
Y272833D01*
D02*
G37*
G36*
X52567Y271435D02*
X49220D01*
Y268482D01*
X52567D01*
Y271435D01*
D02*
G37*
G36*
X47221D02*
X43874D01*
Y268482D01*
X47221D01*
Y271435D01*
D02*
G37*
G36*
X164327Y271785D02*
X162358D01*
Y268242D01*
X164327D01*
Y271785D01*
D02*
G37*
G36*
X160358D02*
X158390D01*
Y268242D01*
X160358D01*
Y271785D01*
D02*
G37*
G36*
X195834D02*
X193865D01*
Y268242D01*
X195834D01*
Y271785D01*
D02*
G37*
G36*
X178117D02*
X176149D01*
Y268242D01*
X178117D01*
Y271785D01*
D02*
G37*
G36*
X191865D02*
X189897D01*
Y268242D01*
X191865D01*
Y271785D01*
D02*
G37*
G36*
X174149D02*
X172180D01*
Y268242D01*
X174149D01*
Y271785D01*
D02*
G37*
G36*
X146610D02*
X144642D01*
Y268242D01*
X146610D01*
Y271785D01*
D02*
G37*
G36*
X142642D02*
X140673D01*
Y268242D01*
X142642D01*
Y271785D01*
D02*
G37*
G36*
X261241Y273733D02*
X260019D01*
X258840Y273417D01*
X257782Y272806D01*
X256918Y271943D01*
X256308Y270885D01*
X255991Y269705D01*
Y268484D01*
X256308Y267304D01*
X256918Y266246D01*
X257782Y265383D01*
X258840Y264772D01*
X260019Y264456D01*
X261241D01*
X262420Y264772D01*
X263478Y265383D01*
X264342Y266246D01*
X264952Y267304D01*
X265268Y268484D01*
Y269705D01*
X264952Y270885D01*
X264342Y271943D01*
X263478Y272806D01*
X262420Y273417D01*
X261241Y273733D01*
D02*
G37*
G36*
X232894D02*
X231673D01*
X230493Y273417D01*
X229435Y272806D01*
X228572Y271943D01*
X227961Y270885D01*
X227645Y269705D01*
Y268484D01*
X227961Y267304D01*
X228572Y266246D01*
X229435Y265383D01*
X230493Y264772D01*
X231673Y264456D01*
X232894D01*
X234074Y264772D01*
X235132Y265383D01*
X235995Y266246D01*
X236606Y267304D01*
X236922Y268484D01*
Y269705D01*
X236606Y270885D01*
X235995Y271943D01*
X235132Y272806D01*
X234074Y273417D01*
X232894Y273733D01*
D02*
G37*
G36*
X109732Y267486D02*
X106780D01*
Y264140D01*
X109732D01*
Y267486D01*
D02*
G37*
G36*
X104780D02*
X101827D01*
Y264140D01*
X104780D01*
Y267486D01*
D02*
G37*
G36*
X52567Y266482D02*
X49220D01*
Y263529D01*
X52567D01*
Y266482D01*
D02*
G37*
G36*
X47221D02*
X43874D01*
Y263529D01*
X47221D01*
Y266482D01*
D02*
G37*
G36*
X195834Y266242D02*
X193865D01*
Y262698D01*
X195834D01*
Y266242D01*
D02*
G37*
G36*
X191865D02*
X189897D01*
Y262698D01*
X191865D01*
Y266242D01*
D02*
G37*
G36*
X178117D02*
X176149D01*
Y262698D01*
X178117D01*
Y266242D01*
D02*
G37*
G36*
X174149D02*
X172180D01*
Y262698D01*
X174149D01*
Y266242D01*
D02*
G37*
G36*
X164327Y266242D02*
X162358D01*
Y262698D01*
X164327D01*
Y266242D01*
D02*
G37*
G36*
X160358D02*
X158390D01*
Y262698D01*
X160358D01*
Y266242D01*
D02*
G37*
G36*
X146610Y266242D02*
X144642D01*
Y262698D01*
X146610D01*
Y266242D01*
D02*
G37*
G36*
X142642D02*
X140673D01*
Y262698D01*
X142642D01*
Y266242D01*
D02*
G37*
G36*
X240338Y262319D02*
X239551D01*
Y260354D01*
X239051Y260147D01*
X238912Y260286D01*
X238168Y260716D01*
X237339Y260938D01*
X236480D01*
X235651Y260716D01*
X234907Y260286D01*
X234300Y259679D01*
X233871Y258936D01*
X233649Y258106D01*
Y257248D01*
X233871Y256419D01*
X234300Y255675D01*
X234907Y255068D01*
X235651Y254639D01*
X236480Y254416D01*
X237339D01*
X238168Y254639D01*
X238912Y255068D01*
X239051Y255208D01*
X239551Y255004D01*
Y255004D01*
X240338D01*
Y258662D01*
Y262319D01*
D02*
G37*
G36*
X133806Y260077D02*
Y257661D01*
X136223D01*
X136123Y258034D01*
X135654Y258846D01*
X134992Y259509D01*
X134180Y259977D01*
X133806Y260077D01*
D02*
G37*
G36*
X131806Y260077D02*
X131432Y259977D01*
X130621Y259509D01*
X129958Y258846D01*
X129490Y258034D01*
X129390Y257661D01*
X131806D01*
Y260077D01*
D02*
G37*
G36*
X136223Y255661D02*
X133806D01*
Y253244D01*
X134180Y253344D01*
X134992Y253813D01*
X135654Y254475D01*
X136123Y255287D01*
X136223Y255661D01*
D02*
G37*
G36*
X131806D02*
X129390D01*
X129490Y255287D01*
X129958Y254475D01*
X130621Y253813D01*
X131432Y253344D01*
X131806Y253244D01*
Y255661D01*
D02*
G37*
G36*
X219600Y254750D02*
X217600D01*
Y250300D01*
X219600D01*
Y254750D01*
D02*
G37*
G36*
X215600D02*
X213600D01*
Y250300D01*
X215600D01*
Y254750D01*
D02*
G37*
G36*
X219600Y248300D02*
X217600D01*
Y243850D01*
X219600D01*
Y248300D01*
D02*
G37*
G36*
X215600D02*
X213600D01*
Y243850D01*
X215600D01*
Y248300D01*
D02*
G37*
G36*
X164700Y240916D02*
X164700Y240916D01*
X142300D01*
X142300Y240916D01*
X141988Y240854D01*
X141723Y240677D01*
X141723Y240677D01*
X138423Y237377D01*
X138423Y237377D01*
X138246Y237112D01*
X138184Y236800D01*
X138184Y236800D01*
X138184Y165800D01*
X138184Y165800D01*
X138246Y165488D01*
X138423Y165223D01*
X138423Y165223D01*
X139823Y163823D01*
X139823Y163823D01*
X140088Y163646D01*
X140400Y163584D01*
X140400Y163584D01*
X143500D01*
X143812Y163646D01*
X144077Y163823D01*
X144077Y163823D01*
X145307Y165053D01*
X145483Y165318D01*
X145545Y165630D01*
X145545Y165630D01*
Y227492D01*
X147538Y229484D01*
X164500Y229484D01*
X164500Y229484D01*
X164812Y229546D01*
X165077Y229723D01*
X165077Y229723D01*
X166777Y231423D01*
X166777Y231423D01*
X166954Y231688D01*
X167016Y232000D01*
X167016Y232000D01*
Y238600D01*
X166954Y238912D01*
X166777Y239177D01*
X166777Y239177D01*
X165277Y240677D01*
X165012Y240854D01*
X164700Y240916D01*
D02*
G37*
G36*
X215700Y241200D02*
X211250D01*
Y239200D01*
X215700D01*
Y241200D01*
D02*
G37*
G36*
X243126Y262319D02*
X242338D01*
Y262119D01*
X242310D01*
Y258662D01*
Y255204D01*
X242338D01*
Y255004D01*
X243126D01*
Y255204D01*
X244936D01*
Y249897D01*
X243053Y248014D01*
X242714Y247506D01*
X242595Y246907D01*
Y244623D01*
X242198D01*
Y238259D01*
X245739D01*
Y238059D01*
X246900D01*
Y241441D01*
X248900D01*
Y238059D01*
X250061D01*
Y238259D01*
X252898D01*
X253105Y237759D01*
X252762Y237416D01*
X239238D01*
X233516Y243138D01*
Y252400D01*
X233453Y252712D01*
X233277Y252977D01*
X233277Y252977D01*
X230877Y255377D01*
X230877Y255377D01*
X230612Y255554D01*
X230300Y255616D01*
X230300Y255616D01*
X225600D01*
X225600Y255616D01*
X225288Y255554D01*
X225023Y255377D01*
X225023Y255377D01*
X222323Y252677D01*
X222323Y252677D01*
X222146Y252412D01*
X222084Y252100D01*
X222084Y252100D01*
Y241200D01*
X217700D01*
Y238200D01*
Y235200D01*
X222150D01*
X222150Y235200D01*
Y235200D01*
X222620Y235127D01*
X223323Y234423D01*
X223588Y234246D01*
X223900Y234184D01*
X223900Y234184D01*
X236300Y234184D01*
X242198Y234184D01*
Y228377D01*
X242804D01*
Y227105D01*
X242520Y226822D01*
X242219Y226094D01*
Y225306D01*
X242520Y224578D01*
X243078Y224021D01*
X243806Y223719D01*
X244594D01*
X245322Y224021D01*
X245880Y224578D01*
X246181Y225306D01*
Y226094D01*
X245880Y226822D01*
X245556Y227145D01*
Y227783D01*
X246056Y227990D01*
X246423Y227623D01*
X246423Y227623D01*
X246688Y227446D01*
X247000Y227384D01*
X247000Y227384D01*
X248800D01*
X248800Y227384D01*
X249112Y227446D01*
X249377Y227623D01*
X249744Y227990D01*
X250244Y227783D01*
Y227145D01*
X249921Y226822D01*
X249619Y226094D01*
Y225306D01*
X249921Y224578D01*
X250478Y224021D01*
X251206Y223719D01*
X251994D01*
X252722Y224021D01*
X253279Y224578D01*
X253581Y225306D01*
Y226094D01*
X253279Y226822D01*
X252996Y227105D01*
Y228377D01*
X253602D01*
Y234184D01*
X259300D01*
X259300Y234184D01*
X259612Y234246D01*
X259877Y234423D01*
X264477Y239023D01*
X264654Y239288D01*
X264716Y239600D01*
X264716Y239600D01*
Y245200D01*
X264716Y245200D01*
X264654Y245512D01*
X264477Y245777D01*
X264477Y245777D01*
X261274Y248979D01*
Y250251D01*
X261173Y250758D01*
X260886Y251188D01*
X258639Y253435D01*
X258209Y253723D01*
X257702Y253823D01*
X254130D01*
X253224Y254729D01*
X253162Y255204D01*
X253662Y255408D01*
X254002Y255068D01*
X254745Y254639D01*
X255575Y254416D01*
X256433D01*
X257262Y254639D01*
X258006Y255068D01*
X258613Y255675D01*
X259042Y256419D01*
X259265Y257248D01*
Y258106D01*
X259042Y258936D01*
X258613Y259679D01*
X258006Y260286D01*
X257262Y260716D01*
X256433Y260938D01*
X255575D01*
X254745Y260716D01*
X254002Y260286D01*
X253662Y259947D01*
X253162Y260154D01*
Y262119D01*
X243126D01*
Y262319D01*
D02*
G37*
G36*
X215700Y237200D02*
X211250D01*
Y235200D01*
X215700D01*
Y237200D01*
D02*
G37*
G36*
X109732Y231856D02*
X105425D01*
X101118D01*
Y230281D01*
X101118Y230281D01*
X101118D01*
X101118Y230281D01*
X100950Y229851D01*
X95126D01*
X94618Y229750D01*
X94188Y229463D01*
X87563Y222837D01*
X87275Y222407D01*
X87174Y221900D01*
Y204950D01*
X85700D01*
Y194450D01*
X87174D01*
Y192876D01*
X86821Y192522D01*
X86519Y191794D01*
Y191006D01*
X86821Y190278D01*
X87378Y189720D01*
X88106Y189419D01*
X88894D01*
X89622Y189720D01*
X90180Y190278D01*
X90481Y191006D01*
Y191794D01*
X90180Y192522D01*
X89825Y192876D01*
Y194450D01*
X91300D01*
Y204950D01*
X89825D01*
Y221351D01*
X95675Y227200D01*
X101318D01*
Y221820D01*
X101827D01*
Y219644D01*
X100559D01*
Y216104D01*
Y212565D01*
X103118D01*
Y214494D01*
X104780D01*
Y218644D01*
X105780D01*
Y219644D01*
X109732D01*
Y222793D01*
X109532D01*
Y226151D01*
Y230281D01*
X109732D01*
Y231856D01*
D02*
G37*
G36*
X194313Y240916D02*
X194313Y240916D01*
X173500D01*
X173188Y240854D01*
X172923Y240677D01*
X172923Y240677D01*
X170923Y238677D01*
X170923Y238677D01*
X170746Y238412D01*
X170684Y238100D01*
X170684Y238100D01*
X170684Y214638D01*
X166623Y210577D01*
X166446Y210312D01*
X166384Y210000D01*
X166384Y210000D01*
X166384Y199943D01*
X165922Y199752D01*
X164540Y201134D01*
X164110Y201421D01*
X163603Y201522D01*
X152575D01*
Y202178D01*
X147825D01*
Y198216D01*
X152575D01*
Y198871D01*
X158465D01*
X158656Y198409D01*
X158223Y197977D01*
X158046Y197712D01*
X157984Y197400D01*
X157984Y197400D01*
Y171630D01*
X157984Y171630D01*
X158046Y171318D01*
X158046Y171318D01*
X158046Y171318D01*
X158223Y171053D01*
X158223Y171053D01*
X158223Y171053D01*
X159193Y170083D01*
X159193Y170083D01*
X159458Y169906D01*
X159770Y169844D01*
X159770Y169844D01*
X162900Y169844D01*
X162900Y169844D01*
X163107Y169886D01*
X163212Y169906D01*
X163212Y169906D01*
X163212Y169906D01*
X163318Y169977D01*
X163477Y170083D01*
X163477Y170083D01*
X164477Y171083D01*
X164477Y171083D01*
X164654Y171348D01*
X164716Y171660D01*
X164716Y171660D01*
X164716Y185957D01*
X165178Y186148D01*
X170863Y180463D01*
X171293Y180175D01*
X171800Y180075D01*
X174150D01*
Y178800D01*
X184650D01*
Y180075D01*
X186824D01*
X187178Y179720D01*
X187906Y179419D01*
X188694D01*
X189422Y179720D01*
X189980Y180278D01*
X190281Y181006D01*
Y181794D01*
X189980Y182522D01*
X189422Y183080D01*
X188694Y183381D01*
X187906D01*
X187178Y183080D01*
X186824Y182726D01*
X184650D01*
Y184400D01*
X174150D01*
Y182726D01*
X172349D01*
X166825Y188249D01*
Y189088D01*
X167287Y189279D01*
X168253Y188313D01*
X168518Y188136D01*
X168830Y188074D01*
X168830Y188074D01*
X184020Y188074D01*
X184020Y188074D01*
X184332Y188136D01*
X184597Y188313D01*
X184597Y188313D01*
X186007Y189723D01*
X186007Y189723D01*
X186184Y189988D01*
X186246Y190300D01*
X186246Y190300D01*
X186246Y194800D01*
X186184Y195112D01*
X186007Y195377D01*
X184327Y197057D01*
X184327Y197057D01*
X184062Y197234D01*
X183750Y197296D01*
X183750Y197296D01*
X171802D01*
X171611Y197758D01*
X172077Y198223D01*
X172254Y198488D01*
X172316Y198800D01*
X172316Y198800D01*
Y204158D01*
X175157Y207010D01*
X178978Y210844D01*
X179065Y210975D01*
X179154Y211108D01*
X179154Y211108D01*
X179154Y211109D01*
X179185Y211265D01*
X179216Y211420D01*
Y228562D01*
X180453Y229799D01*
X194498D01*
X194498Y229799D01*
X194810Y229861D01*
X195074Y230038D01*
X195074Y230038D01*
X196777Y231740D01*
X196777Y231740D01*
X196954Y232005D01*
X197016Y232317D01*
X197016Y232317D01*
X197016Y238213D01*
X196954Y238525D01*
X196777Y238790D01*
X194890Y240677D01*
X194890Y240677D01*
X194625Y240854D01*
X194313Y240916D01*
D02*
G37*
G36*
X263150Y232393D02*
X256747D01*
Y226974D01*
X263150D01*
Y227338D01*
X270600D01*
X271497Y227517D01*
X272258Y228025D01*
X272767Y228786D01*
X272945Y229683D01*
X272767Y230581D01*
X272258Y231342D01*
X271497Y231850D01*
X270600Y232029D01*
X263150D01*
Y232393D01*
D02*
G37*
G36*
X189300Y228950D02*
X187300D01*
Y224500D01*
X189300D01*
Y228950D01*
D02*
G37*
G36*
X185300D02*
X183300D01*
Y224500D01*
X185300D01*
Y228950D01*
D02*
G37*
G36*
X156400Y228850D02*
X154400D01*
Y224400D01*
X156400D01*
Y228850D01*
D02*
G37*
G36*
X152400D02*
X150400D01*
Y224400D01*
X152400D01*
Y228850D01*
D02*
G37*
G36*
X236300Y231916D02*
X236300Y231916D01*
X212900D01*
X212588Y231854D01*
X212323Y231677D01*
X212323Y231677D01*
X209853Y229207D01*
X209853Y229207D01*
X209676Y228942D01*
X209614Y228630D01*
X209614Y228630D01*
X209614Y224970D01*
X209676Y224658D01*
X209853Y224393D01*
X209853Y224393D01*
X211983Y222263D01*
X212248Y222086D01*
X212560Y222024D01*
X212560Y222024D01*
X236240D01*
X236552Y222086D01*
X236817Y222263D01*
X236817Y222263D01*
X238977Y224423D01*
X238977Y224423D01*
X239154Y224688D01*
X239216Y225000D01*
X239216Y225000D01*
X239216Y229000D01*
X239154Y229312D01*
X238977Y229577D01*
X238977Y229577D01*
X236877Y231677D01*
X236877Y231677D01*
X236612Y231854D01*
X236508Y231874D01*
X236300Y231916D01*
D02*
G37*
G36*
X189300Y222500D02*
X187300D01*
Y218050D01*
X189300D01*
Y222500D01*
D02*
G37*
G36*
X185300D02*
X183300D01*
Y218050D01*
X185300D01*
Y222500D01*
D02*
G37*
G36*
X156400Y222400D02*
X154400D01*
Y217950D01*
X156400D01*
Y222400D01*
D02*
G37*
G36*
X152400D02*
X150400D01*
Y217950D01*
X152400D01*
Y222400D01*
D02*
G37*
G36*
X98559Y219644D02*
X96000D01*
Y217104D01*
X98559D01*
Y219644D01*
D02*
G37*
G36*
X52567Y219466D02*
X49220D01*
Y216514D01*
X52567D01*
Y219466D01*
D02*
G37*
G36*
X47221D02*
X43874D01*
Y216514D01*
X47221D01*
Y219466D01*
D02*
G37*
G36*
X75598Y219053D02*
X72843D01*
Y216514D01*
X75598D01*
Y219053D01*
D02*
G37*
G36*
X70842D02*
X68087D01*
Y216514D01*
X70842D01*
Y219053D01*
D02*
G37*
G36*
X109732Y217644D02*
X106780D01*
Y214494D01*
X109732D01*
Y217644D01*
D02*
G37*
G36*
X98559Y215104D02*
X96000D01*
Y212565D01*
X98559D01*
Y215104D01*
D02*
G37*
G36*
X75598Y214514D02*
X72843D01*
Y211974D01*
X75598D01*
Y214514D01*
D02*
G37*
G36*
X70842D02*
X68087D01*
Y211974D01*
X70842D01*
Y214514D01*
D02*
G37*
G36*
X52567Y214514D02*
X49220D01*
Y211561D01*
X52567D01*
Y214514D01*
D02*
G37*
G36*
X47221D02*
X43874D01*
Y211561D01*
X47221D01*
Y214514D01*
D02*
G37*
G36*
X258594Y221081D02*
X257806D01*
X257078Y220779D01*
X256521Y220222D01*
X256258Y219589D01*
X249108D01*
X248581Y219484D01*
X248135Y219185D01*
X248135Y219185D01*
X245034Y216085D01*
X244735Y215638D01*
X244631Y215111D01*
X244682Y214855D01*
Y210269D01*
X243884D01*
X234977Y219177D01*
X234712Y219354D01*
X234400Y219416D01*
X234400Y219416D01*
X193140D01*
X193140Y219416D01*
X192828Y219354D01*
X192563Y219177D01*
X188213Y214827D01*
X188036Y214562D01*
X187974Y214250D01*
X187974Y214250D01*
Y202840D01*
X187974Y202840D01*
X188036Y202528D01*
X188213Y202263D01*
X189715Y200762D01*
X189523Y200300D01*
X189250D01*
Y198300D01*
X194700D01*
X200150D01*
Y199754D01*
X200750D01*
Y198300D01*
X206200D01*
X211650D01*
Y199754D01*
X212600D01*
Y195900D01*
X218600D01*
Y200350D01*
X218600D01*
X218400Y200767D01*
Y200897D01*
X219877Y202373D01*
X220054Y202638D01*
X220116Y202950D01*
X220116Y202950D01*
Y210642D01*
X224108Y214634D01*
X231112D01*
X239838Y205908D01*
X239647Y205447D01*
X235913D01*
Y205279D01*
X235321D01*
X232793Y207807D01*
Y208022D01*
X233249Y208478D01*
X233551Y209206D01*
Y209994D01*
X233249Y210722D01*
X232692Y211280D01*
X231964Y211581D01*
X231176D01*
X230448Y211280D01*
X230100Y210932D01*
X229600Y211139D01*
Y211250D01*
X224000D01*
Y200750D01*
X229600D01*
Y204153D01*
X230100Y204360D01*
X230744Y203716D01*
X230773Y203673D01*
X233295Y201150D01*
X233725Y200863D01*
X234233Y200762D01*
X234233Y200762D01*
X235913D01*
Y199476D01*
X233850D01*
X233343Y199375D01*
X232913Y199088D01*
X230100Y196274D01*
X229600Y196344D01*
Y200150D01*
X224000D01*
Y189650D01*
X229600D01*
Y193575D01*
X230600D01*
X231107Y193675D01*
X231537Y193963D01*
X234399Y196825D01*
X235913D01*
Y194791D01*
Y190854D01*
X240735D01*
Y186225D01*
X209900D01*
Y190150D01*
X204300D01*
Y179650D01*
X209900D01*
Y183574D01*
X263660D01*
X264167Y183675D01*
X264597Y183963D01*
X268097Y187463D01*
X268385Y187893D01*
X268485Y188400D01*
Y193540D01*
X268385Y194047D01*
X268097Y194477D01*
X264645Y197930D01*
X264809Y198472D01*
X264846Y198480D01*
X269225Y194101D01*
Y185869D01*
X262381Y179025D01*
X229600D01*
Y182950D01*
X224000D01*
Y172450D01*
X229600D01*
Y176374D01*
X262930D01*
X263437Y176475D01*
X263867Y176763D01*
X271487Y184383D01*
X271775Y184813D01*
X271876Y185320D01*
Y194650D01*
X271775Y195157D01*
X271487Y195587D01*
X266018Y201056D01*
X265588Y201343D01*
X265081Y201444D01*
X260150D01*
Y202730D01*
X262556D01*
X263063Y202831D01*
X263493Y203119D01*
X264895Y204520D01*
X265182Y204950D01*
X265276Y205424D01*
X265680Y205828D01*
X265981Y206556D01*
Y207344D01*
X265680Y208072D01*
X265122Y208629D01*
X264394Y208931D01*
X263606D01*
X262878Y208629D01*
X262320Y208072D01*
X262019Y207344D01*
Y206556D01*
X262320Y205828D01*
X262387Y205761D01*
X262007Y205381D01*
X260150D01*
Y205447D01*
X255328D01*
Y210269D01*
X251591D01*
Y210469D01*
X249408D01*
Y213703D01*
X250517Y214811D01*
X256258D01*
X256521Y214178D01*
X257078Y213620D01*
X257806Y213319D01*
X258594D01*
X259322Y213620D01*
X259879Y214178D01*
X260181Y214906D01*
Y215694D01*
X259879Y216422D01*
X259393Y216909D01*
X259353Y217200D01*
X259393Y217491D01*
X259879Y217978D01*
X260181Y218706D01*
Y219494D01*
X259879Y220222D01*
X259322Y220779D01*
X258594Y221081D01*
D02*
G37*
G36*
X152500Y195216D02*
X152500Y195216D01*
X148100D01*
X148100Y195216D01*
X147788Y195154D01*
X147523Y194977D01*
X146823Y194277D01*
X146646Y194012D01*
X146584Y193700D01*
X146584Y193700D01*
Y177900D01*
X146584Y177900D01*
X146646Y177588D01*
X146823Y177323D01*
X147523Y176623D01*
X147788Y176446D01*
X148100Y176384D01*
X148100Y176384D01*
X150400D01*
Y172300D01*
X153400D01*
X156400D01*
Y176750D01*
X153657D01*
X153465Y177212D01*
X153777Y177523D01*
X153954Y177788D01*
X154016Y178100D01*
X154016Y178100D01*
Y193700D01*
X154016Y193700D01*
X153954Y194012D01*
X153777Y194277D01*
X153077Y194977D01*
X152812Y195154D01*
X152500Y195216D01*
D02*
G37*
G36*
X211650Y196300D02*
X207200D01*
Y194300D01*
X211650D01*
Y196300D01*
D02*
G37*
G36*
X205200D02*
X200750D01*
Y194300D01*
X205200D01*
Y196300D01*
D02*
G37*
G36*
X200150D02*
X195700D01*
Y194300D01*
X200150D01*
Y196300D01*
D02*
G37*
G36*
X193700D02*
X189250D01*
Y194300D01*
X193700D01*
Y196300D01*
D02*
G37*
G36*
X74550Y192600D02*
X70100D01*
Y190600D01*
X74550D01*
Y192600D01*
D02*
G37*
G36*
X218600Y193900D02*
X216600D01*
Y189450D01*
X218600D01*
Y193900D01*
D02*
G37*
G36*
X214600D02*
X212600D01*
Y189450D01*
X214600D01*
Y193900D01*
D02*
G37*
G36*
X57600Y188900D02*
X53150D01*
Y186900D01*
X57600D01*
Y188900D01*
D02*
G37*
G36*
X74550Y188600D02*
X70100D01*
Y186600D01*
X74550D01*
Y188600D01*
D02*
G37*
G36*
X64050Y192900D02*
X59600D01*
Y189900D01*
Y186900D01*
X63650D01*
Y186600D01*
X68100D01*
Y189600D01*
Y192600D01*
X64050D01*
Y192900D01*
D02*
G37*
G36*
X68823Y180191D02*
X64373D01*
Y178191D01*
X68823D01*
Y180191D01*
D02*
G37*
G36*
X62373D02*
X57923D01*
Y178191D01*
X62373D01*
Y180191D01*
D02*
G37*
G36*
X73809D02*
X69359D01*
Y178191D01*
X73809D01*
Y180191D01*
D02*
G37*
G36*
Y176191D02*
X69359D01*
Y174191D01*
X73809D01*
Y176191D01*
D02*
G37*
G36*
X68823Y176191D02*
X64373D01*
Y174191D01*
X68823D01*
Y176191D01*
D02*
G37*
G36*
X62373D02*
X57923D01*
Y174191D01*
X62373D01*
Y176191D01*
D02*
G37*
G36*
X109532Y256885D02*
X101318D01*
Y252135D01*
Y247804D01*
Y243474D01*
Y238512D01*
X94887D01*
X94380Y238412D01*
X93950Y238124D01*
X82263Y226437D01*
X81975Y226007D01*
X81875Y225500D01*
Y186650D01*
X80400D01*
Y180633D01*
X80259Y180191D01*
X79900Y180191D01*
X75809D01*
Y177191D01*
Y174191D01*
X80260D01*
Y175708D01*
X80400Y176150D01*
X80760Y176150D01*
X81875D01*
Y174700D01*
X81975Y174193D01*
X82263Y173763D01*
X101075Y154951D01*
Y99849D01*
X99951Y98725D01*
X93737D01*
Y100636D01*
X96562D01*
X96878Y100320D01*
X97606Y100019D01*
X98394D01*
X99122Y100320D01*
X99679Y100878D01*
X99981Y101606D01*
Y102394D01*
X99679Y103122D01*
X99122Y103680D01*
X98394Y103981D01*
X97606D01*
X96878Y103680D01*
X96485Y103287D01*
X93737D01*
Y109390D01*
Y110675D01*
X96524D01*
X96878Y110320D01*
X97606Y110019D01*
X98394D01*
X99122Y110320D01*
X99679Y110878D01*
X99981Y111606D01*
Y112394D01*
X99679Y113122D01*
X99122Y113680D01*
X98394Y113981D01*
X97606D01*
X96878Y113680D01*
X96524Y113326D01*
X93737D01*
Y119390D01*
Y124390D01*
Y129390D01*
Y134390D01*
Y139390D01*
Y143884D01*
X97100D01*
X97100Y143884D01*
X97412Y143946D01*
X97677Y144123D01*
X97677Y144123D01*
X98577Y145023D01*
X98577Y145023D01*
X98754Y145288D01*
X98816Y145600D01*
X98816Y145600D01*
X98816Y148000D01*
X98754Y148312D01*
X98577Y148577D01*
X98577Y148577D01*
X97877Y149277D01*
X97877Y149277D01*
X97612Y149454D01*
X97300Y149516D01*
X97300Y149516D01*
X94523D01*
X94331Y149978D01*
X94377Y150023D01*
X94554Y150288D01*
X94616Y150600D01*
X94616Y150600D01*
Y153200D01*
X94554Y153512D01*
X94377Y153777D01*
X94377Y153777D01*
X93937Y154217D01*
Y155961D01*
X86032D01*
Y155429D01*
X85602Y154999D01*
X85254D01*
X85016Y155238D01*
Y168000D01*
X85016Y168000D01*
X84954Y168312D01*
X84777Y168577D01*
X84777Y168577D01*
X82377Y170977D01*
X82377Y170977D01*
X82112Y171153D01*
X81800Y171216D01*
X81800Y171216D01*
X78300Y171216D01*
X58338D01*
X52016Y177538D01*
Y191862D01*
X52650Y192497D01*
X53150Y192289D01*
Y190900D01*
X57600D01*
Y192900D01*
X53761D01*
X53553Y193400D01*
X57538Y197384D01*
X73289D01*
X73289Y197384D01*
X73601Y197446D01*
X73866Y197623D01*
X73866Y197623D01*
X74243Y198000D01*
X74350D01*
Y198107D01*
X75177Y198934D01*
X75177Y198934D01*
X75354Y199199D01*
X75416Y199511D01*
X75416Y199511D01*
Y202305D01*
X75416Y202306D01*
X75416Y202306D01*
X75384Y202466D01*
X75354Y202618D01*
X75353Y202618D01*
X75353Y202619D01*
X75265Y202750D01*
X75177Y202882D01*
X75176Y202882D01*
X75176Y202883D01*
X73808Y204248D01*
X72754Y205301D01*
X72489Y205478D01*
X72177Y205540D01*
X72177Y205540D01*
X39708D01*
X34041Y211207D01*
X33777Y211384D01*
X33465Y211446D01*
X33465Y211446D01*
X25591Y211446D01*
X25278Y211384D01*
X25014Y211207D01*
X25014Y211207D01*
X23523Y209716D01*
X23346Y209451D01*
X23284Y209139D01*
X23284Y209139D01*
Y203416D01*
X23284Y193300D01*
X23284Y169939D01*
X23315Y169786D01*
X23345Y169630D01*
X23346Y169629D01*
X23346Y169627D01*
X23433Y169497D01*
X23520Y169365D01*
X23522Y169364D01*
X23523Y169362D01*
X23654Y169275D01*
X23784Y169187D01*
X23786Y169186D01*
X23788Y169185D01*
X23942Y169155D01*
X24096Y169123D01*
X24205Y169123D01*
Y169098D01*
X29328D01*
X42013Y169038D01*
X44384Y166656D01*
Y162100D01*
X44384Y162100D01*
X44446Y161788D01*
X44623Y161523D01*
X44623Y161523D01*
X56923Y149223D01*
X57188Y149046D01*
X57500Y148984D01*
X57500Y148984D01*
X69061D01*
X69342Y148520D01*
X69341Y148484D01*
X69284Y148200D01*
X69284Y148200D01*
Y145100D01*
X69284Y145100D01*
X69346Y144788D01*
X69523Y144523D01*
X69523Y144523D01*
X69923Y144123D01*
X69923Y144123D01*
X70150Y143972D01*
X70150Y143900D01*
X70500Y143884D01*
X70500Y143884D01*
X70644Y143884D01*
X86231D01*
Y139390D01*
Y133326D01*
X78400D01*
Y137250D01*
X72800D01*
Y126750D01*
X74274D01*
Y123600D01*
X70350D01*
Y118000D01*
X80850D01*
Y123600D01*
X76925D01*
Y126750D01*
X78400D01*
Y130675D01*
X86231D01*
Y129390D01*
Y124390D01*
Y119390D01*
Y114390D01*
Y109390D01*
Y104390D01*
Y99390D01*
Y93287D01*
X66229D01*
X65860Y93925D01*
X65125Y94661D01*
X64224Y95180D01*
X63220Y95450D01*
X62180D01*
X61176Y95180D01*
X60275Y94661D01*
X59540Y93925D01*
X59020Y93024D01*
X58750Y92020D01*
Y90980D01*
X59020Y89976D01*
X59540Y89075D01*
X60275Y88340D01*
X61176Y87820D01*
X62180Y87550D01*
X63220D01*
X64224Y87820D01*
X65125Y88340D01*
X65860Y89075D01*
X66380Y89976D01*
X66557Y90636D01*
X86231D01*
Y89390D01*
X93737D01*
Y94390D01*
Y96074D01*
X100500D01*
X101007Y96175D01*
X101437Y96463D01*
X103337Y98363D01*
X103625Y98793D01*
X103726Y99300D01*
Y155500D01*
X103625Y156007D01*
X103337Y156437D01*
X84526Y175249D01*
Y176150D01*
X86000D01*
Y186650D01*
X84526D01*
Y224951D01*
X95436Y235861D01*
X100950D01*
X101118Y235431D01*
X101118Y235431D01*
X101118D01*
X101118Y235431D01*
Y233856D01*
X105425D01*
X109732D01*
Y235431D01*
X109532D01*
Y239683D01*
X111122D01*
X113265Y237540D01*
Y206960D01*
X112820Y206516D01*
X97344Y206516D01*
X97032Y206454D01*
X96767Y206277D01*
X96767Y206277D01*
X95523Y205033D01*
X95346Y204768D01*
X95284Y204456D01*
X95284Y204456D01*
Y191438D01*
X90123Y186277D01*
X89946Y186012D01*
X89884Y185700D01*
X89884Y185700D01*
Y177100D01*
X89884Y177100D01*
X89946Y176788D01*
X90123Y176523D01*
X90123Y176523D01*
X92223Y174423D01*
X92488Y174246D01*
X92800Y174184D01*
X92800Y174184D01*
X117880D01*
X117880Y174184D01*
X118192Y174246D01*
X118457Y174423D01*
X119826Y175792D01*
X120002Y176057D01*
X120064Y176369D01*
X120064Y176369D01*
Y187851D01*
X120064Y187851D01*
X120002Y188163D01*
X119826Y188428D01*
X119826Y188428D01*
X116956Y191298D01*
X115416Y194036D01*
Y203920D01*
X116398Y204902D01*
X116796Y205498D01*
X116935Y206200D01*
Y238300D01*
X116886Y238547D01*
X117347Y238793D01*
X120808Y235333D01*
Y205150D01*
X118700D01*
Y194650D01*
X120808D01*
Y158731D01*
X105996Y143919D01*
X105709Y143489D01*
X105608Y142982D01*
Y91029D01*
X104705D01*
Y91229D01*
X102933D01*
Y87276D01*
Y83324D01*
X104705D01*
Y83524D01*
X149505D01*
Y91029D01*
X148258D01*
Y93567D01*
X148235Y93683D01*
X148696Y93929D01*
X151601Y91024D01*
X152031Y90737D01*
X152539Y90636D01*
X155129D01*
Y89390D01*
X162635D01*
Y94390D01*
Y100636D01*
X164990D01*
X168774Y96851D01*
Y94800D01*
X164850D01*
Y89200D01*
X175350D01*
Y94800D01*
X171425D01*
Y97400D01*
X171325Y97907D01*
X171037Y98337D01*
X170162Y99213D01*
X170353Y99674D01*
X175351D01*
X179726Y95300D01*
X179518Y94800D01*
X175950D01*
Y89200D01*
X186450D01*
Y94800D01*
X182526D01*
Y95700D01*
X182425Y96207D01*
X182137Y96637D01*
X177372Y101403D01*
X177563Y101865D01*
X201790D01*
X202000Y101692D01*
Y97700D01*
X204000D01*
Y102150D01*
X203332D01*
X203124Y102650D01*
X220949Y120475D01*
X230221D01*
X230575Y120121D01*
Y118989D01*
X230221Y118635D01*
X224800D01*
X224098Y118496D01*
X223502Y118098D01*
X219004Y113599D01*
X218606Y113004D01*
X218466Y112302D01*
Y109819D01*
X213323Y104676D01*
X213146Y104411D01*
X213084Y104099D01*
X213084Y104099D01*
Y85032D01*
X213084Y82300D01*
X213084Y82300D01*
X213146Y81988D01*
X213323Y81723D01*
X213323Y81723D01*
X215950Y79097D01*
X216214Y78920D01*
X216527Y78858D01*
X216527Y78858D01*
X218475Y78858D01*
Y75449D01*
X214363Y71337D01*
X214075Y70907D01*
X213974Y70400D01*
Y67990D01*
X213122D01*
Y64343D01*
X212250D01*
X212155Y64406D01*
X211500Y64536D01*
X199907D01*
X199425Y64579D01*
Y66154D01*
X190339D01*
Y64579D01*
X190539D01*
Y61068D01*
X190339D01*
Y59493D01*
X199425D01*
Y61068D01*
X199907Y61111D01*
X210174D01*
Y59800D01*
X210275Y59293D01*
X210563Y58863D01*
X215563Y53863D01*
X215993Y53575D01*
X216500Y53474D01*
X224163D01*
Y53016D01*
X227557D01*
Y47048D01*
X225937D01*
Y38952D01*
X231828D01*
Y47048D01*
X230208D01*
Y53016D01*
X230487D01*
Y56584D01*
X224163D01*
Y56125D01*
X217049D01*
X212825Y60349D01*
Y61304D01*
X215276D01*
X215858Y61420D01*
X216048Y61547D01*
X216583D01*
Y61347D01*
X217700D01*
Y64768D01*
X221339D01*
Y65192D01*
X222536D01*
Y63735D01*
X228664D01*
Y69665D01*
X222536D01*
Y68282D01*
X218961D01*
X218370Y68164D01*
X218109Y67990D01*
X216625D01*
Y69851D01*
X220737Y73963D01*
X221025Y74393D01*
X221126Y74900D01*
X221126Y74900D01*
Y78858D01*
X223074Y78858D01*
X223386Y78920D01*
X223650Y79097D01*
X223650Y79097D01*
X227032Y82479D01*
X227209Y82744D01*
X227271Y83056D01*
X227271Y83056D01*
X227271Y104292D01*
X227271Y104292D01*
X227209Y104604D01*
X227032Y104869D01*
X227032Y104869D01*
X222137Y109764D01*
Y111541D01*
X225560Y114965D01*
X230103D01*
X230418Y114465D01*
X230375Y114375D01*
X230375Y114008D01*
Y112800D01*
X234328D01*
X238280D01*
Y114008D01*
X238280Y114375D01*
X238080Y114792D01*
Y118925D01*
X238080Y119300D01*
X238080Y119675D01*
Y124175D01*
X238080D01*
Y124425D01*
X238080D01*
Y128925D01*
X238080Y129300D01*
X238080Y129675D01*
Y133925D01*
X238080Y134300D01*
X238080Y134675D01*
Y138925D01*
X238080Y139300D01*
X238080Y139675D01*
Y143808D01*
X238280Y144225D01*
X238280Y144592D01*
Y145800D01*
X234328D01*
X230375D01*
Y144592D01*
X230375Y144225D01*
X230575Y143808D01*
Y143479D01*
X230221Y143125D01*
X216476D01*
X216122Y143480D01*
X215394Y143781D01*
X214606D01*
X213878Y143480D01*
X213320Y142922D01*
X213019Y142194D01*
Y141406D01*
X213320Y140678D01*
X213878Y140120D01*
X214606Y139819D01*
X215394D01*
X216122Y140120D01*
X216476Y140474D01*
X230221D01*
X230575Y140121D01*
X230575Y139300D01*
X230575Y138925D01*
Y138126D01*
X216476D01*
X216122Y138479D01*
X215394Y138781D01*
X214606D01*
X213878Y138479D01*
X213320Y137922D01*
X213019Y137194D01*
Y136406D01*
X213320Y135678D01*
X213878Y135120D01*
X214606Y134819D01*
X215394D01*
X216122Y135120D01*
X216476Y135475D01*
X230221D01*
X230575Y135121D01*
X230575Y134300D01*
X230575Y133925D01*
Y133125D01*
X193496D01*
X193142Y133479D01*
X192414Y133781D01*
X191626D01*
X190898Y133479D01*
X190340Y132922D01*
X190039Y132194D01*
Y131406D01*
X190340Y130678D01*
X190898Y130121D01*
X191626Y129819D01*
X192414D01*
X193142Y130121D01*
X193496Y130474D01*
X230221D01*
X230575Y130121D01*
X230575Y129300D01*
X230575Y128925D01*
Y128126D01*
X221160D01*
X220653Y128025D01*
X220223Y127737D01*
X200051Y107565D01*
X171969D01*
X169755Y109779D01*
Y116866D01*
X169655Y117373D01*
X169367Y117803D01*
X164272Y122899D01*
X163842Y123186D01*
X163335Y123287D01*
X162635D01*
Y129390D01*
Y135636D01*
X163335D01*
X163842Y135737D01*
X164272Y136024D01*
X170037Y141789D01*
X170325Y142219D01*
X170425Y142727D01*
Y163051D01*
X170858Y163483D01*
X171320Y163292D01*
Y162800D01*
X174272D01*
Y164375D01*
X172403D01*
X172211Y164837D01*
X172549Y165174D01*
X189900D01*
X190407Y165275D01*
X190837Y165563D01*
X201649Y176374D01*
X212800D01*
Y172450D01*
X218400D01*
Y182950D01*
X212800D01*
Y179025D01*
X201100D01*
X200593Y178925D01*
X200163Y178637D01*
X197725Y176200D01*
X197225Y176407D01*
Y179650D01*
X198700D01*
Y190150D01*
X193100D01*
Y179650D01*
X194574D01*
Y176549D01*
X188151Y170125D01*
X171500D01*
X170993Y170025D01*
X170563Y169737D01*
X166263Y165437D01*
X165975Y165007D01*
X165875Y164500D01*
Y153760D01*
X165375Y153493D01*
X164842Y153713D01*
X164054D01*
X163326Y153412D01*
X163135Y153221D01*
X162635Y153428D01*
Y154190D01*
X162835D01*
Y155961D01*
X154929D01*
Y154190D01*
X155129D01*
Y148287D01*
X154515D01*
X154222Y148580D01*
X153494Y148881D01*
X152706D01*
X151978Y148580D01*
X151420Y148022D01*
X151119Y147294D01*
Y146506D01*
X151420Y145778D01*
X151978Y145220D01*
X152706Y144919D01*
X153494D01*
X154222Y145220D01*
X154629Y145627D01*
X155129Y145615D01*
Y139390D01*
Y133226D01*
X146676D01*
X146322Y133580D01*
X145594Y133881D01*
X144806D01*
X144078Y133580D01*
X143520Y133022D01*
X143219Y132294D01*
Y131506D01*
X143520Y130778D01*
X144078Y130220D01*
X144806Y129919D01*
X145594D01*
X146322Y130220D01*
X146676Y130575D01*
X155129D01*
Y124390D01*
Y119390D01*
Y113525D01*
X154576D01*
X154222Y113880D01*
X153494Y114181D01*
X152706D01*
X151978Y113880D01*
X151420Y113322D01*
X151119Y112594D01*
Y111806D01*
X151420Y111078D01*
X151978Y110521D01*
X152706Y110219D01*
X153494D01*
X154222Y110521D01*
X154576Y110874D01*
X155129D01*
Y109390D01*
Y104390D01*
Y99390D01*
Y98058D01*
X154576D01*
X154222Y98412D01*
X153494Y98713D01*
X152706D01*
X151978Y98412D01*
X151420Y97855D01*
X151119Y97126D01*
Y96338D01*
X151420Y95610D01*
X151031Y95344D01*
X140825Y105549D01*
Y155524D01*
X141180Y155878D01*
X141481Y156606D01*
Y157394D01*
X141180Y158122D01*
X140622Y158679D01*
X139894Y158981D01*
X139106D01*
X138378Y158679D01*
X137820Y158122D01*
X137519Y157394D01*
Y156606D01*
X137820Y155878D01*
X138174Y155524D01*
Y154905D01*
X137674Y154856D01*
X137625Y155107D01*
X137337Y155537D01*
X134132Y158743D01*
Y223626D01*
X134869Y224051D01*
X135494Y224677D01*
X135936Y225443D01*
X136165Y226297D01*
Y227182D01*
X135936Y228036D01*
X135494Y228802D01*
X134869Y229427D01*
X134103Y229870D01*
X133248Y230098D01*
X132364D01*
X131510Y229870D01*
X130744Y229427D01*
X130118Y228802D01*
X129676Y228036D01*
X129447Y227182D01*
Y226297D01*
X129676Y225443D01*
X130118Y224677D01*
X130744Y224051D01*
X131481Y223626D01*
Y158301D01*
X131223Y158134D01*
X130993Y158081D01*
X128325Y160749D01*
Y176150D01*
X129800D01*
Y186650D01*
X128325D01*
Y234900D01*
X128225Y235407D01*
X127937Y235837D01*
X113733Y250042D01*
X113303Y250329D01*
X112796Y250430D01*
X109532D01*
Y252135D01*
Y256885D01*
D02*
G37*
G36*
X269000Y172051D02*
Y167800D01*
X273251D01*
X272967Y168858D01*
X272266Y170073D01*
X271273Y171066D01*
X270058Y171767D01*
X269000Y172051D01*
D02*
G37*
G36*
X249000D02*
Y167800D01*
X253251D01*
X252967Y168858D01*
X252266Y170073D01*
X251273Y171066D01*
X250058Y171767D01*
X249000Y172051D01*
D02*
G37*
G36*
X267000Y172051D02*
X265942Y171767D01*
X264727Y171066D01*
X263734Y170073D01*
X263033Y168858D01*
X262749Y167800D01*
X267000D01*
Y172051D01*
D02*
G37*
G36*
X247000D02*
X245942Y171767D01*
X244727Y171066D01*
X243734Y170073D01*
X243033Y168858D01*
X242749Y167800D01*
X247000D01*
Y172051D01*
D02*
G37*
G36*
X156400Y170300D02*
X154400D01*
Y165850D01*
X156400D01*
Y170300D01*
D02*
G37*
G36*
X152400D02*
X150400D01*
Y165850D01*
X152400D01*
Y170300D01*
D02*
G37*
G36*
X238280Y164375D02*
X235328D01*
Y162800D01*
X238280D01*
Y164375D01*
D02*
G37*
G36*
X179225D02*
X176272D01*
Y162800D01*
X179225D01*
Y164375D01*
D02*
G37*
G36*
X233328D02*
X230375D01*
Y162800D01*
X233328D01*
Y164375D01*
D02*
G37*
G36*
X273251Y165800D02*
X269000D01*
Y161549D01*
X270058Y161833D01*
X271273Y162534D01*
X272266Y163527D01*
X272967Y164742D01*
X273251Y165800D01*
D02*
G37*
G36*
X253251D02*
X249000D01*
Y161549D01*
X250058Y161833D01*
X251273Y162534D01*
X252266Y163527D01*
X252967Y164742D01*
X253251Y165800D01*
D02*
G37*
G36*
X267000D02*
X262749D01*
X263033Y164742D01*
X263734Y163527D01*
X264727Y162534D01*
X265942Y161833D01*
X267000Y161549D01*
Y165800D01*
D02*
G37*
G36*
X247000D02*
X242749D01*
X243033Y164742D01*
X243734Y163527D01*
X244727Y162534D01*
X245942Y161833D01*
X247000Y161549D01*
Y165800D01*
D02*
G37*
G36*
X258624Y161537D02*
X257376D01*
X256172Y161214D01*
X255091Y160591D01*
X254209Y159709D01*
X253586Y158628D01*
X253547Y158482D01*
X238409D01*
X238164Y158982D01*
X238280Y159225D01*
X238280Y159592D01*
Y160800D01*
X234328D01*
X230375D01*
Y159592D01*
X230375Y159225D01*
X230575Y158808D01*
Y154792D01*
X230375Y154375D01*
X230375Y154008D01*
Y152800D01*
X234328D01*
X238280D01*
Y154008D01*
X238280Y154375D01*
X238164Y154618D01*
X238409Y155118D01*
X253547D01*
X253586Y154972D01*
X254209Y153891D01*
X255091Y153009D01*
X256172Y152386D01*
X257376Y152063D01*
X258624D01*
X259828Y152386D01*
X260909Y153009D01*
X261790Y153891D01*
X262414Y154972D01*
X262737Y156176D01*
Y157424D01*
X262414Y158628D01*
X261790Y159709D01*
X260909Y160591D01*
X259828Y161214D01*
X258624Y161537D01*
D02*
G37*
G36*
X162835Y159733D02*
X159882D01*
Y157961D01*
X162835D01*
Y159733D01*
D02*
G37*
G36*
X157882D02*
X154929D01*
Y157961D01*
X157882D01*
Y159733D01*
D02*
G37*
G36*
X93937D02*
X90984D01*
Y157961D01*
X93937D01*
Y159733D01*
D02*
G37*
G36*
X88984D02*
X86032D01*
Y157961D01*
X88984D01*
Y159733D01*
D02*
G37*
G36*
X179225Y160800D02*
X175272D01*
X171320D01*
Y159225D01*
Y157800D01*
X175272D01*
X179225D01*
Y159225D01*
Y160800D01*
D02*
G37*
G36*
Y155800D02*
X175272D01*
X171320D01*
Y154225D01*
Y152800D01*
X175272D01*
X179225D01*
Y154225D01*
Y155800D01*
D02*
G37*
G36*
X269000Y152051D02*
Y147800D01*
X273251D01*
X272967Y148858D01*
X272266Y150073D01*
X271273Y151066D01*
X270058Y151767D01*
X269000Y152051D01*
D02*
G37*
G36*
X249000D02*
Y147800D01*
X253251D01*
X252967Y148858D01*
X252266Y150073D01*
X251273Y151066D01*
X250058Y151767D01*
X249000Y152051D01*
D02*
G37*
G36*
X238280Y150800D02*
X234328D01*
X230375D01*
Y149225D01*
Y147800D01*
X234328D01*
X238280D01*
Y149225D01*
Y150800D01*
D02*
G37*
G36*
X179225D02*
X175272D01*
X171320D01*
Y149225D01*
Y147800D01*
X175272D01*
X179225D01*
Y149225D01*
Y150800D01*
D02*
G37*
G36*
X267000Y152051D02*
X265942Y151767D01*
X264727Y151066D01*
X263734Y150073D01*
X263033Y148858D01*
X262749Y147800D01*
X267000D01*
Y152051D01*
D02*
G37*
G36*
X247000D02*
X245942Y151767D01*
X244727Y151066D01*
X243734Y150073D01*
X243033Y148858D01*
X242749Y147800D01*
X247000D01*
Y152051D01*
D02*
G37*
G36*
X273251Y145800D02*
X269000D01*
Y141549D01*
X270058Y141833D01*
X271273Y142534D01*
X272266Y143527D01*
X272967Y144742D01*
X273251Y145800D01*
D02*
G37*
G36*
X253251D02*
X249000D01*
Y141549D01*
X250058Y141833D01*
X251273Y142534D01*
X252266Y143527D01*
X252967Y144742D01*
X253251Y145800D01*
D02*
G37*
G36*
X267000D02*
X262749D01*
X263033Y144742D01*
X263734Y143527D01*
X264727Y142534D01*
X265942Y141833D01*
X267000Y141549D01*
Y145800D01*
D02*
G37*
G36*
X247000D02*
X242749D01*
X243033Y144742D01*
X243734Y143527D01*
X244727Y142534D01*
X245942Y141833D01*
X247000Y141549D01*
Y145800D01*
D02*
G37*
G36*
X179225D02*
X175272D01*
X171320D01*
Y144592D01*
X171320Y144225D01*
X171520Y143808D01*
Y139675D01*
X171520Y139300D01*
X171520Y138925D01*
Y134675D01*
X171520Y134300D01*
X171520Y133925D01*
Y129675D01*
X171520Y129300D01*
X171520Y128925D01*
Y124675D01*
X171520Y124300D01*
X171520Y123925D01*
Y119675D01*
X171520Y119300D01*
X171520Y118925D01*
Y114792D01*
X171320Y114375D01*
X171320Y114008D01*
Y112800D01*
X175272D01*
X179225D01*
Y114008D01*
X179225Y114375D01*
X179025Y114792D01*
Y118925D01*
X179025Y119300D01*
X179025Y119675D01*
Y123925D01*
X179025Y124300D01*
X179025Y124675D01*
Y128925D01*
X179025Y129300D01*
X179025Y129675D01*
Y133925D01*
X179025Y134300D01*
X179025Y134675D01*
Y138925D01*
X179025Y139300D01*
X179025Y139675D01*
Y140375D01*
X182524D01*
X182878Y140021D01*
X183606Y139719D01*
X184394D01*
X185122Y140021D01*
X185679Y140578D01*
X185981Y141306D01*
Y142094D01*
X185679Y142822D01*
X185122Y143379D01*
X184394Y143681D01*
X183606D01*
X182878Y143379D01*
X182524Y143026D01*
X179379D01*
X179025Y143379D01*
Y143808D01*
X179225Y144225D01*
X179225Y144592D01*
Y145800D01*
D02*
G37*
G36*
X45200Y133963D02*
X42376D01*
X42517Y133437D01*
X43037Y132536D01*
X43773Y131800D01*
X44674Y131280D01*
X45200Y131139D01*
Y133963D01*
D02*
G37*
G36*
X23300D02*
X20476D01*
X20617Y133437D01*
X21137Y132536D01*
X21873Y131800D01*
X22774Y131280D01*
X23300Y131139D01*
Y133963D01*
D02*
G37*
G36*
X50024D02*
X47200D01*
Y131139D01*
X47726Y131280D01*
X48627Y131800D01*
X49363Y132536D01*
X49883Y133437D01*
X50024Y133963D01*
D02*
G37*
G36*
X28124D02*
X25300D01*
Y131139D01*
X25826Y131280D01*
X26727Y131800D01*
X27463Y132536D01*
X27983Y133437D01*
X28124Y133963D01*
D02*
G37*
G36*
X6700Y181916D02*
X6388Y181854D01*
X6123Y181677D01*
X3360Y178914D01*
X3360Y178914D01*
X3183Y178649D01*
X3121Y178337D01*
X3121Y178337D01*
Y104563D01*
X3183Y104251D01*
X3360Y103986D01*
X3360Y103986D01*
X5423Y101923D01*
X5688Y101746D01*
X6000Y101684D01*
X6000Y101684D01*
X16418Y101684D01*
X16730Y101746D01*
X16995Y101923D01*
X16995Y101923D01*
X18977Y103905D01*
X18977Y103905D01*
X19154Y104170D01*
X19216Y104482D01*
X19216Y104482D01*
Y110734D01*
X19216Y110734D01*
X19154Y111046D01*
X18977Y111311D01*
X18977Y111311D01*
X13414Y116873D01*
X13414Y134861D01*
X16638Y138084D01*
X21178D01*
X21369Y137622D01*
X21137Y137390D01*
X20617Y136489D01*
X20476Y135963D01*
X24300D01*
X28124D01*
X27983Y136489D01*
X27463Y137390D01*
X27231Y137622D01*
X27422Y138084D01*
X43078D01*
X43269Y137622D01*
X43037Y137390D01*
X42517Y136489D01*
X42376Y135963D01*
X46200D01*
X50024D01*
X49883Y136489D01*
X49363Y137390D01*
X49131Y137622D01*
X49322Y138084D01*
X51600D01*
X51600Y138084D01*
X51912Y138146D01*
X52177Y138323D01*
X54346Y140492D01*
X60792D01*
X62055Y139229D01*
Y137250D01*
X61600D01*
Y126750D01*
X67200D01*
Y137250D01*
X66745D01*
Y140200D01*
X66745Y140200D01*
X66567Y141097D01*
X66058Y141858D01*
X66058Y141858D01*
X63421Y144495D01*
X62660Y145004D01*
X61763Y145182D01*
X55071D01*
X50777Y149477D01*
X50777Y149477D01*
X50512Y149654D01*
X50200Y149716D01*
X50200Y149716D01*
X26638D01*
X20416Y155938D01*
Y178400D01*
X20416Y178400D01*
X20354Y178712D01*
X20177Y178977D01*
X17477Y181677D01*
X17477Y181677D01*
X17212Y181854D01*
X16900Y181916D01*
X16900Y181916D01*
X6700Y181916D01*
X6700Y181916D01*
D02*
G37*
G36*
X22773Y125135D02*
X20773D01*
Y120685D01*
X22773D01*
Y125135D01*
D02*
G37*
G36*
X18773D02*
X16773D01*
Y120685D01*
X18773D01*
Y125135D01*
D02*
G37*
G36*
X22773Y118685D02*
X20773D01*
Y114235D01*
X22773D01*
Y118685D01*
D02*
G37*
G36*
X18773D02*
X16773D01*
Y114235D01*
X18773D01*
Y118685D01*
D02*
G37*
G36*
X63700Y115528D02*
Y112500D01*
X66728D01*
X66567Y113102D01*
X66021Y114048D01*
X65248Y114821D01*
X64302Y115367D01*
X63700Y115528D01*
D02*
G37*
G36*
X61700D02*
X61098Y115367D01*
X60152Y114821D01*
X59380Y114048D01*
X58833Y113102D01*
X58672Y112500D01*
X61700D01*
Y115528D01*
D02*
G37*
G36*
X81050Y112600D02*
X76600D01*
Y110600D01*
X81050D01*
Y112600D01*
D02*
G37*
G36*
X74600D02*
X70150D01*
Y110600D01*
X74600D01*
Y112600D01*
D02*
G37*
G36*
X238280Y110800D02*
X235328D01*
Y109225D01*
X238280D01*
Y110800D01*
D02*
G37*
G36*
X233328D02*
X230375D01*
Y109225D01*
X233328D01*
Y110800D01*
D02*
G37*
G36*
X179225D02*
X176272D01*
Y109225D01*
X179225D01*
Y110800D01*
D02*
G37*
G36*
X174272D02*
X171320D01*
Y109225D01*
X174272D01*
Y110800D01*
D02*
G37*
G36*
X66728Y110500D02*
X63700D01*
Y107472D01*
X64302Y107633D01*
X65248Y108179D01*
X66021Y108952D01*
X66567Y109898D01*
X66728Y110500D01*
D02*
G37*
G36*
X61700D02*
X58672D01*
X58833Y109898D01*
X59380Y108952D01*
X60152Y108179D01*
X61098Y107633D01*
X61700Y107472D01*
Y110500D01*
D02*
G37*
G36*
X81050Y108600D02*
X76600D01*
Y106600D01*
X81050D01*
Y108600D01*
D02*
G37*
G36*
X74600D02*
X70150D01*
Y106600D01*
X74600D01*
Y108600D01*
D02*
G37*
G36*
X238300Y102166D02*
X236300D01*
Y97716D01*
X238300D01*
Y102166D01*
D02*
G37*
G36*
X234300D02*
X232300D01*
Y97716D01*
X234300D01*
Y102166D01*
D02*
G37*
G36*
X208000Y102150D02*
X206000D01*
Y97700D01*
X208000D01*
Y102150D01*
D02*
G37*
G36*
X63220Y105450D02*
X62180D01*
X61176Y105180D01*
X60275Y104660D01*
X59540Y103925D01*
X59465Y103796D01*
X57150D01*
X56253Y103617D01*
X55492Y103109D01*
X52042Y99658D01*
X51534Y98897D01*
X51355Y98000D01*
Y83071D01*
X46729Y78445D01*
X31609D01*
X29577Y80477D01*
X29312Y80654D01*
X29000Y80716D01*
X29000Y80716D01*
X21838D01*
X19416Y83138D01*
X19416Y91978D01*
X19411Y92002D01*
X19414Y92026D01*
X19380Y92157D01*
X19354Y92290D01*
X19340Y92310D01*
X19334Y92334D01*
X19252Y92442D01*
X19177Y92554D01*
X19157Y92568D01*
X19142Y92587D01*
X16979Y94510D01*
X16862Y94578D01*
X16750Y94654D01*
X16726Y94658D01*
X16705Y94671D01*
X16570Y94689D01*
X16438Y94716D01*
X6300D01*
X5988Y94654D01*
X5723Y94477D01*
X5723Y94477D01*
X3923Y92677D01*
X3923Y92677D01*
X3746Y92412D01*
X3684Y92100D01*
X3684Y92100D01*
Y75800D01*
X3746Y75488D01*
X3923Y75223D01*
X3923Y75223D01*
X7123Y72023D01*
X7388Y71846D01*
X7700Y71784D01*
X7700Y71784D01*
X29200D01*
X29200Y71784D01*
X29512Y71846D01*
X29777Y72023D01*
X29777Y72023D01*
X31508Y73755D01*
X47700D01*
X48597Y73934D01*
X49358Y74442D01*
X55358Y80442D01*
X55866Y81203D01*
X56045Y82100D01*
Y97029D01*
X58122Y99105D01*
X59522D01*
X59540Y99075D01*
X60275Y98339D01*
X61176Y97820D01*
X62180Y97550D01*
X63220D01*
X64224Y97820D01*
X65125Y98339D01*
X65860Y99075D01*
X66380Y99976D01*
X66650Y100980D01*
Y102020D01*
X66380Y103024D01*
X65860Y103925D01*
X65125Y104660D01*
X64224Y105180D01*
X63220Y105450D01*
D02*
G37*
G36*
X238300Y95716D02*
X236300D01*
Y91266D01*
X238300D01*
Y95716D01*
D02*
G37*
G36*
X234300D02*
X232300D01*
Y91266D01*
X234300D01*
Y95716D01*
D02*
G37*
G36*
X208000Y95700D02*
X206000D01*
Y91250D01*
X208000D01*
Y95700D01*
D02*
G37*
G36*
X204000D02*
X202000D01*
Y91250D01*
X204000D01*
Y95700D01*
D02*
G37*
G36*
X100933Y91229D02*
X99161D01*
Y88276D01*
X100933D01*
Y91229D01*
D02*
G37*
G36*
Y86276D02*
X99161D01*
Y83324D01*
X100933D01*
Y86276D01*
D02*
G37*
G36*
X270632Y75574D02*
X266301D01*
Y73507D01*
X270632D01*
Y75574D01*
D02*
G37*
G36*
X264301D02*
X259970D01*
Y73507D01*
X264301D01*
Y75574D01*
D02*
G37*
G36*
X83800Y84280D02*
X68800D01*
X68195Y84160D01*
X67682Y83817D01*
X55545Y71680D01*
X36600D01*
X35995Y71560D01*
X35482Y71218D01*
X32958Y68693D01*
X32615Y68180D01*
X32495Y67575D01*
Y64891D01*
X31275D01*
Y54391D01*
X32471D01*
Y51011D01*
X31086D01*
Y50610D01*
X28025D01*
Y51841D01*
X17525D01*
Y46241D01*
X28025D01*
Y47449D01*
X31086D01*
Y47049D01*
X37017D01*
Y51011D01*
X35632D01*
Y54391D01*
X36875D01*
Y64891D01*
X35656D01*
Y66921D01*
X37255Y68520D01*
X56200D01*
X56805Y68640D01*
X57318Y68982D01*
X69455Y81120D01*
X83145D01*
X87884Y76381D01*
Y70046D01*
X87416Y69891D01*
X87384Y69890D01*
X85471Y71803D01*
X85041Y72091D01*
X84534Y72192D01*
X83814D01*
Y76116D01*
X78214D01*
Y72192D01*
X75466D01*
X74959Y72091D01*
X74529Y71803D01*
X69207Y66481D01*
X68706D01*
X67978Y66180D01*
X67421Y65622D01*
X67119Y64894D01*
Y64393D01*
X53081Y50355D01*
X45678D01*
Y51011D01*
X39748D01*
Y47049D01*
X45678D01*
Y47704D01*
X53630D01*
X54137Y47805D01*
X54567Y48093D01*
X68993Y62519D01*
X69494D01*
X70222Y62821D01*
X70780Y63378D01*
X71081Y64106D01*
Y64607D01*
X76015Y69541D01*
X78214D01*
Y65616D01*
X83814D01*
Y69004D01*
X84314Y69211D01*
X85129Y68397D01*
Y54336D01*
X83618Y52825D01*
X74800D01*
X74293Y52725D01*
X73863Y52437D01*
X70913Y49488D01*
X70626Y49058D01*
X70525Y48550D01*
X70576Y48294D01*
Y46469D01*
X68393D01*
Y45420D01*
X62395D01*
X61326Y46585D01*
Y48451D01*
X69949Y57074D01*
X70449D01*
X71177Y57376D01*
X71531Y57730D01*
X78214D01*
Y53805D01*
X83814D01*
Y64305D01*
X78214D01*
Y60381D01*
X71531D01*
X71177Y60735D01*
X70449Y61036D01*
X69661D01*
X68933Y60735D01*
X68376Y60177D01*
X68074Y59449D01*
Y58948D01*
X59063Y49937D01*
X58775Y49507D01*
X58675Y49000D01*
Y46628D01*
X57466Y45420D01*
X45678D01*
Y46090D01*
X39748D01*
Y42128D01*
X45678D01*
Y42769D01*
X68393D01*
Y41720D01*
X80847Y41720D01*
X80890Y41720D01*
X80890Y41677D01*
Y41677D01*
X80890Y41677D01*
Y41354D01*
X82465D01*
Y42043D01*
X81256D01*
X81213Y42043D01*
X81213Y42086D01*
Y42086D01*
X81213Y42086D01*
Y46469D01*
X80125D01*
X79858Y46969D01*
X79928Y47074D01*
X86650D01*
Y45600D01*
X97150D01*
Y50526D01*
X97650Y50734D01*
X100017Y48366D01*
Y33300D01*
X86650D01*
Y31735D01*
X85839D01*
Y34928D01*
Y38206D01*
X85950Y38273D01*
X86078Y38200D01*
X90900D01*
Y40200D01*
X86539D01*
X86450Y40200D01*
X86039Y40416D01*
Y42043D01*
X84465D01*
Y40354D01*
X83465D01*
Y39875D01*
X81090D01*
Y39354D01*
X80890D01*
Y38665D01*
X81090D01*
Y34928D01*
Y31735D01*
X72436D01*
X71968Y31642D01*
X71571Y31377D01*
X70985Y30791D01*
X70720Y30394D01*
X70627Y29926D01*
Y29146D01*
X68842D01*
X68517Y29147D01*
X68516Y29472D01*
Y34928D01*
Y39875D01*
X63767D01*
Y36897D01*
Y32960D01*
Y29023D01*
X68068D01*
X68393Y29023D01*
X68393Y28698D01*
Y24397D01*
X74513D01*
Y22750D01*
X73000D01*
Y12250D01*
X78600D01*
Y22750D01*
X77062D01*
Y24397D01*
X77276D01*
Y29146D01*
X77718Y29288D01*
X77794D01*
X78235Y29146D01*
Y24397D01*
X81213D01*
Y28698D01*
X81213Y29023D01*
X81539Y29023D01*
X85839D01*
Y29288D01*
X86650D01*
Y27700D01*
X107612D01*
Y33300D01*
X104707D01*
Y49338D01*
X104529Y50235D01*
X104020Y50996D01*
X100216Y54801D01*
X100216Y61162D01*
X103438Y64384D01*
X116576Y64384D01*
Y64365D01*
X118935D01*
Y64165D01*
X119820D01*
Y64364D01*
X119947D01*
Y68117D01*
Y71870D01*
X119820D01*
Y72070D01*
X118935D01*
Y71870D01*
X118141D01*
X118126Y71873D01*
X116481D01*
X115416Y72938D01*
Y78500D01*
X115416Y78500D01*
X115354Y78812D01*
X115177Y79077D01*
X115177Y79077D01*
X112577Y81677D01*
X112312Y81854D01*
X112000Y81916D01*
X112000Y81916D01*
X104300D01*
X103988Y81854D01*
X103723Y81677D01*
X103723Y81677D01*
X100662Y78616D01*
X90119D01*
X84917Y83817D01*
X84405Y84160D01*
X83800Y84280D01*
D02*
G37*
G36*
X270632Y71507D02*
X266301D01*
Y69440D01*
X270632D01*
Y71507D01*
D02*
G37*
G36*
X242900Y71950D02*
X237300D01*
Y68413D01*
X235750D01*
Y69665D01*
X229623D01*
Y63735D01*
X235750D01*
Y64987D01*
X237300D01*
Y61450D01*
X242900D01*
Y71950D01*
D02*
G37*
G36*
X199425Y69729D02*
X195882D01*
Y68154D01*
X199425D01*
Y69729D01*
D02*
G37*
G36*
X193882D02*
X190339D01*
Y68154D01*
X193882D01*
Y69729D01*
D02*
G37*
G36*
X270632Y63960D02*
X266301D01*
Y61893D01*
X270632D01*
Y63960D01*
D02*
G37*
G36*
X254100Y71950D02*
X248500D01*
Y61450D01*
X254100D01*
Y64987D01*
X256233D01*
Y63932D01*
X259970D01*
Y61893D01*
X264301D01*
Y63960D01*
X261967D01*
Y69440D01*
X264301D01*
Y71507D01*
X259970D01*
Y69468D01*
X256233D01*
Y68413D01*
X254100D01*
Y71950D01*
D02*
G37*
G36*
X48275Y65091D02*
X46275D01*
Y60641D01*
X48275D01*
Y65091D01*
D02*
G37*
G36*
X44275D02*
X42275D01*
Y60641D01*
X44275D01*
Y65091D01*
D02*
G37*
G36*
X114450Y59900D02*
X110000D01*
Y57900D01*
X114450D01*
Y59900D01*
D02*
G37*
G36*
X108000D02*
X103550D01*
Y57900D01*
X108000D01*
Y59900D01*
D02*
G37*
G36*
X270632Y59893D02*
X266301D01*
Y57826D01*
X270632D01*
Y59893D01*
D02*
G37*
G36*
X264301D02*
X259970D01*
Y57826D01*
X264301D01*
Y59893D01*
D02*
G37*
G36*
X48275Y58641D02*
X46275D01*
Y54191D01*
X48275D01*
Y58641D01*
D02*
G37*
G36*
X44275D02*
X42275D01*
Y54191D01*
X44275D01*
Y58641D01*
D02*
G37*
G36*
X114450Y55900D02*
X110000D01*
Y53900D01*
X114450D01*
Y55900D01*
D02*
G37*
G36*
X108000D02*
X103550D01*
Y53900D01*
X108000D01*
Y55900D01*
D02*
G37*
G36*
X199425Y57493D02*
X190339D01*
Y55918D01*
X190539D01*
Y51787D01*
Y47457D01*
X193556D01*
Y45618D01*
X193657Y45111D01*
X193945Y44681D01*
X197568Y41057D01*
X197377Y40595D01*
X195882D01*
Y38021D01*
X194882D01*
Y37020D01*
X190339D01*
Y35446D01*
X190539D01*
Y31315D01*
Y26984D01*
Y22654D01*
Y18323D01*
Y13992D01*
Y9661D01*
X199225D01*
Y13992D01*
Y19372D01*
X205568D01*
X208987Y15953D01*
X208780Y15453D01*
X206650D01*
Y7947D01*
X214550D01*
Y15453D01*
X211926D01*
Y16214D01*
X211825Y16721D01*
X211537Y17152D01*
X209701Y18988D01*
X209892Y19450D01*
X214800D01*
Y29950D01*
X213326D01*
Y31100D01*
X213225Y31607D01*
X212937Y32037D01*
X205275Y39700D01*
X205482Y40200D01*
X211250D01*
Y41675D01*
X212354D01*
Y38952D01*
X218246D01*
Y47048D01*
X212354D01*
Y44326D01*
X211250D01*
Y45800D01*
X200750D01*
Y42278D01*
X200288Y42086D01*
X196207Y46167D01*
Y47457D01*
X199225D01*
Y52874D01*
X200750D01*
Y51400D01*
X211250D01*
Y57000D01*
X200750D01*
Y55525D01*
X199684D01*
X199425Y55918D01*
Y57493D01*
D02*
G37*
G36*
X224942Y49709D02*
X223091D01*
Y47858D01*
X224942D01*
Y49709D01*
D02*
G37*
G36*
X221091D02*
X219241D01*
Y47858D01*
X221091D01*
Y49709D01*
D02*
G37*
G36*
X151981Y69529D02*
X143295D01*
Y64780D01*
Y60449D01*
Y56118D01*
Y51787D01*
Y47457D01*
X151981D01*
Y51787D01*
Y56118D01*
Y60449D01*
Y64780D01*
Y69529D01*
D02*
G37*
G36*
X224942Y45858D02*
X223091D01*
Y44008D01*
X224942D01*
Y45858D01*
D02*
G37*
G36*
X221091D02*
X219241D01*
Y44008D01*
X221091D01*
Y45858D01*
D02*
G37*
G36*
X37017Y46090D02*
X31086D01*
Y45434D01*
X24643D01*
X24136Y45333D01*
X23706Y45046D01*
X21838Y43178D01*
X21551Y42748D01*
X21450Y42241D01*
Y40641D01*
X17525D01*
Y35041D01*
X28025D01*
Y40641D01*
X24101D01*
Y41692D01*
X25192Y42783D01*
X31086D01*
Y42128D01*
X37017D01*
Y46090D01*
D02*
G37*
G36*
X37217Y41368D02*
X35052D01*
Y40187D01*
X37217D01*
Y41368D01*
D02*
G37*
G36*
X33051D02*
X30886D01*
Y40187D01*
X33051D01*
Y41368D01*
D02*
G37*
G36*
X193882Y40595D02*
X190339D01*
Y39020D01*
X193882D01*
Y40595D01*
D02*
G37*
G36*
X92900Y40200D02*
Y38200D01*
X97350D01*
Y40200D01*
X92900D01*
D02*
G37*
G36*
X242900Y38116D02*
X242900Y38116D01*
X241599D01*
X241599Y38116D01*
X241598Y38116D01*
X241442Y38084D01*
X241287Y38054D01*
X241287Y38053D01*
X241286Y38053D01*
X241157Y37967D01*
X241022Y37877D01*
X241022Y37876D01*
X241022Y37876D01*
X240654Y37508D01*
X240514D01*
Y37368D01*
X239918Y36771D01*
X239918Y36771D01*
X239918Y36770D01*
X239831Y36641D01*
X239741Y36506D01*
X239741Y36506D01*
X239741Y36505D01*
X239712Y36357D01*
X239680Y36194D01*
X239680Y36193D01*
X239680Y36193D01*
X239686Y32241D01*
X238263Y30816D01*
X221400Y30816D01*
X221088Y30754D01*
X220823Y30577D01*
X220823Y30577D01*
X219323Y29077D01*
X219323Y29077D01*
X219146Y28812D01*
X219084Y28500D01*
X219084Y28500D01*
X219084Y20800D01*
X219084Y20800D01*
X219146Y20488D01*
X219323Y20223D01*
X220623Y18923D01*
X220623Y18923D01*
X220888Y18746D01*
X221200Y18684D01*
X221200Y18684D01*
X250600D01*
X250600Y18684D01*
X250912Y18746D01*
X251177Y18923D01*
X252577Y20323D01*
X252754Y20588D01*
X252816Y20900D01*
X252816Y20900D01*
Y25300D01*
X252754Y25612D01*
X252577Y25877D01*
X252577Y25877D01*
X251177Y27277D01*
X250912Y27454D01*
X250600Y27516D01*
X250600Y27516D01*
X249229Y27516D01*
X244916Y31829D01*
Y36100D01*
X244854Y36412D01*
X244677Y36677D01*
X243886Y37468D01*
Y37508D01*
X243846D01*
X243477Y37877D01*
X243477Y37877D01*
X243212Y38054D01*
X242900Y38116D01*
D02*
G37*
G36*
X45678Y41168D02*
X39748D01*
Y37206D01*
X45678D01*
Y41168D01*
D02*
G37*
G36*
X37217Y38187D02*
X35052D01*
Y37006D01*
X37217D01*
Y38187D01*
D02*
G37*
G36*
X33051D02*
X30886D01*
Y37006D01*
X33051D01*
Y38187D01*
D02*
G37*
G36*
X224742Y41792D02*
X219441D01*
Y36491D01*
X224742D01*
Y41792D01*
D02*
G37*
G36*
X45678Y36247D02*
X39748D01*
Y36101D01*
X37017D01*
Y36247D01*
X31086D01*
Y32285D01*
X32216D01*
Y28150D01*
X31300D01*
Y17650D01*
X36900D01*
Y28150D01*
X35887D01*
Y32285D01*
X37017D01*
Y32431D01*
X39748D01*
Y32285D01*
X45678D01*
Y36247D01*
D02*
G37*
G36*
X97350Y36200D02*
X92900D01*
Y34200D01*
X97350D01*
Y36200D01*
D02*
G37*
G36*
X90900D02*
X86450D01*
Y34200D01*
X90900D01*
Y36200D01*
D02*
G37*
G36*
X242594Y50681D02*
X241806D01*
X241078Y50380D01*
X240521Y49822D01*
X240219Y49094D01*
Y48306D01*
X240521Y47578D01*
X240875Y47224D01*
Y45815D01*
X240514D01*
Y41892D01*
X243886D01*
Y42528D01*
X258997D01*
X260474Y41051D01*
Y39469D01*
X254110D01*
Y31963D01*
X269490D01*
Y39469D01*
X263125D01*
Y41600D01*
X263025Y42107D01*
X262737Y42537D01*
X260484Y44791D01*
X260054Y45078D01*
X259546Y45179D01*
X243886D01*
Y45815D01*
X243526D01*
Y47224D01*
X243880Y47578D01*
X244181Y48306D01*
Y49094D01*
X243880Y49822D01*
X243322Y50380D01*
X242594Y50681D01*
D02*
G37*
G36*
X137550Y30600D02*
X133100D01*
Y28600D01*
X137550D01*
Y30600D01*
D02*
G37*
G36*
X131100D02*
X126650D01*
Y28600D01*
X131100D01*
Y30600D01*
D02*
G37*
G36*
X186450Y83600D02*
X175950D01*
Y78000D01*
X179875D01*
Y46449D01*
X159779Y26354D01*
X151981D01*
Y28034D01*
X157059D01*
X157566Y28135D01*
X157996Y28422D01*
X171037Y41463D01*
X171325Y41893D01*
X171425Y42400D01*
Y78000D01*
X175350D01*
Y83600D01*
X164850D01*
Y78000D01*
X168774D01*
Y42949D01*
X156510Y30685D01*
X151981D01*
Y35646D01*
Y40395D01*
X143295D01*
Y39346D01*
X137929D01*
X134026Y43249D01*
Y52100D01*
X133925Y52607D01*
X133637Y53037D01*
X127264Y59411D01*
Y64365D01*
X127624D01*
Y71870D01*
X122706D01*
Y72070D01*
X121820D01*
Y71870D01*
X121694D01*
Y68117D01*
Y64364D01*
X121820D01*
Y64165D01*
X122054D01*
Y57221D01*
X122155Y56713D01*
X122442Y56283D01*
X128474Y50251D01*
Y40800D01*
X128575Y40293D01*
X128863Y39863D01*
X135973Y32752D01*
X136403Y32465D01*
X136910Y32364D01*
X143295D01*
Y26984D01*
Y22654D01*
Y18712D01*
X137350D01*
Y19200D01*
X126850D01*
Y18745D01*
X121000D01*
X120103Y18567D01*
X119342Y18058D01*
X119242Y17958D01*
X118733Y17197D01*
X118555Y16300D01*
X118733Y15403D01*
X119242Y14642D01*
X120003Y14133D01*
X120900Y13955D01*
X121403Y14055D01*
X126850D01*
Y13600D01*
X137350D01*
Y14022D01*
X143095D01*
Y13036D01*
X152181D01*
Y14611D01*
X151981D01*
Y19372D01*
X156621D01*
X156975Y19018D01*
X157704Y18717D01*
X158492D01*
X159220Y19018D01*
X159777Y19576D01*
X160079Y20304D01*
Y21092D01*
X159777Y21820D01*
X159220Y22377D01*
X158492Y22679D01*
X157704D01*
X156975Y22377D01*
X156621Y22023D01*
X151981D01*
Y23703D01*
X160328D01*
X160836Y23804D01*
X161266Y24091D01*
X182137Y44963D01*
X182425Y45393D01*
X182526Y45900D01*
Y78000D01*
X186450D01*
Y83600D01*
D02*
G37*
G36*
X137550Y26600D02*
X133100D01*
Y24600D01*
X137550D01*
Y26600D01*
D02*
G37*
G36*
X131100D02*
X126650D01*
Y24600D01*
X131100D01*
Y26600D01*
D02*
G37*
G36*
X48300Y28350D02*
X46300D01*
Y23900D01*
X48300D01*
Y28350D01*
D02*
G37*
G36*
X44300D02*
X42300D01*
Y23900D01*
X44300D01*
Y28350D01*
D02*
G37*
G36*
X107812Y22300D02*
X103362D01*
Y20300D01*
X107812D01*
Y22300D01*
D02*
G37*
G36*
X90900D02*
X86450D01*
Y20300D01*
X90900D01*
Y22300D01*
D02*
G37*
G36*
X67600Y22950D02*
X65600D01*
Y18500D01*
X67600D01*
Y22950D01*
D02*
G37*
G36*
X63600D02*
X61600D01*
Y18500D01*
X63600D01*
Y22950D01*
D02*
G37*
G36*
X48300Y21900D02*
X46300D01*
Y17450D01*
X48300D01*
Y21900D01*
D02*
G37*
G36*
X44300D02*
X42300D01*
Y17450D01*
X44300D01*
Y21900D01*
D02*
G37*
G36*
X107812Y18300D02*
X103362D01*
Y16300D01*
X107812D01*
Y18300D01*
D02*
G37*
G36*
X101362Y22300D02*
X92900D01*
Y19300D01*
Y16300D01*
X101362D01*
Y19300D01*
Y22300D01*
D02*
G37*
G36*
X90900Y18300D02*
X86450D01*
Y16300D01*
X90900D01*
Y18300D01*
D02*
G37*
G36*
X252150Y14700D02*
X247700D01*
Y12700D01*
X252150D01*
Y14700D01*
D02*
G37*
G36*
X269690Y15653D02*
X262800D01*
Y12700D01*
X269690D01*
Y15653D01*
D02*
G37*
G36*
X260800D02*
X253910D01*
Y12700D01*
X260800D01*
Y15653D01*
D02*
G37*
G36*
X245700Y14700D02*
X241250D01*
Y12700D01*
X245700D01*
Y14700D01*
D02*
G37*
G36*
X67600Y16500D02*
X65600D01*
Y12050D01*
X67600D01*
Y16500D01*
D02*
G37*
G36*
X63600D02*
X61600D01*
Y12050D01*
X63600D01*
Y16500D01*
D02*
G37*
G36*
X152181Y11036D02*
X148638D01*
Y9461D01*
X152181D01*
Y11036D01*
D02*
G37*
G36*
X146638D02*
X143095D01*
Y9461D01*
X146638D01*
Y11036D01*
D02*
G37*
G36*
X227148Y15453D02*
X219249D01*
Y7947D01*
X227148D01*
Y10374D01*
X229350D01*
Y8900D01*
X239850D01*
Y14500D01*
X229350D01*
Y13025D01*
X227148D01*
Y15453D01*
D02*
G37*
G36*
X252150Y10700D02*
X247700D01*
Y8700D01*
X252150D01*
Y10700D01*
D02*
G37*
G36*
X245700D02*
X241250D01*
Y8700D01*
X245700D01*
Y10700D01*
D02*
G37*
G36*
X269690D02*
X262800D01*
Y7747D01*
X269690D01*
Y10700D01*
D02*
G37*
G36*
X260800D02*
X253910D01*
Y7747D01*
X260800D01*
Y10700D01*
D02*
G37*
%LPD*%
G36*
X166200Y238600D02*
Y232000D01*
X164500Y230300D01*
X147200Y230300D01*
X144730Y227830D01*
Y165630D01*
X143500Y164400D01*
X140400D01*
X139000Y165800D01*
X139000Y236800D01*
X142300Y240100D01*
X164700D01*
X166200Y238600D01*
D02*
G37*
G36*
X232700Y252400D02*
Y242800D01*
X238900Y236600D01*
X253100D01*
X255700Y239200D01*
Y244900D01*
X259500Y248700D01*
X260400Y248700D01*
X263900Y245200D01*
Y239600D01*
X259300Y235000D01*
X250100D01*
X249400Y234300D01*
X249400Y228800D01*
X248800Y228200D01*
X247000D01*
X246300Y228900D01*
X246300Y234300D01*
X245600Y235000D01*
X236300Y235000D01*
X223900Y235000D01*
X222900Y236000D01*
Y252100D01*
X225600Y254800D01*
X230300D01*
X232700Y252400D01*
D02*
G37*
G36*
X196200Y238213D02*
X196200Y232317D01*
X194498Y230615D01*
X180115D01*
X178400Y228900D01*
Y211420D01*
X174579Y207585D01*
X171500Y204495D01*
Y198800D01*
X170300Y197600D01*
X168200D01*
X167200Y198600D01*
X167200Y210000D01*
X171500Y214300D01*
X171500Y238100D01*
X173500Y240100D01*
X194313D01*
X196200Y238213D01*
D02*
G37*
G36*
X185430Y194800D02*
X185430Y190300D01*
X184020Y188890D01*
X168830Y188890D01*
X167080Y190640D01*
Y194970D01*
X168590Y196480D01*
X183750D01*
X185430Y194800D01*
D02*
G37*
G36*
X163900Y197200D02*
X163900Y171660D01*
X162900Y170660D01*
X159770Y170660D01*
X158800Y171630D01*
Y197400D01*
X159800Y198400D01*
X162700D01*
X163900Y197200D01*
D02*
G37*
G36*
X238400Y229000D02*
X238400Y225000D01*
X236240Y222840D01*
X212560D01*
X210430Y224970D01*
X210430Y228630D01*
X212900Y231100D01*
X236300D01*
X238400Y229000D01*
D02*
G37*
G36*
X244094Y208906D02*
Y205800D01*
X241100D01*
X231450Y215450D01*
X223770D01*
X219300Y210980D01*
Y202950D01*
X216920Y200570D01*
X191060D01*
X188790Y202840D01*
Y214250D01*
X193140Y218600D01*
X234400D01*
X244094Y208906D01*
D02*
G37*
G36*
X250578Y204929D02*
X251000D01*
Y204729D01*
X251591D01*
Y204929D01*
X254810D01*
Y202665D01*
Y200697D01*
Y198728D01*
Y196760D01*
Y194791D01*
Y192823D01*
Y191372D01*
X241253D01*
Y192823D01*
Y194791D01*
Y196760D01*
Y198728D01*
Y200697D01*
Y202665D01*
Y204929D01*
X248410D01*
Y204729D01*
X249000D01*
Y204929D01*
X249422D01*
Y207599D01*
X250578D01*
Y204929D01*
D02*
G37*
G36*
X153200Y193700D02*
Y178100D01*
X152300Y177200D01*
X148100D01*
X147400Y177900D01*
Y193700D01*
X148100Y194400D01*
X152500D01*
X153200Y193700D01*
D02*
G37*
G36*
X114250Y205700D02*
X114600Y205350D01*
Y193822D01*
X116300Y190800D01*
X119249Y187851D01*
Y176369D01*
X117880Y175000D01*
X92800D01*
X90700Y177100D01*
Y185700D01*
X96100Y191100D01*
Y204456D01*
X97344Y205700D01*
X114250Y205700D01*
D02*
G37*
G36*
X39370Y204724D02*
X72177D01*
X73232Y203670D01*
X74600Y202305D01*
Y199511D01*
X73289Y198200D01*
X57200D01*
X51200Y192200D01*
Y177200D01*
X58000Y170400D01*
X78300D01*
X81800Y170400D01*
X84200Y168000D01*
Y154900D01*
X85100Y154000D01*
X93000Y154000D01*
X93800Y153200D01*
Y150600D01*
X93000Y149800D01*
X83929D01*
X57500Y149800D01*
X45200Y162100D01*
Y166992D01*
X42353Y169852D01*
X24100Y169939D01*
X24100Y193300D01*
X24100Y203416D01*
Y209139D01*
X25591Y210630D01*
X33465Y210630D01*
X39370Y204724D01*
D02*
G37*
G36*
X97300Y148700D02*
X98000Y148000D01*
X98000Y145600D01*
X97100Y144700D01*
X70500D01*
X70100Y145100D01*
Y148200D01*
X70600Y148700D01*
X97300Y148700D01*
D02*
G37*
G36*
X125674Y234351D02*
Y186650D01*
X124200D01*
Y176150D01*
X125674D01*
Y160200D01*
X125775Y159693D01*
X126063Y159263D01*
X132175Y153151D01*
Y102700D01*
X132275Y102193D01*
X132563Y101763D01*
X140608Y93718D01*
Y91029D01*
X108258D01*
Y142433D01*
X123070Y157245D01*
X123358Y157675D01*
X123459Y158182D01*
Y194650D01*
X124300D01*
Y205150D01*
X123459D01*
Y235860D01*
X123507Y235905D01*
X123925Y236101D01*
X125674Y234351D01*
D02*
G37*
G36*
X226456Y104292D02*
X226456Y83056D01*
X223074Y79673D01*
X216527Y79673D01*
X213900Y82300D01*
X213900Y85032D01*
Y104099D01*
X219801Y110000D01*
X220748D01*
X226456Y104292D01*
D02*
G37*
G36*
X16900Y181100D02*
X19600Y178400D01*
Y155600D01*
X26300Y148900D01*
X50200D01*
X55900Y143200D01*
X51600Y138900D01*
X16300D01*
X12598Y135198D01*
X12598Y116535D01*
X18400Y110734D01*
Y104482D01*
X16418Y102500D01*
X6000Y102500D01*
X3937Y104563D01*
Y178337D01*
X6700Y181100D01*
X16900Y181100D01*
D02*
G37*
G36*
X18600Y91978D02*
X18600Y82800D01*
X21500Y79900D01*
X29000D01*
X31500Y77400D01*
Y74900D01*
X29200Y72600D01*
X7700D01*
X4500Y75800D01*
Y92100D01*
X6300Y93900D01*
X16438D01*
X18600Y91978D01*
D02*
G37*
G36*
X114600Y78500D02*
Y72600D01*
X116143Y71057D01*
X118126D01*
X118395Y65200D01*
X103100Y65200D01*
X99400Y61500D01*
X99400Y54315D01*
X97385Y52300D01*
X90700D01*
X88700Y54300D01*
Y77400D01*
X89100Y77800D01*
X101000D01*
X104300Y81100D01*
X112000D01*
X114600Y78500D01*
D02*
G37*
G36*
X62500Y44100D02*
X57300D01*
X59747Y46547D01*
X60253D01*
X62500Y44100D01*
D02*
G37*
G36*
X200363Y38263D02*
X200793Y37975D01*
X201300Y37874D01*
X203351D01*
X210675Y30551D01*
Y29950D01*
X209200D01*
Y20142D01*
X208738Y19951D01*
X207054Y21635D01*
X206624Y21922D01*
X206117Y22023D01*
X199225D01*
Y26984D01*
Y31315D01*
Y35446D01*
X199425D01*
Y38547D01*
X199887Y38738D01*
X200363Y38263D01*
D02*
G37*
G36*
X244100Y36100D02*
Y31491D01*
X248891Y26700D01*
X250600Y26700D01*
X252000Y25300D01*
Y20900D01*
X250600Y19500D01*
X221200D01*
X219900Y20800D01*
X219900Y28500D01*
X221400Y30000D01*
X238601Y30000D01*
X240502Y31904D01*
X240495Y36195D01*
X241599Y37300D01*
X242900D01*
X244100Y36100D01*
D02*
G37*
D12*
X46200Y142837D02*
X61763D01*
X64400Y132000D02*
Y140200D01*
X61763Y142837D02*
X64400Y140200D01*
X98050Y53650D02*
X102362Y49338D01*
Y30500D02*
Y49338D01*
X91900Y30500D02*
X102362D01*
X121000Y16400D02*
X132100D01*
X120900Y16300D02*
X121000Y16400D01*
X132133Y16367D02*
X147638D01*
X132100Y16400D02*
X132133Y16367D01*
X53700Y82100D02*
Y98000D01*
X57150Y101450D02*
X62650D01*
X53700Y98000D02*
X57150Y101450D01*
X62650D02*
X62700Y101500D01*
X47700Y76100D02*
X53700Y82100D01*
X27300Y76100D02*
X47700D01*
X259949Y229683D02*
X270600D01*
D17*
X215210Y66690D02*
X215257Y66737D01*
X215300D01*
X215210Y65221D02*
Y66690D01*
X219800Y74900D02*
Y79673D01*
X215300Y70400D02*
X219800Y74900D01*
X215300Y66737D02*
Y70400D01*
X84167Y51500D02*
X86454Y53787D01*
X84534Y70866D02*
X86454Y68946D01*
Y53787D02*
Y68946D01*
X74800Y51500D02*
X84167D01*
X75787Y17513D02*
X75800Y17500D01*
X53630Y49030D02*
X75466Y70866D01*
X81014D01*
X133500Y102700D02*
Y153700D01*
X127000Y160200D02*
Y181400D01*
Y160200D02*
X133500Y153700D01*
X136400Y104100D02*
Y154600D01*
X132806Y158194D02*
Y226739D01*
Y158194D02*
X136400Y154600D01*
X152539Y91961D02*
X158882D01*
X139500Y105000D02*
X152539Y91961D01*
X139500Y105000D02*
Y157000D01*
X136400Y104100D02*
X146933Y93567D01*
Y87276D02*
Y93567D01*
X112085Y245930D02*
X122133Y235882D01*
X105507Y245930D02*
X112085D01*
X122133Y200533D02*
Y235882D01*
X106933Y87276D02*
Y142982D01*
X122133Y158182D01*
Y199267D01*
X105425Y245848D02*
X105507Y245930D01*
X121500Y199900D02*
X122133Y199267D01*
X121500Y199900D02*
X122133Y200533D01*
X102400Y99300D02*
Y155500D01*
X100500Y97400D02*
X102400Y99300D01*
X90423Y97400D02*
X100500D01*
X83200Y174700D02*
X102400Y155500D01*
X133500Y102700D02*
X141933Y94267D01*
Y87276D02*
Y94267D01*
X89984Y96961D02*
X90423Y97400D01*
X83200Y174700D02*
Y181400D01*
X127000D02*
Y234900D01*
X106500Y249104D02*
X112796D01*
X127000Y234900D01*
X105425Y250179D02*
X106500Y249104D01*
X83200Y181400D02*
Y225500D01*
X88500Y221900D02*
X95126Y228526D01*
X88500Y199700D02*
Y221900D01*
X95126Y228526D02*
X105425D01*
X88500Y191400D02*
Y199700D01*
X83200Y225500D02*
X94887Y237187D01*
X105425D01*
X90023Y112000D02*
X98000D01*
X89984Y111961D02*
X90023Y112000D01*
X89984Y101961D02*
X97961D01*
X98000Y102000D01*
X75600Y120800D02*
Y132000D01*
X89946D02*
X89984Y131961D01*
X75600Y132000D02*
X89946D01*
X60000Y44094D02*
Y49000D01*
X42727Y44094D02*
X60000D01*
Y49000D02*
X70055Y59055D01*
X60000Y44094D02*
X69193D01*
X42713Y44109D02*
X42727Y44094D01*
X70055Y59055D02*
X81014D01*
X91888Y30512D02*
X91900Y30500D01*
X77756Y47169D02*
X78987Y48400D01*
X91900D01*
X22775Y42241D02*
X24643Y44109D01*
X34051D01*
X22775Y37841D02*
Y42241D01*
X71850Y48550D02*
X74800Y51500D01*
X81014Y70866D02*
X84534D01*
X42713Y49030D02*
X53630D01*
X153100Y96732D02*
X158653D01*
X158882Y96961D01*
X153100Y112200D02*
X158643D01*
X158882Y111961D01*
X153161Y146961D02*
X158882D01*
X153100Y146900D02*
X153161Y146961D01*
X145200Y131900D02*
X158100D01*
X158268Y131732D01*
X62700Y91500D02*
X63161Y91961D01*
X89984D01*
X158882Y101961D02*
X165539D01*
X170100Y97400D01*
X163335Y106961D02*
X169296Y101000D01*
X175900D01*
X158882Y106961D02*
X163335D01*
X166220Y108080D02*
X171110Y103190D01*
X166220Y108080D02*
Y114076D01*
X171110Y103190D02*
X201790D01*
X163335Y116961D02*
X166220Y114076D01*
X158882Y116961D02*
X163335D01*
Y121961D02*
X168430Y116866D01*
Y109230D02*
Y116866D01*
X158882Y121961D02*
X163335D01*
X169100Y142727D02*
Y163600D01*
X163335Y136961D02*
X169100Y142727D01*
X158882Y136961D02*
X163335D01*
X163532Y141732D02*
X167200Y145400D01*
X159111Y141732D02*
X163532D01*
X167200Y145400D02*
Y164500D01*
X158882Y141961D02*
X159111Y141732D01*
Y151732D02*
X164448D01*
X158882Y151961D02*
X159111Y151732D01*
X169100Y163600D02*
X172000Y166500D01*
X167200Y164500D02*
X171500Y168800D01*
X180000Y181400D02*
X188300D01*
X179800Y181600D02*
X180000Y181400D01*
X171800D02*
X179600D01*
X179800Y181600D01*
X150200Y200197D02*
X163603D01*
X165500Y187700D02*
Y198300D01*
X163603Y200197D02*
X165500Y198300D01*
Y187700D02*
X171800Y181400D01*
X171500Y168800D02*
X188700D01*
X195900Y176000D02*
Y184900D01*
X188700Y168800D02*
X195900Y176000D01*
X189900Y166500D02*
X201100Y177700D01*
X172000Y166500D02*
X189900D01*
X201100Y177700D02*
X215600D01*
X228346Y59055D02*
X232283D01*
X224410D02*
X228346D01*
X220472D02*
X224410D01*
X247889Y241452D02*
Y246213D01*
Y241452D02*
X247900Y241441D01*
X246007Y207655D02*
Y215111D01*
X147638Y29359D02*
X157059D01*
X170100Y42400D01*
Y80800D01*
X147638Y25028D02*
X160328D01*
X181200Y45900D01*
Y80800D01*
X206117Y20698D02*
X210600Y16214D01*
X194882Y20698D02*
X206117D01*
X203900Y39200D02*
X212000Y31100D01*
X194882Y45618D02*
X201300Y39200D01*
X203900D01*
X212000Y24700D02*
Y31100D01*
X194882Y45618D02*
Y49832D01*
X210600Y11700D02*
Y16214D01*
X137380Y38021D02*
X147638D01*
X132700Y42700D02*
Y52100D01*
Y42700D02*
X137380Y38021D01*
X125939Y58861D02*
X132700Y52100D01*
X125939Y58861D02*
Y68117D01*
X129800Y40800D02*
Y50800D01*
X123380Y57221D02*
Y68117D01*
Y57221D02*
X129800Y50800D01*
Y40800D02*
X136910Y33690D01*
X147638D01*
X175272Y141800D02*
X175372Y141700D01*
X184000D01*
X192020Y131800D02*
X234328D01*
X261800Y35716D02*
Y41600D01*
X259546Y43854D02*
X261800Y41600D01*
X242200Y43854D02*
X259546D01*
X147638Y20698D02*
X158098D01*
X242200Y43854D02*
Y48700D01*
X223198Y11700D02*
X234600D01*
X211500Y59800D02*
Y62824D01*
Y59800D02*
X216500Y54800D01*
X225750D01*
X228883Y54783D02*
X228900Y54800D01*
X228883Y43000D02*
Y54783D01*
X206000Y43000D02*
X215300D01*
X194920Y54200D02*
X206000D01*
X194882Y54162D02*
X194920Y54200D01*
X262556Y204056D02*
X263957Y205457D01*
Y206907D01*
X264000Y206950D01*
X257480Y204056D02*
X262556D01*
X170100Y92000D02*
Y97400D01*
X181200Y92000D02*
Y95700D01*
X171420Y106240D02*
X200600D01*
X168430Y109230D02*
X171420Y106240D01*
X175900Y101000D02*
X181200Y95700D01*
X215000Y136800D02*
X234328D01*
X215000Y141800D02*
X234328D01*
X221160Y126800D02*
X234328D01*
X200600Y106240D02*
X221160Y126800D01*
X201790Y103190D02*
X220400Y121800D01*
X234328D01*
X226800Y206000D02*
X230334D01*
X231710Y204610D02*
Y204624D01*
X234233Y202087D02*
X238583D01*
X230334Y206000D02*
X231710Y204624D01*
Y204610D02*
X234233Y202087D01*
X207100Y184900D02*
X263660D01*
X267160Y188400D02*
Y193540D01*
X263660Y184900D02*
X267160Y188400D01*
X262550Y198150D02*
X267160Y193540D01*
X262930Y177700D02*
X270550Y185320D01*
X265081Y200119D02*
X270550Y194650D01*
Y185320D02*
Y194650D01*
X226800Y177700D02*
X262930D01*
X257702Y252498D02*
X259949Y250251D01*
Y242597D02*
Y250251D01*
X253581Y252498D02*
X257702D01*
X251575Y254504D02*
X253581Y252498D01*
X251575Y254504D02*
Y258661D01*
X257480Y200119D02*
X265081D01*
X257480Y198150D02*
X262550D01*
X226800Y194900D02*
X230600D01*
X233850Y198150D01*
X238583D01*
D18*
X30000Y203500D02*
D03*
X18504D02*
D03*
X14452Y159500D02*
D03*
X25948D02*
D03*
D19*
X227800Y249300D02*
D03*
X216600D02*
D03*
X251300Y66700D02*
D03*
X240100D02*
D03*
X99700Y199700D02*
D03*
X88500D02*
D03*
X64400Y132000D02*
D03*
X75600D02*
D03*
X186300Y223500D02*
D03*
X175100D02*
D03*
X153400Y223400D02*
D03*
X142200D02*
D03*
X83200Y181400D02*
D03*
X94400D02*
D03*
X121500Y199900D02*
D03*
X110300D02*
D03*
X127000Y181400D02*
D03*
X115800D02*
D03*
X142200Y171300D02*
D03*
X153400D02*
D03*
X161400Y182700D02*
D03*
X150200D02*
D03*
X195900Y184900D02*
D03*
X207100D02*
D03*
X215600Y206000D02*
D03*
X226800D02*
D03*
Y194900D02*
D03*
X215600D02*
D03*
Y177700D02*
D03*
X226800D02*
D03*
X223200Y24700D02*
D03*
X212000D02*
D03*
X224100Y96716D02*
D03*
X235300D02*
D03*
X216200Y96700D02*
D03*
X205000D02*
D03*
X34100Y22900D02*
D03*
X45300D02*
D03*
X34075Y59641D02*
D03*
X45275D02*
D03*
X92214Y59055D02*
D03*
X81014D02*
D03*
X92214Y70866D02*
D03*
X81014D02*
D03*
X64600Y17500D02*
D03*
X75800D02*
D03*
X8573Y119685D02*
D03*
X19773D02*
D03*
D20*
X251640Y241441D02*
D03*
X247900D02*
D03*
X244160D02*
D03*
Y231559D02*
D03*
X247900D02*
D03*
X251640D02*
D03*
D21*
X259949Y242597D02*
D03*
Y229683D02*
D03*
D22*
X253937Y207599D02*
D03*
X251969D02*
D03*
X250000D02*
D03*
X248031D02*
D03*
X246063D02*
D03*
X244094D02*
D03*
X242126D02*
D03*
X253937Y188702D02*
D03*
X251969D02*
D03*
X250000D02*
D03*
X248031D02*
D03*
X246063D02*
D03*
X244094D02*
D03*
X242126D02*
D03*
D23*
X238583Y204056D02*
D03*
Y202087D02*
D03*
Y200119D02*
D03*
Y198150D02*
D03*
Y196182D02*
D03*
Y194213D02*
D03*
Y192245D02*
D03*
X257480Y204056D02*
D03*
Y202087D02*
D03*
Y200119D02*
D03*
Y198150D02*
D03*
Y196182D02*
D03*
Y194213D02*
D03*
Y192245D02*
D03*
D24*
X234328Y161800D02*
D03*
Y156800D02*
D03*
Y151800D02*
D03*
Y146800D02*
D03*
Y141800D02*
D03*
Y136800D02*
D03*
Y131800D02*
D03*
Y126800D02*
D03*
Y121800D02*
D03*
Y116800D02*
D03*
Y111800D02*
D03*
X175272D02*
D03*
Y116800D02*
D03*
Y121800D02*
D03*
Y126800D02*
D03*
Y131800D02*
D03*
Y136800D02*
D03*
Y141800D02*
D03*
Y146800D02*
D03*
Y151800D02*
D03*
Y156800D02*
D03*
Y161800D02*
D03*
D25*
X114000Y133300D02*
D03*
X125024D02*
D03*
Y122276D02*
D03*
X114000D02*
D03*
X119512Y133300D02*
D03*
X114000Y127788D02*
D03*
X119512Y122276D02*
D03*
X125024Y127788D02*
D03*
X119512D02*
D03*
D26*
X146933Y87276D02*
D03*
X141933D02*
D03*
X136933D02*
D03*
X131933D02*
D03*
X101933D02*
D03*
X106933D02*
D03*
X111933D02*
D03*
X116933D02*
D03*
X126933D02*
D03*
X121933D02*
D03*
D27*
X158882Y156961D02*
D03*
Y151961D02*
D03*
Y146961D02*
D03*
Y141961D02*
D03*
Y136961D02*
D03*
Y131961D02*
D03*
Y126961D02*
D03*
Y121961D02*
D03*
Y116961D02*
D03*
Y111961D02*
D03*
Y106961D02*
D03*
Y101961D02*
D03*
Y96961D02*
D03*
Y91961D02*
D03*
X89984D02*
D03*
Y96961D02*
D03*
Y101961D02*
D03*
Y106961D02*
D03*
Y111961D02*
D03*
Y116961D02*
D03*
Y121961D02*
D03*
Y126961D02*
D03*
Y131961D02*
D03*
Y136961D02*
D03*
Y141961D02*
D03*
Y146961D02*
D03*
Y151961D02*
D03*
Y156961D02*
D03*
D28*
X228353Y227010D02*
D03*
Y238210D02*
D03*
X216700Y238200D02*
D03*
Y227000D02*
D03*
X75400Y146700D02*
D03*
Y157900D02*
D03*
X75600Y109600D02*
D03*
Y120800D02*
D03*
X179400Y181600D02*
D03*
Y192800D02*
D03*
X206200Y197300D02*
D03*
Y208500D02*
D03*
X194700D02*
D03*
Y197300D02*
D03*
X234600Y22900D02*
D03*
Y11700D02*
D03*
X181200Y92000D02*
D03*
Y80800D02*
D03*
X170100Y92000D02*
D03*
Y80800D02*
D03*
X74809Y177191D02*
D03*
Y165991D02*
D03*
X63373Y177191D02*
D03*
Y165991D02*
D03*
X69100Y200800D02*
D03*
Y189600D02*
D03*
X58600Y189900D02*
D03*
Y201100D02*
D03*
X132100Y16400D02*
D03*
Y27600D02*
D03*
X109000Y56900D02*
D03*
Y68100D02*
D03*
X22775Y49041D02*
D03*
Y37841D02*
D03*
X91900Y37200D02*
D03*
Y48400D02*
D03*
X102362Y30500D02*
D03*
Y19300D02*
D03*
X91900Y30500D02*
D03*
Y19300D02*
D03*
X11417Y78740D02*
D03*
Y67540D02*
D03*
X246700Y11700D02*
D03*
Y22900D02*
D03*
X206000Y43000D02*
D03*
Y54200D02*
D03*
D29*
X143642Y267242D02*
D03*
Y234958D02*
D03*
X161358D02*
D03*
Y267242D02*
D03*
X175149D02*
D03*
Y234958D02*
D03*
X192865D02*
D03*
Y267242D02*
D03*
D30*
X99559Y216104D02*
D03*
D31*
X71842Y215514D02*
D03*
D32*
X105425Y224195D02*
D03*
Y228526D02*
D03*
Y232856D02*
D03*
Y237187D02*
D03*
Y241518D02*
D03*
Y245848D02*
D03*
Y250179D02*
D03*
Y254510D02*
D03*
D33*
X105780Y218644D02*
D03*
D34*
Y268486D02*
D03*
D35*
X48221Y215514D02*
D03*
Y267482D02*
D03*
D36*
X241339Y258661D02*
D03*
X243898D02*
D03*
X246457D02*
D03*
X249016D02*
D03*
X251575D02*
D03*
D37*
X142247Y196457D02*
D03*
X150200Y200197D02*
D03*
Y192717D02*
D03*
X169331D02*
D03*
Y200197D02*
D03*
X161378Y196457D02*
D03*
D38*
X210600Y11700D02*
D03*
X223198D02*
D03*
D39*
X222091Y39142D02*
D03*
Y46858D02*
D03*
D40*
X228883Y43000D02*
D03*
X215300D02*
D03*
D41*
X225750Y54800D02*
D03*
X228900D02*
D03*
D42*
X225600Y66700D02*
D03*
X232687D02*
D03*
D43*
X215300Y62800D02*
D03*
Y64768D02*
D03*
Y66737D02*
D03*
X218961D02*
D03*
Y64768D02*
D03*
Y62800D02*
D03*
D44*
X118261Y45283D02*
D03*
X120820D02*
D03*
X123380D02*
D03*
X125939D02*
D03*
Y68117D02*
D03*
X123380D02*
D03*
X120820D02*
D03*
X118261D02*
D03*
D45*
X42713Y49030D02*
D03*
Y44109D02*
D03*
Y39187D02*
D03*
Y34266D02*
D03*
X34051D02*
D03*
Y39187D02*
D03*
Y44109D02*
D03*
Y49030D02*
D03*
D46*
X66142Y40354D02*
D03*
Y38386D02*
D03*
Y36417D02*
D03*
Y34449D02*
D03*
Y32480D02*
D03*
Y30512D02*
D03*
X83465D02*
D03*
Y32480D02*
D03*
Y34449D02*
D03*
Y36417D02*
D03*
Y38386D02*
D03*
Y40354D02*
D03*
D47*
X69882Y26772D02*
D03*
X71850D02*
D03*
X73819D02*
D03*
X75787D02*
D03*
X77756D02*
D03*
X79724D02*
D03*
X71850Y44094D02*
D03*
X77756D02*
D03*
X79724D02*
D03*
X73819D02*
D03*
X69882D02*
D03*
X75787D02*
D03*
D48*
X11594Y107032D02*
D03*
Y89031D02*
D03*
X12387Y191300D02*
D03*
Y173300D02*
D03*
D49*
X36220Y98032D02*
D03*
X37013Y182300D02*
D03*
D50*
X242200Y43854D02*
D03*
Y35546D02*
D03*
D51*
X259100Y66700D02*
D03*
D52*
X265301Y60893D02*
D03*
Y72507D02*
D03*
D53*
X261800Y11700D02*
D03*
Y35716D02*
D03*
D54*
X147638Y54162D02*
D03*
Y29359D02*
D03*
Y33690D02*
D03*
Y12036D02*
D03*
Y16367D02*
D03*
Y20698D02*
D03*
Y25028D02*
D03*
Y38021D02*
D03*
Y49832D02*
D03*
Y58493D02*
D03*
Y62824D02*
D03*
Y67154D02*
D03*
X194882D02*
D03*
Y62824D02*
D03*
Y58493D02*
D03*
Y54162D02*
D03*
Y49832D02*
D03*
Y38021D02*
D03*
Y33690D02*
D03*
Y29359D02*
D03*
Y25028D02*
D03*
Y20698D02*
D03*
Y16367D02*
D03*
Y12036D02*
D03*
D98*
X75787Y17513D02*
Y26772D01*
X77756Y44094D02*
Y47169D01*
X71850Y44094D02*
Y48550D01*
D99*
X115100Y206200D02*
Y238300D01*
X113750Y204850D02*
X115100Y206200D01*
X111882Y241518D02*
X115100Y238300D01*
X105425Y241518D02*
X111882D01*
X34051Y22949D02*
X34100Y22900D01*
X34051Y22949D02*
Y34266D01*
X42713D01*
X220302Y108000D02*
Y112302D01*
X224800Y116800D02*
X234328D01*
X220302Y112302D02*
X224800Y116800D01*
D100*
X68800Y82700D02*
X83800D01*
X36600Y70100D02*
X56200D01*
X68800Y82700D01*
X83800D02*
X89500Y77000D01*
X34075Y67575D02*
X36600Y70100D01*
X34075Y59641D02*
Y67575D01*
X22775Y49041D02*
X22786Y49030D01*
X34051D01*
Y59617D02*
X34075Y59641D01*
X34051Y49030D02*
Y59617D01*
D101*
X71850Y26772D02*
Y29926D01*
X83465Y30512D02*
X91888D01*
X71850Y29926D02*
X72436Y30512D01*
X83465D01*
X263710Y191620D02*
X263730Y191600D01*
X263710Y191620D02*
Y194364D01*
X261892Y196182D02*
X263710Y194364D01*
X257480Y196182D02*
X261892D01*
X231570Y207300D02*
Y209600D01*
Y207300D02*
X234814Y204056D01*
X238583D01*
D102*
X246501Y249249D02*
Y258617D01*
X244160Y241441D02*
Y246907D01*
X246501Y249249D01*
X248971Y249545D02*
Y258617D01*
X251640Y241441D02*
Y246876D01*
X248971Y249545D02*
X251640Y246876D01*
X246457Y258661D02*
X246501Y258617D01*
X248971Y258617D02*
X249016Y258661D01*
D103*
X246007Y215111D02*
X249108Y218212D01*
X249947Y216188D02*
X257106D01*
Y218212D02*
X257993Y219100D01*
X249108Y218212D02*
X257106D01*
X257993Y215300D02*
X258200D01*
X248031Y207599D02*
Y214273D01*
X257993Y219100D02*
X258200D01*
X257106Y216188D02*
X257993Y215300D01*
X248031Y214273D02*
X249947Y216188D01*
X244180Y225720D02*
X244200Y225700D01*
X244160Y231559D02*
X244180Y231539D01*
Y225720D02*
Y231539D01*
X251620D02*
X251640Y231559D01*
X251620Y225720D02*
Y231539D01*
X251600Y225700D02*
X251620Y225720D01*
D104*
X211500Y62824D02*
X215276D01*
D105*
X194882D02*
X211500D01*
X251300Y66700D02*
X259100D01*
X232687D02*
X240100D01*
X225563Y66737D02*
X225600Y66700D01*
D106*
X218961Y66737D02*
X225563D01*
D107*
X234328Y156800D02*
X258000D01*
D108*
X132806Y256661D02*
D03*
Y226739D02*
D03*
D109*
X46200Y134963D02*
D03*
Y142837D02*
D03*
X24300Y134963D02*
D03*
Y142837D02*
D03*
D110*
X268000Y166800D02*
D03*
X248000D02*
D03*
X268000Y146800D02*
D03*
X248000D02*
D03*
D111*
X258000Y156800D02*
D03*
D112*
X62700Y111500D02*
D03*
Y101500D02*
D03*
Y91500D02*
D03*
D113*
X12387Y191300D02*
D03*
X18504Y203500D02*
D03*
X47244Y86614D02*
D03*
X39370D02*
D03*
X31496D02*
D03*
X47244Y94488D02*
D03*
X31496D02*
D03*
X39370D02*
D03*
X47244Y102362D02*
D03*
X39370D02*
D03*
X31496D02*
D03*
X270079Y262205D02*
D03*
Y246457D02*
D03*
Y214961D02*
D03*
Y136221D02*
D03*
Y120473D02*
D03*
Y104725D02*
D03*
Y88977D02*
D03*
Y41732D02*
D03*
Y25984D02*
D03*
X262205Y262205D02*
D03*
X266142Y254331D02*
D03*
Y238583D02*
D03*
Y222835D02*
D03*
X262205Y214961D02*
D03*
X266142Y159843D02*
D03*
X262205Y151969D02*
D03*
Y136221D02*
D03*
X266142Y128347D02*
D03*
X262205Y120473D02*
D03*
X266142Y112599D02*
D03*
X262205Y104725D02*
D03*
X266142Y96851D02*
D03*
X262205Y88977D02*
D03*
X266142Y65354D02*
D03*
Y49606D02*
D03*
X262205Y25984D02*
D03*
X266142Y18110D02*
D03*
X258268Y222835D02*
D03*
Y207087D02*
D03*
X254331Y151969D02*
D03*
X258268Y144095D02*
D03*
X254331Y136221D02*
D03*
X258268Y128347D02*
D03*
X254331Y120473D02*
D03*
X258268Y112599D02*
D03*
X254331Y104725D02*
D03*
X258268Y96851D02*
D03*
X254331Y88977D02*
D03*
X258268Y49606D02*
D03*
X254331Y25984D02*
D03*
X258268Y18110D02*
D03*
X250394Y270079D02*
D03*
X246457Y199213D02*
D03*
X250394Y159843D02*
D03*
X246457Y136221D02*
D03*
X250394Y128347D02*
D03*
X246457Y120473D02*
D03*
X250394Y112599D02*
D03*
X246457Y104725D02*
D03*
X250394Y96851D02*
D03*
X246457Y88977D02*
D03*
X250394Y49606D02*
D03*
Y33858D02*
D03*
X242520Y270079D02*
D03*
X238583Y246457D02*
D03*
X242520Y222835D02*
D03*
X238583Y167717D02*
D03*
X242520Y159843D02*
D03*
Y128347D02*
D03*
Y112599D02*
D03*
X238583Y104725D02*
D03*
X242520Y96851D02*
D03*
X238583Y88977D02*
D03*
X242520Y81103D02*
D03*
X230709Y262205D02*
D03*
X234646Y191339D02*
D03*
X230709Y167717D02*
D03*
Y104725D02*
D03*
Y88977D02*
D03*
X234646Y81103D02*
D03*
Y49606D02*
D03*
X222835Y262205D02*
D03*
Y167717D02*
D03*
X226772Y159843D02*
D03*
X222835Y151969D02*
D03*
X226772Y112599D02*
D03*
X218898Y270079D02*
D03*
X214961Y262205D02*
D03*
Y167717D02*
D03*
X218898Y159843D02*
D03*
Y128347D02*
D03*
Y18110D02*
D03*
X211024Y270079D02*
D03*
X207087Y262205D02*
D03*
X211024Y254331D02*
D03*
X207087Y246457D02*
D03*
Y230709D02*
D03*
X211024Y191339D02*
D03*
X207087Y167717D02*
D03*
X211024Y159843D02*
D03*
X207087Y151969D02*
D03*
X211024Y144095D02*
D03*
Y128347D02*
D03*
X207087Y120473D02*
D03*
Y104725D02*
D03*
X211024Y96851D02*
D03*
X207087Y88977D02*
D03*
Y73228D02*
D03*
X211024Y49606D02*
D03*
X207087Y25984D02*
D03*
X203150Y270079D02*
D03*
X199213Y262205D02*
D03*
X203150Y254331D02*
D03*
X199213Y246457D02*
D03*
X203150Y238583D02*
D03*
X199213Y230709D02*
D03*
X203150Y222835D02*
D03*
Y191339D02*
D03*
X199213Y167717D02*
D03*
X203150Y159843D02*
D03*
X199213Y151969D02*
D03*
X203150Y144095D02*
D03*
X199213Y136221D02*
D03*
X203150Y128347D02*
D03*
X199213Y120473D02*
D03*
X203150Y112599D02*
D03*
X199213Y88977D02*
D03*
X203150Y49606D02*
D03*
Y18110D02*
D03*
X191339Y262205D02*
D03*
X195276Y254331D02*
D03*
X191339Y246457D02*
D03*
X195276Y222835D02*
D03*
Y159843D02*
D03*
X191339Y151969D02*
D03*
X195276Y144095D02*
D03*
Y128347D02*
D03*
Y112599D02*
D03*
Y96851D02*
D03*
X191339Y88977D02*
D03*
X187402Y270079D02*
D03*
X183465Y262205D02*
D03*
X187402Y254331D02*
D03*
X183465Y246457D02*
D03*
Y214961D02*
D03*
Y199213D02*
D03*
X187402Y159843D02*
D03*
X183465Y136221D02*
D03*
X187402Y128347D02*
D03*
X183465Y120473D02*
D03*
X187402Y112599D02*
D03*
Y96851D02*
D03*
Y65354D02*
D03*
Y49606D02*
D03*
Y33858D02*
D03*
X183465Y25984D02*
D03*
X187402Y18110D02*
D03*
X179528Y270079D02*
D03*
X175591Y262205D02*
D03*
X179528Y254331D02*
D03*
X175591Y246457D02*
D03*
X179528Y207087D02*
D03*
X175591Y199213D02*
D03*
X179528Y175591D02*
D03*
Y18110D02*
D03*
X167717Y262205D02*
D03*
X171654Y254331D02*
D03*
X167717Y246457D02*
D03*
Y230709D02*
D03*
Y214961D02*
D03*
X171654Y175591D02*
D03*
X167717Y136221D02*
D03*
Y25984D02*
D03*
X159843Y262205D02*
D03*
X163780Y254331D02*
D03*
X159843Y246457D02*
D03*
X163780Y222835D02*
D03*
X159843Y214961D02*
D03*
X163780Y207087D02*
D03*
X159843Y167717D02*
D03*
X163780Y65354D02*
D03*
X159843Y57480D02*
D03*
X163780Y49606D02*
D03*
Y18110D02*
D03*
X155906Y270079D02*
D03*
X151969Y262205D02*
D03*
X155906Y254331D02*
D03*
X151969Y246457D02*
D03*
Y214961D02*
D03*
X155906Y207087D02*
D03*
X151969Y151969D02*
D03*
Y88977D02*
D03*
X155906Y65354D02*
D03*
Y49606D02*
D03*
Y33858D02*
D03*
Y18110D02*
D03*
X148032Y270079D02*
D03*
X144095Y262205D02*
D03*
X148032Y254331D02*
D03*
X144095Y246457D02*
D03*
X148032Y222835D02*
D03*
Y207087D02*
D03*
Y144095D02*
D03*
X144095Y136221D02*
D03*
Y120473D02*
D03*
Y104725D02*
D03*
X136221Y262205D02*
D03*
X140158Y254331D02*
D03*
X136221Y246457D02*
D03*
Y230709D02*
D03*
Y214961D02*
D03*
Y199213D02*
D03*
Y183465D02*
D03*
Y167717D02*
D03*
Y73228D02*
D03*
Y57480D02*
D03*
Y10236D02*
D03*
X132284Y270079D02*
D03*
X128347Y262205D02*
D03*
Y246457D02*
D03*
X132284Y238583D02*
D03*
X128347Y151969D02*
D03*
Y104725D02*
D03*
Y73228D02*
D03*
X132284Y65354D02*
D03*
Y33858D02*
D03*
X128347Y10236D02*
D03*
X124410Y270079D02*
D03*
X120473Y262205D02*
D03*
X124410Y254331D02*
D03*
X120473Y246457D02*
D03*
Y151969D02*
D03*
X124410Y144095D02*
D03*
Y81103D02*
D03*
X120473Y73228D02*
D03*
Y57480D02*
D03*
X124410Y33858D02*
D03*
X120473Y25984D02*
D03*
Y10236D02*
D03*
X116535Y270079D02*
D03*
X112599Y262205D02*
D03*
X116535Y254331D02*
D03*
X112599Y167717D02*
D03*
X116535Y144095D02*
D03*
Y112599D02*
D03*
X112599Y104725D02*
D03*
X116535Y81103D02*
D03*
X112599Y41732D02*
D03*
X116535Y33858D02*
D03*
X112599Y25984D02*
D03*
X116535Y18110D02*
D03*
X112599Y10236D02*
D03*
X104725Y262205D02*
D03*
Y167717D02*
D03*
X108661Y159843D02*
D03*
Y49606D02*
D03*
Y33858D02*
D03*
X104725Y25984D02*
D03*
Y10236D02*
D03*
X96851Y262205D02*
D03*
Y246457D02*
D03*
Y167717D02*
D03*
Y151969D02*
D03*
Y136221D02*
D03*
Y120473D02*
D03*
X100787Y81103D02*
D03*
X96851Y41732D02*
D03*
Y25984D02*
D03*
Y10236D02*
D03*
X92914Y270079D02*
D03*
X88977Y262205D02*
D03*
X92914Y254331D02*
D03*
X88977Y246457D02*
D03*
X92914Y207087D02*
D03*
Y191339D02*
D03*
X88977Y41732D02*
D03*
Y25984D02*
D03*
Y10236D02*
D03*
X85040Y270079D02*
D03*
X81103Y262205D02*
D03*
X85040Y254331D02*
D03*
X81103Y246457D02*
D03*
X85040Y238583D02*
D03*
X81103Y230709D02*
D03*
Y136221D02*
D03*
Y104725D02*
D03*
Y88977D02*
D03*
X85040Y18110D02*
D03*
X81103Y10236D02*
D03*
X77165Y270079D02*
D03*
X73228Y262205D02*
D03*
X77165Y254331D02*
D03*
X73228Y246457D02*
D03*
X77165Y238583D02*
D03*
X73228Y230709D02*
D03*
X77165Y222835D02*
D03*
Y207087D02*
D03*
Y191339D02*
D03*
X73228Y183465D02*
D03*
Y104725D02*
D03*
X77165Y96851D02*
D03*
X73228Y88977D02*
D03*
Y73228D02*
D03*
X77165Y33858D02*
D03*
X73228Y10236D02*
D03*
X69291Y270079D02*
D03*
X65354Y262205D02*
D03*
X69291Y254331D02*
D03*
X65354Y246457D02*
D03*
X69291Y238583D02*
D03*
X65354Y230709D02*
D03*
X69291Y222835D02*
D03*
X65354Y214961D02*
D03*
X69291Y207087D02*
D03*
X65354Y183465D02*
D03*
X69291Y128347D02*
D03*
X65354Y120473D02*
D03*
X69291Y96851D02*
D03*
X65354Y73228D02*
D03*
X69291Y49606D02*
D03*
X65354Y25984D02*
D03*
X69291Y18110D02*
D03*
X65354Y10236D02*
D03*
X61417Y270079D02*
D03*
X57480Y262205D02*
D03*
X61417Y254331D02*
D03*
X57480Y246457D02*
D03*
X61417Y238583D02*
D03*
X57480Y230709D02*
D03*
X61417Y222835D02*
D03*
X57480Y214961D02*
D03*
X61417Y207087D02*
D03*
X57480Y183465D02*
D03*
Y136221D02*
D03*
Y120473D02*
D03*
Y88977D02*
D03*
X61417Y81103D02*
D03*
Y65354D02*
D03*
X57480Y57480D02*
D03*
X61417Y33858D02*
D03*
X57480Y25984D02*
D03*
Y10236D02*
D03*
X49606Y262205D02*
D03*
X53543Y254331D02*
D03*
X49606Y246457D02*
D03*
X53543Y238583D02*
D03*
X49606Y230709D02*
D03*
X53543Y222835D02*
D03*
Y207087D02*
D03*
X49606Y151969D02*
D03*
X53543Y128347D02*
D03*
X49606Y120473D02*
D03*
X53543Y112599D02*
D03*
Y65354D02*
D03*
X49606Y57480D02*
D03*
X53543Y33858D02*
D03*
X49606Y25984D02*
D03*
X53543Y18110D02*
D03*
X49606Y10236D02*
D03*
X41732Y262205D02*
D03*
X45669Y254331D02*
D03*
X41732Y246457D02*
D03*
X45669Y238583D02*
D03*
X41732Y230709D02*
D03*
X45669Y222835D02*
D03*
X41732Y214961D02*
D03*
X45669Y207087D02*
D03*
X41732Y151969D02*
D03*
X45669Y128347D02*
D03*
X41732Y120473D02*
D03*
X45669Y112599D02*
D03*
Y81103D02*
D03*
X41732Y10236D02*
D03*
X37795Y270079D02*
D03*
X33858Y262205D02*
D03*
X37795Y254331D02*
D03*
X33858Y246457D02*
D03*
X37795Y238583D02*
D03*
X33858Y230709D02*
D03*
X37795Y222835D02*
D03*
X33858Y214961D02*
D03*
Y167717D02*
D03*
X37795Y159843D02*
D03*
X33858Y151969D02*
D03*
Y136221D02*
D03*
X37795Y128347D02*
D03*
X33858Y120473D02*
D03*
X37795Y112599D02*
D03*
Y81103D02*
D03*
X33858Y10236D02*
D03*
X29921Y270079D02*
D03*
X25984Y262205D02*
D03*
X29921Y254331D02*
D03*
X25984Y246457D02*
D03*
X29921Y238583D02*
D03*
X25984Y230709D02*
D03*
X29921Y222835D02*
D03*
X25984Y214961D02*
D03*
Y167717D02*
D03*
X29921Y128347D02*
D03*
X25984Y120473D02*
D03*
X29921Y112599D02*
D03*
Y65354D02*
D03*
X25984Y57480D02*
D03*
Y25984D02*
D03*
X29921Y18110D02*
D03*
X25984Y10236D02*
D03*
X22047Y270079D02*
D03*
X18110Y262205D02*
D03*
X22047Y254331D02*
D03*
X18110Y246457D02*
D03*
X22047Y238583D02*
D03*
X18110Y230709D02*
D03*
X22047Y222835D02*
D03*
X18110Y214961D02*
D03*
X22047Y191339D02*
D03*
X18110Y183465D02*
D03*
X22047Y175591D02*
D03*
X18110Y136221D02*
D03*
X22047Y128347D02*
D03*
Y112599D02*
D03*
Y96851D02*
D03*
Y65354D02*
D03*
X18110Y57480D02*
D03*
Y25984D02*
D03*
X22047Y18110D02*
D03*
X18110Y10236D02*
D03*
X14173Y270079D02*
D03*
X10236Y262205D02*
D03*
X14173Y254331D02*
D03*
X10236Y246457D02*
D03*
X14173Y238583D02*
D03*
X10236Y230709D02*
D03*
X14173Y222835D02*
D03*
X10236Y214961D02*
D03*
Y199213D02*
D03*
Y183465D02*
D03*
X14173Y96851D02*
D03*
X10236Y57480D02*
D03*
X14173Y49606D02*
D03*
X10236Y41732D02*
D03*
X14173Y33858D02*
D03*
X10236Y25984D02*
D03*
X14173Y18110D02*
D03*
X10236Y10236D02*
D03*
X220472Y70866D02*
D03*
X201772Y66929D02*
D03*
X188976Y43307D02*
D03*
X173228Y31496D02*
D03*
Y19685D02*
D03*
X247889Y246213D02*
D03*
X14252Y153495D02*
D03*
Y161369D02*
D03*
Y145621D02*
D03*
X7874Y161417D02*
D03*
Y153543D02*
D03*
Y145669D02*
D03*
X60037Y159400D02*
D03*
X48226Y165305D02*
D03*
X56100D02*
D03*
X52163D02*
D03*
X63974Y153495D02*
D03*
X56100Y159400D02*
D03*
Y153495D02*
D03*
X60037D02*
D03*
X52163Y159400D02*
D03*
X139500Y157000D02*
D03*
X244094Y27559D02*
D03*
X238189D02*
D03*
X232283D02*
D03*
X226378D02*
D03*
X108705Y177165D02*
D03*
X108268Y192913D02*
D03*
Y185039D02*
D03*
X102362Y192913D02*
D03*
Y185039D02*
D03*
X88500Y191400D02*
D03*
X98000Y112000D02*
D03*
X102799Y177165D02*
D03*
X98000Y102000D02*
D03*
X141500Y181500D02*
D03*
X172000Y209900D02*
D03*
X236600Y227000D02*
D03*
X70055Y59055D02*
D03*
X69100Y64500D02*
D03*
X271100Y74785D02*
D03*
X255906Y78740D02*
D03*
X259842Y55118D02*
D03*
X240158Y74803D02*
D03*
X140748Y66929D02*
D03*
X192913Y7874D02*
D03*
X236221Y74803D02*
D03*
X224410Y34449D02*
D03*
X201772Y74803D02*
D03*
X157480Y7874D02*
D03*
X228346Y59055D02*
D03*
X173228Y70866D02*
D03*
X259842Y78740D02*
D03*
X240158Y59055D02*
D03*
X271100Y55100D02*
D03*
X145669Y74803D02*
D03*
X140748Y51181D02*
D03*
X233550Y41950D02*
D03*
X153543Y7874D02*
D03*
X157480Y43307D02*
D03*
X201772Y23622D02*
D03*
X220472Y34449D02*
D03*
X224410Y72835D02*
D03*
X173228Y7874D02*
D03*
X185039Y74803D02*
D03*
X173228Y55118D02*
D03*
X271100Y70848D02*
D03*
X255906Y59055D02*
D03*
X244094Y74803D02*
D03*
X140748Y23622D02*
D03*
Y70866D02*
D03*
X188976Y7874D02*
D03*
X237400Y42800D02*
D03*
X228346Y72835D02*
D03*
X169291Y7874D02*
D03*
X161417Y74803D02*
D03*
X220472Y59055D02*
D03*
X173228Y47244D02*
D03*
Y66929D02*
D03*
X263779Y78740D02*
D03*
X267717Y55118D02*
D03*
X248031Y74803D02*
D03*
X149606D02*
D03*
X140748Y55118D02*
D03*
X185039Y7874D02*
D03*
X149606D02*
D03*
X161417Y43307D02*
D03*
X216535Y35433D02*
D03*
X188976Y74803D02*
D03*
X236221Y59055D02*
D03*
X216535D02*
D03*
X173228Y62992D02*
D03*
X271100Y66911D02*
D03*
X251969Y59055D02*
D03*
X145669Y43307D02*
D03*
X140748Y27559D02*
D03*
X201772Y7874D02*
D03*
X165354Y43307D02*
D03*
X201772Y31496D02*
D03*
X232283Y35433D02*
D03*
Y72835D02*
D03*
X173228Y11811D02*
D03*
X165354Y7874D02*
D03*
Y74803D02*
D03*
X232283Y59055D02*
D03*
X267717Y78740D02*
D03*
X263700Y59450D02*
D03*
X251969Y74803D02*
D03*
X248031Y59055D02*
D03*
X149606Y43307D02*
D03*
X153543Y74803D02*
D03*
X140748Y59055D02*
D03*
X181102Y7874D02*
D03*
X232331Y52814D02*
D03*
X145669Y7874D02*
D03*
X201772Y35433D02*
D03*
X212598D02*
D03*
X192913Y74803D02*
D03*
X204724Y66929D02*
D03*
X173228Y59055D02*
D03*
X271100Y62974D02*
D03*
X255906Y55118D02*
D03*
X251969Y78740D02*
D03*
X140748Y62992D02*
D03*
Y43307D02*
D03*
X196850Y7874D02*
D03*
X228346Y35433D02*
D03*
X196850Y74803D02*
D03*
X161417Y7874D02*
D03*
X185039Y43307D02*
D03*
X157480Y74803D02*
D03*
X173228Y43307D02*
D03*
X224410Y59055D02*
D03*
X173228Y74803D02*
D03*
X271100Y78722D02*
D03*
Y59037D02*
D03*
X244094Y59055D02*
D03*
X153543Y43307D02*
D03*
X140748Y74803D02*
D03*
Y47244D02*
D03*
Y7874D02*
D03*
X201772Y27559D02*
D03*
X208661Y66929D02*
D03*
X177165Y7874D02*
D03*
X173228Y51181D02*
D03*
X177165Y74803D02*
D03*
X153100Y146900D02*
D03*
X145200Y131900D02*
D03*
X153100Y112200D02*
D03*
X164448Y151732D02*
D03*
X188300Y181400D02*
D03*
X224200Y103900D02*
D03*
X216600D02*
D03*
X216200Y89900D02*
D03*
X223800D02*
D03*
X105800Y78000D02*
D03*
X111300Y78100D02*
D03*
X153100Y96732D02*
D03*
X184000Y141700D02*
D03*
X192020Y131800D02*
D03*
X270600Y229683D02*
D03*
X120900Y16300D02*
D03*
X158098Y20698D02*
D03*
X242200Y48700D02*
D03*
X244200Y225700D02*
D03*
X251600D02*
D03*
X258200Y215300D02*
D03*
Y219100D02*
D03*
X95200Y146700D02*
D03*
X215000Y141800D02*
D03*
Y136800D02*
D03*
X215090Y215430D02*
D03*
X209220Y215370D02*
D03*
X201900Y215430D02*
D03*
X194340Y215370D02*
D03*
X161210Y173690D02*
D03*
X264000Y206950D02*
D03*
X263730Y191600D02*
D03*
X231570Y209600D02*
D03*
D114*
X232283Y269094D02*
D03*
X260630D02*
D03*
D115*
X236910Y257677D02*
D03*
X256004D02*
D03*
M02*
