G04*
G04 #@! TF.GenerationSoftware,Altium Limited,Altium Designer,21.9.2 (33)*
G04*
G04 Layer_Physical_Order=4*
G04 Layer_Color=16711680*
%FSLAX25Y25*%
%MOIN*%
G70*
G04*
G04 #@! TF.SameCoordinates,2BD51A12-542F-4E7F-AF7E-1702C203C590*
G04*
G04*
G04 #@! TF.FilePolarity,Positive*
G04*
G01*
G75*
%ADD17C,0.01000*%
%ADD101C,0.00800*%
%ADD103C,0.01100*%
%ADD108C,0.05118*%
%ADD109C,0.05906*%
%ADD110C,0.08661*%
%ADD111C,0.07874*%
%ADD112C,0.06299*%
%ADD113C,0.02362*%
%ADD114C,0.07677*%
%ADD115C,0.04921*%
G36*
X274271Y274271D02*
Y1319D01*
X1319D01*
Y274271D01*
X274271Y274271D01*
D02*
G37*
%LPC*%
G36*
X261241Y273733D02*
X260019D01*
X258840Y273417D01*
X257782Y272806D01*
X256918Y271943D01*
X256308Y270885D01*
X255991Y269705D01*
Y268484D01*
X256308Y267304D01*
X256918Y266246D01*
X257782Y265383D01*
X258840Y264772D01*
X260019Y264456D01*
X261241D01*
X262420Y264772D01*
X263478Y265383D01*
X264342Y266246D01*
X264952Y267304D01*
X265268Y268484D01*
Y269705D01*
X264952Y270885D01*
X264342Y271943D01*
X263478Y272806D01*
X262420Y273417D01*
X261241Y273733D01*
D02*
G37*
G36*
X232894D02*
X231673D01*
X230493Y273417D01*
X229435Y272806D01*
X228572Y271943D01*
X227961Y270885D01*
X227645Y269705D01*
Y268484D01*
X227961Y267304D01*
X228572Y266246D01*
X229435Y265383D01*
X230493Y264772D01*
X231673Y264456D01*
X232894D01*
X234074Y264772D01*
X235132Y265383D01*
X235995Y266246D01*
X236606Y267304D01*
X236922Y268484D01*
Y269705D01*
X236606Y270885D01*
X235995Y271943D01*
X235132Y272806D01*
X234074Y273417D01*
X232894Y273733D01*
D02*
G37*
G36*
X133806Y260077D02*
Y257661D01*
X136223D01*
X136123Y258034D01*
X135654Y258846D01*
X134992Y259509D01*
X134180Y259977D01*
X133806Y260077D01*
D02*
G37*
G36*
X131806Y260077D02*
X131432Y259977D01*
X130621Y259509D01*
X129958Y258846D01*
X129490Y258034D01*
X129390Y257661D01*
X131806D01*
Y260077D01*
D02*
G37*
G36*
X256433Y260938D02*
X255575D01*
X254745Y260716D01*
X254002Y260286D01*
X253395Y259679D01*
X252965Y258936D01*
X252743Y258106D01*
Y257248D01*
X252965Y256419D01*
X253395Y255675D01*
X254002Y255068D01*
X254745Y254639D01*
X255575Y254416D01*
X256433D01*
X257262Y254639D01*
X258006Y255068D01*
X258613Y255675D01*
X259042Y256419D01*
X259265Y257248D01*
Y258106D01*
X259042Y258936D01*
X258613Y259679D01*
X258006Y260286D01*
X257262Y260716D01*
X256433Y260938D01*
D02*
G37*
G36*
X237339D02*
X236480D01*
X235651Y260716D01*
X234907Y260286D01*
X234300Y259679D01*
X233871Y258936D01*
X233649Y258106D01*
Y257248D01*
X233871Y256419D01*
X234300Y255675D01*
X234907Y255068D01*
X235651Y254639D01*
X236480Y254416D01*
X237339D01*
X238168Y254639D01*
X238912Y255068D01*
X239519Y255675D01*
X239948Y256419D01*
X240170Y257248D01*
Y258106D01*
X239948Y258936D01*
X239519Y259679D01*
X238912Y260286D01*
X238168Y260716D01*
X237339Y260938D01*
D02*
G37*
G36*
X136223Y255661D02*
X133806D01*
Y253244D01*
X134180Y253344D01*
X134992Y253813D01*
X135654Y254475D01*
X136123Y255287D01*
X136223Y255661D01*
D02*
G37*
G36*
X131806D02*
X129390D01*
X129490Y255287D01*
X129958Y254475D01*
X130621Y253813D01*
X131432Y253344D01*
X131806Y253244D01*
Y255661D01*
D02*
G37*
G36*
X270994Y231665D02*
X270206D01*
X269478Y231363D01*
X268920Y230806D01*
X268619Y230078D01*
Y229289D01*
X268920Y228561D01*
X269478Y228004D01*
X270206Y227702D01*
X270994D01*
X271722Y228004D01*
X272280Y228561D01*
X272581Y229289D01*
Y230078D01*
X272280Y230806D01*
X271722Y231363D01*
X270994Y231665D01*
D02*
G37*
G36*
X251994Y227681D02*
X251206D01*
X250478Y227379D01*
X250175Y227077D01*
X249594D01*
X249594Y227077D01*
X249068Y226972D01*
X248621Y226673D01*
X248621Y226673D01*
X248245Y226297D01*
X247900Y226078D01*
X247555Y226297D01*
X247179Y226673D01*
X246732Y226972D01*
X246206Y227077D01*
X245625D01*
X245322Y227379D01*
X244594Y227681D01*
X243806D01*
X243078Y227379D01*
X242520Y226822D01*
X242219Y226094D01*
Y225306D01*
X242520Y224578D01*
X243078Y224021D01*
X243806Y223719D01*
X244594D01*
X244973Y223876D01*
X245474Y223542D01*
Y223274D01*
X245578Y222748D01*
X245877Y222301D01*
X253001Y215177D01*
X253448Y214878D01*
X253975Y214774D01*
X256274D01*
X256521Y214178D01*
X257078Y213620D01*
X257806Y213319D01*
X258594D01*
X259322Y213620D01*
X259879Y214178D01*
X260181Y214906D01*
Y215694D01*
X259879Y216422D01*
X259393Y216909D01*
X259353Y217200D01*
X259393Y217491D01*
X259879Y217978D01*
X260181Y218706D01*
Y219494D01*
X259879Y220222D01*
X259322Y220779D01*
X258594Y221081D01*
X257806D01*
X257078Y220779D01*
X256521Y220222D01*
X256274Y219626D01*
X255415D01*
X251784Y223257D01*
X251975Y223719D01*
X251994D01*
X252722Y224021D01*
X253279Y224578D01*
X253581Y225306D01*
Y226094D01*
X253279Y226822D01*
X252722Y227379D01*
X251994Y227681D01*
D02*
G37*
G36*
X133248Y230098D02*
X132364D01*
X131510Y229870D01*
X130744Y229427D01*
X130118Y228802D01*
X129676Y228036D01*
X129447Y227182D01*
Y226297D01*
X129676Y225443D01*
X130118Y224677D01*
X130744Y224051D01*
X131510Y223609D01*
X132364Y223380D01*
X133248D01*
X134103Y223609D01*
X134869Y224051D01*
X135494Y224677D01*
X135936Y225443D01*
X136165Y226297D01*
Y227182D01*
X135936Y228036D01*
X135494Y228802D01*
X134869Y229427D01*
X134103Y229870D01*
X133248Y230098D01*
D02*
G37*
G36*
X215484Y217411D02*
X214696D01*
X213968Y217109D01*
X213410Y216552D01*
X213109Y215824D01*
Y215036D01*
X213410Y214308D01*
X213968Y213751D01*
X214696Y213449D01*
X215484D01*
X216212Y213751D01*
X216770Y214308D01*
X217071Y215036D01*
Y215824D01*
X216770Y216552D01*
X216212Y217109D01*
X215484Y217411D01*
D02*
G37*
G36*
X202294D02*
X201506D01*
X200778Y217109D01*
X200220Y216552D01*
X199919Y215824D01*
Y215036D01*
X200220Y214308D01*
X200778Y213751D01*
X201506Y213449D01*
X202294D01*
X203022Y213751D01*
X203579Y214308D01*
X203881Y215036D01*
Y215824D01*
X203579Y216552D01*
X203022Y217109D01*
X202294Y217411D01*
D02*
G37*
G36*
X209614Y217351D02*
X208826D01*
X208098Y217050D01*
X207540Y216492D01*
X207239Y215764D01*
Y214976D01*
X207540Y214248D01*
X208098Y213690D01*
X208826Y213389D01*
X209614D01*
X210342Y213690D01*
X210899Y214248D01*
X211201Y214976D01*
Y215764D01*
X210899Y216492D01*
X210342Y217050D01*
X209614Y217351D01*
D02*
G37*
G36*
X194734D02*
X193946D01*
X193218Y217050D01*
X192660Y216492D01*
X192359Y215764D01*
Y214976D01*
X192660Y214248D01*
X193218Y213690D01*
X193946Y213389D01*
X194734D01*
X195462Y213690D01*
X196019Y214248D01*
X196321Y214976D01*
Y215764D01*
X196019Y216492D01*
X195462Y217050D01*
X194734Y217351D01*
D02*
G37*
G36*
X236994Y228981D02*
X236206D01*
X235478Y228679D01*
X234921Y228122D01*
X234619Y227394D01*
Y226749D01*
X230705Y222835D01*
X230440Y222438D01*
X230346Y221970D01*
Y211178D01*
X229890Y210722D01*
X229589Y209994D01*
Y209206D01*
X229890Y208478D01*
X230448Y207921D01*
X231176Y207619D01*
X231964D01*
X232692Y207921D01*
X233249Y208478D01*
X233551Y209206D01*
Y209994D01*
X233249Y210722D01*
X232793Y211178D01*
Y221463D01*
X236349Y225019D01*
X236994D01*
X237722Y225321D01*
X238280Y225878D01*
X238581Y226606D01*
Y227394D01*
X238280Y228122D01*
X237722Y228679D01*
X236994Y228981D01*
D02*
G37*
G36*
X108662Y194895D02*
X107874D01*
X107146Y194593D01*
X106588Y194036D01*
X106287Y193307D01*
Y192519D01*
X106588Y191791D01*
X107146Y191234D01*
X107874Y190932D01*
X108662D01*
X109390Y191234D01*
X109947Y191791D01*
X110249Y192519D01*
Y193307D01*
X109947Y194036D01*
X109390Y194593D01*
X108662Y194895D01*
D02*
G37*
G36*
X102756D02*
X101968D01*
X101240Y194593D01*
X100683Y194036D01*
X100381Y193307D01*
Y192519D01*
X100683Y191791D01*
X101240Y191234D01*
X101968Y190932D01*
X102756D01*
X103484Y191234D01*
X104042Y191791D01*
X104343Y192519D01*
Y193307D01*
X104042Y194036D01*
X103484Y194593D01*
X102756Y194895D01*
D02*
G37*
G36*
X108662Y187021D02*
X107874D01*
X107146Y186719D01*
X106588Y186162D01*
X106287Y185433D01*
Y184645D01*
X106588Y183917D01*
X107146Y183360D01*
X107874Y183058D01*
X108662D01*
X109390Y183360D01*
X109947Y183917D01*
X110249Y184645D01*
Y185433D01*
X109947Y186162D01*
X109390Y186719D01*
X108662Y187021D01*
D02*
G37*
G36*
X102756D02*
X101968D01*
X101240Y186719D01*
X100683Y186162D01*
X100381Y185433D01*
Y184645D01*
X100683Y183917D01*
X101240Y183360D01*
X101968Y183058D01*
X102756D01*
X103484Y183360D01*
X104042Y183917D01*
X104343Y184645D01*
Y185433D01*
X104042Y186162D01*
X103484Y186719D01*
X102756Y187021D01*
D02*
G37*
G36*
X264124Y193581D02*
X263336D01*
X262608Y193280D01*
X262051Y192722D01*
X261749Y191994D01*
Y191206D01*
X262051Y190478D01*
X262404Y190124D01*
Y188729D01*
X256401Y182726D01*
X189776D01*
X189422Y183080D01*
X188694Y183381D01*
X187906D01*
X187178Y183080D01*
X186620Y182522D01*
X186319Y181794D01*
Y181006D01*
X186620Y180278D01*
X187178Y179720D01*
X187906Y179419D01*
X188694D01*
X189422Y179720D01*
X189776Y180075D01*
X256950D01*
X257457Y180175D01*
X257887Y180463D01*
X264667Y187243D01*
X264955Y187673D01*
X265055Y188180D01*
Y190124D01*
X265409Y190478D01*
X265711Y191206D01*
Y191994D01*
X265409Y192722D01*
X264852Y193280D01*
X264124Y193581D01*
D02*
G37*
G36*
X109099Y179147D02*
X108311D01*
X107582Y178845D01*
X107025Y178288D01*
X106724Y177559D01*
Y176771D01*
X107025Y176043D01*
X107582Y175486D01*
X108311Y175184D01*
X109099D01*
X109827Y175486D01*
X110384Y176043D01*
X110686Y176771D01*
Y177559D01*
X110384Y178288D01*
X109827Y178845D01*
X109099Y179147D01*
D02*
G37*
G36*
X103193D02*
X102405D01*
X101677Y178845D01*
X101120Y178288D01*
X100818Y177559D01*
Y176771D01*
X101120Y176043D01*
X101677Y175486D01*
X102405Y175184D01*
X103193D01*
X103921Y175486D01*
X104479Y176043D01*
X104780Y176771D01*
Y177559D01*
X104479Y178288D01*
X103921Y178845D01*
X103193Y179147D01*
D02*
G37*
G36*
X264394Y208931D02*
X263606D01*
X262878Y208629D01*
X262320Y208072D01*
X262019Y207344D01*
Y206556D01*
X262320Y205828D01*
X262878Y205271D01*
X263606Y204969D01*
X264394D01*
X265122Y205271D01*
X265476Y205625D01*
X269451D01*
X270784Y204291D01*
Y184569D01*
X263511Y177295D01*
X188690D01*
X188183Y177195D01*
X187753Y176907D01*
X181221Y170376D01*
X163289D01*
X162536Y171129D01*
Y172214D01*
X162890Y172568D01*
X163191Y173296D01*
Y174084D01*
X162890Y174812D01*
X162332Y175370D01*
X161604Y175671D01*
X160816D01*
X160088Y175370D01*
X159530Y174812D01*
X159229Y174084D01*
Y173296D01*
X159530Y172568D01*
X159885Y172214D01*
Y170580D01*
X159985Y170073D01*
X160273Y169643D01*
X161803Y168113D01*
X162233Y167825D01*
X162740Y167725D01*
X181770D01*
X182277Y167825D01*
X182707Y168113D01*
X189239Y174644D01*
X264060D01*
X264567Y174745D01*
X264997Y175033D01*
X273047Y183083D01*
X273335Y183513D01*
X273435Y184020D01*
Y204840D01*
X273335Y205347D01*
X273047Y205777D01*
X270937Y207887D01*
X270507Y208175D01*
X270000Y208276D01*
X265476D01*
X265122Y208629D01*
X264394Y208931D01*
D02*
G37*
G36*
X269000Y172051D02*
Y167800D01*
X273251D01*
X272967Y168858D01*
X272266Y170073D01*
X271273Y171066D01*
X270058Y171767D01*
X269000Y172051D01*
D02*
G37*
G36*
X249000D02*
Y167800D01*
X253251D01*
X252967Y168858D01*
X252266Y170073D01*
X251273Y171066D01*
X250058Y171767D01*
X249000Y172051D01*
D02*
G37*
G36*
X267000Y172051D02*
X265942Y171767D01*
X264727Y171066D01*
X263734Y170073D01*
X263033Y168858D01*
X262749Y167800D01*
X267000D01*
Y172051D01*
D02*
G37*
G36*
X247000D02*
X245942Y171767D01*
X244727Y171066D01*
X243734Y170073D01*
X243033Y168858D01*
X242749Y167800D01*
X247000D01*
Y172051D01*
D02*
G37*
G36*
X56494Y167287D02*
X55706D01*
X54978Y166985D01*
X54421Y166428D01*
X54382Y166333D01*
X53882D01*
X53843Y166428D01*
X53285Y166985D01*
X52557Y167287D01*
X51769D01*
X51041Y166985D01*
X50484Y166428D01*
X50445Y166333D01*
X49944D01*
X49905Y166428D01*
X49348Y166985D01*
X48620Y167287D01*
X47832D01*
X47104Y166985D01*
X46547Y166428D01*
X46245Y165700D01*
Y164911D01*
X46547Y164183D01*
X47104Y163626D01*
X47832Y163324D01*
X48620D01*
X49348Y163626D01*
X49905Y164183D01*
X49944Y164278D01*
X50445D01*
X50484Y164183D01*
X51041Y163626D01*
X51769Y163324D01*
X52557D01*
X53285Y163626D01*
X53843Y164183D01*
X53882Y164278D01*
X54382D01*
X54421Y164183D01*
X54978Y163626D01*
X55706Y163324D01*
X56494D01*
X57222Y163626D01*
X57780Y164183D01*
X58081Y164911D01*
Y165700D01*
X57780Y166428D01*
X57222Y166985D01*
X56494Y167287D01*
D02*
G37*
G36*
X273251Y165800D02*
X269000D01*
Y161549D01*
X270058Y161833D01*
X271273Y162534D01*
X272266Y163527D01*
X272967Y164742D01*
X273251Y165800D01*
D02*
G37*
G36*
X253251D02*
X249000D01*
Y161549D01*
X250058Y161833D01*
X251273Y162534D01*
X252266Y163527D01*
X252967Y164742D01*
X253251Y165800D01*
D02*
G37*
G36*
X267000D02*
X262749D01*
X263033Y164742D01*
X263734Y163527D01*
X264727Y162534D01*
X265942Y161833D01*
X267000Y161549D01*
Y165800D01*
D02*
G37*
G36*
X247000D02*
X242749D01*
X243033Y164742D01*
X243734Y163527D01*
X244727Y162534D01*
X245942Y161833D01*
X247000Y161549D01*
Y165800D01*
D02*
G37*
G36*
X60431Y161381D02*
X59643D01*
X58915Y161080D01*
X58358Y160522D01*
X58319Y160428D01*
X57819D01*
X57780Y160522D01*
X57222Y161080D01*
X56494Y161381D01*
X55706D01*
X54978Y161080D01*
X54421Y160522D01*
X54382Y160428D01*
X53882D01*
X53843Y160522D01*
X53285Y161080D01*
X52557Y161381D01*
X51769D01*
X51041Y161080D01*
X50484Y160522D01*
X50182Y159794D01*
Y159006D01*
X50484Y158278D01*
X51041Y157720D01*
X51769Y157419D01*
X52557D01*
X53285Y157720D01*
X53843Y158278D01*
X53882Y158372D01*
X54382D01*
X54421Y158278D01*
X54978Y157720D01*
X55706Y157419D01*
X56494D01*
X57222Y157720D01*
X57780Y158278D01*
X57819Y158372D01*
X58319D01*
X58358Y158278D01*
X58915Y157720D01*
X59643Y157419D01*
X60431D01*
X61159Y157720D01*
X61717Y158278D01*
X62018Y159006D01*
Y159794D01*
X61717Y160522D01*
X61159Y161080D01*
X60431Y161381D01*
D02*
G37*
G36*
X8268Y163398D02*
X7480D01*
X6752Y163097D01*
X6194Y162540D01*
X5893Y161811D01*
Y161023D01*
X6194Y160295D01*
X6752Y159738D01*
X7480Y159436D01*
X8268D01*
X8996Y159738D01*
X9554Y160295D01*
X9855Y161023D01*
Y161811D01*
X9554Y162540D01*
X8996Y163097D01*
X8268Y163398D01*
D02*
G37*
G36*
X14646Y163350D02*
X13858D01*
X13129Y163048D01*
X12572Y162491D01*
X12270Y161763D01*
Y160975D01*
X12572Y160247D01*
X13129Y159689D01*
X13858Y159388D01*
X14646D01*
X15374Y159689D01*
X15931Y160247D01*
X16233Y160975D01*
Y161763D01*
X15931Y162491D01*
X15374Y163048D01*
X14646Y163350D01*
D02*
G37*
G36*
X172394Y211881D02*
X171606D01*
X170878Y211579D01*
X170320Y211022D01*
X170019Y210294D01*
Y209793D01*
X151463Y191237D01*
X151175Y190807D01*
X151075Y190300D01*
Y167168D01*
X142232Y158326D01*
X140976D01*
X140622Y158679D01*
X139894Y158981D01*
X139106D01*
X138378Y158679D01*
X137820Y158122D01*
X137519Y157394D01*
Y156606D01*
X137820Y155878D01*
X138378Y155321D01*
X139106Y155019D01*
X139894D01*
X140622Y155321D01*
X140976Y155675D01*
X142781D01*
X143289Y155775D01*
X143719Y156063D01*
X153337Y165681D01*
X153625Y166112D01*
X153726Y166619D01*
Y189751D01*
X171893Y207919D01*
X172394D01*
X173122Y208221D01*
X173679Y208778D01*
X173981Y209506D01*
Y210294D01*
X173679Y211022D01*
X173122Y211579D01*
X172394Y211881D01*
D02*
G37*
G36*
X64368Y155476D02*
X63580D01*
X62852Y155174D01*
X62295Y154617D01*
X62256Y154523D01*
X61756D01*
X61717Y154617D01*
X61159Y155174D01*
X60431Y155476D01*
X59643D01*
X58915Y155174D01*
X58358Y154617D01*
X58319Y154523D01*
X57819D01*
X57780Y154617D01*
X57222Y155174D01*
X56494Y155476D01*
X55706D01*
X54978Y155174D01*
X54421Y154617D01*
X54119Y153889D01*
Y153100D01*
X54421Y152372D01*
X54978Y151815D01*
X55706Y151513D01*
X56494D01*
X57222Y151815D01*
X57780Y152372D01*
X57819Y152466D01*
X58319D01*
X58358Y152372D01*
X58915Y151815D01*
X59643Y151513D01*
X60431D01*
X61159Y151815D01*
X61717Y152372D01*
X61756Y152466D01*
X62256D01*
X62295Y152372D01*
X62852Y151815D01*
X63580Y151513D01*
X64368D01*
X65096Y151815D01*
X65654Y152372D01*
X65955Y153100D01*
Y153889D01*
X65654Y154617D01*
X65096Y155174D01*
X64368Y155476D01*
D02*
G37*
G36*
X258624Y161537D02*
X257376D01*
X256172Y161214D01*
X255091Y160591D01*
X254209Y159709D01*
X253586Y158628D01*
X253263Y157424D01*
Y156176D01*
X253586Y154972D01*
X254209Y153891D01*
X255091Y153009D01*
X256172Y152386D01*
X257376Y152063D01*
X258624D01*
X259828Y152386D01*
X260909Y153009D01*
X261790Y153891D01*
X262414Y154972D01*
X262737Y156176D01*
Y157424D01*
X262414Y158628D01*
X261790Y159709D01*
X260909Y160591D01*
X259828Y161214D01*
X258624Y161537D01*
D02*
G37*
G36*
X8268Y155524D02*
X7480D01*
X6752Y155223D01*
X6194Y154666D01*
X5893Y153937D01*
Y153149D01*
X6194Y152421D01*
X6752Y151864D01*
X7480Y151562D01*
X8268D01*
X8996Y151864D01*
X9554Y152421D01*
X9855Y153149D01*
Y153937D01*
X9554Y154666D01*
X8996Y155223D01*
X8268Y155524D01*
D02*
G37*
G36*
X14646Y155476D02*
X13858D01*
X13129Y155174D01*
X12572Y154617D01*
X12270Y153889D01*
Y153101D01*
X12572Y152373D01*
X13129Y151815D01*
X13858Y151514D01*
X14646D01*
X15374Y151815D01*
X15931Y152373D01*
X16233Y153101D01*
Y153889D01*
X15931Y154617D01*
X15374Y155174D01*
X14646Y155476D01*
D02*
G37*
G36*
X141894Y183481D02*
X141106D01*
X140378Y183179D01*
X139821Y182622D01*
X139519Y181894D01*
Y181393D01*
X106151Y148026D01*
X96676D01*
X96322Y148380D01*
X95594Y148681D01*
X94806D01*
X94078Y148380D01*
X93520Y147822D01*
X93219Y147094D01*
Y146306D01*
X93520Y145578D01*
X94078Y145020D01*
X94806Y144719D01*
X95594D01*
X96322Y145020D01*
X96676Y145375D01*
X106700D01*
X107207Y145475D01*
X107637Y145763D01*
X141393Y179519D01*
X141894D01*
X142622Y179821D01*
X143180Y180378D01*
X143481Y181106D01*
Y181894D01*
X143180Y182622D01*
X142622Y183179D01*
X141894Y183481D01*
D02*
G37*
G36*
X269000Y152051D02*
Y147800D01*
X273251D01*
X272967Y148858D01*
X272266Y150073D01*
X271273Y151066D01*
X270058Y151767D01*
X269000Y152051D01*
D02*
G37*
G36*
X249000D02*
Y147800D01*
X253251D01*
X252967Y148858D01*
X252266Y150073D01*
X251273Y151066D01*
X250058Y151767D01*
X249000Y152051D01*
D02*
G37*
G36*
X267000Y152051D02*
X265942Y151767D01*
X264727Y151066D01*
X263734Y150073D01*
X263033Y148858D01*
X262749Y147800D01*
X267000D01*
Y152051D01*
D02*
G37*
G36*
X247000D02*
X245942Y151767D01*
X244727Y151066D01*
X243734Y150073D01*
X243033Y148858D01*
X242749Y147800D01*
X247000D01*
Y152051D01*
D02*
G37*
G36*
X153494Y148881D02*
X152706D01*
X151978Y148580D01*
X151624Y148225D01*
X146800D01*
X146293Y148125D01*
X145863Y147837D01*
X136063Y138037D01*
X135775Y137607D01*
X135675Y137100D01*
Y100604D01*
X133596Y98526D01*
X101800D01*
X101293Y98425D01*
X100863Y98137D01*
X69207Y66481D01*
X68706D01*
X67978Y66180D01*
X67421Y65622D01*
X67119Y64894D01*
Y64106D01*
X67421Y63378D01*
X67978Y62821D01*
X68706Y62519D01*
X69494D01*
X70222Y62821D01*
X70780Y63378D01*
X71081Y64106D01*
Y64607D01*
X102349Y95875D01*
X134145D01*
X134652Y95975D01*
X135082Y96263D01*
X137937Y99118D01*
X138225Y99548D01*
X138326Y100055D01*
Y136551D01*
X147349Y145574D01*
X151624D01*
X151978Y145220D01*
X152706Y144919D01*
X153494D01*
X154222Y145220D01*
X154780Y145778D01*
X155081Y146506D01*
Y147294D01*
X154780Y148022D01*
X154222Y148580D01*
X153494Y148881D01*
D02*
G37*
G36*
X8268Y147650D02*
X7480D01*
X6752Y147349D01*
X6194Y146792D01*
X5893Y146063D01*
Y145275D01*
X6194Y144547D01*
X6752Y143990D01*
X7480Y143688D01*
X8268D01*
X8996Y143990D01*
X9554Y144547D01*
X9855Y145275D01*
Y146063D01*
X9554Y146792D01*
X8996Y147349D01*
X8268Y147650D01*
D02*
G37*
G36*
X14646Y147602D02*
X13858D01*
X13129Y147300D01*
X12572Y146743D01*
X12270Y146015D01*
Y145227D01*
X12572Y144499D01*
X13129Y143941D01*
X13858Y143640D01*
X14646D01*
X15374Y143941D01*
X15931Y144499D01*
X16233Y145227D01*
Y146015D01*
X15931Y146743D01*
X15374Y147300D01*
X14646Y147602D01*
D02*
G37*
G36*
X273251Y145800D02*
X269000D01*
Y141549D01*
X270058Y141833D01*
X271273Y142534D01*
X272266Y143527D01*
X272967Y144742D01*
X273251Y145800D01*
D02*
G37*
G36*
X253251D02*
X249000D01*
Y141549D01*
X250058Y141833D01*
X251273Y142534D01*
X252266Y143527D01*
X252967Y144742D01*
X253251Y145800D01*
D02*
G37*
G36*
X267000D02*
X262749D01*
X263033Y144742D01*
X263734Y143527D01*
X264727Y142534D01*
X265942Y141833D01*
X267000Y141549D01*
Y145800D01*
D02*
G37*
G36*
X247000D02*
X242749D01*
X243033Y144742D01*
X243734Y143527D01*
X244727Y142534D01*
X245942Y141833D01*
X247000Y141549D01*
Y145800D01*
D02*
G37*
G36*
X201500Y166426D02*
X158800D01*
X158293Y166325D01*
X157863Y166037D01*
X145497Y153671D01*
X143454D01*
X142947Y153570D01*
X142517Y153283D01*
X129763Y140529D01*
X129475Y140099D01*
X129375Y139592D01*
Y117229D01*
X115471Y103325D01*
X99476D01*
X99122Y103680D01*
X98394Y103981D01*
X97606D01*
X96878Y103680D01*
X96320Y103122D01*
X96019Y102394D01*
Y101606D01*
X96320Y100878D01*
X96878Y100320D01*
X97606Y100019D01*
X98394D01*
X99122Y100320D01*
X99476Y100674D01*
X116020D01*
X116527Y100775D01*
X116957Y101063D01*
X131637Y115743D01*
X131925Y116173D01*
X132026Y116680D01*
X132026Y116680D01*
Y139043D01*
X144003Y151020D01*
X146046D01*
X146553Y151121D01*
X146983Y151409D01*
X159349Y163775D01*
X200951D01*
X213674Y151051D01*
Y143276D01*
X213320Y142922D01*
X213019Y142194D01*
Y141406D01*
X213320Y140678D01*
X213878Y140120D01*
X214606Y139819D01*
X215394D01*
X216122Y140120D01*
X216680Y140678D01*
X216981Y141406D01*
Y142194D01*
X216680Y142922D01*
X216325Y143276D01*
Y151600D01*
X216225Y152107D01*
X215937Y152537D01*
X202437Y166037D01*
X202007Y166325D01*
X201500Y166426D01*
D02*
G37*
G36*
X184394Y143681D02*
X183606D01*
X182878Y143379D01*
X182524Y143026D01*
X155000D01*
X154493Y142925D01*
X154063Y142637D01*
X148763Y137337D01*
X148475Y136907D01*
X148374Y136400D01*
Y100132D01*
X148475Y99625D01*
X148763Y99195D01*
X151119Y96839D01*
Y96338D01*
X151420Y95610D01*
X151978Y95053D01*
X152706Y94751D01*
X153494D01*
X154222Y95053D01*
X154780Y95610D01*
X155081Y96338D01*
Y97126D01*
X154780Y97855D01*
X154222Y98412D01*
X153494Y98713D01*
X152993D01*
X151025Y100681D01*
Y110820D01*
X151039Y110828D01*
X151525Y110973D01*
X151978Y110521D01*
X152706Y110219D01*
X153494D01*
X154222Y110521D01*
X154576Y110874D01*
X183400D01*
X183907Y110975D01*
X184337Y111263D01*
X208549Y135475D01*
X213524D01*
X213878Y135120D01*
X214606Y134819D01*
X215394D01*
X216122Y135120D01*
X216680Y135678D01*
X216981Y136406D01*
Y137194D01*
X216680Y137922D01*
X216122Y138479D01*
X215394Y138781D01*
X214606D01*
X213878Y138479D01*
X213524Y138126D01*
X208000D01*
X207493Y138025D01*
X207063Y137737D01*
X182851Y113525D01*
X154576D01*
X154222Y113880D01*
X153494Y114181D01*
X152706D01*
X151978Y113880D01*
X151525Y113427D01*
X151039Y113572D01*
X151025Y113580D01*
Y135851D01*
X155549Y140375D01*
X182524D01*
X182878Y140021D01*
X183606Y139719D01*
X184394D01*
X185122Y140021D01*
X185679Y140578D01*
X185981Y141306D01*
Y142094D01*
X185679Y142822D01*
X185122Y143379D01*
X184394Y143681D01*
D02*
G37*
G36*
X46694Y146590D02*
X45706D01*
X44752Y146334D01*
X43896Y145840D01*
X43197Y145141D01*
X42703Y144286D01*
X42447Y143331D01*
Y142343D01*
X42703Y141388D01*
X43197Y140533D01*
X43896Y139834D01*
X44752Y139340D01*
X45041Y139262D01*
Y138745D01*
X44674Y138646D01*
X43773Y138126D01*
X43037Y137390D01*
X42517Y136489D01*
X42376Y135963D01*
X46200D01*
X50024D01*
X49883Y136489D01*
X49363Y137390D01*
X48627Y138126D01*
X47726Y138646D01*
X47359Y138745D01*
Y139262D01*
X47649Y139340D01*
X48504Y139834D01*
X49203Y140533D01*
X49697Y141388D01*
X49953Y142343D01*
Y143331D01*
X49697Y144286D01*
X49203Y145141D01*
X48504Y145840D01*
X47649Y146334D01*
X46694Y146590D01*
D02*
G37*
G36*
X24794D02*
X23806D01*
X22851Y146334D01*
X21996Y145840D01*
X21297Y145141D01*
X20803Y144286D01*
X20547Y143331D01*
Y142343D01*
X20803Y141388D01*
X21297Y140533D01*
X21996Y139834D01*
X22851Y139340D01*
X23141Y139262D01*
Y138745D01*
X22774Y138646D01*
X21873Y138126D01*
X21137Y137390D01*
X20617Y136489D01*
X20476Y135963D01*
X24300D01*
X28124D01*
X27983Y136489D01*
X27463Y137390D01*
X26727Y138126D01*
X25826Y138646D01*
X25459Y138745D01*
Y139262D01*
X25749Y139340D01*
X26604Y139834D01*
X27303Y140533D01*
X27797Y141388D01*
X28053Y142343D01*
Y143331D01*
X27797Y144286D01*
X27303Y145141D01*
X26604Y145840D01*
X25749Y146334D01*
X24794Y146590D01*
D02*
G37*
G36*
X45200Y133963D02*
X42376D01*
X42517Y133437D01*
X43037Y132536D01*
X43773Y131800D01*
X44674Y131280D01*
X45200Y131139D01*
Y133963D01*
D02*
G37*
G36*
X23300D02*
X20476D01*
X20617Y133437D01*
X21137Y132536D01*
X21873Y131800D01*
X22774Y131280D01*
X23300Y131139D01*
Y133963D01*
D02*
G37*
G36*
X50024D02*
X47200D01*
Y131139D01*
X47726Y131280D01*
X48627Y131800D01*
X49363Y132536D01*
X49883Y133437D01*
X50024Y133963D01*
D02*
G37*
G36*
X28124D02*
X25300D01*
Y131139D01*
X25826Y131280D01*
X26727Y131800D01*
X27463Y132536D01*
X27983Y133437D01*
X28124Y133963D01*
D02*
G37*
G36*
X164842Y153713D02*
X164054D01*
X163326Y153412D01*
X162768Y152855D01*
X162467Y152126D01*
Y151338D01*
X162768Y150610D01*
X163326Y150053D01*
X164054Y149751D01*
X164842D01*
X165570Y150053D01*
X165924Y150407D01*
X182219D01*
X190694Y141931D01*
Y133276D01*
X190340Y132922D01*
X190039Y132194D01*
Y131406D01*
X190340Y130678D01*
X190898Y130121D01*
X191626Y129819D01*
X192414D01*
X193142Y130121D01*
X193700Y130678D01*
X194001Y131406D01*
Y132194D01*
X193700Y132922D01*
X193345Y133276D01*
Y142480D01*
X193245Y142987D01*
X192957Y143417D01*
X183705Y152670D01*
X183275Y152957D01*
X182768Y153058D01*
X165924D01*
X165570Y153412D01*
X164842Y153713D01*
D02*
G37*
G36*
X63700Y115528D02*
Y112500D01*
X66728D01*
X66567Y113102D01*
X66021Y114048D01*
X65248Y114821D01*
X64302Y115367D01*
X63700Y115528D01*
D02*
G37*
G36*
X61700D02*
X61098Y115367D01*
X60152Y114821D01*
X59380Y114048D01*
X58833Y113102D01*
X58672Y112500D01*
X61700D01*
Y115528D01*
D02*
G37*
G36*
X88894Y193381D02*
X88106D01*
X87378Y193079D01*
X86821Y192522D01*
X86519Y191794D01*
Y191006D01*
X86821Y190278D01*
X87174Y189924D01*
Y121500D01*
X87275Y120993D01*
X87563Y120563D01*
X96019Y112107D01*
Y111606D01*
X96320Y110878D01*
X96878Y110320D01*
X97606Y110019D01*
X98394D01*
X99122Y110320D01*
X99679Y110878D01*
X99981Y111606D01*
Y112394D01*
X99679Y113122D01*
X99122Y113680D01*
X98394Y113981D01*
X97893D01*
X89825Y122049D01*
Y189924D01*
X90180Y190278D01*
X90481Y191006D01*
Y191794D01*
X90180Y192522D01*
X89622Y193079D01*
X88894Y193381D01*
D02*
G37*
G36*
X66728Y110500D02*
X63700D01*
Y107472D01*
X64302Y107633D01*
X65248Y108179D01*
X66021Y108952D01*
X66567Y109898D01*
X66728Y110500D01*
D02*
G37*
G36*
X61700D02*
X58672D01*
X58833Y109898D01*
X59380Y108952D01*
X60152Y108179D01*
X61098Y107633D01*
X61700Y107472D01*
Y110500D01*
D02*
G37*
G36*
X224594Y105881D02*
X223806D01*
X223078Y105579D01*
X222520Y105022D01*
X222219Y104294D01*
Y103506D01*
X222520Y102778D01*
X223078Y102220D01*
X223806Y101919D01*
X224594D01*
X225322Y102220D01*
X225880Y102778D01*
X226181Y103506D01*
Y104294D01*
X225880Y105022D01*
X225322Y105579D01*
X224594Y105881D01*
D02*
G37*
G36*
X216994D02*
X216206D01*
X215478Y105579D01*
X214920Y105022D01*
X214619Y104294D01*
Y103506D01*
X214920Y102778D01*
X215478Y102220D01*
X216206Y101919D01*
X216994D01*
X217722Y102220D01*
X218280Y102778D01*
X218581Y103506D01*
Y104294D01*
X218280Y105022D01*
X217722Y105579D01*
X216994Y105881D01*
D02*
G37*
G36*
X63220Y105450D02*
X62180D01*
X61176Y105180D01*
X60275Y104660D01*
X59540Y103925D01*
X59020Y103024D01*
X58750Y102020D01*
Y100980D01*
X59020Y99976D01*
X59540Y99075D01*
X60275Y98339D01*
X61176Y97820D01*
X62180Y97550D01*
X63220D01*
X64224Y97820D01*
X65125Y98339D01*
X65860Y99075D01*
X66380Y99976D01*
X66650Y100980D01*
Y102020D01*
X66380Y103024D01*
X65860Y103925D01*
X65125Y104660D01*
X64224Y105180D01*
X63220Y105450D01*
D02*
G37*
G36*
X224194Y91881D02*
X223406D01*
X222678Y91580D01*
X222120Y91022D01*
X221819Y90294D01*
Y89506D01*
X222120Y88778D01*
X222678Y88221D01*
X223406Y87919D01*
X224194D01*
X224922Y88221D01*
X225480Y88778D01*
X225781Y89506D01*
Y90294D01*
X225480Y91022D01*
X224922Y91580D01*
X224194Y91881D01*
D02*
G37*
G36*
X216594D02*
X215806D01*
X215078Y91580D01*
X214521Y91022D01*
X214219Y90294D01*
Y89506D01*
X214521Y88778D01*
X215078Y88221D01*
X215806Y87919D01*
X216594D01*
X217322Y88221D01*
X217880Y88778D01*
X218181Y89506D01*
Y90294D01*
X217880Y91022D01*
X217322Y91580D01*
X216594Y91881D01*
D02*
G37*
G36*
X63220Y95450D02*
X62180D01*
X61176Y95180D01*
X60275Y94661D01*
X59540Y93925D01*
X59020Y93024D01*
X58750Y92020D01*
Y90980D01*
X59020Y89976D01*
X59540Y89075D01*
X60275Y88340D01*
X61176Y87820D01*
X62180Y87550D01*
X63220D01*
X64224Y87820D01*
X65125Y88340D01*
X65860Y89075D01*
X66380Y89976D01*
X66650Y90980D01*
Y92020D01*
X66380Y93024D01*
X65860Y93925D01*
X65125Y94661D01*
X64224Y95180D01*
X63220Y95450D01*
D02*
G37*
G36*
X111694Y80081D02*
X110906D01*
X110178Y79779D01*
X109620Y79222D01*
X109319Y78494D01*
Y77706D01*
X109620Y76978D01*
X110178Y76420D01*
X110906Y76119D01*
X111694D01*
X112422Y76420D01*
X112979Y76978D01*
X113281Y77706D01*
Y78494D01*
X112979Y79222D01*
X112422Y79779D01*
X111694Y80081D01*
D02*
G37*
G36*
X106194Y79981D02*
X105406D01*
X104678Y79680D01*
X104121Y79122D01*
X103819Y78394D01*
Y77606D01*
X104121Y76878D01*
X104678Y76320D01*
X105406Y76019D01*
X106194D01*
X106922Y76320D01*
X107480Y76878D01*
X107781Y77606D01*
Y78394D01*
X107480Y79122D01*
X106922Y79680D01*
X106194Y79981D01*
D02*
G37*
G36*
X145594Y133881D02*
X144806D01*
X144078Y133580D01*
X143520Y133022D01*
X143219Y132294D01*
Y131793D01*
X140390Y128964D01*
X140102Y128534D01*
X140001Y128027D01*
Y97662D01*
X137165Y94826D01*
X104500D01*
X103993Y94725D01*
X103563Y94437D01*
X70162Y61036D01*
X69661D01*
X68933Y60735D01*
X68376Y60177D01*
X68074Y59449D01*
Y58661D01*
X68376Y57933D01*
X68933Y57376D01*
X69661Y57074D01*
X70449D01*
X71177Y57376D01*
X71735Y57933D01*
X72036Y58661D01*
Y59162D01*
X105049Y92175D01*
X137714D01*
X138222Y92275D01*
X138652Y92563D01*
X142264Y96175D01*
X142551Y96605D01*
X142652Y97113D01*
Y127478D01*
X145093Y129919D01*
X145594D01*
X146322Y130220D01*
X146879Y130778D01*
X147181Y131506D01*
Y132294D01*
X146879Y133022D01*
X146322Y133580D01*
X145594Y133881D01*
D02*
G37*
G36*
X244489Y29540D02*
X243700D01*
X242972Y29239D01*
X242415Y28681D01*
X242113Y27953D01*
Y27165D01*
X242415Y26437D01*
X242972Y25880D01*
X243700Y25578D01*
X244489D01*
X245217Y25880D01*
X245774Y26437D01*
X246076Y27165D01*
Y27953D01*
X245774Y28681D01*
X245217Y29239D01*
X244489Y29540D01*
D02*
G37*
G36*
X238583D02*
X237795D01*
X237067Y29239D01*
X236509Y28681D01*
X236208Y27953D01*
Y27165D01*
X236509Y26437D01*
X237067Y25880D01*
X237795Y25578D01*
X238583D01*
X239311Y25880D01*
X239868Y26437D01*
X240170Y27165D01*
Y27953D01*
X239868Y28681D01*
X239311Y29239D01*
X238583Y29540D01*
D02*
G37*
G36*
X232678D02*
X231889D01*
X231161Y29239D01*
X230604Y28681D01*
X230302Y27953D01*
Y27165D01*
X230604Y26437D01*
X231161Y25880D01*
X231889Y25578D01*
X232678D01*
X233406Y25880D01*
X233963Y26437D01*
X234265Y27165D01*
Y27953D01*
X233963Y28681D01*
X233406Y29239D01*
X232678Y29540D01*
D02*
G37*
G36*
X226772D02*
X225984D01*
X225256Y29239D01*
X224698Y28681D01*
X224397Y27953D01*
Y27165D01*
X224698Y26437D01*
X225256Y25880D01*
X225984Y25578D01*
X226772D01*
X227500Y25880D01*
X228057Y26437D01*
X228359Y27165D01*
Y27953D01*
X228057Y28681D01*
X227500Y29239D01*
X226772Y29540D01*
D02*
G37*
G36*
X242594Y50681D02*
X241806D01*
X241078Y50380D01*
X240521Y49822D01*
X240219Y49094D01*
Y48306D01*
X240521Y47578D01*
X240875Y47224D01*
Y44349D01*
X236951Y40426D01*
X187800D01*
X187293Y40325D01*
X186863Y40037D01*
X168849Y22023D01*
X159574D01*
X159220Y22377D01*
X158492Y22679D01*
X157704D01*
X156975Y22377D01*
X156418Y21820D01*
X156117Y21092D01*
Y20304D01*
X156418Y19576D01*
X156975Y19018D01*
X157704Y18717D01*
X158492D01*
X159220Y19018D01*
X159574Y19372D01*
X169398D01*
X169905Y19473D01*
X170335Y19760D01*
X188349Y37775D01*
X237500D01*
X238007Y37875D01*
X238437Y38163D01*
X243137Y42863D01*
X243425Y43293D01*
X243526Y43800D01*
Y47224D01*
X243880Y47578D01*
X244181Y48306D01*
Y49094D01*
X243880Y49822D01*
X243322Y50380D01*
X242594Y50681D01*
D02*
G37*
G36*
X121294Y18281D02*
X120506D01*
X119778Y17979D01*
X119220Y17422D01*
X118919Y16694D01*
Y15906D01*
X119220Y15178D01*
X119778Y14620D01*
X120506Y14319D01*
X121294D01*
X122022Y14620D01*
X122580Y15178D01*
X122881Y15906D01*
Y16694D01*
X122580Y17422D01*
X122022Y17979D01*
X121294Y18281D01*
D02*
G37*
%LPD*%
D17*
X158098Y20698D02*
X169398D01*
X187800Y39100D01*
X139500Y157000D02*
X142781D01*
X152400Y166619D01*
X88500Y121500D02*
X98000Y112000D01*
X88500Y121500D02*
Y191400D01*
X98000Y102000D02*
X116020D01*
X106700Y146700D02*
X141500Y181500D01*
X95200Y146700D02*
X106700D01*
X152400Y166619D02*
Y190300D01*
X172000Y209900D01*
X70055Y59055D02*
X104500Y93500D01*
X137714D01*
X69100Y64500D02*
X101800Y97200D01*
X134145D01*
X141327Y128027D02*
X145200Y131900D01*
X141327Y97113D02*
Y128027D01*
X137714Y93500D02*
X141327Y97113D01*
X134145Y97200D02*
X137000Y100055D01*
Y137100D01*
X146800Y146900D01*
X153100D01*
X116020Y102000D02*
X130700Y116680D01*
Y139592D01*
X149700Y100132D02*
X153100Y96732D01*
X149700Y100132D02*
Y136400D01*
X155000Y141700D01*
X146046Y152346D02*
X158800Y165100D01*
X143454Y152346D02*
X146046D01*
X130700Y139592D02*
X143454Y152346D01*
X158800Y165100D02*
X201500D01*
X153100Y112200D02*
X183400D01*
X208000Y136800D01*
X164448Y151732D02*
X182768D01*
X188300Y181400D02*
X256950D01*
X263730Y188180D01*
X162740Y169050D02*
X181770D01*
X188690Y175970D01*
X264060D01*
X272110Y184020D01*
X237500Y39100D02*
X242200Y43800D01*
X187800Y39100D02*
X237500D01*
X242200Y43800D02*
Y48700D01*
X155000Y141700D02*
X184000D01*
X201500Y165100D02*
X215000Y151600D01*
Y141800D02*
Y151600D01*
X182768Y151732D02*
X192020Y142480D01*
Y131800D02*
Y142480D01*
X208000Y136800D02*
X215000D01*
X161210Y170580D02*
X162740Y169050D01*
X161210Y170580D02*
Y173690D01*
X272110Y184020D02*
Y204840D01*
X264000Y206950D02*
X270000D01*
X272110Y204840D01*
X263730Y188180D02*
Y191600D01*
D101*
X231570Y221970D02*
X236600Y227000D01*
X231570Y209600D02*
Y221970D01*
D103*
X248950Y224144D02*
Y225056D01*
X249594Y225700D02*
X251600D01*
X257106Y216150D02*
X257957Y215300D01*
X253975Y216150D02*
X257106D01*
X246850Y223274D02*
X253975Y216150D01*
X248950Y225056D02*
X249594Y225700D01*
X246850Y223274D02*
Y225056D01*
X254844Y218250D02*
X257106D01*
X246206Y225700D02*
X246850Y225056D01*
X257957Y215300D02*
X258200D01*
X244200Y225700D02*
X246206D01*
X257106Y218250D02*
X257957Y219100D01*
X258200D01*
X248950Y224144D02*
X254844Y218250D01*
D108*
X132806Y256661D02*
D03*
Y226739D02*
D03*
D109*
X46200Y134963D02*
D03*
Y142837D02*
D03*
X24300Y134963D02*
D03*
Y142837D02*
D03*
D110*
X268000Y166800D02*
D03*
X248000D02*
D03*
X268000Y146800D02*
D03*
X248000D02*
D03*
D111*
X258000Y156800D02*
D03*
D112*
X62700Y111500D02*
D03*
Y101500D02*
D03*
Y91500D02*
D03*
D113*
X12387Y191300D02*
D03*
X18504Y203500D02*
D03*
X47244Y86614D02*
D03*
X39370D02*
D03*
X31496D02*
D03*
X47244Y94488D02*
D03*
X31496D02*
D03*
X39370D02*
D03*
X47244Y102362D02*
D03*
X39370D02*
D03*
X31496D02*
D03*
X270079Y262205D02*
D03*
Y246457D02*
D03*
Y214961D02*
D03*
Y136221D02*
D03*
Y120473D02*
D03*
Y104725D02*
D03*
Y88977D02*
D03*
Y41732D02*
D03*
Y25984D02*
D03*
X262205Y262205D02*
D03*
X266142Y254331D02*
D03*
Y238583D02*
D03*
Y222835D02*
D03*
X262205Y214961D02*
D03*
X266142Y159843D02*
D03*
X262205Y151969D02*
D03*
Y136221D02*
D03*
X266142Y128347D02*
D03*
X262205Y120473D02*
D03*
X266142Y112599D02*
D03*
X262205Y104725D02*
D03*
X266142Y96851D02*
D03*
X262205Y88977D02*
D03*
X266142Y65354D02*
D03*
Y49606D02*
D03*
X262205Y25984D02*
D03*
X266142Y18110D02*
D03*
X258268Y222835D02*
D03*
Y207087D02*
D03*
X254331Y151969D02*
D03*
X258268Y144095D02*
D03*
X254331Y136221D02*
D03*
X258268Y128347D02*
D03*
X254331Y120473D02*
D03*
X258268Y112599D02*
D03*
X254331Y104725D02*
D03*
X258268Y96851D02*
D03*
X254331Y88977D02*
D03*
X258268Y49606D02*
D03*
X254331Y25984D02*
D03*
X258268Y18110D02*
D03*
X250394Y270079D02*
D03*
X246457Y199213D02*
D03*
X250394Y159843D02*
D03*
X246457Y136221D02*
D03*
X250394Y128347D02*
D03*
X246457Y120473D02*
D03*
X250394Y112599D02*
D03*
X246457Y104725D02*
D03*
X250394Y96851D02*
D03*
X246457Y88977D02*
D03*
X250394Y49606D02*
D03*
Y33858D02*
D03*
X242520Y270079D02*
D03*
X238583Y246457D02*
D03*
X242520Y222835D02*
D03*
X238583Y167717D02*
D03*
X242520Y159843D02*
D03*
Y128347D02*
D03*
Y112599D02*
D03*
X238583Y104725D02*
D03*
X242520Y96851D02*
D03*
X238583Y88977D02*
D03*
X242520Y81103D02*
D03*
X230709Y262205D02*
D03*
X234646Y191339D02*
D03*
X230709Y167717D02*
D03*
Y104725D02*
D03*
Y88977D02*
D03*
X234646Y81103D02*
D03*
Y49606D02*
D03*
X222835Y262205D02*
D03*
Y167717D02*
D03*
X226772Y159843D02*
D03*
X222835Y151969D02*
D03*
X226772Y112599D02*
D03*
X218898Y270079D02*
D03*
X214961Y262205D02*
D03*
Y167717D02*
D03*
X218898Y159843D02*
D03*
Y128347D02*
D03*
Y18110D02*
D03*
X211024Y270079D02*
D03*
X207087Y262205D02*
D03*
X211024Y254331D02*
D03*
X207087Y246457D02*
D03*
Y230709D02*
D03*
X211024Y191339D02*
D03*
X207087Y167717D02*
D03*
X211024Y159843D02*
D03*
X207087Y151969D02*
D03*
X211024Y144095D02*
D03*
Y128347D02*
D03*
X207087Y120473D02*
D03*
Y104725D02*
D03*
X211024Y96851D02*
D03*
X207087Y88977D02*
D03*
Y73228D02*
D03*
X211024Y49606D02*
D03*
X207087Y25984D02*
D03*
X203150Y270079D02*
D03*
X199213Y262205D02*
D03*
X203150Y254331D02*
D03*
X199213Y246457D02*
D03*
X203150Y238583D02*
D03*
X199213Y230709D02*
D03*
X203150Y222835D02*
D03*
Y191339D02*
D03*
X199213Y167717D02*
D03*
X203150Y159843D02*
D03*
X199213Y151969D02*
D03*
X203150Y144095D02*
D03*
X199213Y136221D02*
D03*
X203150Y128347D02*
D03*
X199213Y120473D02*
D03*
X203150Y112599D02*
D03*
X199213Y88977D02*
D03*
X203150Y49606D02*
D03*
Y18110D02*
D03*
X191339Y262205D02*
D03*
X195276Y254331D02*
D03*
X191339Y246457D02*
D03*
X195276Y222835D02*
D03*
Y159843D02*
D03*
X191339Y151969D02*
D03*
X195276Y144095D02*
D03*
Y128347D02*
D03*
Y112599D02*
D03*
Y96851D02*
D03*
X191339Y88977D02*
D03*
X187402Y270079D02*
D03*
X183465Y262205D02*
D03*
X187402Y254331D02*
D03*
X183465Y246457D02*
D03*
Y214961D02*
D03*
Y199213D02*
D03*
X187402Y159843D02*
D03*
X183465Y136221D02*
D03*
X187402Y128347D02*
D03*
X183465Y120473D02*
D03*
X187402Y112599D02*
D03*
Y96851D02*
D03*
Y65354D02*
D03*
Y49606D02*
D03*
Y33858D02*
D03*
X183465Y25984D02*
D03*
X187402Y18110D02*
D03*
X179528Y270079D02*
D03*
X175591Y262205D02*
D03*
X179528Y254331D02*
D03*
X175591Y246457D02*
D03*
X179528Y207087D02*
D03*
X175591Y199213D02*
D03*
X179528Y175591D02*
D03*
Y18110D02*
D03*
X167717Y262205D02*
D03*
X171654Y254331D02*
D03*
X167717Y246457D02*
D03*
Y230709D02*
D03*
Y214961D02*
D03*
X171654Y175591D02*
D03*
X167717Y136221D02*
D03*
Y25984D02*
D03*
X159843Y262205D02*
D03*
X163780Y254331D02*
D03*
X159843Y246457D02*
D03*
X163780Y222835D02*
D03*
X159843Y214961D02*
D03*
X163780Y207087D02*
D03*
X159843Y167717D02*
D03*
X163780Y65354D02*
D03*
X159843Y57480D02*
D03*
X163780Y49606D02*
D03*
Y18110D02*
D03*
X155906Y270079D02*
D03*
X151969Y262205D02*
D03*
X155906Y254331D02*
D03*
X151969Y246457D02*
D03*
Y214961D02*
D03*
X155906Y207087D02*
D03*
X151969Y151969D02*
D03*
Y88977D02*
D03*
X155906Y65354D02*
D03*
Y49606D02*
D03*
Y33858D02*
D03*
Y18110D02*
D03*
X148032Y270079D02*
D03*
X144095Y262205D02*
D03*
X148032Y254331D02*
D03*
X144095Y246457D02*
D03*
X148032Y222835D02*
D03*
Y207087D02*
D03*
Y144095D02*
D03*
X144095Y136221D02*
D03*
Y120473D02*
D03*
Y104725D02*
D03*
X136221Y262205D02*
D03*
X140158Y254331D02*
D03*
X136221Y246457D02*
D03*
Y230709D02*
D03*
Y214961D02*
D03*
Y199213D02*
D03*
Y183465D02*
D03*
Y167717D02*
D03*
Y73228D02*
D03*
Y57480D02*
D03*
Y10236D02*
D03*
X132284Y270079D02*
D03*
X128347Y262205D02*
D03*
Y246457D02*
D03*
X132284Y238583D02*
D03*
X128347Y151969D02*
D03*
Y104725D02*
D03*
Y73228D02*
D03*
X132284Y65354D02*
D03*
Y33858D02*
D03*
X128347Y10236D02*
D03*
X124410Y270079D02*
D03*
X120473Y262205D02*
D03*
X124410Y254331D02*
D03*
X120473Y246457D02*
D03*
Y151969D02*
D03*
X124410Y144095D02*
D03*
Y81103D02*
D03*
X120473Y73228D02*
D03*
Y57480D02*
D03*
X124410Y33858D02*
D03*
X120473Y25984D02*
D03*
Y10236D02*
D03*
X116535Y270079D02*
D03*
X112599Y262205D02*
D03*
X116535Y254331D02*
D03*
X112599Y167717D02*
D03*
X116535Y144095D02*
D03*
Y112599D02*
D03*
X112599Y104725D02*
D03*
X116535Y81103D02*
D03*
X112599Y41732D02*
D03*
X116535Y33858D02*
D03*
X112599Y25984D02*
D03*
X116535Y18110D02*
D03*
X112599Y10236D02*
D03*
X104725Y262205D02*
D03*
Y167717D02*
D03*
X108661Y159843D02*
D03*
Y49606D02*
D03*
Y33858D02*
D03*
X104725Y25984D02*
D03*
Y10236D02*
D03*
X96851Y262205D02*
D03*
Y246457D02*
D03*
Y167717D02*
D03*
Y151969D02*
D03*
Y136221D02*
D03*
Y120473D02*
D03*
X100787Y81103D02*
D03*
X96851Y41732D02*
D03*
Y25984D02*
D03*
Y10236D02*
D03*
X92914Y270079D02*
D03*
X88977Y262205D02*
D03*
X92914Y254331D02*
D03*
X88977Y246457D02*
D03*
X92914Y207087D02*
D03*
Y191339D02*
D03*
X88977Y41732D02*
D03*
Y25984D02*
D03*
Y10236D02*
D03*
X85040Y270079D02*
D03*
X81103Y262205D02*
D03*
X85040Y254331D02*
D03*
X81103Y246457D02*
D03*
X85040Y238583D02*
D03*
X81103Y230709D02*
D03*
Y136221D02*
D03*
Y104725D02*
D03*
Y88977D02*
D03*
X85040Y18110D02*
D03*
X81103Y10236D02*
D03*
X77165Y270079D02*
D03*
X73228Y262205D02*
D03*
X77165Y254331D02*
D03*
X73228Y246457D02*
D03*
X77165Y238583D02*
D03*
X73228Y230709D02*
D03*
X77165Y222835D02*
D03*
Y207087D02*
D03*
Y191339D02*
D03*
X73228Y183465D02*
D03*
Y104725D02*
D03*
X77165Y96851D02*
D03*
X73228Y88977D02*
D03*
Y73228D02*
D03*
X77165Y33858D02*
D03*
X73228Y10236D02*
D03*
X69291Y270079D02*
D03*
X65354Y262205D02*
D03*
X69291Y254331D02*
D03*
X65354Y246457D02*
D03*
X69291Y238583D02*
D03*
X65354Y230709D02*
D03*
X69291Y222835D02*
D03*
X65354Y214961D02*
D03*
X69291Y207087D02*
D03*
X65354Y183465D02*
D03*
X69291Y128347D02*
D03*
X65354Y120473D02*
D03*
X69291Y96851D02*
D03*
X65354Y73228D02*
D03*
X69291Y49606D02*
D03*
X65354Y25984D02*
D03*
X69291Y18110D02*
D03*
X65354Y10236D02*
D03*
X61417Y270079D02*
D03*
X57480Y262205D02*
D03*
X61417Y254331D02*
D03*
X57480Y246457D02*
D03*
X61417Y238583D02*
D03*
X57480Y230709D02*
D03*
X61417Y222835D02*
D03*
X57480Y214961D02*
D03*
X61417Y207087D02*
D03*
X57480Y183465D02*
D03*
Y136221D02*
D03*
Y120473D02*
D03*
Y88977D02*
D03*
X61417Y81103D02*
D03*
Y65354D02*
D03*
X57480Y57480D02*
D03*
X61417Y33858D02*
D03*
X57480Y25984D02*
D03*
Y10236D02*
D03*
X49606Y262205D02*
D03*
X53543Y254331D02*
D03*
X49606Y246457D02*
D03*
X53543Y238583D02*
D03*
X49606Y230709D02*
D03*
X53543Y222835D02*
D03*
Y207087D02*
D03*
X49606Y151969D02*
D03*
X53543Y128347D02*
D03*
X49606Y120473D02*
D03*
X53543Y112599D02*
D03*
Y65354D02*
D03*
X49606Y57480D02*
D03*
X53543Y33858D02*
D03*
X49606Y25984D02*
D03*
X53543Y18110D02*
D03*
X49606Y10236D02*
D03*
X41732Y262205D02*
D03*
X45669Y254331D02*
D03*
X41732Y246457D02*
D03*
X45669Y238583D02*
D03*
X41732Y230709D02*
D03*
X45669Y222835D02*
D03*
X41732Y214961D02*
D03*
X45669Y207087D02*
D03*
X41732Y151969D02*
D03*
X45669Y128347D02*
D03*
X41732Y120473D02*
D03*
X45669Y112599D02*
D03*
Y81103D02*
D03*
X41732Y10236D02*
D03*
X37795Y270079D02*
D03*
X33858Y262205D02*
D03*
X37795Y254331D02*
D03*
X33858Y246457D02*
D03*
X37795Y238583D02*
D03*
X33858Y230709D02*
D03*
X37795Y222835D02*
D03*
X33858Y214961D02*
D03*
Y167717D02*
D03*
X37795Y159843D02*
D03*
X33858Y151969D02*
D03*
Y136221D02*
D03*
X37795Y128347D02*
D03*
X33858Y120473D02*
D03*
X37795Y112599D02*
D03*
Y81103D02*
D03*
X33858Y10236D02*
D03*
X29921Y270079D02*
D03*
X25984Y262205D02*
D03*
X29921Y254331D02*
D03*
X25984Y246457D02*
D03*
X29921Y238583D02*
D03*
X25984Y230709D02*
D03*
X29921Y222835D02*
D03*
X25984Y214961D02*
D03*
Y167717D02*
D03*
X29921Y128347D02*
D03*
X25984Y120473D02*
D03*
X29921Y112599D02*
D03*
Y65354D02*
D03*
X25984Y57480D02*
D03*
Y25984D02*
D03*
X29921Y18110D02*
D03*
X25984Y10236D02*
D03*
X22047Y270079D02*
D03*
X18110Y262205D02*
D03*
X22047Y254331D02*
D03*
X18110Y246457D02*
D03*
X22047Y238583D02*
D03*
X18110Y230709D02*
D03*
X22047Y222835D02*
D03*
X18110Y214961D02*
D03*
X22047Y191339D02*
D03*
X18110Y183465D02*
D03*
X22047Y175591D02*
D03*
X18110Y136221D02*
D03*
X22047Y128347D02*
D03*
Y112599D02*
D03*
Y96851D02*
D03*
Y65354D02*
D03*
X18110Y57480D02*
D03*
Y25984D02*
D03*
X22047Y18110D02*
D03*
X18110Y10236D02*
D03*
X14173Y270079D02*
D03*
X10236Y262205D02*
D03*
X14173Y254331D02*
D03*
X10236Y246457D02*
D03*
X14173Y238583D02*
D03*
X10236Y230709D02*
D03*
X14173Y222835D02*
D03*
X10236Y214961D02*
D03*
Y199213D02*
D03*
Y183465D02*
D03*
X14173Y96851D02*
D03*
X10236Y57480D02*
D03*
X14173Y49606D02*
D03*
X10236Y41732D02*
D03*
X14173Y33858D02*
D03*
X10236Y25984D02*
D03*
X14173Y18110D02*
D03*
X10236Y10236D02*
D03*
X220472Y70866D02*
D03*
X201772Y66929D02*
D03*
X188976Y43307D02*
D03*
X173228Y31496D02*
D03*
Y19685D02*
D03*
X247889Y246213D02*
D03*
X14252Y153495D02*
D03*
Y161369D02*
D03*
Y145621D02*
D03*
X7874Y161417D02*
D03*
Y153543D02*
D03*
Y145669D02*
D03*
X60037Y159400D02*
D03*
X48226Y165305D02*
D03*
X56100D02*
D03*
X52163D02*
D03*
X63974Y153495D02*
D03*
X56100Y159400D02*
D03*
Y153495D02*
D03*
X60037D02*
D03*
X52163Y159400D02*
D03*
X139500Y157000D02*
D03*
X244094Y27559D02*
D03*
X238189D02*
D03*
X232283D02*
D03*
X226378D02*
D03*
X108705Y177165D02*
D03*
X108268Y192913D02*
D03*
Y185039D02*
D03*
X102362Y192913D02*
D03*
Y185039D02*
D03*
X88500Y191400D02*
D03*
X98000Y112000D02*
D03*
X102799Y177165D02*
D03*
X98000Y102000D02*
D03*
X141500Y181500D02*
D03*
X172000Y209900D02*
D03*
X236600Y227000D02*
D03*
X70055Y59055D02*
D03*
X69100Y64500D02*
D03*
X271100Y74785D02*
D03*
X255906Y78740D02*
D03*
X259842Y55118D02*
D03*
X240158Y74803D02*
D03*
X140748Y66929D02*
D03*
X192913Y7874D02*
D03*
X236221Y74803D02*
D03*
X224410Y34449D02*
D03*
X201772Y74803D02*
D03*
X157480Y7874D02*
D03*
X228346Y59055D02*
D03*
X173228Y70866D02*
D03*
X259842Y78740D02*
D03*
X240158Y59055D02*
D03*
X271100Y55100D02*
D03*
X145669Y74803D02*
D03*
X140748Y51181D02*
D03*
X233550Y41950D02*
D03*
X153543Y7874D02*
D03*
X157480Y43307D02*
D03*
X201772Y23622D02*
D03*
X220472Y34449D02*
D03*
X224410Y72835D02*
D03*
X173228Y7874D02*
D03*
X185039Y74803D02*
D03*
X173228Y55118D02*
D03*
X271100Y70848D02*
D03*
X255906Y59055D02*
D03*
X244094Y74803D02*
D03*
X140748Y23622D02*
D03*
Y70866D02*
D03*
X188976Y7874D02*
D03*
X237400Y42800D02*
D03*
X228346Y72835D02*
D03*
X169291Y7874D02*
D03*
X161417Y74803D02*
D03*
X220472Y59055D02*
D03*
X173228Y47244D02*
D03*
Y66929D02*
D03*
X263779Y78740D02*
D03*
X267717Y55118D02*
D03*
X248031Y74803D02*
D03*
X149606D02*
D03*
X140748Y55118D02*
D03*
X185039Y7874D02*
D03*
X149606D02*
D03*
X161417Y43307D02*
D03*
X216535Y35433D02*
D03*
X188976Y74803D02*
D03*
X236221Y59055D02*
D03*
X216535D02*
D03*
X173228Y62992D02*
D03*
X271100Y66911D02*
D03*
X251969Y59055D02*
D03*
X145669Y43307D02*
D03*
X140748Y27559D02*
D03*
X201772Y7874D02*
D03*
X165354Y43307D02*
D03*
X201772Y31496D02*
D03*
X232283Y35433D02*
D03*
Y72835D02*
D03*
X173228Y11811D02*
D03*
X165354Y7874D02*
D03*
Y74803D02*
D03*
X232283Y59055D02*
D03*
X267717Y78740D02*
D03*
X263700Y59450D02*
D03*
X251969Y74803D02*
D03*
X248031Y59055D02*
D03*
X149606Y43307D02*
D03*
X153543Y74803D02*
D03*
X140748Y59055D02*
D03*
X181102Y7874D02*
D03*
X232331Y52814D02*
D03*
X145669Y7874D02*
D03*
X201772Y35433D02*
D03*
X212598D02*
D03*
X192913Y74803D02*
D03*
X204724Y66929D02*
D03*
X173228Y59055D02*
D03*
X271100Y62974D02*
D03*
X255906Y55118D02*
D03*
X251969Y78740D02*
D03*
X140748Y62992D02*
D03*
Y43307D02*
D03*
X196850Y7874D02*
D03*
X228346Y35433D02*
D03*
X196850Y74803D02*
D03*
X161417Y7874D02*
D03*
X185039Y43307D02*
D03*
X157480Y74803D02*
D03*
X173228Y43307D02*
D03*
X224410Y59055D02*
D03*
X173228Y74803D02*
D03*
X271100Y78722D02*
D03*
Y59037D02*
D03*
X244094Y59055D02*
D03*
X153543Y43307D02*
D03*
X140748Y74803D02*
D03*
Y47244D02*
D03*
Y7874D02*
D03*
X201772Y27559D02*
D03*
X208661Y66929D02*
D03*
X177165Y7874D02*
D03*
X173228Y51181D02*
D03*
X177165Y74803D02*
D03*
X153100Y146900D02*
D03*
X145200Y131900D02*
D03*
X153100Y112200D02*
D03*
X164448Y151732D02*
D03*
X188300Y181400D02*
D03*
X224200Y103900D02*
D03*
X216600D02*
D03*
X216200Y89900D02*
D03*
X223800D02*
D03*
X105800Y78000D02*
D03*
X111300Y78100D02*
D03*
X153100Y96732D02*
D03*
X184000Y141700D02*
D03*
X192020Y131800D02*
D03*
X270600Y229683D02*
D03*
X120900Y16300D02*
D03*
X158098Y20698D02*
D03*
X242200Y48700D02*
D03*
X244200Y225700D02*
D03*
X251600D02*
D03*
X258200Y215300D02*
D03*
Y219100D02*
D03*
X95200Y146700D02*
D03*
X215000Y141800D02*
D03*
Y136800D02*
D03*
X215090Y215430D02*
D03*
X209220Y215370D02*
D03*
X201900Y215430D02*
D03*
X194340Y215370D02*
D03*
X161210Y173690D02*
D03*
X264000Y206950D02*
D03*
X263730Y191600D02*
D03*
X231570Y209600D02*
D03*
D114*
X232283Y269094D02*
D03*
X260630D02*
D03*
D115*
X236910Y257677D02*
D03*
X256004D02*
D03*
M02*
