G04*
G04 #@! TF.GenerationSoftware,Altium Limited,Altium Designer,21.9.2 (33)*
G04*
G04 Layer_Physical_Order=3*
G04 Layer_Color=128*
%FSLAX25Y25*%
%MOIN*%
G70*
G04*
G04 #@! TF.SameCoordinates,2BD51A12-542F-4E7F-AF7E-1702C203C590*
G04*
G04*
G04 #@! TF.FilePolarity,Negative*
G04*
G01*
G75*
%ADD116C,0.04000*%
%ADD118C,0.07937*%
%ADD120C,0.07150*%
%ADD122C,0.09906*%
G04:AMPARAMS|DCode=123|XSize=71.811mil|YSize=71.811mil|CornerRadius=0mil|HoleSize=0mil|Usage=FLASHONLY|Rotation=0.000|XOffset=0mil|YOffset=0mil|HoleType=Round|Shape=Relief|Width=10mil|Gap=10mil|Entries=4|*
%AMTHD123*
7,0,0,0.07181,0.05181,0.01000,45*
%
%ADD123THD123*%
%ADD124C,0.05181*%
%ADD125C,0.09315*%
%ADD126C,0.07347*%
%ADD127C,0.03937*%
%ADD128C,0.03937*%
%ADD129C,0.10693*%
D116*
X-15748Y59055D02*
X0D01*
Y0D02*
Y59055D01*
Y0D02*
X59055D01*
Y-15748D02*
Y0D01*
Y-15748D02*
X118110D01*
Y0D01*
X157480D01*
Y-15748D02*
Y0D01*
Y-15748D02*
X216535D01*
Y0D01*
X275590D01*
Y59055D01*
X291339D01*
Y118110D01*
X275590D02*
X291339D01*
X275590D02*
Y157480D01*
X291339D01*
Y216535D01*
X275590D02*
X291339D01*
X275590D02*
Y275590D01*
X216535D02*
X275590D01*
X216535D02*
Y291339D01*
X157480D02*
X216535D01*
X157480Y275590D02*
Y291339D01*
X118110Y275590D02*
X157480D01*
X118110D02*
Y291339D01*
X59055D02*
X118110D01*
X59055Y275590D02*
Y291339D01*
X0Y275590D02*
X59055D01*
X0Y216535D02*
Y275590D01*
X-15748Y216535D02*
X0D01*
X-15748Y157480D02*
Y216535D01*
Y157480D02*
X0D01*
Y118110D02*
Y157480D01*
X-15748Y118110D02*
X0D01*
X-15748Y59055D02*
Y118110D01*
D118*
X132806Y256661D02*
D03*
Y226739D02*
D03*
D120*
X46200Y134963D02*
D03*
Y142837D02*
D03*
X24300Y134963D02*
D03*
Y142837D02*
D03*
X62700Y111500D02*
D03*
Y101500D02*
D03*
Y91500D02*
D03*
D122*
X258000Y156800D02*
D03*
D123*
X14252Y153495D02*
D03*
Y161369D02*
D03*
Y145621D02*
D03*
X7874Y161417D02*
D03*
Y153543D02*
D03*
Y145669D02*
D03*
X60037Y159400D02*
D03*
X48226Y165305D02*
D03*
X56100D02*
D03*
X52163D02*
D03*
X63974Y153495D02*
D03*
X56100Y159400D02*
D03*
Y153495D02*
D03*
X60037D02*
D03*
X52163Y159400D02*
D03*
X244094Y27559D02*
D03*
X238189D02*
D03*
X232283D02*
D03*
X226378D02*
D03*
X108705Y177165D02*
D03*
X108268Y192913D02*
D03*
Y185039D02*
D03*
X102362Y192913D02*
D03*
Y185039D02*
D03*
X102799Y177165D02*
D03*
X224200Y103900D02*
D03*
X216600D02*
D03*
X216200Y89900D02*
D03*
X223800D02*
D03*
X105800Y78000D02*
D03*
X111300Y78100D02*
D03*
X270600Y229683D02*
D03*
X120900Y16300D02*
D03*
X215090Y215430D02*
D03*
X209220Y215370D02*
D03*
X201900Y215430D02*
D03*
X194340Y215370D02*
D03*
D124*
X12387Y191300D02*
D03*
X18504Y203500D02*
D03*
X47244Y86614D02*
D03*
X39370D02*
D03*
X31496D02*
D03*
X47244Y94488D02*
D03*
X31496D02*
D03*
X39370D02*
D03*
X47244Y102362D02*
D03*
X39370D02*
D03*
X31496D02*
D03*
X270079Y262205D02*
D03*
Y246457D02*
D03*
Y214961D02*
D03*
Y136221D02*
D03*
Y120473D02*
D03*
Y104725D02*
D03*
Y88977D02*
D03*
Y41732D02*
D03*
Y25984D02*
D03*
X262205Y262205D02*
D03*
X266142Y254331D02*
D03*
Y238583D02*
D03*
Y222835D02*
D03*
X262205Y214961D02*
D03*
X266142Y159843D02*
D03*
X262205Y151969D02*
D03*
Y136221D02*
D03*
X266142Y128347D02*
D03*
X262205Y120473D02*
D03*
X266142Y112599D02*
D03*
X262205Y104725D02*
D03*
X266142Y96851D02*
D03*
X262205Y88977D02*
D03*
X266142Y65354D02*
D03*
Y49606D02*
D03*
X262205Y25984D02*
D03*
X266142Y18110D02*
D03*
X258268Y222835D02*
D03*
Y207087D02*
D03*
X254331Y151969D02*
D03*
X258268Y144095D02*
D03*
X254331Y136221D02*
D03*
X258268Y128347D02*
D03*
X254331Y120473D02*
D03*
X258268Y112599D02*
D03*
X254331Y104725D02*
D03*
X258268Y96851D02*
D03*
X254331Y88977D02*
D03*
X258268Y49606D02*
D03*
X254331Y25984D02*
D03*
X258268Y18110D02*
D03*
X250394Y270079D02*
D03*
X246457Y199213D02*
D03*
X250394Y159843D02*
D03*
X246457Y136221D02*
D03*
X250394Y128347D02*
D03*
X246457Y120473D02*
D03*
X250394Y112599D02*
D03*
X246457Y104725D02*
D03*
X250394Y96851D02*
D03*
X246457Y88977D02*
D03*
X250394Y49606D02*
D03*
Y33858D02*
D03*
X242520Y270079D02*
D03*
X238583Y246457D02*
D03*
X242520Y222835D02*
D03*
X238583Y167717D02*
D03*
X242520Y159843D02*
D03*
Y128347D02*
D03*
Y112599D02*
D03*
X238583Y104725D02*
D03*
X242520Y96851D02*
D03*
X238583Y88977D02*
D03*
X242520Y81103D02*
D03*
X230709Y262205D02*
D03*
X234646Y191339D02*
D03*
X230709Y167717D02*
D03*
Y104725D02*
D03*
Y88977D02*
D03*
X234646Y81103D02*
D03*
Y49606D02*
D03*
X222835Y262205D02*
D03*
Y167717D02*
D03*
X226772Y159843D02*
D03*
X222835Y151969D02*
D03*
X226772Y112599D02*
D03*
X218898Y270079D02*
D03*
X214961Y262205D02*
D03*
Y167717D02*
D03*
X218898Y159843D02*
D03*
Y128347D02*
D03*
Y18110D02*
D03*
X211024Y270079D02*
D03*
X207087Y262205D02*
D03*
X211024Y254331D02*
D03*
X207087Y246457D02*
D03*
Y230709D02*
D03*
X211024Y191339D02*
D03*
X207087Y167717D02*
D03*
X211024Y159843D02*
D03*
X207087Y151969D02*
D03*
X211024Y144095D02*
D03*
Y128347D02*
D03*
X207087Y120473D02*
D03*
Y104725D02*
D03*
X211024Y96851D02*
D03*
X207087Y88977D02*
D03*
Y73228D02*
D03*
X211024Y49606D02*
D03*
X207087Y25984D02*
D03*
X203150Y270079D02*
D03*
X199213Y262205D02*
D03*
X203150Y254331D02*
D03*
X199213Y246457D02*
D03*
X203150Y238583D02*
D03*
X199213Y230709D02*
D03*
X203150Y222835D02*
D03*
Y191339D02*
D03*
X199213Y167717D02*
D03*
X203150Y159843D02*
D03*
X199213Y151969D02*
D03*
X203150Y144095D02*
D03*
X199213Y136221D02*
D03*
X203150Y128347D02*
D03*
X199213Y120473D02*
D03*
X203150Y112599D02*
D03*
X199213Y88977D02*
D03*
X203150Y49606D02*
D03*
Y18110D02*
D03*
X191339Y262205D02*
D03*
X195276Y254331D02*
D03*
X191339Y246457D02*
D03*
X195276Y222835D02*
D03*
Y159843D02*
D03*
X191339Y151969D02*
D03*
X195276Y144095D02*
D03*
Y128347D02*
D03*
Y112599D02*
D03*
Y96851D02*
D03*
X191339Y88977D02*
D03*
X187402Y270079D02*
D03*
X183465Y262205D02*
D03*
X187402Y254331D02*
D03*
X183465Y246457D02*
D03*
Y214961D02*
D03*
Y199213D02*
D03*
X187402Y159843D02*
D03*
X183465Y136221D02*
D03*
X187402Y128347D02*
D03*
X183465Y120473D02*
D03*
X187402Y112599D02*
D03*
Y96851D02*
D03*
Y65354D02*
D03*
Y49606D02*
D03*
Y33858D02*
D03*
X183465Y25984D02*
D03*
X187402Y18110D02*
D03*
X179528Y270079D02*
D03*
X175591Y262205D02*
D03*
X179528Y254331D02*
D03*
X175591Y246457D02*
D03*
X179528Y207087D02*
D03*
X175591Y199213D02*
D03*
X179528Y175591D02*
D03*
Y18110D02*
D03*
X167717Y262205D02*
D03*
X171654Y254331D02*
D03*
X167717Y246457D02*
D03*
Y230709D02*
D03*
Y214961D02*
D03*
X171654Y175591D02*
D03*
X167717Y136221D02*
D03*
Y25984D02*
D03*
X159843Y262205D02*
D03*
X163780Y254331D02*
D03*
X159843Y246457D02*
D03*
X163780Y222835D02*
D03*
X159843Y214961D02*
D03*
X163780Y207087D02*
D03*
X159843Y167717D02*
D03*
X163780Y65354D02*
D03*
X159843Y57480D02*
D03*
X163780Y49606D02*
D03*
Y18110D02*
D03*
X155906Y270079D02*
D03*
X151969Y262205D02*
D03*
X155906Y254331D02*
D03*
X151969Y246457D02*
D03*
Y214961D02*
D03*
X155906Y207087D02*
D03*
X151969Y151969D02*
D03*
Y88977D02*
D03*
X155906Y65354D02*
D03*
Y49606D02*
D03*
Y33858D02*
D03*
Y18110D02*
D03*
X148032Y270079D02*
D03*
X144095Y262205D02*
D03*
X148032Y254331D02*
D03*
X144095Y246457D02*
D03*
X148032Y222835D02*
D03*
Y207087D02*
D03*
Y144095D02*
D03*
X144095Y136221D02*
D03*
Y120473D02*
D03*
Y104725D02*
D03*
X136221Y262205D02*
D03*
X140158Y254331D02*
D03*
X136221Y246457D02*
D03*
Y230709D02*
D03*
Y214961D02*
D03*
Y199213D02*
D03*
Y183465D02*
D03*
Y167717D02*
D03*
Y73228D02*
D03*
Y57480D02*
D03*
Y10236D02*
D03*
X132284Y270079D02*
D03*
X128347Y262205D02*
D03*
Y246457D02*
D03*
X132284Y238583D02*
D03*
X128347Y151969D02*
D03*
Y104725D02*
D03*
Y73228D02*
D03*
X132284Y65354D02*
D03*
Y33858D02*
D03*
X128347Y10236D02*
D03*
X124410Y270079D02*
D03*
X120473Y262205D02*
D03*
X124410Y254331D02*
D03*
X120473Y246457D02*
D03*
Y151969D02*
D03*
X124410Y144095D02*
D03*
Y81103D02*
D03*
X120473Y73228D02*
D03*
Y57480D02*
D03*
X124410Y33858D02*
D03*
X120473Y25984D02*
D03*
Y10236D02*
D03*
X116535Y270079D02*
D03*
X112599Y262205D02*
D03*
X116535Y254331D02*
D03*
X112599Y167717D02*
D03*
X116535Y144095D02*
D03*
Y112599D02*
D03*
X112599Y104725D02*
D03*
X116535Y81103D02*
D03*
X112599Y41732D02*
D03*
X116535Y33858D02*
D03*
X112599Y25984D02*
D03*
X116535Y18110D02*
D03*
X112599Y10236D02*
D03*
X104725Y262205D02*
D03*
Y167717D02*
D03*
X108661Y159843D02*
D03*
Y49606D02*
D03*
Y33858D02*
D03*
X104725Y25984D02*
D03*
Y10236D02*
D03*
X96851Y262205D02*
D03*
Y246457D02*
D03*
Y167717D02*
D03*
Y151969D02*
D03*
Y136221D02*
D03*
Y120473D02*
D03*
X100787Y81103D02*
D03*
X96851Y41732D02*
D03*
Y25984D02*
D03*
Y10236D02*
D03*
X92914Y270079D02*
D03*
X88977Y262205D02*
D03*
X92914Y254331D02*
D03*
X88977Y246457D02*
D03*
X92914Y207087D02*
D03*
Y191339D02*
D03*
X88977Y41732D02*
D03*
Y25984D02*
D03*
Y10236D02*
D03*
X85040Y270079D02*
D03*
X81103Y262205D02*
D03*
X85040Y254331D02*
D03*
X81103Y246457D02*
D03*
X85040Y238583D02*
D03*
X81103Y230709D02*
D03*
Y136221D02*
D03*
Y104725D02*
D03*
Y88977D02*
D03*
X85040Y18110D02*
D03*
X81103Y10236D02*
D03*
X77165Y270079D02*
D03*
X73228Y262205D02*
D03*
X77165Y254331D02*
D03*
X73228Y246457D02*
D03*
X77165Y238583D02*
D03*
X73228Y230709D02*
D03*
X77165Y222835D02*
D03*
Y207087D02*
D03*
Y191339D02*
D03*
X73228Y183465D02*
D03*
Y104725D02*
D03*
X77165Y96851D02*
D03*
X73228Y88977D02*
D03*
Y73228D02*
D03*
X77165Y33858D02*
D03*
X73228Y10236D02*
D03*
X69291Y270079D02*
D03*
X65354Y262205D02*
D03*
X69291Y254331D02*
D03*
X65354Y246457D02*
D03*
X69291Y238583D02*
D03*
X65354Y230709D02*
D03*
X69291Y222835D02*
D03*
X65354Y214961D02*
D03*
X69291Y207087D02*
D03*
X65354Y183465D02*
D03*
X69291Y128347D02*
D03*
X65354Y120473D02*
D03*
X69291Y96851D02*
D03*
X65354Y73228D02*
D03*
X69291Y49606D02*
D03*
X65354Y25984D02*
D03*
X69291Y18110D02*
D03*
X65354Y10236D02*
D03*
X61417Y270079D02*
D03*
X57480Y262205D02*
D03*
X61417Y254331D02*
D03*
X57480Y246457D02*
D03*
X61417Y238583D02*
D03*
X57480Y230709D02*
D03*
X61417Y222835D02*
D03*
X57480Y214961D02*
D03*
X61417Y207087D02*
D03*
X57480Y183465D02*
D03*
Y136221D02*
D03*
Y120473D02*
D03*
Y88977D02*
D03*
X61417Y81103D02*
D03*
Y65354D02*
D03*
X57480Y57480D02*
D03*
X61417Y33858D02*
D03*
X57480Y25984D02*
D03*
Y10236D02*
D03*
X49606Y262205D02*
D03*
X53543Y254331D02*
D03*
X49606Y246457D02*
D03*
X53543Y238583D02*
D03*
X49606Y230709D02*
D03*
X53543Y222835D02*
D03*
Y207087D02*
D03*
X49606Y151969D02*
D03*
X53543Y128347D02*
D03*
X49606Y120473D02*
D03*
X53543Y112599D02*
D03*
Y65354D02*
D03*
X49606Y57480D02*
D03*
X53543Y33858D02*
D03*
X49606Y25984D02*
D03*
X53543Y18110D02*
D03*
X49606Y10236D02*
D03*
X41732Y262205D02*
D03*
X45669Y254331D02*
D03*
X41732Y246457D02*
D03*
X45669Y238583D02*
D03*
X41732Y230709D02*
D03*
X45669Y222835D02*
D03*
X41732Y214961D02*
D03*
X45669Y207087D02*
D03*
X41732Y151969D02*
D03*
X45669Y128347D02*
D03*
X41732Y120473D02*
D03*
X45669Y112599D02*
D03*
Y81103D02*
D03*
X41732Y10236D02*
D03*
X37795Y270079D02*
D03*
X33858Y262205D02*
D03*
X37795Y254331D02*
D03*
X33858Y246457D02*
D03*
X37795Y238583D02*
D03*
X33858Y230709D02*
D03*
X37795Y222835D02*
D03*
X33858Y214961D02*
D03*
Y167717D02*
D03*
X37795Y159843D02*
D03*
X33858Y151969D02*
D03*
Y136221D02*
D03*
X37795Y128347D02*
D03*
X33858Y120473D02*
D03*
X37795Y112599D02*
D03*
Y81103D02*
D03*
X33858Y10236D02*
D03*
X29921Y270079D02*
D03*
X25984Y262205D02*
D03*
X29921Y254331D02*
D03*
X25984Y246457D02*
D03*
X29921Y238583D02*
D03*
X25984Y230709D02*
D03*
X29921Y222835D02*
D03*
X25984Y214961D02*
D03*
Y167717D02*
D03*
X29921Y128347D02*
D03*
X25984Y120473D02*
D03*
X29921Y112599D02*
D03*
Y65354D02*
D03*
X25984Y57480D02*
D03*
Y25984D02*
D03*
X29921Y18110D02*
D03*
X25984Y10236D02*
D03*
X22047Y270079D02*
D03*
X18110Y262205D02*
D03*
X22047Y254331D02*
D03*
X18110Y246457D02*
D03*
X22047Y238583D02*
D03*
X18110Y230709D02*
D03*
X22047Y222835D02*
D03*
X18110Y214961D02*
D03*
X22047Y191339D02*
D03*
X18110Y183465D02*
D03*
X22047Y175591D02*
D03*
X18110Y136221D02*
D03*
X22047Y128347D02*
D03*
Y112599D02*
D03*
Y96851D02*
D03*
Y65354D02*
D03*
X18110Y57480D02*
D03*
Y25984D02*
D03*
X22047Y18110D02*
D03*
X18110Y10236D02*
D03*
X14173Y270079D02*
D03*
X10236Y262205D02*
D03*
X14173Y254331D02*
D03*
X10236Y246457D02*
D03*
X14173Y238583D02*
D03*
X10236Y230709D02*
D03*
X14173Y222835D02*
D03*
X10236Y214961D02*
D03*
Y199213D02*
D03*
Y183465D02*
D03*
X14173Y96851D02*
D03*
X10236Y57480D02*
D03*
X14173Y49606D02*
D03*
X10236Y41732D02*
D03*
X14173Y33858D02*
D03*
X10236Y25984D02*
D03*
X14173Y18110D02*
D03*
X10236Y10236D02*
D03*
X220472Y70866D02*
D03*
X201772Y66929D02*
D03*
X188976Y43307D02*
D03*
X173228Y31496D02*
D03*
Y19685D02*
D03*
X247889Y246213D02*
D03*
X139500Y157000D02*
D03*
X88500Y191400D02*
D03*
X98000Y112000D02*
D03*
Y102000D02*
D03*
X141500Y181500D02*
D03*
X172000Y209900D02*
D03*
X236600Y227000D02*
D03*
X70055Y59055D02*
D03*
X69100Y64500D02*
D03*
X271100Y74785D02*
D03*
X255906Y78740D02*
D03*
X259842Y55118D02*
D03*
X240158Y74803D02*
D03*
X140748Y66929D02*
D03*
X192913Y7874D02*
D03*
X236221Y74803D02*
D03*
X224410Y34449D02*
D03*
X201772Y74803D02*
D03*
X157480Y7874D02*
D03*
X228346Y59055D02*
D03*
X173228Y70866D02*
D03*
X259842Y78740D02*
D03*
X240158Y59055D02*
D03*
X271100Y55100D02*
D03*
X145669Y74803D02*
D03*
X140748Y51181D02*
D03*
X233550Y41950D02*
D03*
X153543Y7874D02*
D03*
X157480Y43307D02*
D03*
X201772Y23622D02*
D03*
X220472Y34449D02*
D03*
X224410Y72835D02*
D03*
X173228Y7874D02*
D03*
X185039Y74803D02*
D03*
X173228Y55118D02*
D03*
X271100Y70848D02*
D03*
X255906Y59055D02*
D03*
X244094Y74803D02*
D03*
X140748Y23622D02*
D03*
Y70866D02*
D03*
X188976Y7874D02*
D03*
X237400Y42800D02*
D03*
X228346Y72835D02*
D03*
X169291Y7874D02*
D03*
X161417Y74803D02*
D03*
X220472Y59055D02*
D03*
X173228Y47244D02*
D03*
Y66929D02*
D03*
X263779Y78740D02*
D03*
X267717Y55118D02*
D03*
X248031Y74803D02*
D03*
X149606D02*
D03*
X140748Y55118D02*
D03*
X185039Y7874D02*
D03*
X149606D02*
D03*
X161417Y43307D02*
D03*
X216535Y35433D02*
D03*
X188976Y74803D02*
D03*
X236221Y59055D02*
D03*
X216535D02*
D03*
X173228Y62992D02*
D03*
X271100Y66911D02*
D03*
X251969Y59055D02*
D03*
X145669Y43307D02*
D03*
X140748Y27559D02*
D03*
X201772Y7874D02*
D03*
X165354Y43307D02*
D03*
X201772Y31496D02*
D03*
X232283Y35433D02*
D03*
Y72835D02*
D03*
X173228Y11811D02*
D03*
X165354Y7874D02*
D03*
Y74803D02*
D03*
X232283Y59055D02*
D03*
X267717Y78740D02*
D03*
X263700Y59450D02*
D03*
X251969Y74803D02*
D03*
X248031Y59055D02*
D03*
X149606Y43307D02*
D03*
X153543Y74803D02*
D03*
X140748Y59055D02*
D03*
X181102Y7874D02*
D03*
X232331Y52814D02*
D03*
X145669Y7874D02*
D03*
X201772Y35433D02*
D03*
X212598D02*
D03*
X192913Y74803D02*
D03*
X204724Y66929D02*
D03*
X173228Y59055D02*
D03*
X271100Y62974D02*
D03*
X255906Y55118D02*
D03*
X251969Y78740D02*
D03*
X140748Y62992D02*
D03*
Y43307D02*
D03*
X196850Y7874D02*
D03*
X228346Y35433D02*
D03*
X196850Y74803D02*
D03*
X161417Y7874D02*
D03*
X185039Y43307D02*
D03*
X157480Y74803D02*
D03*
X173228Y43307D02*
D03*
X224410Y59055D02*
D03*
X173228Y74803D02*
D03*
X271100Y78722D02*
D03*
Y59037D02*
D03*
X244094Y59055D02*
D03*
X153543Y43307D02*
D03*
X140748Y74803D02*
D03*
Y47244D02*
D03*
Y7874D02*
D03*
X201772Y27559D02*
D03*
X208661Y66929D02*
D03*
X177165Y7874D02*
D03*
X173228Y51181D02*
D03*
X177165Y74803D02*
D03*
X153100Y146900D02*
D03*
X145200Y131900D02*
D03*
X153100Y112200D02*
D03*
X164448Y151732D02*
D03*
X188300Y181400D02*
D03*
X153100Y96732D02*
D03*
X184000Y141700D02*
D03*
X192020Y131800D02*
D03*
X158098Y20698D02*
D03*
X242200Y48700D02*
D03*
X244200Y225700D02*
D03*
X251600D02*
D03*
X258200Y215300D02*
D03*
Y219100D02*
D03*
X95200Y146700D02*
D03*
X215000Y141800D02*
D03*
Y136800D02*
D03*
X161210Y173690D02*
D03*
X264000Y206950D02*
D03*
X263730Y191600D02*
D03*
X231570Y209600D02*
D03*
D125*
X232283Y269094D02*
D03*
X260630D02*
D03*
D126*
X236910Y257677D02*
D03*
X256004D02*
D03*
D127*
X2700Y203600D02*
X9300Y210200D01*
X2700Y142969D02*
Y203600D01*
Y142969D02*
X8321Y137348D01*
X14302D01*
X19204Y142250D01*
Y195704D01*
X49800Y187200D02*
X67500D01*
X43300Y180700D02*
X49800Y187200D01*
X43300Y157487D02*
Y180700D01*
Y157487D02*
X66929Y133858D01*
X128700Y224900D02*
X215700D01*
X91000Y187200D02*
X128700Y224900D01*
X67500Y187200D02*
X91000D01*
D128*
X90551Y173228D02*
X110236D01*
X83400Y166077D02*
X90551Y173228D01*
X83400Y115500D02*
Y166077D01*
X183500Y21100D02*
X184915Y19685D01*
X83300Y88700D02*
Y99600D01*
Y88700D02*
X87100Y84900D01*
X206357D01*
X209200Y87743D01*
Y103295D01*
X215905Y110000D01*
X226000D01*
X231400Y104600D01*
Y87100D02*
Y104600D01*
X221200Y76900D02*
X231400Y87100D01*
X136500Y76900D02*
X221200D01*
X131050Y71450D02*
X136500Y76900D01*
X90350Y71450D02*
X131050D01*
X86614Y67714D02*
X90350Y71450D01*
X222300Y10200D02*
X240200D01*
X249350Y19350D01*
Y30050D01*
X246100Y33300D02*
X249350Y30050D01*
X223900Y33300D02*
X246100D01*
X219500Y28900D02*
X223900Y33300D01*
X219500Y23200D02*
Y28900D01*
X215985Y19685D02*
X219500Y23200D01*
X184915Y19685D02*
X215985D01*
X97400Y21100D02*
X183500D01*
X86614Y31886D02*
X97400Y21100D01*
X86614Y31886D02*
Y67714D01*
X83400Y98700D02*
Y115500D01*
X66929Y133858D02*
X66929Y16071D01*
X72800Y10200D01*
X19204Y195704D02*
X69300Y245800D01*
X259700D01*
X265800Y239700D01*
Y225900D02*
Y239700D01*
Y225900D02*
X268800Y222900D01*
X273100D01*
X275800Y225600D01*
Y240300D01*
X260900Y255200D02*
X275800Y240300D01*
X54300Y255200D02*
X260900D01*
X9300Y210200D02*
X54300Y255200D01*
X110236Y173228D02*
X144208Y207200D01*
X72800Y10200D02*
X222300D01*
X215700Y224900D02*
X220500Y220100D01*
Y212300D02*
Y220100D01*
X215400Y207200D02*
X220500Y212300D01*
X144208Y207200D02*
X215400D01*
D129*
X268000Y166800D02*
D03*
X248000D02*
D03*
X268000Y146800D02*
D03*
X248000D02*
D03*
M02*
