M48
;Layer_Color=9474304
;FILE_FORMAT=2:5
INCH,LZ
;TYPE=PLATED
T1F00S00C0.01181
T2F00S00C0.03150
T3F00S00C0.03346
T4F00S00C0.03937
T5F00S00C0.05315
T6F00S00C0.05906
T7F00S00C0.06693
%
T01
X0010236Y0010236
X001811
X0025984
X0033858
X0041732
X0049606
X0053543Y001811
X0049606Y0025984
X0053543Y0033858
X0025984Y0025984
X001811
X0010236
X0014173Y0033858
X0010236Y0041732
X0014173Y0049606
Y001811
X0022047
X0029921
X005748Y0025984
X0065354
X0069291Y001811
X0073228Y0010236
X0081103
X0088977
X0096851
X0104725
X0112599
X0120473
X01209Y00163
X0116535Y001811
X0120473Y0025984
X0112599
X0104725
X0096851
X0088977
X008504Y001811
X0077165Y0033858
X0061417
X0069291Y0049606
X0088977Y0041732
X0096851
X0112599
X0116535Y0033858
X012441
X0132284
X0140748Y0027559
Y0023622
Y0007874
X0145669
X0149606
X0153543
X015748
X0161417
X0165354
X0169291
X0173228
Y0011811
X0177165Y0007874
X0181102
X0185039
X0188976
X0192913
X019685
X0201772
X020315Y001811
X0201772Y0023622
Y0027559
Y0031496
Y0035433
X0207087Y0025984
X0183465
X0187402Y0033858
X0188976Y0043307
X0185039
X0187402Y0049606
X020315
X0211024
X0173228Y0051181
Y0055118
Y0047244
Y0043307
X0165354
X0161417
X015748
X0153543
X0149606
X0145669
X0140748
Y0047244
Y0051181
Y0055118
X0155906Y0049606
X016378
X0155906Y0033858
X0158098Y0020698
X0155906Y001811
X016378
X0173228Y0019685
X0179528Y001811
X0187402
X0167717Y0025984
X0173228Y0031496
X0136221Y0010236
X0128347
X0108661Y0033858
Y0049606
X0065354Y0010236
X005748
X0218898Y001811
X0226378Y0027559
X0232283
X0238189
X0244094
X0254331Y0025984
X0262205
X0270079
X0266142Y001811
X0258268
X0250394Y0033858
Y0049606
X0258268
X0259842Y0055118
X0255906
X0267717
X02711Y00551
X0266142Y0049606
X0270079Y0041732
X02374Y00428
X023355Y004195
X0232283Y0035433
X0228346
X022441Y0034449
X0220472
X0216535Y0035433
X0212598
X0234646Y0049606
X0232331Y0052814
X02422Y00487
X0244094Y0059055
X0240158
X0236221
X0232283
X0228346
X022441
X0220472
X0216535
X0220472Y0070866
X022441Y0072835
X0228346
X0232283
X0236221Y0074803
X0240158
X0244094
X0248031
X0251969
Y007874
X0255906
X0259842
X0263779
X0267717
X02711Y0078722
Y0074785
Y0070848
Y0066911
Y0062974
Y0059037
X02637Y005945
X0255906Y0059055
X0251969
X0248031
X0266142Y0065354
X0270079Y0088977
X0262205
X0254331
X0246457
X0238583
X0230709
X02238Y00899
X02162
X02166Y01039
X02242
X0230709Y0104725
X0238583
X0246457
X0254331
X0262205
X0270079
X0266142Y0112599
X0258268
X0250394
X024252
X0246457Y0120473
X0254331
X0262205
X0270079
X0266142Y0128347
X0258268
X0250394
X024252
X0246457Y0136221
X0254331
X0262205
X0270079
X0258268Y0144095
X0262205Y0151969
X0254331
X0250394Y0159843
X024252
X0238583Y0167717
X0230709
X0222835
X0214961
X0218898Y0159843
X0226772
X0222835Y0151969
X0215Y01418
Y01368
X0218898Y0128347
X0226772Y0112599
X024252Y0096851
X0250394
X0258268
X0266142
X024252Y0081103
X0234646
X0266142Y0159843
X026373Y01916
X0264Y020695
X0258268Y0207087
X0246457Y0199213
X0234646Y0191339
X023157Y02096
X0211024Y0191339
X020315
X01883Y01814
X0179528Y0175591
X0171654
X016121Y017369
X0159843Y0167717
X0164448Y0151732
X0151969Y0151969
X01531Y01469
X0148032Y0144095
X0144095Y0136221
X01452Y01319
X0144095Y0120473
Y0104725
X0128347
X0112599
X0116535Y0112599
X0098Y0112
X0096851Y0120473
Y0136221
X00952Y01467
X0096851Y0151969
Y0167717
X0104725
X0112599
X0108661Y0159843
X0108705Y0177165
X0102799
X0102362Y0185039
X0108268
Y0192913
X0102362
X0092914Y0191339
X00885Y01914
X0077165Y0191339
X0073228Y0183465
X0065354
X005748
X0060037Y01594
Y0153495
X0063974
X005748Y0136221
Y0120473
X0065354
X0069291Y0128347
X0081103Y0136221
Y0104725
X0073228
X0077165Y0096851
X0069291
X0073228Y0088977
X0081103
X0073228Y0073228
X0065354
X0061417Y0081103
X005748Y0088977
X0061417Y0065354
X00691Y00645
X0070055Y0059055
X005748Y005748
X0120473
X0136221
X0140748Y0059055
Y0062992
Y0066929
Y0070866
Y0074803
X0145669
X0149606
X0153543
X015748
X0161417
X0165354
X0173228
X0177165
X0173228Y0070866
Y0066929
Y0062992
Y0059055
X0159843Y005748
X016378Y0065354
X0155906
X0132284
X0136221Y0073228
X0128347
X0120473
X012441Y0081103
X0116535
X01113Y00781
X01058Y0078
X0100787Y0081103
X0098Y0102
X01531Y0096732
X0151969Y0088977
X01531Y01122
X0187402Y0112599
X0195276
X020315
X0207087Y0120473
X0199213
X020315Y0128347
X0211024
Y0144095
X020315
X0195276
X0199213Y0151969
X0207087
X0211024Y0159843
X020315
X0195276
X0187402
X0191339Y0151969
X0184Y01417
X0183465Y0136221
X0187402Y0128347
X0195276
X019202Y01318
X0199213Y0136221
Y0167717
X0207087
X0183465Y0199213
X0175591
X0179528Y0207087
X0172Y02099
X016378Y0207087
X0155906
X0148032
X0136221Y0199213
Y0183465
X01415Y01815
X0136221Y0167717
X01395Y0157
X0128347Y0151969
X0120473
X012441Y0144095
X0116535
X0167717Y0136221
X0183465Y0120473
X0187402Y0096851
X0195276
X0199213Y0088977
X0207087
X0211024Y0096851
X0207087Y0104725
Y0073228
X0201772Y0074803
X019685
X0192913
X0188976
X0185039
X0187402Y0065354
X0201772Y0066929
X0204724
X0208661
X0191339Y0088977
X0092914Y0207087
X0077165
X0069291
X0061417
X0053543
X0045669
X0018504Y02035
X0010236Y0199213
X0012387Y01913
X0022047Y0191339
X001811Y0183465
X0010236
X0022047Y0175591
X0025984Y0167717
X0033858
X0037795Y0159843
X0041732Y0151969
X0049606
X00561Y0153495
Y01594
X0052163
Y0165305
X0048226
X00561
X0033858Y0151969
Y0136221
X0037795Y0128347
X0045669
X0053543
X0049606Y0120473
X0041732
X0033858
X0025984
X0029921Y0128347
X0022047
X001811Y0136221
X0014252Y0145621
X0007874Y0145669
Y0153543
X0014252Y0153495
Y0161369
X0007874Y0161417
X0022047Y0112599
X0029921
X0037795
X0045669
X0053543
X0047244Y0102362
Y0094488
X003937
Y0102362
X0031496
Y0094488
Y0086614
X003937
X0037795Y0081103
X0045669
X0047244Y0086614
X0053543Y0065354
X0049606Y005748
X0025984
X001811
X0010236
X0022047Y0065354
X0029921
X0022047Y0096851
X0014173
X001811Y0214961
X0025984
X0033858
X0041732
X0045669Y0222835
X0053543
X0049606Y0230709
X0041732
X0033858
X0025984
X001811
X0010236
X0014173Y0238583
X0022047
X0029921
X0037795
X0045669
X0053543
X0049606Y0246457
X0041732
X0033858
X0025984
X001811
X0010236
X0014173Y0254331
X0022047
X0029921
X0037795
X0045669
X0053543
X0049606Y0262205
X0041732
X0033858
X0025984
X001811
X0010236
X0014173Y0270079
X0022047
X0029921
X0037795
Y0222835
X0029921
X0022047
X0014173
X0010236Y0214961
X005748
X0065354
X0069291Y0222835
X0077165
X0081103Y0230709
X0073228
X0065354
X005748
X0061417Y0238583
X0069291
X0077165
X008504
X0088977Y0246457
X0096851
X0092914Y0254331
X008504
X0077165
X0069291
X0061417
X0065354Y0262205
X0073228
X0081103
X0088977
X0096851
X0104725
X0112599
X0120473
X0128347
X0136221
X0144095
X0151969
X0159843
X0167717
X0175591
X0183465
X0191339
X0199213
X0207087
X0211024Y0270079
X020315
Y0254331
X0211024
X0207087Y0246457
X0199213
X0191339
X0183465
X0175591
X0167717
X0159843
X0151969
X0144095
X0136221
X0128347
X0120473
X012441Y0254331
X0116535
Y0270079
X012441
X0132284
X0148032
X0155906
Y0254331
X016378
X0171654
X0179528
X0187402
X0195276
X020315Y0238583
X0207087Y0230709
X0199213
X020315Y0222835
X0195276
X019434Y021537
X02019Y021543
X020922Y021537
X0183465Y0214961
X0167717
X0159843
X0151969
X0148032Y0222835
X016378
X0167717Y0230709
X0136221
X0132284Y0238583
X0140158Y0254331
X0148032
X0179528Y0270079
X0187402
X0092914
X008504
X0077165
X0069291
X0061417
X005748Y0262205
Y0246457
X0065354
X0073228
X0081103
X0061417Y0222835
X0136221Y0214961
X021509Y021543
X02366Y0227
X02442Y02257
X024252Y0222835
X02516Y02257
X0258268Y0222835
X02582Y02191
Y02153
X0262205Y0214961
X0270079
X0266142Y0222835
X02706Y0229683
X0266142Y0238583
X0270079Y0246457
X0266142Y0254331
X0270079Y0262205
X0262205
X0250394Y0270079
X024252
X0230709Y0262205
X0222835
X0214961
X0218898Y0270079
X0238583Y0246457
X0247889Y0246213
T02
X00627Y00915
Y01015
Y01115
X00462Y0134963
Y0142837
X00243
Y0134963
T03
X023691Y0257677
X0256004
T04
X0132806Y0226739
Y0256661
T05
X0232283Y0269094
X026063
T06
X0258Y01568
T07
X0248Y01468
Y01668
X0268
Y01468
M30
